<svg xmlns="http://www.w3.org/2000/svg" xmlns:xlink="http://www.w3.org/1999/xlink" width="194.4" height="67.4" viewBox="0 0 194.4 67.4">
  <defs>
    <linearGradient id="linear-gradient" x1="1.053" y1="-23.334" x2="-0.25" y2="-24.005" gradientUnits="objectBoundingBox">
      <stop offset="0" stop-color="#00a0ff"/>
      <stop offset="0.01" stop-color="#00a1ff"/>
      <stop offset="0.26" stop-color="#00beff"/>
      <stop offset="0.51" stop-color="#00d2ff"/>
      <stop offset="0.76" stop-color="#00dfff"/>
      <stop offset="1" stop-color="#00e3ff"/>
    </linearGradient>
    <linearGradient id="linear-gradient-2" x1="1.246" y1="-70.666" x2="-1.124" y2="-70.666" gradientUnits="objectBoundingBox">
      <stop offset="0" stop-color="#ffe000"/>
      <stop offset="0.41" stop-color="#ffbd00"/>
      <stop offset="0.78" stop-color="orange"/>
      <stop offset="1" stop-color="#ff9c00"/>
    </linearGradient>
    <linearGradient id="linear-gradient-3" x1="0.969" y1="-47.586" x2="-0.396" y2="-49.36" gradientUnits="objectBoundingBox">
      <stop offset="0" stop-color="#ff3a44"/>
      <stop offset="1" stop-color="#c31162"/>
    </linearGradient>
    <linearGradient id="linear-gradient-4" x1="-0.079" y1="-44.737" x2="0.528" y2="-45.527" gradientUnits="objectBoundingBox">
      <stop offset="0" stop-color="#32a071"/>
      <stop offset="0.07" stop-color="#2da771"/>
      <stop offset="0.48" stop-color="#15cf74"/>
      <stop offset="0.8" stop-color="#06e775"/>
      <stop offset="1" stop-color="#00f076"/>
    </linearGradient>
  </defs>
  <g id="Android_play_store" data-name="Android play store" transform="translate(-0.8 -0.8)">
    <path id="Path_36120" data-name="Path 36120" d="M8.5.8h179a7.7,7.7,0,0,1,7.7,7.7v52a7.7,7.7,0,0,1-7.7,7.7H8.5A7.7,7.7,0,0,1,.8,60.5V8.5A7.64,7.64,0,0,1,8.5.8Z"/>
    <g id="Group_5391" data-name="Group 5391">
      <path id="Path_36121" data-name="Path 36121" d="M69.4,22.2a3.541,3.541,0,0,1-1,2.6,3.361,3.361,0,0,1-2.8,1.1,4.058,4.058,0,0,1-4-4.2,3.631,3.631,0,0,1,1.2-2.8,3.784,3.784,0,0,1,2.8-1.2,4.529,4.529,0,0,1,1.6.3,2.55,2.55,0,0,1,1.2.9l-.7.8a2.2,2.2,0,0,0-2.1-.9,3.294,3.294,0,0,0-3.1,3.3,2.878,2.878,0,0,0,.9,2.1,3.018,3.018,0,0,0,4.3,0,2.33,2.33,0,0,0,.7-1.5H65.6v-.9h3.7C69.4,21.9,69.4,22,69.4,22.2Z" fill="#fff"/>
      <path id="Path_36122" data-name="Path 36122" d="M75.4,19H71.9v2.5h3.2v1H71.9V25h3.5v1H70.8V18.2h4.5V19Z" fill="#fff"/>
      <path id="Path_36123" data-name="Path 36123" d="M79.6,25.8h-1V19H76.4V18h5.4v1H79.6v6.8Z" fill="#fff"/>
      <path id="Path_36124" data-name="Path 36124" d="M85.6,25.8V18h1v7.8Z" fill="#fff"/>
      <path id="Path_36125" data-name="Path 36125" d="M91,25.8H90V19H87.8V18h5.4v1H91v6.8Z" fill="#fff"/>
      <path id="Path_36126" data-name="Path 36126" d="M103.3,24.8a4.172,4.172,0,0,1-5.7,0,4.3,4.3,0,0,1,0-5.8,4.172,4.172,0,0,1,5.7,0h0A4.3,4.3,0,0,1,103.3,24.8Zm-5-.6a2.9,2.9,0,0,0,4.2,0,3.262,3.262,0,0,0,0-4.5,2.9,2.9,0,0,0-4.2,0,3.481,3.481,0,0,0,0,4.5Z" fill="#fff"/>
      <path id="Path_36127" data-name="Path 36127" d="M105.8,25.8V18H107l3.7,6h0V18h1v7.8h-1.1l-3.9-6.3h0v6.3Z" fill="#fff"/>
      <path id="Path_36128" data-name="Path 36128" d="M96.2,37.1a5.5,5.5,0,1,0,5.5,5.5A5.616,5.616,0,0,0,96.2,37.1Zm0,8.8a3.429,3.429,0,0,1-3.6-3.1,3.482,3.482,0,0,1,3.1-3.6,3.429,3.429,0,0,1,3.6,3.1v.3a3.224,3.224,0,0,1-3.1,3.3Zm-12-8.8a5.5,5.5,0,1,0,5.5,5.5A5.616,5.616,0,0,0,84.2,37.1Zm0,8.8a3.429,3.429,0,0,1-3.6-3.1,3.482,3.482,0,0,1,3.1-3.6,3.429,3.429,0,0,1,3.6,3.1v.3a3.294,3.294,0,0,1-3.1,3.3ZM69.8,38.8v2.3h5.6a5.07,5.07,0,0,1-1.3,3,5.727,5.727,0,0,1-4.3,1.7,6.207,6.207,0,0,1,0-12.4A5.973,5.973,0,0,1,74,35l1.6-1.6a7.916,7.916,0,0,0-5.8-2.3,8.5,8.5,0,0,0,0,17h0a7.7,7.7,0,0,0,5.9-2.4,7.519,7.519,0,0,0,2-5.5,6.6,6.6,0,0,0-.1-1.4Zm58.5,1.8a5.047,5.047,0,0,0-4.7-3.5,5.143,5.143,0,0,0-5.1,5.2v.2a5.362,5.362,0,0,0,5.2,5.5h.2a5.465,5.465,0,0,0,4.6-2.4l-1.9-1.2a3.04,3.04,0,0,1-5.3-.1l7.4-3Zm-7.4,1.8a3.083,3.083,0,0,1,2.8-3.2h0a2.09,2.09,0,0,1,2.1,1.1Zm-6,5.4h2.4V31.6h-2.4Zm-4-9.4h0a4.41,4.41,0,0,0-3-1.2,5.5,5.5,0,0,0,0,11,4.234,4.234,0,0,0,3-1.2h.1v.8c0,2.1-1.1,3.3-3,3.3a2.882,2.882,0,0,1-2.7-2l-2.1.9a5.224,5.224,0,0,0,4.9,3.3c2.8,0,5.2-1.6,5.2-5.7V37.8H111l-.1.6Zm-2.7,7.7a3.314,3.314,0,0,1,0-6.6,3.138,3.138,0,0,1,3.1,3.2v.1a3.1,3.1,0,0,1-2.8,3.3q-.3-.3-.3,0Zm31.5-14.5h-5.8V47.8h2.4V41.7h3.4a5.1,5.1,0,0,0,5.5-4.5,4.974,4.974,0,0,0-4.5-5.5A3.4,3.4,0,0,0,139.7,31.6Zm.1,7.8h-3.4V33.8h3.4a2.8,2.8,0,1,1,0,5.6Zm14.9-2.3a4.651,4.651,0,0,0-4.3,2.5l2.2.9a2.4,2.4,0,0,1,2.2-1.2,2.273,2.273,0,0,1,2.5,2.1h0v.1a5.528,5.528,0,0,0-2.5-.7c-2.3,0-4.7,1.3-4.7,3.6a3.694,3.694,0,0,0,3.9,3.5h.1a3.5,3.5,0,0,0,3.1-1.5h.1v1.2h2.3v-6C159.6,38.7,157.4,37.1,154.7,37.1Zm-.4,8.8c-.8,0-1.9-.4-1.9-1.4,0-1.2,1.4-1.7,2.5-1.7a5.45,5.45,0,0,1,2.2.5,2.576,2.576,0,0,1-2.8,2.6ZM168,37.4l-2.7,7h-.1l-2.8-7h-2.6l4.3,9.8-2.4,5.5h2.5l6.7-15.2-2.9-.1ZM146.4,47.8h2.4V31.6h-2.4Z" fill="#fff"/>
    </g>
    <g id="Group_5392" data-name="Group 5392">
      <path id="Path_36129" data-name="Path 36129" d="M23,20.1a2.155,2.155,0,0,0-.5,1.7V47.9a3.371,3.371,0,0,0,.5,1.7l.1.1L37.7,35v-.3L23,20.1Z" fill="url(#linear-gradient)"/>
      <path id="Path_36130" data-name="Path 36130" d="M42.6,39.9,37.7,35v-.3l4.9-4.9.1.1,5.8,3.3c1.7.9,1.7,2.5,0,3.4l-5.8,3.2Z" fill="url(#linear-gradient-2)"/>
      <path id="Path_36131" data-name="Path 36131" d="M42.7,39.9l-5-5L23,49.6a2.1,2.1,0,0,0,2.5.1l17.2-9.8" fill="url(#linear-gradient-3)"/>
      <path id="Path_36132" data-name="Path 36132" d="M42.7,29.9,25.4,20a1.965,1.965,0,0,0-2.5.1L37.6,34.8Z" fill="url(#linear-gradient-4)"/>
      <path id="Path_36133" data-name="Path 36133" d="M42.6,39.8,25.4,49.6a2.107,2.107,0,0,1-2.4,0h0l.1.1h0a2.107,2.107,0,0,0,2.4,0l17.3-9.8Z" opacity="0.2"/>
      <path id="Path_36134" data-name="Path 36134" d="M23,49.4a2.155,2.155,0,0,1-.5-1.7v.2a3.371,3.371,0,0,0,.5,1.7v-.2Z" opacity="0.12"/>
      <path id="Path_36135" data-name="Path 36135" d="M48.5,36.4l-5.9,3.3.1.1,5.8-3.4a1.712,1.712,0,0,0,1.2-1.6h0A2.2,2.2,0,0,1,48.5,36.4Z" opacity="0.12"/>
      <path id="Path_36136" data-name="Path 36136" d="M25.5,20.2l23,13.1a2.235,2.235,0,0,1,1.2,1.5h0a2,2,0,0,0-1.2-1.7L25.5,20c-1.6-.9-3-.2-3,1.7v.1C22.5,20.1,23.8,19.3,25.5,20.2Z" fill="#fff" opacity="0.25"/>
    </g>
  </g>
</svg>
