<svg xmlns="http://www.w3.org/2000/svg" width="361.476" height="370.579" viewBox="0 0 361.476 370.579">
  <g id="Group_4169" data-name="Group 4169" transform="translate(-4207.929 -762.176)">
    <g id="Group_4152" data-name="Group 4152" transform="translate(4256.006 887.496)">
      <path id="Path_35675" data-name="Path 35675" d="M373.469,318.962H172.844a4.522,4.522,0,0,1-4.543-4.86l8.263-131.112a5.283,5.283,0,0,1,5.167-4.86H382.344a4.522,4.522,0,0,1,4.543,4.86L378.625,314.1A5.283,5.283,0,0,1,373.469,318.962Z" transform="translate(-127.554 -178.13)" fill="#263238"/>
      <path id="Path_35676" data-name="Path 35676" d="M373.469,318.962H172.844a4.522,4.522,0,0,1-4.543-4.86l8.263-131.112a5.283,5.283,0,0,1,5.167-4.86H382.344a4.522,4.522,0,0,1,4.543,4.86L378.625,314.1A5.283,5.283,0,0,1,373.469,318.962Z" transform="translate(-127.554 -178.13)" opacity="0.6"/>
      <path id="Path_35677" data-name="Path 35677" d="M372.049,318.962H171.435a4.522,4.522,0,0,1-4.554-4.86l8.263-131.112a5.283,5.283,0,0,1,5.167-4.86H380.924a4.512,4.512,0,0,1,4.543,4.86L377.2,314.1A5.283,5.283,0,0,1,372.049,318.962Z" transform="translate(-127.634 -178.13)" fill="#263238"/>
      <path id="Path_35678" data-name="Path 35678" d="M373.9,313H135.182a5.822,5.822,0,0,0-5.283,3.265,1.669,1.669,0,0,0,1.532,2.388H377.594a1.669,1.669,0,0,0,1.532-2.388A5.8,5.8,0,0,0,373.9,313Z" transform="translate(-129.736 -170.498)" fill="#263238"/>
      <path id="Path_35679" data-name="Path 35679" d="M362.927,313H328.979a5.79,5.79,0,0,0-5.23,3.265,1.669,1.669,0,0,0,1.521,2.388h41.355a1.669,1.669,0,0,0,1.532-2.388A5.8,5.8,0,0,0,362.927,313Z" transform="translate(-118.767 -170.498)" opacity="0.6"/>
      <path id="Path_35680" data-name="Path 35680" d="M341.41,316.983h-8.77a.771.771,0,0,1-.761-.771h0a.771.771,0,0,1,.761-.771h8.77a.771.771,0,0,1,.771.771h0A.771.771,0,0,1,341.41,316.983Z" transform="translate(-118.297 -170.36)" fill="#00a2f5"/>
      <rect id="Rectangle_263" data-name="Rectangle 263" width="7.005" height="1.543" rx="0.6" transform="translate(225.818 145.08)" fill="#00a2f5"/>
      <path id="Path_35682" data-name="Path 35682" d="M171.16,308.955l7.671-121.645a2.039,2.039,0,0,1,2.007-1.881h198.1a1.743,1.743,0,0,1,1.765,1.881l-7.66,121.645a2.05,2.05,0,0,1-2.018,1.881H172.935a1.765,1.765,0,0,1-1.775-1.881Z" transform="translate(-127.392 -177.717)" fill="#fff"/>
      <path id="Path_35683" data-name="Path 35683" d="M284.056,181.88,218.072,307.3H169.4a1.754,1.754,0,0,1-1.775-1.891l7.671-121.634a2.05,2.05,0,0,1,2.007-1.891Z" transform="translate(-127.593 -177.918)" fill="#00a2f5" opacity="0.1"/>
      <path id="Path_35684" data-name="Path 35684" d="M336.868,181.88,270.884,307.3H255.5L321.484,181.88Z" transform="translate(-122.619 -177.918)" fill="#00a2f5" opacity="0.1"/>
      <path id="Path_35685" data-name="Path 35685" d="M370.476,183.771l-7.671,121.634A2.039,2.039,0,0,1,360.8,307.3H285.78L351.764,181.88h16.905a1.765,1.765,0,0,1,1.807,1.891Z" transform="translate(-120.906 -177.918)" fill="#00a2f5" opacity="0.1"/>
    </g>
    <g id="freepik--Shadow--inject-36" transform="translate(4207.929 1108.833)">
      <ellipse id="freepik--path--inject-36" cx="180.738" cy="11.961" rx="180.738" ry="11.961" fill="#f5f5f5"/>
    </g>
    <g id="freepik--Table--inject-36" transform="translate(4253.626 1035.651)">
      <rect id="Rectangle_255" data-name="Rectangle 255" width="270.073" height="30.575" fill="#00a2f5"/>
      <rect id="Rectangle_256" data-name="Rectangle 256" width="57.933" height="30.575" transform="translate(212.149)" opacity="0.3"/>
      <rect id="Rectangle_257" data-name="Rectangle 257" width="29.819" height="54.568" transform="translate(0 30.575)" fill="#00a2f5"/>
      <path id="Path_35671" data-name="Path 35671" d="M94.72,353.49v3.052l21.114,6.374v45.141h8.7V353.49Z" transform="translate(-94.711 -322.915)" opacity="0.3"/>
      <rect id="Rectangle_258" data-name="Rectangle 258" width="29.819" height="54.568" transform="translate(240.263 30.575)" fill="#00a2f5"/>
      <rect id="Rectangle_259" data-name="Rectangle 259" width="29.819" height="54.568" transform="translate(240.263 30.575)" opacity="0.2"/>
      <path id="Path_35672" data-name="Path 35672" d="M371,353.49v3.052l21.123,6.374v45.141h8.7V353.49Z" transform="translate(-130.737 -322.915)" opacity="0.3"/>
      <rect id="Rectangle_260" data-name="Rectangle 260" width="29.819" height="54.568" transform="translate(182.33 30.575)" fill="#00a2f5"/>
      <path id="Path_35673" data-name="Path 35673" d="M304.38,353.49v3.052l21.123,6.374v45.141h8.7V353.49Z" transform="translate(-122.05 -322.915)" opacity="0.3"/>
      <rect id="Rectangle_261" data-name="Rectangle 261" width="29.819" height="54.568" transform="translate(57.933 30.575)" fill="#00a2f5"/>
      <rect id="Rectangle_262" data-name="Rectangle 262" width="29.819" height="54.568" transform="translate(57.933 30.575)" opacity="0.2"/>
      <path id="Path_35674" data-name="Path 35674" d="M161.33,353.49v3.052l21.123,6.374v45.141h8.7V353.49Z" transform="translate(-103.397 -322.915)" opacity="0.3"/>
    </g>
    <g id="freepik--Chat--inject-36" transform="translate(4240.372 762.176)">
      <path id="Path_35725" data-name="Path 35725" d="M115.849,148.09h85.584a11.813,11.813,0,0,1,11.9,12.679L210.942,199.5a13.736,13.736,0,0,1-13.461,12.679H187.57l4.047,13.3-19.357-13.3H111.929a11.813,11.813,0,0,1-11.9-12.679l2.367-38.734a13.736,13.736,0,0,1,13.45-12.679Z" transform="translate(-100 -78.461)" fill="#00a2f5"/>
      <path id="Path_35726" data-name="Path 35726" d="M192.574,167.547H120.2a2.219,2.219,0,0,1-2.2-2.42h0a2.578,2.578,0,0,1,2.525-2.388h72.387a2.229,2.229,0,0,1,2.219,2.388h0A2.568,2.568,0,0,1,192.574,167.547Z" transform="translate(-98.982 -77.632)" fill="#fff"/>
      <path id="Path_35727" data-name="Path 35727" d="M149.747,180.936H119.38a2.229,2.229,0,0,1-2.24-2.388h0a2.578,2.578,0,0,1,2.536-2.388h30.4a2.229,2.229,0,0,1,2.251,2.388h0A2.589,2.589,0,0,1,149.747,180.936Z" transform="translate(-99.03 -76.872)" fill="#fff"/>
      <path id="Path_35728" data-name="Path 35728" d="M175.817,194.326H118.56a2.229,2.229,0,0,1-2.24-2.388h0a2.568,2.568,0,0,1,2.536-2.388h57.256a2.219,2.219,0,0,1,2.24,2.388h0A2.578,2.578,0,0,1,175.817,194.326Z" transform="translate(-99.077 -76.114)" fill="#fff"/>
      <path id="Path_35729" data-name="Path 35729" d="M169.871,180.936H157.9a2.229,2.229,0,0,1-2.24-2.388h0a2.589,2.589,0,0,1,2.536-2.388h11.961a2.219,2.219,0,0,1,2.24,2.388h0A2.578,2.578,0,0,1,169.871,180.936Z" transform="translate(-96.85 -76.872)" fill="#fff"/>
      <path id="Path_35730" data-name="Path 35730" d="M230.948,82.19H184.289a10.661,10.661,0,0,0-10.471,9.858L172,122.2a9.2,9.2,0,0,0,9.266,9.858h7.639l-4.417,10.355,16.335-10.355h27.07a10.661,10.661,0,0,0,10.471-9.858l1.849-30.155a9.2,9.2,0,0,0-9.266-9.858Z" transform="translate(-95.927 -82.19)" fill="#00a2f5"/>
      <g id="Group_4093" data-name="Group 4093" transform="translate(76.051 0)" opacity="0.5">
        <path id="Path_35731" data-name="Path 35731" d="M230.948,82.19H184.289a10.661,10.661,0,0,0-10.471,9.858L172,122.2a9.2,9.2,0,0,0,9.266,9.858h7.639l-4.417,10.355,16.335-10.355h27.07a10.661,10.661,0,0,0,10.471-9.858l1.849-30.155a9.2,9.2,0,0,0-9.266-9.858Z" transform="translate(-171.978 -82.19)" fill="#fafafa"/>
      </g>
      <path id="Path_35732" data-name="Path 35732" d="M207.161,111.6a3.054,3.054,0,0,1-2.958,2.335h-2.758c0-.782.063-1.257.074-1.426a9.911,9.911,0,0,1,1.141-4.364,14.592,14.592,0,0,1,3.74-3.846,28.725,28.725,0,0,0,3.318-2.811,3.973,3.973,0,0,0,.93-2.3,3.677,3.677,0,0,0-1.215-3.011,5.22,5.22,0,0,0-3.7-1.247,6,6,0,0,0-3.909,1.31,6.223,6.223,0,0,0-1.585,1.976,3.17,3.17,0,0,1-3.064,1.712h0a2.684,2.684,0,0,1-1.944-4.089,10.745,10.745,0,0,1,2.42-2.811,12.161,12.161,0,0,1,8.1-2.673c3.455,0,6.139.9,8.072,2.7a7.724,7.724,0,0,1,2.673,6.34,7.4,7.4,0,0,1-1.352,3.761,27.154,27.154,0,0,1-5.1,4.839,9.878,9.878,0,0,0-2.515,2.546,4.025,4.025,0,0,0-.37,1.057Zm-6.033,7.586v-.338a3.054,3.054,0,0,1,3.011-2.832h.38a2.641,2.641,0,0,1,2.673,2.832v.338a3.064,3.064,0,0,1-3.011,2.842h-.338a2.641,2.641,0,0,1-2.715-2.842Z" transform="translate(-94.634 -81.728)" fill="#fff"/>
    </g>
    <g id="Group_4168" data-name="Group 4168" transform="translate(4306.965 861.825)">
      <path id="Path_35681" data-name="Path 35681" d="M233.748,316.832h-7.9a.7.7,0,0,1-.7-.7h0a.7.7,0,0,1,.7-.7h7.9a.7.7,0,0,1,.7.7h0A.7.7,0,0,1,233.748,316.832Z" transform="translate(-161.855 -145.12)" fill="#fff" opacity="0.7"/>
      <path id="Path_35686" data-name="Path 35686" d="M275.5,181.937a1.392,1.392,0,0,1-1.363,1.287,1.192,1.192,0,0,1-1.2-1.287,1.382,1.382,0,0,1,1.363-1.287,1.191,1.191,0,0,1,1.2,1.287Z" transform="translate(-164.09 -138.818)" fill="#fff" opacity="0.4"/>
      <path id="Path_35687" data-name="Path 35687" d="M243.519,154.084c-5.214,5.967-8.226,24.26-4.366,33.259s-40.932,18.007-3.975,32.629S301.7,217.636,291,202.489s1.153-40.37-11.229-46.709C268.58,150,253.967,142.12,243.519,154.084Z" transform="translate(-161.636 -137.283)" fill="#263238"/>
      <path id="Path_35688" data-name="Path 35688" d="M230.421,231.474c-1.954,6.673-4.032,13.345-6.187,20.018s-4.394,13.269-6.768,19.894l-.906,2.5-.458,1.249-.143.372-.229.562c-.143.362-.362.753-.553,1.125a10.38,10.38,0,0,1-4.013,4.061,10.866,10.866,0,0,1-4.995,1.315,18.434,18.434,0,0,1-7.14-1.4,40.181,40.181,0,0,1-5.367-2.659,85.382,85.382,0,0,1-17.044-13.784l4.108-4.842c1.382.886,2.86,1.83,4.29,2.717s2.926,1.744,4.375,2.593a86.887,86.887,0,0,0,8.779,4.49,29.779,29.779,0,0,0,4.232,1.5,7.712,7.712,0,0,0,3.108.362c.267,0,.219-.153,0-.067s-.458.334-.467.305,0,0,0-.057a.124.124,0,0,0,0-.057l.076-.238.362-1.23.734-2.478,5.824-20.018q2.974-10.009,6.12-20.018Z" transform="translate(-159.586 -141.017)" fill="#b65b52"/>
      <path id="Path_35689" data-name="Path 35689" d="M180.077,261.1,169,257l4.394,11.706s7.817,1.125,10.848-2.984l-2.469-3.308A3.813,3.813,0,0,0,180.077,261.1Z" transform="translate(-159.229 -142.388)" fill="#b55b52"/>
      <path id="Path_35690" data-name="Path 35690" d="M158.75,260.4l4.213,9.6,10-1.316-4.4-11.706Z" transform="translate(-158.75 -142.387)" fill="#b55b52"/>
      <path id="Path_35691" data-name="Path 35691" d="M224.159,213.509c-5.071,1.287-8.579,22.134-8.579,22.134l13.965,9.532s13.345-21.028,9.485-26.6C234.931,212.737,231.547,211.631,224.159,213.509Z" transform="translate(-161.408 -140.315)" fill="#00a2f5"/>
      <path id="Path_35692" data-name="Path 35692" d="M224.159,213.509c-5.071,1.287-8.579,22.134-8.579,22.134l13.965,9.532s13.345-21.028,9.485-26.6C234.931,212.737,231.547,211.631,224.159,213.509Z" transform="translate(-161.408 -140.315)" fill="#fff" opacity="0.5"/>
      <path id="Path_35693" data-name="Path 35693" d="M223.969,221.5l10.838,2.507,1.039,10.61a122.368,122.368,0,0,1-6.072,10.934l-8.474-5.719C221.672,234.922,222.587,224.836,223.969,221.5Z" transform="translate(-161.675 -140.728)" opacity="0.2"/>
      <path id="Path_35694" data-name="Path 35694" d="M224.508,213.375s-5.862,2.059,5.872,74.181h49.912c-.839-20.314-.858-32.849,8.846-74.534a146.8,146.8,0,0,0-21.191-2.793c-8.4-.41-15.252-.677-22.668,0C235.547,211.116,224.508,213.375,224.508,213.375Z" transform="translate(-161.756 -140.181)" fill="#00a2f5"/>
      <path id="Path_35695" data-name="Path 35695" d="M224.508,213.375s-5.862,2.059,5.872,74.181h49.912c-.839-20.314-.858-32.849,8.846-74.534a146.8,146.8,0,0,0-21.191-2.793c-8.4-.41-15.252-.677-22.668,0C235.547,211.116,224.508,213.375,224.508,213.375Z" transform="translate(-161.756 -140.181)" fill="#fff" opacity="0.5"/>
      <path id="Path_35696" data-name="Path 35696" d="M280.055,233.48l6.444,5.491c-1.373,7.292-2.3,13.345-2.86,18.769C282.409,252.326,279.34,237.627,280.055,233.48Z" transform="translate(-164.417 -141.288)" opacity="0.2"/>
      <path id="Path_35697" data-name="Path 35697" d="M266.684,183.47c-1.43,7.292-2.86,20.657,2.25,25.528,0,0-4.766,10.924-17.4,10.924S246.265,209,246.265,209c8.131-1.906,7.921-7.979,6.511-13.641Z" transform="translate(-162.743 -138.95)" fill="#b55b52"/>
      <path id="Path_35698" data-name="Path 35698" d="M267.241,207.359c-1.2,2.431-5.071,7.988-15.881,9.971a1.2,1.2,0,0,1-.867-.172c-2.021-1.411-3.279-4.394-2.393-7.855a1.182,1.182,0,0,0-1.582-1.411,15.081,15.081,0,0,0-2.383,1.258,1.154,1.154,0,0,0-.391.439c-.791,1.487-3.994,8.77,5.672,13.26a1.45,1.45,0,0,0,.486.114c5.719.114,15.719-1.01,22.039-12.392a1.2,1.2,0,0,0-.1-1.315,12.314,12.314,0,0,0-2.926-2.355,1.163,1.163,0,0,0-1.668.458Z" transform="translate(-162.671 -140.037)" fill="#fafafa"/>
      <path id="Path_35699" data-name="Path 35699" d="M270.552,238.675l-12.869-.372a.953.953,0,0,1-.953-1.058l.124-1.592a1.106,1.106,0,0,1,1.115-.953l12.869.372a.953.953,0,0,1,.953,1.068l-.124,1.582A1.106,1.106,0,0,1,270.552,238.675Z" transform="translate(-163.331 -141.345)" fill="#fafafa"/>
      <path id="Path_35700" data-name="Path 35700" d="M261.436,188.56l-8.236,7.025a23.121,23.121,0,0,1,.705,4.023c3.1-.448,7.369-3.861,7.7-7.111a10.906,10.906,0,0,0-.172-3.937Z" transform="translate(-163.166 -139.188)" opacity="0.2"/>
      <path id="Path_35701" data-name="Path 35701" d="M276.1,168.021c-2.3,11.982-3.012,17.1-9.914,22.506-10.381,8.141-24.594,2.688-25.909-9.733-1.192-11.182,2.764-28.893,15.252-32.172a16.634,16.634,0,0,1,20.571,19.4Z" transform="translate(-162.553 -137.294)" fill="#b55b52"/>
      <path id="Path_35702" data-name="Path 35702" d="M270.677,159.328c-1.487,7.5-1.84,17.444,5.033,17.444s12.259-11.7,6.33-20.857S271.544,154.9,270.677,159.328Z" transform="translate(-163.942 -137.466)" fill="#263238"/>
      <path id="Path_35703" data-name="Path 35703" d="M281.113,159.552c0,8.16-10.276,4.128-14.823.61s-4.766-3.136-13.193-3.146-10.114-.591-12.6-4.614-2.259-6.673,3.346-5.824.9-4.871,5.071-8.045,9.123-2.374,14.832,4.871S281.113,145.416,281.113,159.552Z" transform="translate(-162.502 -136.766)" fill="#263238"/>
      <ellipse id="Ellipse_135" data-name="Ellipse 135" cx="6.959" cy="4.509" rx="6.959" ry="4.509" transform="translate(104.984 45.529) rotate(-73.66)" fill="#fff"/>
      <path id="Path_35704" data-name="Path 35704" d="M259.674,187.867a16.3,16.3,0,0,1-6.432-1.324.353.353,0,0,1-.193-.468.372.372,0,0,1,.477-.191,15.586,15.586,0,0,0,12.135.067,15.166,15.166,0,0,0,8.312-8.341c2.86-8.188,5.777-18.407,2.4-24.784a9.809,9.809,0,0,0-6.577-4.89.36.36,0,1,1,.181-.7A10.533,10.533,0,0,1,277,152.482c3.508,6.587.581,17.006-2.364,25.347a15.91,15.91,0,0,1-8.741,8.751A16.492,16.492,0,0,1,259.674,187.867Z" transform="translate(-163.158 -137.255)" fill="#fff"/>
      <path id="Path_35705" data-name="Path 35705" d="M279.355,179.919c-.848,2.86-2.793,4.871-4.347,4.423s-2.126-3.174-1.277-6.072,2.793-4.881,4.347-4.423S280.2,177.021,279.355,179.919Z" transform="translate(-164.108 -138.496)" fill="#00a2f5" opacity="0.6"/>
      <rect id="Rectangle_264" data-name="Rectangle 264" width="6.225" height="2.64" rx="1.27" transform="translate(86.146 46.759) rotate(10.92)" fill="#fff"/>
      <path id="Path_35706" data-name="Path 35706" d="M248.959,170.05a26.419,26.419,0,0,1-4.309,5.815c1.134,1.382,3.422,1.115,3.422,1.115Z" transform="translate(-162.767 -138.322)" fill="#a02724"/>
      <path id="Path_35707" data-name="Path 35707" d="M251.375,182.594h.086a8.579,8.579,0,0,0,6.005-1.83.191.191,0,0,0,0-.267.181.181,0,0,0-.257,0,8.264,8.264,0,0,1-5.719,1.744.181.181,0,0,0-.21.162.191.191,0,0,0,.1.191Z" transform="translate(-163.076 -138.808)" fill="#263238"/>
      <path id="Path_35708" data-name="Path 35708" d="M262.611,164.942a.362.362,0,0,0,.353,0,.381.381,0,0,0,.114-.515,5.6,5.6,0,0,0-4.337-2.707.381.381,0,0,0-.381.372.372.372,0,0,0,.362.372,4.871,4.871,0,0,1,3.727,2.364A.371.371,0,0,0,262.611,164.942Z" transform="translate(-163.408 -137.933)" fill="#263238"/>
      <path id="Path_35709" data-name="Path 35709" d="M256.974,170.122c-.162.953-.82,1.687-1.468,1.582s-1.02-.953-.858-1.983.829-1.687,1.468-1.582S257.146,169.14,256.974,170.122Z" transform="translate(-163.233 -138.232)" fill="#263238"/>
      <path id="Path_35710" data-name="Path 35710" d="M245.314,168.142c-.162.953-.82,1.687-1.468,1.582s-1.02-1-.858-1.983.829-1.7,1.468-1.582S245.486,167.151,245.314,168.142Z" transform="translate(-162.687 -138.14)" fill="#263238"/>
      <path id="Path_35711" data-name="Path 35711" d="M244.71,166.217l-2.25-1.087S243.356,167.179,244.71,166.217Z" transform="translate(-162.664 -138.092)" fill="#263238"/>
      <path id="Path_35712" data-name="Path 35712" d="M256.37,168.2l-2.25-1.077S255.016,169.169,256.37,168.2Z" transform="translate(-163.209 -138.185)" fill="#263238"/>
      <path id="Path_35713" data-name="Path 35713" d="M241.459,161.178a.372.372,0,0,0,.381,0,4.766,4.766,0,0,1,4.309-.953.374.374,0,0,0,.248-.705,5.529,5.529,0,0,0-5,1.029.353.353,0,0,0-.067.515A.3.3,0,0,0,241.459,161.178Z" transform="translate(-162.607 -137.82)" fill="#263238"/>
      <path id="Path_35714" data-name="Path 35714" d="M228.75,303.524s-.133-6.825,1.906-12.154h49.9s4.49,7.245,5.653,12.154Z" transform="translate(-162.023 -143.995)" fill="#00a2f5"/>
      <path id="Path_35715" data-name="Path 35715" d="M281.327,288.281l.391,4.461c.181.353-.229.705-.81.705H230.386c-.448,0-.82-.219-.848-.505l-.458-4.471c0-.305.362-.572.858-.572H280.46A.953.953,0,0,1,281.327,288.281Z" transform="translate(-162.039 -143.832)" fill="#00a2f5"/>
      <path id="Path_35716" data-name="Path 35716" d="M281.327,288.281l.391,4.461c.181.353-.229.705-.81.705H230.386c-.448,0-.82-.219-.848-.505l-.458-4.471c0-.305.362-.572.858-.572H280.46A.953.953,0,0,1,281.327,288.281Z" transform="translate(-162.039 -143.832)" fill="#fafafa" opacity="0.3"/>
      <path id="Path_35717" data-name="Path 35717" d="M276.7,293.905h1.354c.276,0,.477-.133.458-.305l-.629-5.805c0-.172-.257-.3-.524-.3h-1.382c-.276,0-.477.133-.458.3l.629,5.805A.56.56,0,0,0,276.7,293.905Z" transform="translate(-164.21 -143.813)" fill="#00a2f5"/>
      <path id="Path_35718" data-name="Path 35718" d="M234.413,293.905h1.354c.267,0,.477-.133.458-.305l-.639-5.805c0-.172-.248-.3-.524-.3h-1.354c-.267,0-.477.133-.458.3l.639,5.805C233.908,293.772,234.146,293.905,234.413,293.905Z" transform="translate(-162.234 -143.813)" fill="#00a2f5"/>
      <path id="Path_35719" data-name="Path 35719" d="M255.561,293.905h1.315c.267,0,.477-.133.458-.305l-.639-5.805c0-.172-.257-.3-.524-.3h-1.354c-.267,0-.477.133-.458.3L255,293.6A.575.575,0,0,0,255.561,293.905Z" transform="translate(-163.221 -143.813)" fill="#00a2f5"/>
      <path id="Path_35720" data-name="Path 35720" d="M296.256,228q3.289,10.676,6.32,21.467l3.041,10.733,1.516,5.338.381,1.315.191.658.048.153h0l-.152-.238a3.812,3.812,0,0,0-.877-.9,4.767,4.767,0,0,0-2.555-.906,4.28,4.28,0,0,0-2.021.4c-.686.372-.62.458-.562.391a3.156,3.156,0,0,0,.438-.467,17.267,17.267,0,0,0,1.239-1.763c.839-1.373,1.668-2.917,2.45-4.5,1.621-3.165,3.079-6.52,4.556-9.895s2.86-6.787,4.29-10.228,2.793-6.9,4.2-10.314l6.091,1.811c-1.582,7.435-3.432,14.737-5.72,22.01-1.125,3.651-2.373,7.264-3.813,10.924-.744,1.83-1.535,3.66-2.517,5.557a28.276,28.276,0,0,1-1.754,2.974,14.064,14.064,0,0,1-1.335,1.7,8.875,8.875,0,0,1-2.764,2.107,7.063,7.063,0,0,1-3.374.705,6.949,6.949,0,0,1-3.813-1.4,7.864,7.864,0,0,1-1.8-1.907,10.361,10.361,0,0,1-.81-1.478c-.086-.21-.181-.429-.248-.62l-.181-.467-.248-.677-.5-1.344c-.648-1.783-1.306-3.565-1.906-5.348-1.22-3.565-2.44-7.121-3.584-10.7q-3.508-10.714-6.539-21.534Z" transform="translate(-164.604 -141.032)" fill="#b65b52"/>
      <path id="Path_35721" data-name="Path 35721" d="M291.708,213.167c5,1.516,12.659,21.143,12.659,21.143l-19.4,13.87s-8.722-16.777-6.625-23.24C280.536,218.209,286.008,211.432,291.708,213.167Z" transform="translate(-164.327 -140.325)" fill="#00a2f5"/>
      <path id="Path_35722" data-name="Path 35722" d="M291.708,213.167c5,1.516,12.659,21.143,12.659,21.143l-19.4,13.87s-8.722-16.777-6.625-23.24C280.536,218.209,286.008,211.432,291.708,213.167Z" transform="translate(-164.327 -140.325)" fill="#fff" opacity="0.5"/>
      <path id="Path_35723" data-name="Path 35723" d="M320.57,231.475l-2.66-11.725,11.058,5.834s.134,7.893-4.328,10.381Z" transform="translate(-166.192 -140.646)" fill="#b55b52"/>
      <path id="Path_35724" data-name="Path 35724" d="M322.543,209.99l7.054,5-.629,10.133-11.058-5.834Z" transform="translate(-166.192 -140.19)" fill="#b55b52"/>
    </g>
  </g>
</svg>
