<svg xmlns="http://www.w3.org/2000/svg" width="627.664" height="211.599" viewBox="0 0 627.664 211.599">
  <g id="Group_5384" data-name="Group 5384" transform="translate(-43.48 369.303)" style="isolation: isolate">
    <path id="Path_1" data-name="Path 1" d="M490.573-304.462H447.948l-.073-.073-.073.073H347.992l-21.048,21.049H261.776l-5.258-5.258a3.133,3.133,0,0,0-.5-3.754,3.145,3.145,0,0,0-4.443,0,3.131,3.131,0,0,0,0,4.432,3.131,3.131,0,0,0,3.758.5l5.746,5.743h64.2L313.393-269.86a3.121,3.121,0,0,0-3.756.5,3.132,3.132,0,0,0,0,4.435,3.132,3.132,0,0,0,4.43,0,3.124,3.124,0,0,0,.5-3.752l34.11-34.116h55.356l-14.969,14.969H366.022a3.124,3.124,0,0,0-3.009-2.3,3.138,3.138,0,0,0-3.136,3.135,3.14,3.14,0,0,0,3.136,3.139,3.127,3.127,0,0,0,3.009-2.305h23.735L406.4-302.794h39.73l-38.057,38.055H337.8l-24.269,24.274h-24.43l-21.9-21.9H233.728l.014-.014L222.13-273.99H177.459a3.123,3.123,0,0,0-3.008-2.3,3.134,3.134,0,0,0-3.136,3.134,3.136,3.136,0,0,0,3.136,3.137,3.126,3.126,0,0,0,3.009-2.3h43.975l9.955,9.955h-67.7a3.131,3.131,0,0,0-3.013-2.3,3.138,3.138,0,0,0-3.136,3.136,3.139,3.139,0,0,0,3.136,3.137,3.133,3.133,0,0,0,3.015-2.3H266.511l20.231,20.232H117.521a3.124,3.124,0,0,0-3.009-2.305,3.139,3.139,0,0,0-3.134,3.137,3.137,3.137,0,0,0,3.134,3.135,3.123,3.123,0,0,0,3.009-2.3h196.7L338.5-263.071h70.273l21.386-21.389h22.06l8.306,8.312a3.11,3.11,0,0,0,.5,3.754,3.127,3.127,0,0,0,4.43,0,3.13,3.13,0,0,0,0-4.433,3.125,3.125,0,0,0-3.755-.5l-8.8-8.8H431.825l16.665-16.667h42.777L520.8-332.329h27.765l8.99-8.993h74.055a3.129,3.129,0,0,0,3.013,2.3,3.131,3.131,0,0,0,3.129-3.136,3.132,3.132,0,0,0-3.129-3.136,3.134,3.134,0,0,0-3.015,2.3H556.875l-9,8.995H520.107Z" transform="translate(27.84 9.844)" fill="#f0f0f0" style="mix-blend-mode: color-burn;isolation: isolate"/>
    <path id="Path_2" data-name="Path 2" d="M176.238-276.315l-13.6,13.61H84.255a3.126,3.126,0,0,0-3.009-2.3,3.133,3.133,0,0,0-3.134,3.135,3.135,3.135,0,0,0,3.134,3.137,3.124,3.124,0,0,0,3.009-2.3h79.067l15.185-15.178-.1-.1h70.8l28.859-28.855h38.693l14.082,14.081a3.127,3.127,0,0,0,.5,3.758,3.131,3.131,0,0,0,4.432,0,3.136,3.136,0,0,0,0-4.436,3.123,3.123,0,0,0-3.752-.5l-14.574-14.568H279.74L303.2-330.29H445.1l37.339-37.345H564.93V-369.3H481.751L444.4-331.96H380.537l.03-.03-15.588-15.587H282.137l-51.607,51.6H212.212l-18.673-18.672H73.7l-16.289-16.29a3.124,3.124,0,0,0-.5-3.753,3.138,3.138,0,0,0-4.437,0,3.145,3.145,0,0,0,0,4.435,3.128,3.128,0,0,0,3.756.5l16.777,16.775H192.846l17.008,17H158.94a3.124,3.124,0,0,0-3.009-2.3,3.139,3.139,0,0,0-3.135,3.136A3.138,3.138,0,0,0,155.931-292a3.124,3.124,0,0,0,3.009-2.3h72.285l51.6-51.606H364.29l13.947,13.949H302.5l-53.979,53.979H49.625a3.123,3.123,0,0,0-3-2.3,3.139,3.139,0,0,0-3.142,3.134,3.141,3.141,0,0,0,3.142,3.139,3.124,3.124,0,0,0,3-2.305Z" transform="translate(0 0)" fill="#f0f0f0" style="mix-blend-mode: color-burn;isolation: isolate"/>
    <path id="Path_3" data-name="Path 3" d="M667.877-321.8a3.122,3.122,0,0,0-3.752-.5l-14.989-14.989h-32.92l-16.978,16.977h-31.57l-28.175,28.178h-24.4a3.127,3.127,0,0,0-3.015-2.3,3.134,3.134,0,0,0-3.129,3.137,3.133,3.133,0,0,0,3.129,3.136,3.126,3.126,0,0,0,3.015-2.3h25.09l28.18-28.178h29.209l-45.52,45.52H505.2L485.51-253.43H414.56L399.8-238.661H359.228l-5.155,5.149a3.12,3.12,0,0,0-3.754.5,3.132,3.132,0,0,0,0,4.435,3.132,3.132,0,0,0,4.43,0,3.125,3.125,0,0,0,.5-3.755l4.659-4.663h21.579l-28.712,28.717H332.32l-17.689-17.7H279.558a3.132,3.132,0,0,0-3.015-2.3,3.131,3.131,0,0,0-3.129,3.136A3.132,3.132,0,0,0,276.544-222a3.132,3.132,0,0,0,3.015-2.3h34.384l16.024,16.026H275.043l-18.156-18.161H125.672l-9.929-9.927a3.126,3.126,0,0,0-.5-3.752,3.131,3.131,0,0,0-4.432,0,3.136,3.136,0,0,0,0,4.436,3.126,3.126,0,0,0,3.759.5l10.416,10.416h99.884l-27.435,27.435H74.532L53.886-176.686a3.126,3.126,0,0,0-3.758.5,3.123,3.123,0,0,0,0,4.433,3.135,3.135,0,0,0,4.437,0,3.123,3.123,0,0,0,.5-3.754l20.159-20.158h122.9l29.106-29.106h28.959l18.157,18.161h79.122l30.378-30.386h16.636l14.764-14.766H483.84l-28.549,28.545H392.874a3.129,3.129,0,0,0-3.009-2.3,3.143,3.143,0,0,0-3.14,3.137,3.143,3.143,0,0,0,3.14,3.136,3.131,3.131,0,0,0,3.009-2.3h63.113L505.9-271.453h46.85L616.9-335.615h31.537l14.5,14.5a3.123,3.123,0,0,0,.5,3.755,3.128,3.128,0,0,0,4.432,0A3.134,3.134,0,0,0,667.877-321.8Z" transform="translate(2.348 13.129)" fill="#f0f0f0" style="mix-blend-mode: color-burn;isolation: isolate"/>
  </g>
</svg>
