<svg id="Group_4694" data-name="Group 4694" xmlns="http://www.w3.org/2000/svg" xmlns:xlink="http://www.w3.org/1999/xlink" width="396.493" height="292.752" viewBox="0 0 396.493 292.752">
  <defs>
    <clipPath id="clip-path">
      <path id="Path_11587" data-name="Path 11587" d="M357.438,173.8s-9.811-.133-11.973,3.076S334.4,200.054,334.4,200.054l13.92,7.244,3-8.557L356.2,216.63c-5.592,4.426-13.514,44.726-11.936,61.7l52.287.17s.361-47.094-13.78-62.578l3.312-18.7,3.194,9.125,14.754-6.123-11.1-19.969a10.756,10.756,0,0,0-9.339-5.525h-3.622s-1.527,13.367-11.242,13.109S357.438,173.8,357.438,173.8Z" transform="translate(-334.4 -173.799)" fill="none"/>
    </clipPath>
  </defs>
  <g id="freepik--Device--inject-12" transform="translate(141.068)">
    <path id="Path_11569" data-name="Path 11569" d="M403.942,364.458,305.933,364a21.363,21.363,0,0,1-21.253-21.466l1.04-246.06A21.407,21.407,0,0,1,307.172,75.2l97.987.451a21.408,21.408,0,0,1,21.253,21.473l-1.018,246.067a21.407,21.407,0,0,1-21.452,21.266Z" transform="translate(-284.68 -75.2)" fill="#455a64"/>
    <path id="Path_11570" data-name="Path 11570" d="M407.357,87.161l-19-.089a4.725,4.725,0,0,0-4.633,4.809v3.45a4.717,4.717,0,0,1-4.633,4.809l-37.047-.17a4.718,4.718,0,0,1-4.588-4.854v-3.45a4.74,4.74,0,0,0-4.6-4.854h-6.683L309.54,86.74a14.963,14.963,0,0,0-15.019,14.908L293.51,341.8a14.964,14.964,0,0,0,14.879,15.041l97.817.451a14.963,14.963,0,0,0,15.019-14.915l1-240.18a14.964,14.964,0,0,0-14.872-15.033Z" transform="translate(-286.996 -78.227)" fill="#fafafa"/>
    <path id="Path_11571" data-name="Path 11571" d="M446.53,116.331a15.848,15.848,0,0,1-2.456.125c-1.527,0-3.644.059-6.034.066h-.17v-.162c-.044-.325-.1-.664-.14-1-.413-2.951-.738-5.562-.944-7.259l.118.1a13.335,13.335,0,0,1-2.213-.125,14.014,14.014,0,0,1,2.213-.118h.1v.1c.273,1.689.671,4.308,1.077,7.244.052.339.1.679.14,1l-.184-.162c2.39,0,4.507,0,6.034.066A15.842,15.842,0,0,1,446.53,116.331Z" transform="translate(-324.029 -83.792)" fill="#263238"/>
    <path id="Path_11572" data-name="Path 11572" d="M438.63,115.024a3.583,3.583,0,0,1,.657-.059l1.815-.052c1.557,0,3.74-.059,6.27-.066l-.185.148.59-3.379c.111-.6.214-1.2.317-1.77l.185.221c-2.951,0-5.525,0-7.377-.066l-2.213-.052a2.951,2.951,0,0,1-.789-.074,3.785,3.785,0,0,1,.789-.066l2.213-.059c1.859,0,4.426-.052,7.377-.059h.229v.221c-.1.568-.207,1.166-.31,1.77-.214,1.18-.421,2.316-.6,3.379v.155h-.155c-2.53,0-4.714,0-6.27-.066l-1.815-.052A2.6,2.6,0,0,1,438.63,115.024Z" transform="translate(-324.871 -84.247)" fill="#263238"/>
    <path id="Path_11573" data-name="Path 11573" d="M441.431,122.078c-.059,0-.059-.332-.413-.568a.738.738,0,0,0-.664-.066.679.679,0,0,0,0,1.261.738.738,0,0,0,.664-.066c.354-.229.354-.575.413-.561s.059.074.052.221a.885.885,0,0,1-.3.561.981.981,0,0,1-.944.177,1.018,1.018,0,0,1,0-1.925.981.981,0,0,1,.944.177.885.885,0,0,1,.3.561C441.49,122,441.46,122.078,441.431,122.078Z" transform="translate(-325.304 -87.23)" fill="#263238"/>
    <path id="Path_11574" data-name="Path 11574" d="M448.839,122.078c-.059,0-.059-.332-.413-.568a.738.738,0,0,0-.664-.066.679.679,0,0,0,0,1.261.738.738,0,0,0,.664-.066c.354-.229.354-.575.413-.561s.059.074.052.221a.885.885,0,0,1-.3.561.981.981,0,0,1-.944.177,1.011,1.011,0,0,1-.693-.959,1.025,1.025,0,0,1,.693-.966.981.981,0,0,1,.944.177.885.885,0,0,1,.3.561C448.9,122,448.868,122.078,448.839,122.078Z" transform="translate(-327.245 -87.23)" fill="#263238"/>
    <path id="Path_11575" data-name="Path 11575" d="M327.4,120.453a70.747,70.747,0,0,1-7.311.192,70.627,70.627,0,0,1-7.31-.192,68.231,68.231,0,0,1,7.31-.192,68.349,68.349,0,0,1,7.311.192Z" transform="translate(-292.051 -87.013)" fill="#263238"/>
    <path id="Path_11576" data-name="Path 11576" d="M327.4,116.7a68.351,68.351,0,0,1-7.311.192,68.231,68.231,0,0,1-7.31-.192,70.636,70.636,0,0,1,7.31-.192,70.752,70.752,0,0,1,7.311.192Z" transform="translate(-292.051 -86.03)" fill="#263238"/>
    <path id="Path_11577" data-name="Path 11577" d="M327.4,112.924a70.761,70.761,0,0,1-7.311.192,70.64,70.64,0,0,1-7.31-.192,70.64,70.64,0,0,1,7.31-.192,70.757,70.757,0,0,1,7.311.192Z" transform="translate(-292.051 -85.039)" fill="#263238"/>
    <g id="Group_4664" data-name="Group 4664" transform="translate(36.678 72.888)" clip-path="url(#clip-path)">
      <path id="Path_11578" data-name="Path 11578" d="M357.438,173.8s-9.811-.133-11.973,3.076S334.4,200.054,334.4,200.054l13.92,7.244,3-8.557L356.2,216.63c-5.592,4.426-13.514,44.726-11.936,61.7l52.287.17s.361-47.094-13.78-62.578l3.312-18.7,3.194,9.125,14.754-6.123-11.1-19.969a10.756,10.756,0,0,0-9.339-5.525h-3.622s-1.527,13.367-11.242,13.109S357.438,173.8,357.438,173.8Z" transform="translate(-334.4 -173.799)" fill="#ff6340"/>
      <path id="Path_11579" data-name="Path 11579" d="M423.339,254.621a1.211,1.211,0,0,1,0-.236,3.232,3.232,0,0,0-.059-.693,7.094,7.094,0,0,0-.125-1.121,11.054,11.054,0,0,0-.317-1.475,13.906,13.906,0,0,0-1.63-3.865,14.481,14.481,0,0,0-17.395-6.152,13.415,13.415,0,0,0-3.651,1.97,16.106,16.106,0,0,0-1.638,1.387,16.4,16.4,0,0,0-1.416,1.682,14.5,14.5,0,0,0-2.811,8.528,15.648,15.648,0,0,0,.738,4.559,14.194,14.194,0,0,0,2.066,3.983,13.28,13.28,0,0,0,3.054,3.069,13.623,13.623,0,0,0,3.652,1.97,14.5,14.5,0,0,0,17.395-6.16,13.68,13.68,0,0,0,1.63-3.865,11.226,11.226,0,0,0,.317-1.475,7.283,7.283,0,0,0,.125-1.121,6.634,6.634,0,0,1,.059-.693,1.211,1.211,0,0,1,0-.236,1.158,1.158,0,0,1,0,.236v.7a6.882,6.882,0,0,1-.1,1.129,9.887,9.887,0,0,1-.28,1.52,13.766,13.766,0,0,1-1.593,3.939,14.706,14.706,0,0,1-17.7,6.381,13.8,13.8,0,0,1-3.755-2.007,17.9,17.9,0,0,1-1.682-1.424,16.217,16.217,0,0,1-1.475-1.719,14.4,14.4,0,0,1-2.125-4.079,15.772,15.772,0,0,1-.738-4.684,14.864,14.864,0,0,1,2.884-8.808,16.176,16.176,0,0,1,1.475-1.711,16.85,16.85,0,0,1,1.682-1.424,14.141,14.141,0,0,1,3.755-2.014,14.7,14.7,0,0,1,17.7,6.388,13.739,13.739,0,0,1,1.593,3.932,9.82,9.82,0,0,1,.28,1.527,6.816,6.816,0,0,1,.1,1.129v.7a1.159,1.159,0,0,1-.015.236Z" transform="translate(-350.005 -191.12)" fill="#fafafa"/>
      <path id="Path_11580" data-name="Path 11580" d="M363.58,211.42a18.51,18.51,0,0,0-.413-2.626,10.692,10.692,0,0,0-18.951-3.688,10.571,10.571,0,0,0,0,12.541,9.9,9.9,0,0,0,2.213,2.257,10.012,10.012,0,0,0,2.685,1.475,10.637,10.637,0,0,0,5.592.472,10.512,10.512,0,0,0,4.493-1.977,10.784,10.784,0,0,0,3.939-5.9,18.351,18.351,0,0,0,.413-2.619.643.643,0,0,1,0,.177c0,.133,0,.3,0,.516a4.613,4.613,0,0,1-.067.834,7.459,7.459,0,0,1-.2,1.129,10.258,10.258,0,0,1-1.173,2.951,10.97,10.97,0,0,1-13.146,4.706,10,10,0,0,1-2.788-1.475,10.278,10.278,0,0,1-2.331-2.331,10.925,10.925,0,0,1,0-13.005,10.433,10.433,0,0,1,2.331-2.331,10.164,10.164,0,0,1,2.788-1.475,10.9,10.9,0,0,1,13.116,4.743,10.326,10.326,0,0,1,1.173,2.914,7.705,7.705,0,0,1,.2,1.136,4.523,4.523,0,0,1,.066.834v.516A.643.643,0,0,1,363.58,211.42Z" transform="translate(-336.315 -180.775)" fill="#fafafa"/>
      <path id="Path_11581" data-name="Path 11581" d="M368.915,300.415c-.037,0-.037-.3-.177-.789a3.283,3.283,0,0,0-1.217-1.734,3.15,3.15,0,1,0,0,5.053,3.283,3.283,0,0,0,1.217-1.734c.14-.5.14-.8.177-.8s0,.074,0,.214a2.7,2.7,0,0,1-.059.62,3.3,3.3,0,0,1-1.2,1.911,3.445,3.445,0,0,1-3.283.539,3.482,3.482,0,0,1,0-6.558,3.445,3.445,0,0,1,3.283.539,3.3,3.3,0,0,1,1.2,1.911,2.638,2.638,0,0,1,.059.612C368.937,300.348,368.93,300.415,368.915,300.415Z" transform="translate(-341.658 -206.1)" fill="#fafafa"/>
      <path id="Path_11582" data-name="Path 11582" d="M361.128,185.274c-.037,0-.037-.3-.177-.789a3.283,3.283,0,0,0-1.217-1.734,3.15,3.15,0,1,0,0,5.053,3.327,3.327,0,0,0,1.217-1.741c.14-.494.14-.789.177-.789a.549.549,0,0,1,0,.214,2,2,0,0,1-.059.612,3.239,3.239,0,0,1-1.2,1.918,3.423,3.423,0,0,1-3.275.538,3.482,3.482,0,0,1,0-6.558,3.423,3.423,0,0,1,3.275.539,3.224,3.224,0,0,1,1.2,1.911,2.019,2.019,0,0,1,.059.612A.549.549,0,0,1,361.128,185.274Z" transform="translate(-339.617 -175.898)" fill="#fafafa"/>
      <path id="Path_11583" data-name="Path 11583" d="M371.435,274.276a2,2,0,0,1-.066-.31c-.044-.229-.1-.524-.162-.885-.133-.8-.325-1.918-.561-3.32l-1.933-11.737.184.14-16.273,2.589.162-.221h0v.266l.044.273.089.561c.059.369.111.738.17,1.1.118.738.229,1.475.339,2.176.229,1.438.45,2.847.657,4.212.428,2.729.826,5.311,1.2,7.679l-.192-.14,11.773-1.734,3.334-.479.893-.118.317-.037a1.164,1.164,0,0,1-.273.066l-.856.155-3.283.561-11.84,1.948h-.162v-.17c-.376-2.368-.789-4.943-1.225-7.672q-.332-2.058-.671-4.212c-.111-.738-.221-1.439-.339-2.176l-.177-1.1-.089-.561-.044-.273v-.266h0c-.148.2.192-.266.155-.221l16.281-2.53h.17V258c.738,4.883,1.35,8.97,1.785,11.869.2,1.394.361,2.5.472,3.3.044.354.089.634.118.856A1.372,1.372,0,0,1,371.435,274.276Z" transform="translate(-339.124 -195.844)" fill="#fafafa"/>
      <path id="Path_11584" data-name="Path 11584" d="M399.3,212.818a2.09,2.09,0,0,1,.185-.325c.14-.221.332-.516.561-.893l2.124-3.342c1.852-2.87,4.426-6.934,7.583-11.8l.044.236-16.273-10.571.266-.059h0l-.044.074-.1.133-.177.28-.361.553-.738,1.107-1.416,2.213-2.737,4.2-5.016,7.665-.052-.236,11.7,7.724,3.3,2.213.878.59.3.221a1.474,1.474,0,0,1-.3-.17l-.87-.539-3.312-2.11-11.906-7.613-.14-.089.089-.14c1.542-2.368,3.209-4.95,4.987-7.679l2.729-4.212,1.416-2.169.738-1.107.362-.553.184-.28.089-.14.044-.066h0l.273-.059,16.229,10.615.14.089-.089.14-7.783,11.8-2.176,3.261-.575.848Q399.39,212.726,399.3,212.818Z" transform="translate(-347.098 -176.965)" fill="#fafafa"/>
      <path id="Path_11585" data-name="Path 11585" d="M385.443,289.7l-.066.125-.184.339-.738,1.291-2.678,4.773c-2.272,4.028-5.562,9.76-9.413,16.458l-.155-.273h26.439l-.155.273c-3.851-6.7-7.148-12.43-9.413-16.458l-2.678-4.773-.738-1.291c-.074-.133-.14-.243-.185-.339l-.066-.125a3.207,3.207,0,0,1,.251.406l.738,1.232,2.788,4.706c2.412,4.072,5.724,9.789,9.59,16.458l.155.273H371.87l.162-.273c3.873-6.639,7.185-12.386,9.59-16.458l2.788-4.706.738-1.232A3.2,3.2,0,0,1,385.443,289.7Z" transform="translate(-344.229 -204.201)" fill="#fafafa"/>
      <path id="Path_11586" data-name="Path 11586" d="M376.06,232.52s.037.111.1.3.14.487.236.8l.856,2.951c.738,2.471,1.689,6.056,2.825,10.239l-.3-.081,5.238-5.252,5.26-5.238.081.3c-4.183-1.143-7.768-2.117-10.239-2.825l-2.951-.863-.8-.236a1.705,1.705,0,0,1-.3-.1l.251.052.775.192,2.951.738c2.6.642,6.189,1.593,10.372,2.693l.31.081-.229.221c-1.616,1.63-3.393,3.408-5.238,5.26L380,246.993l-.221.221-.074-.325c-1.106-4.19-2.051-7.768-2.7-10.372-.3-1.239-.546-2.213-.738-2.951l-.184-.782A1.05,1.05,0,0,1,376.06,232.52Z" transform="translate(-345.328 -189.202)" fill="#fafafa"/>
    </g>
    <path id="Path_11588" data-name="Path 11588" d="M390.887,230.982c0,.111-5.9.339-13.278.516s-13.278.236-13.278.133,5.9-.339,13.278-.516S390.887,230.879,390.887,230.982Z" transform="translate(-305.573 -115.896)" fill="#263238"/>
    <path id="Path_11589" data-name="Path 11589" d="M351.4,191.18a65.215,65.215,0,0,1,2.471,6.506,66.007,66.007,0,0,1,2.11,6.639,60.918,60.918,0,0,1-2.471-6.514,61.906,61.906,0,0,1-2.11-6.632Z" transform="translate(-302.181 -105.503)" fill="#263238"/>
    <path id="Path_11590" data-name="Path 11590" d="M405.534,192.41a11.267,11.267,0,0,1-.14,2.125c-.14,1.306-.376,3.1-.693,5.075s-.657,3.762-.929,5.046a10.993,10.993,0,0,1-.531,2.058,11.458,11.458,0,0,1,.266-2.11l.819-5.053c.3-1.911.575-3.637.8-5.053A11.6,11.6,0,0,1,405.534,192.41Z" transform="translate(-315.78 -105.824)" fill="#263238"/>
    <path id="Path_11591" data-name="Path 11591" d="M368.106,240.477a3.843,3.843,0,0,1-.288-1.4,10.9,10.9,0,0,1,1.638-6.639,3.785,3.785,0,0,1,.907-1.107,14.664,14.664,0,0,0-2.257,9.133Z" transform="translate(-306.479 -115.996)" fill="#263238"/>
    <path id="Path_11592" data-name="Path 11592" d="M373.456,236.433a4.6,4.6,0,0,1-.413-2.39,4.683,4.683,0,0,1,.479-2.383,21.648,21.648,0,0,1-.1,2.39C373.4,235.356,373.566,236.411,373.456,236.433Z" transform="translate(-307.853 -116.084)" fill="#263238"/>
    <path id="Path_11593" data-name="Path 11593" d="M398.456,284.308a1.9,1.9,0,0,1-.443-.184,12.652,12.652,0,0,1-1.225-.634,22.548,22.548,0,0,1-4.1-2.995,28.58,28.58,0,0,1-4.817-5.776,36.96,36.96,0,0,1-3.91-8.343,67.623,67.623,0,0,1-2.744-16.473c-.126-2.132-.184-3.865-.221-5.061V243.47a1.985,1.985,0,0,1,0-.48,3.268,3.268,0,0,1,.059.472c0,.354.059.811.1,1.372.089,1.239.207,2.951.347,5.046a71.564,71.564,0,0,0,2.84,16.377,37.218,37.218,0,0,0,3.843,8.269,29.146,29.146,0,0,0,4.7,5.769,24.417,24.417,0,0,0,3.991,3.061C397.881,283.976,398.471,284.308,398.456,284.308Z" transform="translate(-309.941 -119.02)" fill="#263238"/>
    <g id="Group_4665" data-name="Group 4665" transform="translate(70.936 129.04)" opacity="0.2">
      <path id="Path_11594" data-name="Path 11594" d="M381.474,249.86a29.98,29.98,0,0,0,11.065,19.372c2.213,1.726,4.773,3.327,5.7,5.961a9.116,9.116,0,0,1-.7,6.58,3.113,3.113,0,0,1-1.77,1.94,3.152,3.152,0,0,1-2.545-.856c-4.847-3.652-7.967-9.221-9.715-15.027s-2.213-11.914-2.67-17.963" transform="translate(-380.84 -249.86)"/>
    </g>
    <path id="Path_11595" data-name="Path 11595" d="M401.206,354.482c0,.111-12.467.192-27.833.192s-27.833-.081-27.833-.192,12.46-.192,27.833-.192S401.206,354.379,401.206,354.482Z" transform="translate(-300.644 -148.133)" fill="#263238"/>
    <path id="Path_11596" data-name="Path 11596" d="M401.206,146.442c0,.1-12.467.192-27.833.192s-27.833-.089-27.833-.192,12.46-.192,27.833-.192S401.206,146.331,401.206,146.442Z" transform="translate(-300.644 -93.837)" fill="#263238"/>
    <path id="Path_11597" data-name="Path 11597" d="M401.206,360.712c0,.1-12.467.192-27.833.192s-27.833-.089-27.833-.192,12.46-.192,27.833-.192S401.206,360.609,401.206,360.712Z" transform="translate(-300.644 -149.761)" fill="#263238"/>
    <path id="Path_11598" data-name="Path 11598" d="M376.92,378.92v8.011h-1.852V380.4H373.46v-1.475Z" transform="translate(-307.968 -154.561)"/>
    <path id="Path_11599" data-name="Path 11599" d="M380,382.876c0-2.648,1.475-4.146,3.438-4.146s3.438,1.475,3.438,4.146-1.475,4.146-3.438,4.146S380,385.517,380,382.876Zm5.009,0c0-1.822-.642-2.575-1.571-2.575s-1.557.738-1.557,2.575.642,2.575,1.557,2.575,1.6-.752,1.6-2.575Z" transform="translate(-309.683 -154.511)"/>
    <path id="Path_11600" data-name="Path 11600" d="M395.333,380.721a1.593,1.593,0,0,1-1.667,1.756,1.712,1.712,0,0,1-.9-.229l.28-.553a1.01,1.01,0,0,0,.6.162.863.863,0,0,0,.922-.944,1.143,1.143,0,0,1-.811.288,1.033,1.033,0,0,1-1.121-1.011,1.121,1.121,0,0,1,1.232-1.092C394.779,379.1,395.333,379.666,395.333,380.721Zm-.841-.568c0-.28-.214-.487-.575-.487a.49.49,0,1,0,.015.974.509.509,0,0,0,.561-.487Z" transform="translate(-312.999 -154.611)" fill="#263238"/>
    <path id="Path_11601" data-name="Path 11601" d="M399.353,380.721a1.593,1.593,0,0,1-1.667,1.756,1.711,1.711,0,0,1-.9-.229l.28-.553a1.018,1.018,0,0,0,.612.162.863.863,0,0,0,.915-.944,1.143,1.143,0,0,1-.812.288,1.033,1.033,0,0,1-1.121-1.011,1.121,1.121,0,0,1,1.232-1.092C398.8,379.1,399.353,379.666,399.353,380.721Zm-.848-.568a.561.561,0,1,0-.553.487.5.5,0,0,0,.553-.487Z" transform="translate(-314.053 -154.611)" fill="#263238"/>
    <rect id="Rectangle_1752" data-name="Rectangle 1752" width="5.724" height="0.723" transform="translate(79.545 228.983)" fill="#263238"/>
    <path id="Path_11602" data-name="Path 11602" d="M393.911,346.522c0,.1-6.9.192-15.41.192s-15.41-.089-15.41-.192,6.9-.192,15.41-.192S393.911,346.419,393.911,346.522Z" transform="translate(-305.248 -146.053)" fill="#ff725e"/>
    <circle id="Ellipse_129" data-name="Ellipse 129" cx="11.124" cy="11.124" r="11.124" transform="translate(99.422 221.801) rotate(-22.5)" fill="#ff725e"/>
    <path id="Path_11603" data-name="Path 11603" d="M435.35,387.635a3.6,3.6,0,0,1,.612-.546c.413-.339,1.011-.812,1.756-1.387,1.475-1.158,3.57-2.737,5.9-4.463v.31h0l-.052-.044-.111-.081-.214-.155-.421-.325-.826-.62-1.564-1.18L437.8,377.13l-1.756-1.387a3.782,3.782,0,0,1-.612-.553,3.167,3.167,0,0,1,.7.428l1.83,1.291,2.685,1.955,1.571,1.158.834.62.428.317.214.162.1.074.059.044h0v.31c-2.309,1.726-4.426,3.268-5.946,4.367l-1.829,1.291A3.163,3.163,0,0,1,435.35,387.635Z" transform="translate(-324.202 -153.581)" fill="#fafafa"/>
    <circle id="Ellipse_130" data-name="Ellipse 130" cx="11.124" cy="11.124" r="11.124" transform="translate(16.987 237.034) rotate(-80.78)" fill="#ff725e"/>
    <path id="Path_11604" data-name="Path 11604" d="M325.788,375.14a3.4,3.4,0,0,1-.612.553c-.406.332-1.011.8-1.756,1.387-1.475,1.158-3.563,2.729-5.9,4.426v-.3h0l.059.037.1.081.214.162.428.317.826.62,1.564,1.18,2.626,2.021c.738.575,1.35,1.048,1.756,1.387a3.247,3.247,0,0,1,.612.546,3.369,3.369,0,0,1-.7-.428l-1.829-1.291-2.678-1.948-1.579-1.166-.826-.62-.428-.31-.214-.162-.111-.081-.052-.037h0v-.31c2.309-1.719,4.426-3.261,5.938-4.367.738-.5,1.328-.937,1.829-1.291a3.368,3.368,0,0,1,.73-.406Z" transform="translate(-293.234 -153.568)" fill="#fafafa"/>
    <rect id="Rectangle_1753" data-name="Rectangle 1753" width="22.227" height="22.227" transform="translate(21.961 246.848)" fill="#e0e0e0"/>
    <rect id="Rectangle_1754" data-name="Rectangle 1754" width="22.227" height="22.227" transform="translate(50.156 246.848)" fill="#e0e0e0"/>
    <rect id="Rectangle_1755" data-name="Rectangle 1755" width="22.227" height="22.227" transform="translate(78.357 246.848)" fill="#e0e0e0"/>
    <rect id="Rectangle_1756" data-name="Rectangle 1756" width="22.227" height="22.227" transform="translate(106.552 246.848)" fill="#e0e0e0"/>
    <rect id="Rectangle_1757" data-name="Rectangle 1757" width="41.473" height="2.361" transform="translate(51.506 44.888)" fill="#ff725e"/>
  </g>
  <g id="freepik--Bag--inject-12" transform="translate(337.148 228.447)">
    <path id="Path_11605" data-name="Path 11605" d="M596.9,403a1.543,1.543,0,0,1-.037-.435v-1.254c0-1.143-.037-2.707-.059-4.618v-4.965a13.945,13.945,0,0,1,.059-1.9,6.322,6.322,0,0,1,12.349-.863,6.885,6.885,0,0,1,.236,1.911v4.965c0,1.911-.044,3.474-.059,4.618a12.348,12.348,0,0,1-.037,1.254,2,2,0,0,1,0,.435,1.536,1.536,0,0,1,0-.435c0-.332,0-.738-.037-1.254,0-1.143,0-2.707-.066-4.618v-3.187a13.818,13.818,0,0,0-.251-3.585,5.975,5.975,0,0,0-9.915-2.626,6.042,6.042,0,0,0-1.741,3.438,15.562,15.562,0,0,0-.066,1.852c0,.612,0,1.2,0,1.778v3.187c0,1.911-.044,3.475-.059,4.618v1.254a1.99,1.99,0,0,1-.317.435Z" transform="translate(-582.547 -384.356)" fill="#263238"/>
    <path id="Path_11606" data-name="Path 11606" d="M607.22,403a1.534,1.534,0,0,1,0-.435c0-.332,0-.738-.037-1.254,0-1.143,0-2.707-.067-4.618v-4.965a13.984,13.984,0,0,1,.059-1.9,6.318,6.318,0,0,1,12.342-.863,6.639,6.639,0,0,1,.244,1.911v4.965c0,1.911-.044,3.474-.059,4.618v1.254a1.981,1.981,0,0,1,0,.435,1.674,1.674,0,0,1-.044-.435v-1.254c0-1.143-.037-2.707-.067-4.618v-3.187a13.82,13.82,0,0,0-.251-3.585,5.975,5.975,0,0,0-11.655.811,14.113,14.113,0,0,0-.066,1.852v4.965c0,1.911-.044,3.474-.059,4.618l-.037,1.254A1.987,1.987,0,0,1,607.22,403Z" transform="translate(-585.251 -384.357)" fill="#263238"/>
    <path id="Path_11607" data-name="Path 11607" d="M582.607,405.23l-5.127,45.287h35.2l4.441-45.287Z" transform="translate(-577.48 -389.831)" fill="#ff6340"/>
    <path id="Path_11608" data-name="Path 11608" d="M629.641,405.23H637l6.211,45.287H625.2Z" transform="translate(-589.998 -389.831)" fill="#ff725e"/>
    <g id="Group_4666" data-name="Group 4666" transform="translate(35.203 15.399)" opacity="0.4">
      <path id="Path_11609" data-name="Path 11609" d="M629.641,405.23H637l6.211,45.287H625.2Z" transform="translate(-625.2 -405.23)" fill="#ff6340"/>
    </g>
    <path id="Path_11610" data-name="Path 11610" d="M581.751,422.5l33.83,9.007-1.719,17.55-34.133-8.675Z" transform="translate(-578.07 -394.361)" fill="#fafafa"/>
  </g>
  <g id="freepik--Character--inject-12" transform="translate(223.441 162.261)">
    <path id="Path_11611" data-name="Path 11611" d="M503.788,311a22.8,22.8,0,0,0-.243,13.861c.834,2.766,2.213,5.533,1.793,8.387-.347,2.331-1.859,4.367-2.161,6.706-.6,4.751,3.91,9.251,2.7,13.883a7.377,7.377,0,0,1-4.33,4.684,13.462,13.462,0,0,1-6.492.819c-3.238-.28-6.742-1.475-8.24-4.426-1.2-2.3-.819-5.068-.406-7.62,1.829-11.3,3.939-22.684,8.52-33.2" transform="translate(-439.779 -298.928)" fill="#263238"/>
    <path id="Path_11612" data-name="Path 11612" d="M510.15,347.039a2.441,2.441,0,0,1-.376.125,3.971,3.971,0,0,1-1.143.1,4.361,4.361,0,0,1-1.741-.5,3.917,3.917,0,0,1-1.667-1.7,4.323,4.323,0,0,1-.332-2.877,4.065,4.065,0,0,1,.693-1.475,6.216,6.216,0,0,1,1.232-1.217,33.661,33.661,0,0,0,2.951-2.213,5.85,5.85,0,0,0,1.638-3.415,9.844,9.844,0,0,0-.28-3.843,22.193,22.193,0,0,0-1.284-3.408,28.353,28.353,0,0,1-2.213-5.791,8.749,8.749,0,0,1,0-4.175,4.526,4.526,0,0,1,.6-1.409,7.794,7.794,0,0,0-.465,5.547,28.779,28.779,0,0,0,2.265,5.739,22.477,22.477,0,0,1,1.313,3.438,10.16,10.16,0,0,1,.288,3.939,6.019,6.019,0,0,1-1.711,3.541,31.874,31.874,0,0,1-2.951,2.213,4.558,4.558,0,0,0-1.859,2.575,4.132,4.132,0,0,0,.288,2.759,3.866,3.866,0,0,0,1.586,1.667,4.427,4.427,0,0,0,1.682.524,4.9,4.9,0,0,0,1.483-.133Z" transform="translate(-444.703 -300.037)" fill="#263238"/>
    <path id="Path_11613" data-name="Path 11613" d="M444.18,457l-1.844,7.067-19-.177s1.394-3.327,11.8-3.172l.738-3.688Z" transform="translate(-423.34 -337.225)" fill="#ffb476"/>
    <path id="Path_11614" data-name="Path 11614" d="M543.559,313.36c-.184.361-5.009,25.148-5.009,25.148l11.368.531,4.426-21.312Z" transform="translate(-453.561 -299.547)" fill="#455a64"/>
    <path id="Path_11615" data-name="Path 11615" d="M538.088,338.529l-1.3-.553,4.92-24.432,1.542-.1Z" transform="translate(-453.099 -299.568)" fill="#263238"/>
    <path id="Path_11616" data-name="Path 11616" d="M551.528,320.517a.59.59,0,1,0,.656-.509.583.583,0,0,0-.656.509Z" transform="translate(-456.964 -301.289)" fill="#263238"/>
    <path id="Path_11617" data-name="Path 11617" d="M553.044,339.993l.17-3.246-4.854-2.007,1.9-4.492a3.917,3.917,0,0,1,5.452-1.866l1.977,1.07a5.577,5.577,0,0,1,2.766,3.593,72.706,72.706,0,0,1,1.129,7.93" transform="translate(-456.134 -303.363)" fill="#ffb476"/>
    <path id="Path_11618" data-name="Path 11618" d="M570.693,456.28s19.977,5.533,20.781,5.813c1.2.428,1,4.832-.87,4.765-.885,0-15.344.539-17.173.428S566.09,465,566.09,465Z" transform="translate(-460.785 -337.036)" fill="#ff725e"/>
    <path id="Path_11619" data-name="Path 11619" d="M583.61,465.2a18.883,18.883,0,0,1,.885-2.147,19.141,19.141,0,0,1,1.409-1.837,4.426,4.426,0,0,0-2.294,3.984Z" transform="translate(-465.38 -338.332)" fill="#263238"/>
    <path id="Path_11620" data-name="Path 11620" d="M580.789,463.984c.1,0,.3-.93.834-1.97s1.158-1.778,1.084-1.844a3.769,3.769,0,0,0-1.387,1.689,3.864,3.864,0,0,0-.531,2.125Z" transform="translate(-464.64 -338.057)" fill="#263238"/>
    <path id="Path_11621" data-name="Path 11621" d="M578.1,463.214a14.418,14.418,0,0,1,.472-2.11,14.14,14.14,0,0,1,1.084-1.874A3.755,3.755,0,0,0,578.1,463.214Z" transform="translate(-463.91 -337.81)" fill="#263238"/>
    <path id="Path_11622" data-name="Path 11622" d="M578.063,459.481a3.487,3.487,0,0,0,.214-1.475,6.832,6.832,0,0,0-.2-1.623,7.138,7.138,0,0,0-.3-.93,1.083,1.083,0,0,0-.325-.487.538.538,0,0,0-.686,0,.9.9,0,0,0-.266.568,3.185,3.185,0,0,0,0,.524,4.159,4.159,0,0,0,.118.981,5.9,5.9,0,0,0,.62,1.527,4.167,4.167,0,0,0,.893,1.2c.052,0-.288-.494-.686-1.313a6.9,6.9,0,0,1-.524-1.475,4.56,4.56,0,0,1-.1-.915c0-.31,0-.693.184-.841a.207.207,0,0,1,.266,0,.914.914,0,0,1,.221.354,8.826,8.826,0,0,1,.3.878,7.975,7.975,0,0,1,.258,1.564C578.1,458.905,578.011,459.473,578.063,459.481Z" transform="translate(-463.514 -336.659)" fill="#263238"/>
    <path id="Path_11623" data-name="Path 11623" d="M577.171,460.774a2.953,2.953,0,0,0-1.291-.207,5.792,5.792,0,0,0-1.416.177,2.853,2.853,0,0,0-.819.3.841.841,0,0,0-.45.907,1,1,0,0,0,.738.738,1.822,1.822,0,0,0,.893,0,3.394,3.394,0,0,0,1.3-.642,3.489,3.489,0,0,0,.929-.915,8.452,8.452,0,0,0-1.062.738,3.59,3.59,0,0,1-1.225.531,1.585,1.585,0,0,1-.738,0,.672.672,0,0,1-.487-.472.531.531,0,0,1,.3-.561,3.06,3.06,0,0,1,.738-.28,6.875,6.875,0,0,1,1.343-.236C576.669,460.752,577.164,460.833,577.171,460.774Z" transform="translate(-462.645 -338.159)" fill="#263238"/>
    <path id="Path_11624" data-name="Path 11624" d="M587.719,465.71a10.211,10.211,0,0,1,.391-1.8,9.818,9.818,0,0,1,.981-1.564,2.381,2.381,0,0,0-1.291,1.431A2.331,2.331,0,0,0,587.719,465.71Z" transform="translate(-466.414 -338.625)" fill="#263238"/>
    <path id="Path_11625" data-name="Path 11625" d="M568.88,468.158a4.213,4.213,0,0,0,.738.361,16.87,16.87,0,0,0,2.213.686,31.172,31.172,0,0,0,7.628.738c2.995,0,5.695-.162,7.65-.243l2.316-.125a4.2,4.2,0,0,0,.841-.089,4.054,4.054,0,0,0-.848-.037H587.1l-7.642.148a35.63,35.63,0,0,1-7.576-.62C570.016,468.586,568.9,468.091,568.88,468.158Z" transform="translate(-461.517 -340.15)" fill="#263238"/>
    <path id="Path_11626" data-name="Path 11626" d="M568.08,468.172a15.589,15.589,0,0,0,1.475-.671,6.971,6.971,0,0,1,3.777-.634,6.026,6.026,0,0,1,3.268,1.948,12.232,12.232,0,0,0,1.151,1.173,6.381,6.381,0,0,0-.974-1.335,8.127,8.127,0,0,0-1.328-1.239,4.678,4.678,0,0,0-2.066-.87,6.551,6.551,0,0,0-3.932.738A5.33,5.33,0,0,0,568.08,468.172Z" transform="translate(-461.307 -339.715)" fill="#263238"/>
    <path id="Path_11627" data-name="Path 11627" d="M536.481,448.81S517.6,461.188,516.866,461.7c-1.018.738.155,4.426,1.918,3.8.834-.3,16.694-4.714,18.4-5.378s6.3-4.426,6.3-4.426Z" transform="translate(-447.774 -335.077)" fill="#ff725e"/>
    <path id="Path_11628" data-name="Path 11628" d="M534.794,460.978a3.616,3.616,0,0,0-1.269-2.021,3.511,3.511,0,0,0-2.125-1.077,18.416,18.416,0,0,1,1.9,1.32A20.927,20.927,0,0,1,534.794,460.978Z" transform="translate(-451.685 -337.456)" fill="#263238"/>
    <path id="Path_11629" data-name="Path 11629" d="M537.23,458.917a4.979,4.979,0,0,0-2.951-3.047c-.051.081.782.583,1.593,1.424S537.141,458.961,537.23,458.917Z" transform="translate(-452.44 -336.929)" fill="#263238"/>
    <path id="Path_11630" data-name="Path 11630" d="M539.633,457.34a3.748,3.748,0,0,0-2.693-3.32,13.553,13.553,0,0,1,1.6,1.475,14.063,14.063,0,0,1,1.092,1.844Z" transform="translate(-453.139 -336.444)" fill="#263238"/>
    <path id="Path_11631" data-name="Path 11631" d="M538.718,453.652c.044,0-.214-.531-.428-1.409a7.663,7.663,0,0,1-.221-1.571,7.95,7.95,0,0,1,0-.93.952.952,0,0,1,.1-.4.192.192,0,0,1,.258-.059c.221.089.332.45.435.738a4.469,4.469,0,0,1,.184.893,6.385,6.385,0,0,1-.052,1.579c-.133.893-.31,1.475-.258,1.475a4.051,4.051,0,0,0,.494-1.424,5.9,5.9,0,0,0,.118-1.638,4.692,4.692,0,0,0-.177-.974,5.114,5.114,0,0,0-.184-.494.907.907,0,0,0-.428-.457.538.538,0,0,0-.664.177,1.157,1.157,0,0,0-.155.568,7.1,7.1,0,0,0,0,.974,7.017,7.017,0,0,0,.3,1.608,3.425,3.425,0,0,0,.672,1.343Z" transform="translate(-453.345 -335.109)" fill="#263238"/>
    <path id="Path_11632" data-name="Path 11632" d="M539,454.749c0,.052.472-.177,1.232-.361a6.859,6.859,0,0,1,1.357-.185,2.725,2.725,0,0,1,.775.052.509.509,0,0,1,.45.443.671.671,0,0,1-.317.6,1.586,1.586,0,0,1-.738.236,3.639,3.639,0,0,1-1.335-.133,8.117,8.117,0,0,0-1.232-.369,3.418,3.418,0,0,0,1.166.59,3.366,3.366,0,0,0,1.431.214,1.859,1.859,0,0,0,.856-.266,1,1,0,0,0,.465-.9.841.841,0,0,0-.738-.738,3.17,3.17,0,0,0-.863-.044,5.9,5.9,0,0,0-1.409.266A2.951,2.951,0,0,0,539,454.749Z" transform="translate(-453.679 -336.405)" fill="#263238"/>
    <path id="Path_11633" data-name="Path 11633" d="M522.187,468.827a1.244,1.244,0,0,0,.465-.738,2.8,2.8,0,0,0-.354-2.051,7.769,7.769,0,0,0-.635-.944,3.412,3.412,0,0,0-.642-.686,1.114,1.114,0,0,0-.6-.258c-.155,0-.236,0-.236.052a1.8,1.8,0,0,1,.686.384,4.421,4.421,0,0,1,.546.686c.192.288.406.59.59.93a2.907,2.907,0,0,1,.413,1.844A7.511,7.511,0,0,1,522.187,468.827Z" transform="translate(-448.742 -339.101)" fill="#263238"/>
    <path id="Path_11634" data-name="Path 11634" d="M531.271,462.629a2.847,2.847,0,0,0-2.331-2.788,10.328,10.328,0,0,1,1.409,1.188A10.918,10.918,0,0,1,531.271,462.629Z" transform="translate(-451.04 -337.97)" fill="#263238"/>
    <path id="Path_11635" data-name="Path 11635" d="M542,459.07a6.454,6.454,0,0,0-.826.568,23.615,23.615,0,0,1-2.331,1.431,30.1,30.1,0,0,1-3.688,1.645c-1.431.538-3.039,1.04-4.736,1.534-3.4.974-6.477,1.874-8.7,2.538l-2.633.811a6.02,6.02,0,0,0-.944.339,6.525,6.525,0,0,0,.981-.214l2.656-.738c2.213-.6,5.326-1.475,8.734-2.449,1.7-.494,3.312-1,4.751-1.564a28.032,28.032,0,0,0,3.688-1.726,18.45,18.45,0,0,0,2.294-1.527A4.776,4.776,0,0,0,542,459.07Z" transform="translate(-448.207 -337.768)" fill="#263238"/>
    <path id="Path_11636" data-name="Path 11636" d="M548.343,459.227a5.2,5.2,0,0,0-1.6-.428,6.565,6.565,0,0,0-3.969.487,4.683,4.683,0,0,0-1.7,1.475,8.114,8.114,0,0,0-.885,1.579,6.089,6.089,0,0,0-.524,1.571,12.265,12.265,0,0,0,.738-1.475,5.982,5.982,0,0,1,2.523-2.847,6.927,6.927,0,0,1,3.792-.546C547.716,459.138,548.335,459.279,548.343,459.227Z" transform="translate(-453.852 -337.667)" fill="#263238"/>
    <path id="Path_11637" data-name="Path 11637" d="M478.394,347.633l15.491,1.475,6.3,1.785a17.145,17.145,0,0,1,7.17,4.109l20.294,19.482,3.688-30.245,10.143.878-1.7,38.95a11.6,11.6,0,0,1-11.065,8.078,12.01,12.01,0,0,1-8.166-3.356L506.1,375.2l-.428,19.416,10.025,8.115-38.662,21.54s-2.1-8.233-1.143-26.557c.177-3.364-5.99-13.573-6.462-16.576-1.807-11.545-1.527-28.431-1.527-28.431Z" transform="translate(-435.026 -307.647)" fill="#92c9e8"/>
    <path id="Path_11638" data-name="Path 11638" d="M461.183,355.22s-7.842,2.914-9.737,9.051c-1.682,5.452-7.3,36.08-7.3,36.08l-5.57,32.458,11.663.443L463.661,378Z" transform="translate(-427.338 -310.527)" fill="#92c9e8"/>
    <path id="Path_11639" data-name="Path 11639" d="M468.51,397.6a2.908,2.908,0,0,0,.236-.657c.133-.428.31-1.055.516-1.83.42-1.556.959-3.688,1.475-6.1s.974-4.566,1.261-6.152c.14-.789.251-1.431.317-1.874a2.738,2.738,0,0,0,.067-.7,3.254,3.254,0,0,0-.2.679c-.111.509-.251,1.121-.421,1.852-.361,1.645-.834,3.77-1.35,6.123l-1.4,6.115c-.162.738-.3,1.35-.413,1.859A3.11,3.11,0,0,0,468.51,397.6Z" transform="translate(-435.189 -317.103)" fill="#263238"/>
    <path id="Path_11640" data-name="Path 11640" d="M565.222,348.241a3.688,3.688,0,0,0,.3-1.527,3.96,3.96,0,0,0,0-1.564,3.688,3.688,0,0,0-.3,1.534A3.916,3.916,0,0,0,565.222,348.241Z" transform="translate(-460.537 -307.886)" fill="#263238"/>
    <path id="Path_11641" data-name="Path 11641" d="M561.185,348.3a4.006,4.006,0,0,0,.251-1.623,4.318,4.318,0,0,0-.081-1.645,4.03,4.03,0,0,0-.251,1.63A4.265,4.265,0,0,0,561.185,348.3Z" transform="translate(-459.466 -307.854)" fill="#263238"/>
    <path id="Path_11642" data-name="Path 11642" d="M557.2,347.914a5.422,5.422,0,0,0,.266-1.815,4.943,4.943,0,0,0-.066-1.829,5.116,5.116,0,0,0-.266,1.815A4.94,4.94,0,0,0,557.2,347.914Z" transform="translate(-458.42 -307.655)" fill="#263238"/>
    <path id="Path_11643" data-name="Path 11643" d="M549.3,389.626a10.928,10.928,0,0,0-.111-2.678,10.688,10.688,0,0,0-.443-2.648,10.926,10.926,0,0,0,.111,2.678A10.379,10.379,0,0,0,549.3,389.626Z" transform="translate(-456.226 -318.155)" fill="#263238"/>
    <path id="Path_11644" data-name="Path 11644" d="M451.574,456.38a4.175,4.175,0,0,0-.45,1.623,4.369,4.369,0,0,0-.125,1.682,4.177,4.177,0,0,0,.45-1.623A4.366,4.366,0,0,0,451.574,456.38Z" transform="translate(-430.587 -337.063)" fill="#263238"/>
    <path id="Path_11645" data-name="Path 11645" d="M446.4,456.37a3.747,3.747,0,0,0-.413,1.475,3.644,3.644,0,0,0-.089,1.527,3.5,3.5,0,0,0,.42-1.475A3.748,3.748,0,0,0,446.4,456.37Z" transform="translate(-429.245 -337.06)" fill="#263238"/>
    <path id="Path_11646" data-name="Path 11646" d="M441.456,455.87a5.45,5.45,0,0,0-.384,1.667,5.645,5.645,0,0,0-.184,1.7,3.687,3.687,0,0,0,.516-1.638A3.9,3.9,0,0,0,441.456,455.87Z" transform="translate(-427.942 -336.929)" fill="#263238"/>
    <path id="Path_11647" data-name="Path 11647" d="M460.69,360.31c0,.066.811,0,2.073.28a9.84,9.84,0,0,1,4.426,2.213,9.959,9.959,0,0,1,2.781,4.116c.435,1.217.494,2.029.553,2.021a1.594,1.594,0,0,0,0-.575,8.229,8.229,0,0,0-.325-1.52,9.42,9.42,0,0,0-2.781-4.293,9.538,9.538,0,0,0-4.625-2.213,8.114,8.114,0,0,0-1.549-.111,1.972,1.972,0,0,0-.553.081Z" transform="translate(-433.137 -311.84)" fill="#263238"/>
    <path id="Path_11648" data-name="Path 11648" d="M517.13,391.291c-.066,0,.3-.959.671-2.516a22,22,0,0,0-.656-12.319c-.531-1.512-1-2.4-.937-2.427s.162.2.384.59a14.761,14.761,0,0,1,.8,1.741,19.806,19.806,0,0,1,.664,12.482,13.161,13.161,0,0,1-.62,1.815A2.64,2.64,0,0,1,517.13,391.291Z" transform="translate(-447.699 -315.46)" fill="#263238"/>
    <path id="Path_11649" data-name="Path 11649" d="M513.048,410.291a2.679,2.679,0,0,1-.671.044,16.481,16.481,0,0,1-1.822-.081,31.225,31.225,0,0,1-11.545-3.3c-.686-.354-1.232-.664-1.593-.9a2.287,2.287,0,0,1-.546-.391c0-.052.863.406,2.257,1.047a38.143,38.143,0,0,0,11.456,3.275,24.455,24.455,0,0,1,2.464.31Z" transform="translate(-442.628 -323.757)" fill="#263238"/>
    <g id="Group_4667" data-name="Group 4667" transform="translate(53.291 81.135)" opacity="0.2">
      <path id="Path_11650" data-name="Path 11650" d="M495.595,404.62c1.21,1.092,3.1,1.247,4.721,1.217s3.246-.354,4.876-.325a6.042,6.042,0,0,1,4.426,1.674,2.213,2.213,0,0,1,.634,1.335,1.2,1.2,0,0,1-.738,1.188,1.9,1.9,0,0,1-.93,0c-4.566-.944-9.472-2.014-13.005-5.053" transform="translate(-495.58 -404.62)"/>
    </g>
    <g id="Group_4668" data-name="Group 4668" transform="translate(34.73 64.61)" opacity="0.2">
      <path id="Path_11651" data-name="Path 11651" d="M474.057,400.19c1.2-.347,1.394-1.756,1.475-3a27.191,27.191,0,0,0-2.9-14.968c-.568,3.386-1.512,6.92-2.213,10.372Z" transform="translate(-470.42 -382.22)"/>
    </g>
    <path id="Path_11652" data-name="Path 11652" d="M466.014,387.187a2.95,2.95,0,0,0-.989-.443,3.334,3.334,0,0,0-2.722.782,6.175,6.175,0,0,0-1.837,3.88c-.3,1.667-.487,3.6-1.734,5.245a4.064,4.064,0,0,1-2.5,1.475,20.184,20.184,0,0,1-2.663.192,5.739,5.739,0,0,0-3.947,1.623,6.07,6.07,0,0,0-1.564,2.493c-.207.679-.229,1.077-.273,1.07a.944.944,0,0,1,0-.288,3.593,3.593,0,0,1,.133-.819,6.012,6.012,0,0,1,3.246-3.88,6.566,6.566,0,0,1,2.383-.553,21.081,21.081,0,0,0,2.611-.207,3.688,3.688,0,0,0,2.272-1.372,6.979,6.979,0,0,0,1.151-2.493c.236-.87.361-1.748.538-2.582a6.478,6.478,0,0,1,2.014-4.02,3.431,3.431,0,0,1,2.951-.738,2.073,2.073,0,0,1,.738.376C465.955,387.105,466.022,387.172,466.014,387.187Z" transform="translate(-429.75 -318.725)" fill="#fafafa"/>
    <path id="Path_11653" data-name="Path 11653" d="M517.861,367.383a4.975,4.975,0,0,1-.967,1.475,7.333,7.333,0,0,1-4.256,2.28,6.964,6.964,0,0,1-3.371-.266,11.065,11.065,0,0,1-3.29-2.051,18.507,18.507,0,0,0-3.386-2.457,5.473,5.473,0,0,0-2.08-.575,6.522,6.522,0,0,0-2.213.28,14.952,14.952,0,0,0-3.976,2.058,24.3,24.3,0,0,1-3.688,2.213,9.392,9.392,0,0,1-3.792.811,10.844,10.844,0,0,1-3.334-.553,10.053,10.053,0,0,1-4.087-2.619,8.112,8.112,0,0,1-.812-1.04,1.852,1.852,0,0,1-.229-.4c.037,0,.361.524,1.151,1.335a10.223,10.223,0,0,0,4.057,2.464,9.649,9.649,0,0,0,6.9-.317,26.214,26.214,0,0,0,3.593-2.213,14.806,14.806,0,0,1,4.072-2.117,6.536,6.536,0,0,1,2.346-.288,5.785,5.785,0,0,1,2.213.612,18.847,18.847,0,0,1,3.452,2.523,10.8,10.8,0,0,0,3.172,2.021,6.735,6.735,0,0,0,3.224.3,7.376,7.376,0,0,0,4.183-2.117A11.616,11.616,0,0,0,517.861,367.383Z" transform="translate(-437.778 -313.196)" fill="#fafafa"/>
    <path id="Path_11654" data-name="Path 11654" d="M548.386,401.667a10.2,10.2,0,0,1-.3-1.357,17.373,17.373,0,0,0-1.018-3.6,8.231,8.231,0,0,0-1.394-2.154,5.414,5.414,0,0,0-2.412-1.593,10.019,10.019,0,0,0-3.239-.325,13.453,13.453,0,0,1-3.607-.258,7.952,7.952,0,0,1-3.15-1.807,28.381,28.381,0,0,1-2.339-2.39,9.911,9.911,0,0,0-4.463-3.18,4.493,4.493,0,0,0-3.563.539,4.347,4.347,0,0,0-.959.974,1.864,1.864,0,0,1,.155-.325,3.073,3.073,0,0,1,.738-.738,4.581,4.581,0,0,1,3.688-.679,9.946,9.946,0,0,1,4.655,3.2c.738.738,1.475,1.6,2.331,2.346a7.585,7.585,0,0,0,3,1.726c2.316.583,4.736-.111,6.853.612a5.753,5.753,0,0,1,2.537,1.719,8.146,8.146,0,0,1,1.4,2.265,15.147,15.147,0,0,1,.959,3.688c.066.443.111.789.133,1.025a1.121,1.121,0,0,1-.007.31Z" transform="translate(-449.204 -318.245)" fill="#fafafa"/>
    <path id="Path_11655" data-name="Path 11655" d="M507.008,391.528a1.425,1.425,0,0,1-.376.059,4.819,4.819,0,0,1-1.092-.037,13.768,13.768,0,0,1-3.777-1.365,15.761,15.761,0,0,0-2.545-.989,6.778,6.778,0,0,0-3.069-.1,12.96,12.96,0,0,0-6.108,3.556,70.132,70.132,0,0,1-5.252,5.038,11.743,11.743,0,0,1-5.429,2.434,11.154,11.154,0,0,1-4.013-.059,8.2,8.2,0,0,1-1.062-.273,1.476,1.476,0,0,1-.354-.14c0-.037.516.125,1.438.266a11.736,11.736,0,0,0,9.2-2.508c1.748-1.365,3.334-3.246,5.208-5.038a12.981,12.981,0,0,1,6.307-3.622,7.088,7.088,0,0,1,3.216.14,15.286,15.286,0,0,1,2.582,1.055,14.988,14.988,0,0,0,3.688,1.475A14.256,14.256,0,0,0,507.008,391.528Z" transform="translate(-436.61 -319.29)" fill="#fafafa"/>
    <path id="Path_11656" data-name="Path 11656" d="M508.7,410.133a4.825,4.825,0,0,0-1.475.6c-.738.531-.856,1.284-.966,1.262s-.081-.207,0-.524a2.118,2.118,0,0,1,.738-1.04A2.036,2.036,0,0,1,508.18,410C508.519,410,508.7,410.081,508.7,410.133Z" transform="translate(-445.07 -324.896)" fill="#fafafa"/>
    <path id="Path_11657" data-name="Path 11657" d="M517.221,406.1a4.6,4.6,0,0,1-.944,2.213,4.663,4.663,0,0,1-1.7,1.734,21.372,21.372,0,0,1,1.38-1.948,23.293,23.293,0,0,1,1.261-2Z" transform="translate(-447.273 -323.874)" fill="#fafafa"/>
    <path id="Path_11658" data-name="Path 11658" d="M481.922,420.046c-.037.1-.834-.118-1.83-.118a14.64,14.64,0,0,1-1.822.089,2.678,2.678,0,0,1,1.829-.472A2.729,2.729,0,0,1,481.922,420.046Z" transform="translate(-437.749 -327.396)" fill="#fafafa"/>
    <path id="Path_11659" data-name="Path 11659" d="M454.52,369.644a2.794,2.794,0,0,0,.479.177,2.213,2.213,0,0,0,1.343-.118,3.689,3.689,0,0,0,1.549-1.291,18.649,18.649,0,0,1,1.645-2.043,8.734,8.734,0,0,1,4.183-2.294,8.175,8.175,0,0,1,1.438-.184c.347,0,.531,0,.531.052s-.738.074-1.9.4a9.279,9.279,0,0,0-3.976,2.3,19.847,19.847,0,0,0-1.638,2,3.911,3.911,0,0,1-1.741,1.32,2.213,2.213,0,0,1-1.475,0C454.623,369.814,454.5,369.651,454.52,369.644Z" transform="translate(-431.519 -312.801)" fill="#fafafa"/>
    <path id="Path_11660" data-name="Path 11660" d="M505.2,352a2.87,2.87,0,0,1-.834.966,6.971,6.971,0,0,1-2.744,1.424,6.868,6.868,0,0,1-3.091.1,2.722,2.722,0,0,1-1.2-.435,9.037,9.037,0,0,1,1.232.155,8.365,8.365,0,0,0,2.951-.207,8.271,8.271,0,0,0,2.67-1.261A9.043,9.043,0,0,1,505.2,352Z" transform="translate(-442.749 -309.682)" fill="#fafafa"/>
    <path id="Path_11661" data-name="Path 11661" d="M457.531,426.514c0,.037-.31,0-.848.148a5.526,5.526,0,0,0-2.065,1,8.513,8.513,0,0,0-2.213,2.611c-.664,1.129-1.21,2.471-1.911,3.836a10.275,10.275,0,0,1-2.626,3.452,4.854,4.854,0,0,1-3.349,1.136,3.688,3.688,0,0,1-2.213-.826,2.21,2.21,0,0,1-.443-.479c-.081-.125-.118-.192-.1-.2a5.442,5.442,0,0,0,.642.568,3.792,3.792,0,0,0,2.154.671,4.7,4.7,0,0,0,3.12-1.143,10.4,10.4,0,0,0,2.508-3.357c.686-1.343,1.254-2.693,1.948-3.836a8.47,8.47,0,0,1,2.346-2.656,5.165,5.165,0,0,1,2.213-.929,3.126,3.126,0,0,1,.649,0C457.427,426.492,457.531,426.5,457.531,426.514Z" transform="translate(-428.171 -329.224)" fill="#fafafa"/>
    <g id="Group_4669" data-name="Group 4669" transform="translate(90.794 66.27)" opacity="0.3">
      <path id="Path_11662" data-name="Path 11662" d="M547.932,384.625A6.64,6.64,0,0,0,546.6,390.4c.081.332.229.693.553.789a.738.738,0,0,0,.738-.28,1.941,1.941,0,0,0,.31-.738,11.8,11.8,0,0,0-.1-5.7" transform="translate(-546.419 -384.47)"/>
    </g>
    <path id="Path_11663" data-name="Path 11663" d="M562.683,361.57a10.739,10.739,0,0,0-1.859,2.213,17.548,17.548,0,0,0-1.343,2.87c-.421,1.114-.834,2.383-1.424,3.688a9.38,9.38,0,0,1-2.294,3.231,5.9,5.9,0,0,1-2.951,1.343,4.028,4.028,0,0,1-2.169-.28,2.959,2.959,0,0,1-.509-.3c-.111-.081-.162-.133-.155-.14s.251.133.738.3a4.145,4.145,0,0,0,2.073.148,5.708,5.708,0,0,0,2.766-1.335,9.315,9.315,0,0,0,2.213-3.128c.575-1.247,1-2.5,1.475-3.629a16.129,16.129,0,0,1,1.475-2.884,7.73,7.73,0,0,1,1.424-1.645A2.289,2.289,0,0,1,562.683,361.57Z" transform="translate(-456.559 -312.193)" fill="#fafafa"/>
    <path id="Path_11664" data-name="Path 11664" d="M564.118,350.459a4.645,4.645,0,0,1-1.3,1.136,10.7,10.7,0,0,1-7.989,1.579,4.7,4.7,0,0,1-1.63-.553c0-.066.642.133,1.675.28a11.965,11.965,0,0,0,7.8-1.542C563.6,350.857,564.118,350.407,564.118,350.459Z" transform="translate(-457.404 -309.277)" fill="#fafafa"/>
    <path id="Path_11665" data-name="Path 11665" d="M549.706,444s-46.356-30.43-48.252-31.064-6.484-3.637-11.065-2.375-8.7,5.385-10.755,11.39-2.213,19.46-2.213,19.46,3.637,10.6,10.755,12.814a17.889,17.889,0,0,0,1.852.465,21.9,21.9,0,0,0,22.389-9.671l1.04-1.579s30.326,11.139,30.8,10.984Z" transform="translate(-437.526 -324.963)" fill="#133643"/>
    <path id="Path_11666" data-name="Path 11666" d="M578.447,407.5a9.044,9.044,0,0,1,5.695,8.38c.044,12.179-24.609,25.635-24.609,25.635L526.72,419.769v-2.3S568.975,402.278,578.447,407.5Z" transform="translate(-450.458 -323.954)" fill="#133643"/>
    <path id="Path_11667" data-name="Path 11667" d="M497.66,436.326l.258.118.738.3,2.951,1.129,10.925,4.116c4.64,1.726,10.195,3.784,16.428,6.056s13.146,4.758,20.53,7.251l.133.044.066-.125,3.622-6.912,1.844-3.526.074-.14-.133-.081-35.35-22.448-10.623-6.7-2.884-1.8-.738-.465-.258-.148.243.177.738.487,2.855,1.852,10.564,6.787,35.306,22.536-.059-.214-1.844,3.526-3.644,6.9.2-.081c-7.377-2.493-14.289-4.972-20.53-7.222l-16.458-5.975-10.955-4.013-2.951-1.077-.738-.273Z" transform="translate(-442.835 -325.684)" fill="#455a64"/>
    <path id="Path_11668" data-name="Path 11668" d="M549.25,433.3a6.816,6.816,0,0,0,.856-.583c.538-.384,1.306-.966,2.213-1.689,1.881-1.475,4.426-3.511,7.185-5.9s5.164-4.581,6.89-6.219c.863-.819,1.549-1.475,2.014-1.962a5.374,5.374,0,0,0,.738-.738,6.66,6.66,0,0,0-.789.664l-2.088,1.881c-1.756,1.593-4.2,3.777-6.942,6.13s-5.274,4.426-7.119,5.946L550,432.6a6.331,6.331,0,0,0-.745.7Z" transform="translate(-456.368 -326.525)" fill="#455a64"/>
    <path id="Path_11669" data-name="Path 11669" d="M582.165,414.031a6.447,6.447,0,0,0-3.165.288,6.365,6.365,0,0,0-2.81,1.475c.052.088,1.247-.679,2.906-1.158S582.165,414.135,582.165,414.031Z" transform="translate(-463.434 -325.933)" fill="#455a64"/>
    <path id="Path_11670" data-name="Path 11670" d="M579.4,411.46a5,5,0,0,0-2.951,3.688,22.765,22.765,0,0,1,1.284-2.007C578.56,412.131,579.46,411.541,579.4,411.46Z" transform="translate(-463.503 -325.28)" fill="#455a64"/>
    <path id="Path_11671" data-name="Path 11671" d="M598.638,463.728c0-.037-.391-.118-.848.258a3.055,3.055,0,0,0-.944,1.9,3.74,3.74,0,0,0,.3,2.1,1.95,1.95,0,0,0,.516.738c.03,0-.133-.31-.3-.8a4.184,4.184,0,0,1-.184-1.97,3.291,3.291,0,0,1,.775-1.778A2.156,2.156,0,0,1,598.638,463.728Z" transform="translate(-468.842 -338.981)" fill="#263238"/>
    <path id="Path_11672" data-name="Path 11672" d="M464.77,316.109a4.662,4.662,0,0,0-6.787.3,7.936,7.936,0,0,0-1.564,4.116,19.837,19.837,0,0,1-.863,4.367,4.478,4.478,0,0,1-3.1,2.951c-1.107.207-2.42-.133-3.268.6a2.125,2.125,0,0,0-.192,2.641,4.927,4.927,0,0,0,2.272,1.7c.347.155.738.376.738.738,0,.494-.634.671-1.092.863a2.736,2.736,0,0,0-1,3.821,4.426,4.426,0,0,0,3.829,1.911,12.931,12.931,0,0,0,4.338-1,1.682,1.682,0,0,0-.044,2.139,2.317,2.317,0,0,0,2.1.782,3.778,3.778,0,0,0,2.036-1.055,7.325,7.325,0,0,0,2-4.02,24.02,24.02,0,0,0,.266-4.552,122.079,122.079,0,0,1,1.158-16.229" transform="translate(-429.973 -299.921)" fill="#263238"/>
    <path id="Path_11673" data-name="Path 11673" d="M487.583,302.376a11.22,11.22,0,0,1,10.7,11.2c0,4.64-.066,9.686-.362,12.681-.686,6.964-5.9,8.151-5.9,8.151s.162,4.33.4,8.432a7.524,7.524,0,0,1-7.17,7.687h0a7.158,7.158,0,0,1-7.967-6.374l-1.4-30.046A11.22,11.22,0,0,1,487.6,302.376Z" transform="translate(-437.118 -296.662)" fill="#ffb476"/>
    <path id="Path_11674" data-name="Path 11674" d="M503.47,321.424a.885.885,0,0,1-.811.974.841.841,0,0,1-.959-.738.885.885,0,0,1,.8-.944.841.841,0,0,1,.966.708Z" transform="translate(-443.894 -301.474)" fill="#263238"/>
    <path id="Path_11675" data-name="Path 11675" d="M502.819,319.525c-.1.125-.8-.332-1.756-.273s-1.616.575-1.726.465.044-.258.332-.5a2.5,2.5,0,0,1,1.379-.516,2.434,2.434,0,0,1,1.409.361C502.768,319.274,502.871,319.473,502.819,319.525Z" transform="translate(-443.266 -300.946)" fill="#263238"/>
    <path id="Path_11676" data-name="Path 11676" d="M490.035,322.125a.893.893,0,0,1-.8.944.848.848,0,0,1-.959-.738.885.885,0,0,1,.8-.944.848.848,0,0,1,.959.738Z" transform="translate(-440.374 -301.65)" fill="#263238"/>
    <path id="Path_11677" data-name="Path 11677" d="M489.379,320.795c-.1.125-.8-.332-1.748-.273s-1.623.575-1.734.465.044-.266.339-.5a2.4,2.4,0,0,1,1.372-.516,2.361,2.361,0,0,1,1.409.362C489.32,320.536,489.431,320.728,489.379,320.795Z" transform="translate(-439.74 -301.279)" fill="#263238"/>
    <path id="Path_11678" data-name="Path 11678" d="M495.567,327.57a6.082,6.082,0,0,1,1.527-.376c.243-.037.465-.1.5-.266a1.292,1.292,0,0,0-.207-.738l-.826-1.807a31.643,31.643,0,0,1-1.9-4.743,32.65,32.65,0,0,1,2.279,4.581c.28.634.546,1.239.8,1.822a1.394,1.394,0,0,1,.184.944.634.634,0,0,1-.384.384,1.873,1.873,0,0,1-.406.081,6.729,6.729,0,0,1-1.564.118Z" transform="translate(-442.048 -301.194)" fill="#263238"/>
    <path id="Path_11679" data-name="Path 11679" d="M494.42,345.073A18.892,18.892,0,0,1,485,343s2.575,4.957,9.509,4.057Z" transform="translate(-439.514 -307.322)" fill="#995037"/>
    <path id="Path_11680" data-name="Path 11680" d="M486.375,317.113c.111.17.8-.118,1.667-.31s1.616-.236,1.645-.435-.782-.487-1.8-.258S486.257,316.966,486.375,317.113Z" transform="translate(-439.871 -300.246)" fill="#263238"/>
    <path id="Path_11681" data-name="Path 11681" d="M499.159,314.991c.044.192.826.17,1.763.184s1.719.052,1.77-.14-.738-.568-1.763-.575S499.108,314.807,499.159,314.991Z" transform="translate(-443.228 -299.835)" fill="#263238"/>
    <path id="Path_11682" data-name="Path 11682" d="M473.011,338.516c-.066-1.431,1.534-7.643,2.176-11.456s-1.859-4.426-2.257-6.684a7.761,7.761,0,0,1,.738-4.389c3.644,1.306,5.083-1.291,7.074-2.825,2.11-1.638,2.575-3.644,3.438-6.174s1.874-4.1,4.537-4.352a7.908,7.908,0,0,1,3.541,4.065c.812,2.368,1.475,11.6,1.475,11.6.369-4.426,3.961-6.285,2.988-12.806-.421-2.811-2.752-6.639-6.352-7.214-1.048-.17-3.024-.3-3.024-.3-2.147-1.933-3.194-1.874-5.252-2.789-4.426-1.97-9.782,1.549-12.725,5.407-2.272,2.951-3.371,6.986-3.991,10.763a31.3,31.3,0,0,0-.17,7.923c.148,1.571-.044,3.563-1.593,4.773-2.213,1.719-2.789,4.994-1.261,9.361s-4.1,11.8-4.1,11.8a34.674,34.674,0,0,1,5.016-3.4C465.531,340.641,473.011,338.516,473.011,338.516Z" transform="translate(-432.497 -294.635)" fill="#263238"/>
    <path id="Path_11683" data-name="Path 11683" d="M493.5,333.307a1.431,1.431,0,0,0-1.313-.435,1.335,1.335,0,0,0-.863.553.834.834,0,0,0,0,.944.966.966,0,0,0,1.055.184,3.143,3.143,0,0,0,.966-.679.835.835,0,0,0,.207-.251.266.266,0,0,0,0-.3" transform="translate(-441.136 -304.658)" fill="#995037"/>
    <path id="Path_11684" data-name="Path 11684" d="M491.467,331.83c.125,0,.192.841.974,1.394s1.682.391,1.7.509-.192.184-.575.221a2.125,2.125,0,0,1-1.416-.376,1.881,1.881,0,0,1-.738-1.173C491.327,332.051,491.408,331.83,491.467,331.83Z" transform="translate(-441.186 -304.392)" fill="#263238"/>
    <path id="Path_11685" data-name="Path 11685" d="M450.687,325.405a7,7,0,0,0,.074.959,3.447,3.447,0,0,0,.362,1.055,2.427,2.427,0,0,0,1.033,1,2.021,2.021,0,0,0,1.7.081,2.154,2.154,0,0,0,1.136-1.564,8.536,8.536,0,0,0,.118-2.279c0-.8-.074-1.63-.074-2.486a9.943,9.943,0,0,1,.93-4.729,4.707,4.707,0,0,1,2.951-2.538,3.755,3.755,0,0,1,2.626.207,2.346,2.346,0,0,1,.738.59,6.2,6.2,0,0,0-.811-.509,3.762,3.762,0,0,0-2.552-.125,4.574,4.574,0,0,0-2.8,2.479,9.892,9.892,0,0,0-.885,4.618c0,.856.044,1.682.074,2.486a8.739,8.739,0,0,1-.14,2.338,2.361,2.361,0,0,1-1.269,1.689,2.213,2.213,0,0,1-1.844-.111,2.531,2.531,0,0,1-1.07-1.092,3.289,3.289,0,0,1-.339-1.1A2.949,2.949,0,0,1,450.687,325.405Z" transform="translate(-430.496 -299.915)" fill="#263238"/>
    <path id="Path_11686" data-name="Path 11686" d="M464.167,336.887a1.806,1.806,0,0,1-.369-.347,2.907,2.907,0,0,1-.539-1.365,4.006,4.006,0,0,1,.4-2.287,8.781,8.781,0,0,1,1.918-2.412,16.279,16.279,0,0,0,2.508-2.715,6.373,6.373,0,0,0,.878-4.057,42.673,42.673,0,0,1-.354-4.714,6.2,6.2,0,0,1,.575-2.464,4.427,4.427,0,0,1,1.8-1.874c1.549-.878,3.283-1.121,4.7-1.9a7.657,7.657,0,0,0,3.039-3.43c.679-1.335,1.166-2.693,1.793-3.88a8.382,8.382,0,0,1,2.324-2.951,4.537,4.537,0,0,1,2.9-.988,3.607,3.607,0,0,1,2.147.863,2.692,2.692,0,0,1,.826,1.21,1.356,1.356,0,0,1,.089.369v.133a1.276,1.276,0,0,0-.148-.487,2.693,2.693,0,0,0-.841-1.158,3.571,3.571,0,0,0-2.1-.8,4.426,4.426,0,0,0-2.788,1,8.159,8.159,0,0,0-2.257,2.877c-.612,1.18-1.092,2.53-1.778,3.888a7.849,7.849,0,0,1-3.12,3.534c-1.475.811-3.194,1.048-4.684,1.9a4.138,4.138,0,0,0-1.711,1.778,6.153,6.153,0,0,0-.561,2.368,43.408,43.408,0,0,0,.347,4.692,6.573,6.573,0,0,1-.9,4.161,16.385,16.385,0,0,1-2.56,2.729,8.764,8.764,0,0,0-1.911,2.353,3.991,3.991,0,0,0-.428,2.213,2.855,2.855,0,0,0,.8,1.77Z" transform="translate(-433.804 -296.435)" fill="#455a64"/>
    <path id="Path_11687" data-name="Path 11687" d="M466.879,319.6a3.541,3.541,0,0,1,.878-4.19,16.073,16.073,0,0,0-.738,2.029A14.755,14.755,0,0,0,466.879,319.6Z" transform="translate(-434.671 -300.084)" fill="#fafafa"/>
    <path id="Path_11688" data-name="Path 11688" d="M470.195,346.612a16.458,16.458,0,0,0,2.154,10.667,8.379,8.379,0,0,0,2.634,2.906,4.352,4.352,0,0,0,3.784.539,2.951,2.951,0,0,0,1.955-3.091c-.3-1.844-2.567-3-2.582-4.876.826.5,1.947.981,2.67.339a1.638,1.638,0,0,0,.273-1.815,7.026,7.026,0,0,0-1.121-1.6,10.033,10.033,0,0,1-2.006-7.635c.111-.738.31-3.054.325-3.806s-.207,0-.738-.494a2.339,2.339,0,0,0-2.11-.391,4.485,4.485,0,0,0-1.866,1.173A8.638,8.638,0,0,0,471,345.078" transform="translate(-435.59 -305.815)" fill="#263238"/>
  </g>
  <g id="freepik--Plant--inject-12" transform="translate(0 130.921)">
    <path id="Path_11689" data-name="Path 11689" d="M188.638,288a.435.435,0,0,0-.066-.155c-.066-.118-.148-.258-.236-.435-.214-.376-.553-.93-1.025-1.6a17.343,17.343,0,0,0-5.075-4.8,12.542,12.542,0,0,0-4.544-1.667,11.191,11.191,0,0,0-5.525.583,8.912,8.912,0,0,0-4.729,3.865,27.086,27.086,0,0,0-2.073,6.256,11.427,11.427,0,0,1-1.32,2.951,9,9,0,0,1-2.213,2.213c-.848.62-1.734,1.188-2.53,1.837a10.853,10.853,0,0,0-2.058,2.213,13.692,13.692,0,0,0-2.11,5.164,18.338,18.338,0,0,0-.28,4.839,36.489,36.489,0,0,0,1.239,6.875c.207.8.384,1.416.509,1.829a3.3,3.3,0,0,0,.207.627,2.474,2.474,0,0,0-.133-.649c-.133-.428-.258-1.07-.443-1.844a40.206,40.206,0,0,1-1.107-6.86,18.383,18.383,0,0,1,.317-4.751,13.618,13.618,0,0,1,2.088-5.009,10.561,10.561,0,0,1,2-2.147c.782-.634,1.66-1.188,2.523-1.822a9.485,9.485,0,0,0,2.338-2.3,11.8,11.8,0,0,0,1.372-3.083c.642-2.169.988-4.36,2.029-6.174a8.661,8.661,0,0,1,4.529-3.733,11.021,11.021,0,0,1,5.356-.59,12.2,12.2,0,0,1,4.426,1.586,17.63,17.63,0,0,1,5.083,4.647c.494.656.848,1.188,1.084,1.549a3.689,3.689,0,0,0,.369.583Z" transform="translate(-109.543 -259.393)" fill="#e0e0e0"/>
    <path id="Path_11690" data-name="Path 11690" d="M162.7,301.6c.59-.546.87-.17,1.66,0a4.824,4.824,0,0,1,2.125,1.062,8.955,8.955,0,0,1,2.9,9.383,7,7,0,0,1-6.425-10.5" transform="translate(-111.434 -265.186)" fill="#e0e0e0"/>
    <path id="Path_11691" data-name="Path 11691" d="M195.58,286.532c.3-.738.738-.524,1.475-.738a4.831,4.831,0,0,1,2.383.044,8.948,8.948,0,0,1,6.639,7.237,6.993,6.993,0,0,1-10.328-6.72" transform="translate(-120.24 -261.082)" fill="#e0e0e0"/>
    <path id="Path_11692" data-name="Path 11692" d="M155.561,320.817a8.115,8.115,0,0,1,12.7.62,9.988,9.988,0,0,1-6.588,2.6,10.2,10.2,0,0,1-6.639-2.678" transform="translate(-109.603 -269.577)" fill="#e0e0e0"/>
    <path id="Path_11693" data-name="Path 11693" d="M155.437,303.258a8.181,8.181,0,0,1-8.262-9.76,7.377,7.377,0,0,1,8.535,9.678" transform="translate(-107.502 -263.091)" fill="#e0e0e0"/>
    <path id="Path_11694" data-name="Path 11694" d="M165.985,286.448a8.181,8.181,0,0,1-11.065-6.462,7.377,7.377,0,0,1,11.265,6.292" transform="translate(-109.574 -259.301)" fill="#e0e0e0"/>
    <path id="Path_11695" data-name="Path 11695" d="M173.7,283.181a8.174,8.174,0,0,1,11.065,6.462,7.377,7.377,0,0,1-11.264-6.3" transform="translate(-114.448 -260.283)" fill="#e0e0e0"/>
    <path id="Path_11696" data-name="Path 11696" d="M176.382,275.994a8.174,8.174,0,0,1-4.352-12.024,7.377,7.377,0,0,1,4.633,12.046" transform="translate(-113.745 -255.391)" fill="#e0e0e0"/>
    <path id="Path_11697" data-name="Path 11697" d="M189.945,276.96a8.181,8.181,0,0,1,6.683-10.91,7.377,7.377,0,0,1-6.521,11.139" transform="translate(-118.633 -255.936)" fill="#e0e0e0"/>
    <path id="Path_11698" data-name="Path 11698" d="M141.058,350.031,136.44,321.01l35.424.435-3.489,28.209" transform="translate(-104.727 -270.353)" fill="#3d5b81"/>
    <path id="Path_11699" data-name="Path 11699" d="M163.186,311.919a6.027,6.027,0,0,0,5.9.494,6.366,6.366,0,0,0,3.216-5.083,7.229,7.229,0,0,0-5.9-.3,7.119,7.119,0,0,0-3.9,4.367" transform="translate(-111.563 -266.558)" fill="#268d30"/>
    <path id="Path_11700" data-name="Path 11700" d="M185.133,320.388a6.027,6.027,0,0,0,5.9.494,6.351,6.351,0,0,0,3.216-5.083,7.214,7.214,0,0,0-5.9-.3,7.134,7.134,0,0,0-3.91,4.367" transform="translate(-117.318 -268.779)" fill="#268d30"/>
    <path id="Path_11701" data-name="Path 11701" d="M172.96,302.52a6.042,6.042,0,0,0,4.633,3.652,6.381,6.381,0,0,0,5.488-2.479,6.809,6.809,0,0,0-10.4-1.977" transform="translate(-114.233 -264.869)" fill="#268d30"/>
    <path id="Path_11702" data-name="Path 11702" d="M178.9,313.177a6.064,6.064,0,0,0-5.289,2.619,6.352,6.352,0,0,0-.118,6.012,6.794,6.794,0,0,0,6.256-8.535" transform="translate(-114.263 -268.297)" fill="#268d30"/>
    <path id="Path_11703" data-name="Path 11703" d="M188.56,328.555a6.027,6.027,0,0,0,.14,5.9,6.344,6.344,0,0,0,5.4,2.648,7.2,7.2,0,0,0-.339-5.865c-.929-1.7-2.6-2.53-4.706-3.01" transform="translate(-118.214 -272.247)" fill="#268d30"/>
    <path id="Path_11704" data-name="Path 11704" d="M193.847,319.835a4.079,4.079,0,0,0-1.4-.893,6.123,6.123,0,0,0-1.918-.339,23.38,23.38,0,0,0-2.619.155,7.568,7.568,0,0,1-3.216-.28,4.906,4.906,0,0,1-2.656-2.567,14.43,14.43,0,0,1-1.143-3.917,11.45,11.45,0,0,0-1.365-4.02,14.347,14.347,0,0,0-3-3.047,14.607,14.607,0,0,1-2.862-2.906,9.627,9.627,0,0,1-1.431-6.639,9.316,9.316,0,0,1,1.741-4.286,6.9,6.9,0,0,1,.848-.937,2.093,2.093,0,0,1,.339-.288,1.876,1.876,0,0,1-.28.339,8.941,8.941,0,0,0-.782.974,9.715,9.715,0,0,0-.148,10.667,14.554,14.554,0,0,0,2.818,2.818,14.244,14.244,0,0,1,3.076,3.128,11.441,11.441,0,0,1,1.416,4.153,14.326,14.326,0,0,0,1.1,3.836,4.625,4.625,0,0,0,2.449,2.427,7.509,7.509,0,0,0,3.091.3,22.361,22.361,0,0,1,2.641-.1,5.9,5.9,0,0,1,1.97.413,3.246,3.246,0,0,1,1.062.686,1.769,1.769,0,0,1,.221.251C193.832,319.8,193.854,319.828,193.847,319.835Z" transform="translate(-114.088 -262.185)" fill="#ff725e"/>
    <path id="Path_11705" data-name="Path 11705" d="M193.847,319.835a4.079,4.079,0,0,0-1.4-.893,6.123,6.123,0,0,0-1.918-.339,23.38,23.38,0,0,0-2.619.155,7.568,7.568,0,0,1-3.216-.28,4.906,4.906,0,0,1-2.656-2.567,14.43,14.43,0,0,1-1.143-3.917,11.45,11.45,0,0,0-1.365-4.02,14.347,14.347,0,0,0-3-3.047,14.607,14.607,0,0,1-2.862-2.906,9.627,9.627,0,0,1-1.431-6.639,9.316,9.316,0,0,1,1.741-4.286,6.9,6.9,0,0,1,.848-.937,2.093,2.093,0,0,1,.339-.288,1.876,1.876,0,0,1-.28.339,8.941,8.941,0,0,0-.782.974,9.715,9.715,0,0,0-.148,10.667,14.554,14.554,0,0,0,2.818,2.818,14.244,14.244,0,0,1,3.076,3.128,11.441,11.441,0,0,1,1.416,4.153,14.326,14.326,0,0,0,1.1,3.836,4.625,4.625,0,0,0,2.449,2.427,7.509,7.509,0,0,0,3.091.3,22.361,22.361,0,0,1,2.641-.1,5.9,5.9,0,0,1,1.97.413,3.246,3.246,0,0,1,1.062.686,1.769,1.769,0,0,1,.221.251C193.832,319.8,193.854,319.828,193.847,319.835Z" transform="translate(-114.088 -262.185)" fill="#268d30"/>
    <path id="Path_11706" data-name="Path 11706" d="M105.578,331.165a8.963,8.963,0,0,0-12.128-8.852,14.946,14.946,0,0,0,11.8,8.719" transform="translate(-93.45 -270.542)" fill="#37a642"/>
    <path id="Path_11707" data-name="Path 11707" d="M106.255,335.943c-1.734,1.9-1.623,4.965-.384,7.222a16.177,16.177,0,0,0,5.511,5.289,11.633,11.633,0,0,0-5.009-13.2" transform="translate(-96.465 -274.088)" fill="#37a642"/>
    <path id="Path_11708" data-name="Path 11708" d="M118.053,324.046a10.328,10.328,0,0,0,11.729,9.214c-.671-2.788-1.785-5.592-3.939-7.48s-5.547-2.6-7.923-1" transform="translate(-99.869 -271.11)" fill="#37a642"/>
    <path id="Path_11709" data-name="Path 11709" d="M113.507,318.6c-.435-2.538-2.951-4.375-5.5-4.618a10.54,10.54,0,0,0-7.141,2.4,9.3,9.3,0,0,0,12.666,1.254" transform="translate(-95.396 -268.499)" fill="#37a642"/>
    <path id="Path_11710" data-name="Path 11710" d="M99.242,349.21c-2.434,2.073-3.039,5.776-2.029,8.808a14.69,14.69,0,0,0,6.034,7.229,19.227,19.227,0,0,0,1.129-9.369,9.831,9.831,0,0,0-5.333-7.429" transform="translate(-94.315 -277.551)" fill="#37a642"/>
    <path id="Path_11711" data-name="Path 11711" d="M117.49,309.452a7.473,7.473,0,0,1,11.8-.694,6.455,6.455,0,0,1-11.656.3" transform="translate(-99.756 -266.467)" fill="#37a642"/>
    <path id="Path_11712" data-name="Path 11712" d="M117.123,297.942a9.723,9.723,0,0,1-12.393-7.6,21.867,21.867,0,0,1,5.85.081,9.523,9.523,0,0,1,5.164,2.552,5.164,5.164,0,0,1,1.357,4.965" transform="translate(-96.409 -262.267)" fill="#37a642"/>
    <path id="Path_11713" data-name="Path 11713" d="M128.114,293.77a7.952,7.952,0,0,1-.052-12.26,16.686,16.686,0,0,1,3.475,7.414,6.233,6.233,0,0,1,0,3.061,2.818,2.818,0,0,1-2.139,2.007" transform="translate(-101.779 -259.992)" fill="#37a642"/>
    <path id="Path_11722" data-name="Path 11722" d="M131.067,315.824a.68.68,0,0,1,0-.2,3.551,3.551,0,0,1,.037-.583c0-.516.081-1.269.1-2.213a20.073,20.073,0,0,0-1.313-8.048,12.3,12.3,0,0,0-3.238-4.559,8.66,8.66,0,0,0-5.9-2.169,7.377,7.377,0,0,0-3.32.834,6.543,6.543,0,0,0-2.567,2.449,13.008,13.008,0,0,0-1.475,7.377,48.377,48.377,0,0,1,.177,7.79,12.143,12.143,0,0,1-.974,3.607,7.546,7.546,0,0,1-2.213,2.855,11.062,11.062,0,0,1-3.039,1.557,15.628,15.628,0,0,0-2.862,1.3,10.328,10.328,0,0,0-3.755,4.094,9.93,9.93,0,0,0-1.084,4.478,10.578,10.578,0,0,0,.568,3.46,12.54,12.54,0,0,0,1.343,2.693,1.137,1.137,0,0,1-.133-.148,5.158,5.158,0,0,1-.339-.479,9.11,9.11,0,0,1-1.011-2.014,10.327,10.327,0,0,1-.642-3.511,10.048,10.048,0,0,1,1.055-4.6,10.645,10.645,0,0,1,3.829-4.242c1.756-1.166,4.065-1.475,5.85-2.855a9.093,9.093,0,0,0,3-6.233,54.937,54.937,0,0,0-.184-7.731,13.621,13.621,0,0,1,1.549-7.613,6.927,6.927,0,0,1,2.722-2.582,7.716,7.716,0,0,1,3.482-.863,8.955,8.955,0,0,1,6.108,2.279,12.541,12.541,0,0,1,3.283,4.692,16.923,16.923,0,0,1,1.114,4.6,25.37,25.37,0,0,1,.1,3.563,17.694,17.694,0,0,1-.17,2.25,3.343,3.343,0,0,1-.074.575A.62.62,0,0,1,131.067,315.824Z" transform="translate(-95.016 -264.23)" fill="#268d30"/>
    <path id="Path_11724" data-name="Path 11724" d="M198.961,307.4a7.582,7.582,0,0,0,.531-2.6,6.447,6.447,0,0,0-.693-3,6.263,6.263,0,0,0-2.884-2.788,6.433,6.433,0,0,0-2.279-.612,7.458,7.458,0,0,0-2.545.3c-1.734.457-3.452,1.475-5.511,1.852a6.491,6.491,0,0,1-3.187-.074,4.832,4.832,0,0,1-2.6-2.08c-1.239-1.918-1.586-4.33-3.084-6.093a6,6,0,0,0-2.8-1.829,7.841,7.841,0,0,0-3.268-.332,8.343,8.343,0,0,0-5.437,2.825,12.674,12.674,0,0,0-2.7,4.994,15.034,15.034,0,0,0-.6,4.95,53.267,53.267,0,0,0,.922,7.237l.332,1.962a2.626,2.626,0,0,0,.081.509,1.6,1.6,0,0,1,0,.177.5.5,0,0,0-.052-.17l-.118-.5c-.1-.479-.236-1.129-.406-1.948a48.642,48.642,0,0,1-1.048-7.259,15.159,15.159,0,0,1,.568-5.046,13,13,0,0,1,2.744-5.164,9.847,9.847,0,0,1,2.486-1.992,8.594,8.594,0,0,1,6.6-.634,6.433,6.433,0,0,1,2.951,1.948c1.579,1.9,1.918,4.315,3.106,6.138a4.426,4.426,0,0,0,2.4,1.933,6.124,6.124,0,0,0,3.01.081c1.977-.376,3.688-1.35,5.5-1.807a7.613,7.613,0,0,1,2.648-.288,6.558,6.558,0,0,1,2.375.664,6.388,6.388,0,0,1,3.607,6.034,6.041,6.041,0,0,1-.384,1.962A3.128,3.128,0,0,1,198.961,307.4Z" transform="translate(-111.323 -262.14)" fill="#268d30"/>
    <path id="Path_11725" data-name="Path 11725" d="M184.066,294.329a6.9,6.9,0,0,0,6.322.413,6.381,6.381,0,0,0,3.216-5.083,7.259,7.259,0,0,0-5.9-.3,7.156,7.156,0,0,0-3.9,4.367" transform="translate(-117.15 -261.923)" fill="#268d30"/>
    <path id="Path_11726" data-name="Path 11726" d="M193.27,304.275a6.86,6.86,0,0,0,2.951,5.606,6.366,6.366,0,0,0,6.02.1,7.244,7.244,0,0,0-2.8-5.164,7.141,7.141,0,0,0-5.761-1.055" transform="translate(-119.634 -265.775)" fill="#268d30"/>
    <path id="Path_11727" data-name="Path 11727" d="M208.952,300.5a6.905,6.905,0,0,0,6.329-.266,6.366,6.366,0,0,0,2.656-5.393,6.794,6.794,0,0,0-9.288,5.083" transform="translate(-123.668 -263.354)" fill="#268d30"/>
    <path id="Path_11728" data-name="Path 11728" d="M169.986,287.052a7.219,7.219,0,0,1-2.516-5.96,6.374,6.374,0,0,1,3.91-4.581,7.252,7.252,0,0,1,2.021,5.518,7.17,7.17,0,0,1-3.017,5.024" transform="translate(-112.852 -258.68)" fill="#268d30"/>
    <path id="Path_11729" data-name="Path 11729" d="M109.23,276.371a.435.435,0,0,1,.066-.155l.236-.435c.214-.376.546-.922,1.025-1.6a17.2,17.2,0,0,1,5.068-4.8,12.6,12.6,0,0,1,4.552-1.667,11.191,11.191,0,0,1,5.525.583,9,9,0,0,1,4.729,3.865c1.084,1.9,1.431,4.124,2.066,6.256a11.427,11.427,0,0,0,1.32,2.951,9.031,9.031,0,0,0,2.25,2.213c.841.62,1.726,1.188,2.53,1.837a11.066,11.066,0,0,1,2.058,2.213,13.722,13.722,0,0,1,2.1,5.164,18.037,18.037,0,0,1,.28,4.839,36.584,36.584,0,0,1-1.232,6.875c-.214.8-.391,1.416-.509,1.829a4.155,4.155,0,0,1-.207.627,3.687,3.687,0,0,1,.133-.649c.1-.45.251-1.07.435-1.844a39.955,39.955,0,0,0,1.114-6.861,18.081,18.081,0,0,0-.325-4.751,13.374,13.374,0,0,0-2.088-5.009,10.521,10.521,0,0,0-1.992-2.147c-.782-.634-1.667-1.188-2.523-1.822a9.508,9.508,0,0,1-2.346-2.3,11.559,11.559,0,0,1-1.365-3.083c-.642-2.169-1-4.36-2.036-6.174a8.646,8.646,0,0,0-4.522-3.733,11.066,11.066,0,0,0-5.356-.59,12.1,12.1,0,0,0-4.426,1.586,17.7,17.7,0,0,0-5.09,4.647c-.494.657-.841,1.188-1.077,1.557A6.429,6.429,0,0,1,109.23,276.371Z" transform="translate(-97.589 -256.343)" fill="#37a642"/>
    <path id="Path_11730" data-name="Path 11730" d="M144.5,289.969c-.583-.546-.87-.162-1.66,0a4.861,4.861,0,0,0-2.125,1.062,8.97,8.97,0,0,0-2.906,9.406,6.993,6.993,0,0,0,6.388-10.519" transform="translate(-104.992 -262.136)" fill="#37a642"/>
    <path id="Path_11731" data-name="Path 11731" d="M110.59,274.9c-.3-.738-.738-.524-1.475-.738a4.89,4.89,0,0,0-2.375.044,8.97,8.97,0,0,0-6.639,7.237,7,7,0,0,0,10.254-6.7" transform="translate(-95.194 -258.032)" fill="#268d30"/>
    <path id="Path_11732" data-name="Path 11732" d="M149.628,309.188a8.115,8.115,0,0,0-12.688.62,9.974,9.974,0,0,0,6.58,2.6,10.21,10.21,0,0,0,6.639-2.678" transform="translate(-104.858 -266.528)" fill="#37a642"/>
    <path id="Path_11733" data-name="Path 11733" d="M151.211,291.628a8.174,8.174,0,0,0,8.262-9.76,7.377,7.377,0,0,0-8.535,9.679" transform="translate(-108.418 -260.04)" fill="#268d30"/>
    <path id="Path_11734" data-name="Path 11734" d="M139.929,274.808a8.188,8.188,0,0,0,11.065-6.462,7.34,7.34,0,0,0-11.265,6.292" transform="translate(-105.59 -256.24)" fill="#268d30"/>
    <path id="Path_11735" data-name="Path 11735" d="M132.185,271.553a8.188,8.188,0,0,0-11.065,6.462,7.377,7.377,0,0,0,11.3-6.278" transform="translate(-100.708 -257.234)" fill="#268d30"/>
    <path id="Path_11736" data-name="Path 11736" d="M130.825,264.364a8.181,8.181,0,0,0,4.352-12.024,7.377,7.377,0,0,0-4.64,12.046" transform="translate(-102.726 -252.34)" fill="#268d30"/>
    <path id="Path_11737" data-name="Path 11737" d="M117.032,265.33a8.181,8.181,0,0,0-6.639-10.91,7.34,7.34,0,0,0,6.514,11.139" transform="translate(-97.616 -252.886)" fill="#268d30"/>
    <path id="Path_11738" data-name="Path 11738" d="M135.82,355.79l2.715,3.364h33.343l2.272-3.364Z" transform="translate(-104.564 -279.476)" fill="#3d5b81"/>
    <path id="Path_11739" data-name="Path 11739" d="M173.767,355.682c0,.1-8.188.192-18.295.192s-18.3-.089-18.3-.192,8.2-.192,18.3-.192S173.767,355.579,173.767,355.682Z" transform="translate(-104.918 -279.398)" fill="#455a64"/>
    <path id="Path_11740" data-name="Path 11740" d="M170.772,338.443a1.944,1.944,0,0,1-.207.273,7.5,7.5,0,0,1-.679.738,12.416,12.416,0,0,1-2.951,2.066,13.086,13.086,0,0,1-5.2,1.335,12.865,12.865,0,0,1-3.187-.266,19.019,19.019,0,0,1-3.246-1.077c-2.147-.915-4.1-1.955-6-2.567a10.417,10.417,0,0,0-5.164-.494,6.64,6.64,0,0,0-3.179,1.475c-.634.553-.878.966-.915.944a1.614,1.614,0,0,1,.17-.3,5,5,0,0,1,.642-.738,6.587,6.587,0,0,1,3.224-1.63,10.388,10.388,0,0,1,5.356.428c1.948.6,3.917,1.638,6.042,2.545a18.93,18.93,0,0,0,3.179,1.062,12.469,12.469,0,0,0,3.091.28,13.144,13.144,0,0,0,5.1-1.225A15.807,15.807,0,0,0,170.772,338.443Z" transform="translate(-105.671 -274.817)" fill="#455a64"/>
    <path id="Path_11741" data-name="Path 11741" d="M170.953,334.993a1.237,1.237,0,0,1-.229.258,7.5,7.5,0,0,1-.738.664,13.857,13.857,0,0,1-3.083,1.918,14.428,14.428,0,0,1-5.238,1.247,13.94,13.94,0,0,1-3.194-.214,20.444,20.444,0,0,1-3.3-.93c-2.213-.8-4.22-1.719-6.152-2.257a12.259,12.259,0,0,0-5.23-.472,7.767,7.767,0,0,0-3.3,1.261c-.693.487-1,.856-1.025.826s.059-.1.207-.273a5.418,5.418,0,0,1,.738-.671,7.475,7.475,0,0,1,3.342-1.409,12.084,12.084,0,0,1,5.37.4c1.97.531,4.006,1.475,6.182,2.213a21.448,21.448,0,0,0,3.238.922,14.169,14.169,0,0,0,3.113.236,14.6,14.6,0,0,0,5.164-1.151,17.7,17.7,0,0,0,4.131-2.567Z" transform="translate(-105.52 -273.971)" fill="#455a64"/>
  </g>
  <rect id="Rectangle_1760" data-name="Rectangle 1760" width="5.629" height="9.627" transform="translate(44.32 241.81)" fill="#ff725e"/>
  <rect id="Rectangle_1761" data-name="Rectangle 1761" width="5.629" height="9.627" transform="translate(43.701 279.587)" fill="#ff725e"/>
  <rect id="Rectangle_1762" data-name="Rectangle 1762" width="116.997" height="78.306" transform="translate(33.085 210.952)" fill="#ff6340"/>
  <g id="Group_4680" data-name="Group 4680" transform="translate(109.407 210.952)" opacity="0.2">
    <rect id="Rectangle_1763" data-name="Rectangle 1763" width="40.676" height="78.306"/>
  </g>
  <rect id="Rectangle_1764" data-name="Rectangle 1764" width="9.287" height="15.882" transform="translate(126.351 210.963)" fill="#ff725e"/>
  <rect id="Rectangle_1765" data-name="Rectangle 1765" width="9.287" height="15.882" transform="translate(125.333 273.383)" fill="#ff725e"/>
  <path id="Path_11745" data-name="Path 11745" d="M183.622,438.692c-.1,0-.192-17.55-.192-39.2s.089-39.2.192-39.2.192,17.55.192,39.2S183.732,438.692,183.622,438.692Z" transform="translate(-117.053 -149.596)" fill="#263238"/>
  <g id="freepik--speech-bubble--inject-12" transform="translate(333.652 130.739)">
    <path id="Path_11829" data-name="Path 11829" d="M635.089,284.023v-.48l.155-1.4c0-.31.088-.657.1-1.04s0-.8,0-1.254.037-.944,0-1.475-.1-1.077-.14-1.66a26.928,26.928,0,0,0-2.213-8.262,26.6,26.6,0,0,0-6.639-9.081l-1.2-1.048c-.428-.325-.878-.634-1.328-.959a26.258,26.258,0,0,0-2.862-1.763,26.726,26.726,0,0,0-6.706-2.427,27.523,27.523,0,0,0-3.689-.583c-.634-.066-1.276,0-1.925-.059h-.974c-.332,0-.656.052-.981.074a25.4,25.4,0,0,0-7.886,1.741,26.873,26.873,0,0,0-13.19,10.9,27.353,27.353,0,0,0-3.821,17.9q.089.6.2,1.217v.081l-.044.066L573.3,296.578l-.184-.3,12.821-1.984h.118l.059.1a26.755,26.755,0,0,0,15.764,11.1,21,21,0,0,0,2.951.546l1.475.184c.487.059.981.037,1.475.052a26.743,26.743,0,0,0,10.652-1.9,27.546,27.546,0,0,0,7.93-4.884l1.512-1.416,1.291-1.475a14.372,14.372,0,0,0,1.129-1.475,14.63,14.63,0,0,0,.988-1.424,28.155,28.155,0,0,0,2.494-5.09l.664-1.94c.14-.575.251-1.062.347-1.475s.162-.679.214-.893a2.3,2.3,0,0,1,.089-.3,1.382,1.382,0,0,1-.052.31c-.052.2-.111.509-.192.9s-.192.893-.317,1.475-.4,1.225-.634,1.962a27.572,27.572,0,0,1-2.464,5.164c-.273.494-.642.937-.981,1.439a13.72,13.72,0,0,1-1.129,1.475l-1.291,1.475-1.52,1.439a27.649,27.649,0,0,1-7.974,4.965,26.985,26.985,0,0,1-10.763,1.955,14.157,14.157,0,0,1-1.475-.052l-1.475-.177a21.51,21.51,0,0,1-3.01-.546,27.081,27.081,0,0,1-15.986-11.22l.184.081-12.821,1.992-.45.074.266-.369,8.683-12.069-.037.148q-.111-.62-.2-1.239A27.655,27.655,0,0,1,585.3,265.02a27.3,27.3,0,0,1,13.382-11.065,25.96,25.96,0,0,1,8-1.748c.332,0,.664-.059.989-.066h.989a17.185,17.185,0,0,1,1.955.074,28.368,28.368,0,0,1,3.762.6,26.557,26.557,0,0,1,6.765,2.479,25.086,25.086,0,0,1,2.892,1.793c.45.325.907.634,1.335.966l1.217,1.062a26.778,26.778,0,0,1,8.852,17.535c.044.59.081,1.143.125,1.675s0,1.011,0,1.475,0,.878-.037,1.261-.081.738-.118,1.04c-.081.6-.148,1.07-.192,1.4A2.228,2.228,0,0,1,635.089,284.023Z" transform="translate(-572.74 -252.14)" fill="#263238"/>
    <path id="Path_11830" data-name="Path 11830" d="M625.681,275.07,628.92,299.6H604.93l3.5-24.528Z" transform="translate(-581.184 -258.155)" fill="#455a64"/>
    <path id="Path_11831" data-name="Path 11831" d="M612.31,279.88a11.009,11.009,0,0,0,1.247,2.294,6.3,6.3,0,0,0,2.088,1.844,6.823,6.823,0,0,0,3.3.8,7.051,7.051,0,0,0,3.32-.738,5.665,5.665,0,0,0,2.058-1.859,10.331,10.331,0,0,0,1.107-2.375,1.873,1.873,0,0,1-.1.738,6.639,6.639,0,0,1-.782,1.807,5.783,5.783,0,0,1-2.117,2.021,7.163,7.163,0,0,1-3.489.8,7,7,0,0,1-3.475-.878,6.337,6.337,0,0,1-2.139-2,6.738,6.738,0,0,1-.863-1.763,1.825,1.825,0,0,1-.162-.7Z" transform="translate(-583.12 -259.409)" fill="#fff"/>
  </g>
</svg>
