<svg xmlns="http://www.w3.org/2000/svg" width="396.493" height="354.16" viewBox="0 0 396.493 354.16">
  <g id="Group_4167" data-name="Group 4167" transform="translate(-2268.29 -1255.333)">
    <g id="freepik--Shadow--inject-2" transform="translate(2268.29 1586.344)">
      <ellipse id="freepik--path--inject-2" cx="198.246" cy="11.574" rx="198.246" ry="11.574" transform="translate(0 0)" fill="#f5f5f5"/>
    </g>
    <g id="freepik--Tomato--inject-2" transform="translate(2304.854 1440.322)">
      <ellipse id="Ellipse_143" data-name="Ellipse 143" cx="18.558" cy="15.695" rx="18.558" ry="15.695" transform="translate(0 8.847)" fill="#00a2f5"/>
      <path id="Path_35958" data-name="Path 35958" d="M104.055,268.147s2.853-10.889,5.532-9.816-2.679,3.742-2.761,9.816c0,0,5.971-5.358,9.9-2.147,0,0-5.705-.174-8.026,3.568,0,0,5.174,3.211,9.805,2.495,0,0-2.853,2.883-11.411.112,0,0,2.137,7.924-3.067,6.667a3.752,3.752,0,0,0,0-5.705s-10.879,5.705-11.595-1.074a9.2,9.2,0,0,0,9.632-1.605s-3.384-5.879-7.853-5.532C94.24,264.927,98.708,261.184,104.055,268.147Z" transform="translate(-86.929 -258.257)" fill="#263238"/>
      <path id="Path_35959" data-name="Path 35959" d="M123.433,277.65c.746,6.4-2.382,16.175-16.83,16.175-13.66,0-17.5-3.834-17.9-4.274,2.924,5.583,9.366,8.507,16.871,8.507,10.225,0,18.548-5.45,18.548-15.695a16.053,16.053,0,0,0-.685-4.714Z" transform="translate(-87.013 -257.821)" opacity="0.2"/>
      <path id="Path_35960" data-name="Path 35960" d="M97.472,289.538s-9.5-3.814-6.953-9.99S92.984,285.417,97.472,289.538Z" transform="translate(-86.982 -257.818)" fill="#fff" opacity="0.2"/>
    </g>
    <g id="freepik--heart-rate--inject-2" transform="translate(2296.163 1342.076)">
      <path id="Path_35961" data-name="Path 35961" d="M106.029,181.226l-1.667-3.067-5.532,12.587L93.719,175.05,91.6,181.185H82.4c.378.44.787.869,1.217,1.3l15.47,15.4,15.46-15.4c.44-.429.849-.859,1.217-1.3Z" transform="translate(-78.464 -161.881)" fill="#00a2f5"/>
      <path id="Path_35962" data-name="Path 35962" d="M90,179.194l3.834-11.124,5.4,16.492,5-11.319,3.262,5.992h10.071a13.7,13.7,0,0,0,2.219-7.229c0-5.9-3.937-9.836-9.9-9.836-5.562,0-7.464,2.577-10.715,6.3-3.262-3.722-5.112-6.3-10.715-6.3-5.971,0-9.908,3.936-9.908,9.836a13.619,13.619,0,0,0,2.229,7.229Z" transform="translate(-78.55 -162.17)" fill="#00a2f5"/>
      <g id="Group_4163" data-name="Group 4163" transform="translate(0 0)" opacity="0.3">
        <path id="Path_35963" data-name="Path 35963" d="M106.029,181.226l-1.667-3.067-5.532,12.587L93.719,175.05,91.6,181.185H82.4c.378.44.787.869,1.217,1.3l15.47,15.4,15.46-15.4c.44-.429.849-.859,1.217-1.3Z" transform="translate(-78.464 -161.881)" fill="#fff"/>
        <path id="Path_35964" data-name="Path 35964" d="M90,179.194l3.834-11.124,5.4,16.492,5-11.319,3.262,5.992h10.071a13.7,13.7,0,0,0,2.219-7.229c0-5.9-3.937-9.836-9.9-9.836-5.562,0-7.464,2.577-10.715,6.3-3.262-3.722-5.112-6.3-10.715-6.3-5.971,0-9.908,3.936-9.908,9.836a13.619,13.619,0,0,0,2.229,7.229Z" transform="translate(-78.55 -162.17)" fill="#fff"/>
      </g>
    </g>
    <g id="freepik--Banana--inject-2" transform="translate(2370.476 1255.333)">
      <path id="Path_35965" data-name="Path 35965" d="M153.04,102.973l2.3.818s18.8,5.705,29.5-4.519,13.834-22.28,17.74-21.932,5.777,17.791-12.014,32.31-33.741,6.472-37.77-3.067l-1.564-1.718Z" transform="translate(-151.23 -77.333)" fill="#00a2f5"/>
      <path id="Path_35966" data-name="Path 35966" d="M202.544,77.34c-3.906-.307-7.024,11.707-17.709,21.932-10.225,9.765-27.842,5-29.376,4.56l-2.7,2.7c3.977,9.591,19.979,17.627,37.77,3.067S206.44,77.657,202.544,77.34Z" transform="translate(-151.196 -77.333)" fill="#fff" opacity="0.6"/>
      <path id="Path_35967" data-name="Path 35967" d="M189.783,106.521s6.932,3.067,3.732,6.7-7.8,6.4-6.943,7.883,17.474-7.341,5.552-15.1Z" transform="translate(-150.438 -76.689)" fill="#00a2f5"/>
      <path id="Path_35968" data-name="Path 35968" d="M189.783,106.521s6.932,3.067,3.732,6.7-7.8,6.4-6.943,7.883,17.474-7.341,5.552-15.1Z" transform="translate(-150.438 -76.689)" fill="#fff" opacity="0.3"/>
      <path id="Path_35969" data-name="Path 35969" d="M182.851,95.786c-7.638-8.548-20.521-2.106-20.3-3.589s14.836-5.112,21.85,2.812S183,107.953,172.943,109.6s-18.813-4.765-18.813-4.765l1.176-1.329s16.359,4.969,27.249-2.679a3.129,3.129,0,0,0,.879-4.223A7.372,7.372,0,0,0,182.851,95.786Z" transform="translate(-151.165 -77.047)" fill="#00a2f5"/>
      <path id="Path_35970" data-name="Path 35970" d="M182.851,95.786c-7.638-8.548-20.521-2.106-20.3-3.589s14.836-5.112,21.85,2.812S183,107.953,172.943,109.6s-18.813-4.765-18.813-4.765l1.176-1.329s16.359,4.969,27.249-2.679a3.129,3.129,0,0,0,.879-4.223A7.372,7.372,0,0,0,182.851,95.786Z" transform="translate(-151.165 -77.047)" fill="#fff" opacity="0.3"/>
      <path id="Path_35971" data-name="Path 35971" d="M177.678,116.04c-12.188,3.415-21.932-2.9-24.918-10.1l1.4-1.411s8.742,6.4,18.813,4.765c5.429-.89,10.378-2.75,12.689-5.532,2.147.164,6.186,1.094,7.208,5.6,1.155,5.112-10.808,10.521-15.828,10.306-.89,0-4.448-.879.378-3.558Z" transform="translate(-151.196 -76.739)" fill="#00a2f5"/>
      <path id="Path_35972" data-name="Path 35972" d="M177.19,116.04l-.45.174c-4.53,2.6-1.022,3.415-.184,3.456,5.02.215,16.983-5.112,15.828-10.306-1.022-4.509-5.112-5.44-7.208-5.6C191.463,105.161,177.19,116.04,177.19,116.04Z" transform="translate(-150.708 -76.739)" fill="#fff" opacity="0.3"/>
    </g>
    <g id="freepik--Dumbbell--inject-2" transform="translate(2507.591 1257.249)">
      <path id="Path_35973" data-name="Path 35973" d="M346.042,113.853a14.407,14.407,0,1,0,0-28.813h-4.335a14.407,14.407,0,0,0,0,28.813Z" transform="translate(-284.389 -79.076)" fill="#00a2f5"/>
      <path id="Path_35974" data-name="Path 35974" d="M346.042,113.853a14.407,14.407,0,1,0,0-28.813h-4.335a14.407,14.407,0,0,0,0,28.813Z" transform="translate(-284.389 -79.076)" fill="#fff" opacity="0.5"/>
      <circle id="Ellipse_144" data-name="Ellipse 144" cx="14.407" cy="14.407" r="14.407" transform="translate(40.799 32.287) rotate(-80.78)" fill="#00a2f5"/>
      <path id="Path_35975" data-name="Path 35975" d="M340.489,102.85a3.64,3.64,0,0,0,0-7.28H321.86a3.64,3.64,0,0,0,0,7.28Z" transform="translate(-284.593 -78.839)" fill="#263238"/>
      <path id="Path_35976" data-name="Path 35976" d="M309.922,113.853a14.407,14.407,0,1,0,0-28.813h-4.345a14.407,14.407,0,0,0,0,28.813Z" transform="translate(-285.201 -79.076)" fill="#00a2f5"/>
      <path id="Path_35977" data-name="Path 35977" d="M309.922,113.853a14.407,14.407,0,1,0,0-28.813h-4.345a14.407,14.407,0,0,0,0,28.813Z" transform="translate(-285.201 -79.076)" fill="#fff" opacity="0.5"/>
      <circle id="Ellipse_145" data-name="Ellipse 145" cx="14.407" cy="14.407" r="14.407" transform="translate(0 20.374) rotate(-45)" fill="#00a2f5"/>
      <path id="Path_35978" data-name="Path 35978" d="M314.333,100.551a9.2,9.2,0,0,0,0-2.454l-1.534-.45a7.569,7.569,0,0,0-.409-1.288l.982-1.258a9.2,9.2,0,0,0-1.452-1.984l-1.5.532a8.5,8.5,0,0,0-1.135-.8l.051-1.6a8.722,8.722,0,0,0-2.341-.757l-.9,1.309h-1.35l-.9-1.309a8.609,8.609,0,0,0-2.341.757v1.6a9.272,9.272,0,0,0-1.094.787l-1.5-.532a9.2,9.2,0,0,0-1.37,1.994l.971,1.268a6.778,6.778,0,0,0-.419,1.288l-1.523.45a8.178,8.178,0,0,0,0,2.454l1.523.46a7.294,7.294,0,0,0,.419,1.288l-.971,1.258a8.957,8.957,0,0,0,1.442,1.984l1.5-.532a7.405,7.405,0,0,0,1.094.787v1.605a8.609,8.609,0,0,0,2.341.757l.9-1.319h1.35l.9,1.319a8.721,8.721,0,0,0,2.341-.757l-.051-1.605a6.9,6.9,0,0,0,1.094-.787l1.5.532a9,9,0,0,0,1.452-1.984l-1.053-1.309a8.183,8.183,0,0,0,.409-1.288Z" transform="translate(-285.082 -78.953)" fill="#fff" opacity="0.3"/>
      <path id="Path_35979" data-name="Path 35979" d="M305.014,102.85a3.64,3.64,0,1,0,0-7.28H302.08a3.64,3.64,0,0,0,0,7.28Z" transform="translate(-285.037 -78.839)" fill="#263238"/>
      <path id="Path_35980" data-name="Path 35980" d="M305.7,99.21a3.64,3.64,0,1,1-3.62-3.64A3.64,3.64,0,0,1,305.7,99.21Z" transform="translate(-285.038 -78.839)" fill="#fff" opacity="0.4"/>
    </g>
    <g id="freepik--Drink--inject-2" transform="translate(2599.609 1332.337)">
      <path id="Path_35981" data-name="Path 35981" d="M401.919,165.124c5.215,1.4,13.987,1.779,15.143-5.174,1.9-11.452-16.963-5.9-22.6-6.35a1.072,1.072,0,1,0-.184,2.137c4.7.368,20.7-4.008,20.746,3.129,0,6.073-8.415,5.317-12.362,4.253-1.319-.358-2.045,1.646-.746,2.045Z" transform="translate(-374.924 -152.645)" fill="#263238"/>
      <path id="Path_35982" data-name="Path 35982" d="M404.644,165l.256-2.914-23.108-2.045-.245,2.914a3.119,3.119,0,0,0-2.117,2.689l-4.09,47.034a3.139,3.139,0,0,0,2.853,3.4l20.572,1.8a3.149,3.149,0,0,0,3.395-2.853l4.09-47.034a3.067,3.067,0,0,0-1.605-3Z" transform="translate(-375.328 -152.478)" fill="#00a2f5"/>
      <path id="Path_35983" data-name="Path 35983" d="M404.644,165l.256-2.914-23.108-2.045-.245,2.914a3.119,3.119,0,0,0-2.117,2.689l-4.09,47.034a3.139,3.139,0,0,0,2.853,3.4l20.572,1.8a3.149,3.149,0,0,0,3.395-2.853l4.09-47.034a3.067,3.067,0,0,0-1.605-3Z" transform="translate(-375.328 -152.478)" fill="#fff" opacity="0.2"/>
      <rect id="Rectangle_281" data-name="Rectangle 281" width="26.922" height="6.666" rx="2.07" transform="translate(5.152 1.663) rotate(5)" fill="#00a2f5"/>
      <rect id="Rectangle_282" data-name="Rectangle 282" width="26.922" height="6.666" rx="2.07" transform="translate(5.152 1.663) rotate(5)" opacity="0.3"/>
      <path id="Path_35984" data-name="Path 35984" d="M395.532,173.9a25.071,25.071,0,0,0-14.018.133l-3.374,38.629a.276.276,0,0,0,.256.307l20.572,1.8a.286.286,0,0,0,.307-.256l3.5-39.876A18.763,18.763,0,0,1,395.532,173.9Z" transform="translate(-375.265 -152.188)" fill="#fff" opacity="0.9"/>
      <path id="Path_35985" data-name="Path 35985" d="M395.285,183.585a6.493,6.493,0,1,1-5.9-7.035,6.493,6.493,0,0,1,5.9,7.035Z" transform="translate(-375.171 -152.108)" fill="#00a2f5"/>
      <path id="Path_35986" data-name="Path 35986" d="M395.285,183.585a6.493,6.493,0,1,1-5.9-7.035,6.493,6.493,0,0,1,5.9,7.035Z" transform="translate(-375.171 -152.108)" fill="#fff" opacity="0.4"/>
      <g id="Group_4164" data-name="Group 4164" transform="translate(8.699 25.972)" opacity="0.9">
        <path id="Path_35987" data-name="Path 35987" d="M388.042,178.05a4.715,4.715,0,0,0-1.585.5.593.593,0,0,0-.174.9l2.137,2.536.286-3.3a.593.593,0,0,0-.665-.634Z" transform="translate(-383.784 -178.046)" fill="#fff"/>
        <path id="Path_35988" data-name="Path 35988" d="M387.834,182.461l-2.127-2.536a.583.583,0,0,0-.91,0,4.865,4.865,0,0,0-.767,1.483.583.583,0,0,0,.511.757Z" transform="translate(-383.832 -178.008)" fill="#fff"/>
        <path id="Path_35989" data-name="Path 35989" d="M387.777,183.2l-3.3-.3a.593.593,0,0,0-.634.665,4.714,4.714,0,0,0,.5,1.585.583.583,0,0,0,.89.174Z" transform="translate(-383.836 -177.937)" fill="#fff"/>
        <path id="Path_35990" data-name="Path 35990" d="M389.426,178.752l-.286,3.3,2.536-2.137a.583.583,0,0,0,0-.91,4.865,4.865,0,0,0-1.483-.767.583.583,0,0,0-.767.511Z" transform="translate(-383.716 -178.042)" fill="#fff"/>
        <path id="Path_35991" data-name="Path 35991" d="M389.58,183.35l2.127,2.536a.583.583,0,0,0,.91,0,4.93,4.93,0,0,0,.767-1.472.593.593,0,0,0-.511-.767Z" transform="translate(-383.707 -177.926)" fill="#fff"/>
        <path id="Path_35992" data-name="Path 35992" d="M389.64,182.62l3.3.286a.583.583,0,0,0,.634-.654,4.764,4.764,0,0,0-.5-1.6.583.583,0,0,0-.89-.174Z" transform="translate(-383.705 -177.994)" fill="#fff"/>
        <path id="Path_35993" data-name="Path 35993" d="M388.251,183.79l-2.536,2.127a.583.583,0,0,0,0,.91,4.866,4.866,0,0,0,1.483.767.583.583,0,0,0,.757-.511Z" transform="translate(-383.798 -177.916)" fill="#fff"/>
        <path id="Path_35994" data-name="Path 35994" d="M389.006,183.86l-.286,3.292a.583.583,0,0,0,.665.634,4.713,4.713,0,0,0,1.585-.5.583.583,0,0,0,.174-.89Z" transform="translate(-383.726 -177.915)" fill="#fff"/>
      </g>
      <circle id="Ellipse_146" data-name="Ellipse 146" cx="6.493" cy="6.493" r="6.493" transform="translate(9.468 55.937) rotate(-75.63)" fill="#00a2f5"/>
      <circle id="Ellipse_147" data-name="Ellipse 147" cx="6.493" cy="6.493" r="6.493" transform="translate(9.468 55.937) rotate(-75.63)" fill="#fff" opacity="0.4"/>
      <g id="Group_4165" data-name="Group 4165" transform="translate(12.451 46.37)" opacity="0.9">
        <path id="Path_35995" data-name="Path 35995" d="M391.712,198a5.216,5.216,0,0,0-1.585.5.583.583,0,0,0-.174.9l2.127,2.536.286-3.292a.583.583,0,0,0-.654-.644Z" transform="translate(-387.454 -197.995)" fill="#fff"/>
        <path id="Path_35996" data-name="Path 35996" d="M391.514,202.391l-2.127-2.536a.593.593,0,0,0-.92,0,5.05,5.05,0,0,0-.767,1.472.6.6,0,0,0,.511.767Z" transform="translate(-387.501 -197.958)" fill="#fff"/>
        <path id="Path_35997" data-name="Path 35997" d="M391.447,203.116l-3.3-.286a.583.583,0,0,0-.634.654,5.113,5.113,0,0,0,.5,1.564.583.583,0,0,0,.9.174Z" transform="translate(-387.505 -197.887)" fill="#fff"/>
        <path id="Path_35998" data-name="Path 35998" d="M393.107,198.672l-.3,3.3,2.546-2.127a.583.583,0,0,0,0-.91,4.835,4.835,0,0,0-1.472-.777.583.583,0,0,0-.777.511Z" transform="translate(-387.386 -197.992)" fill="#fff"/>
        <path id="Path_35999" data-name="Path 35999" d="M393.25,203.28l2.127,2.536a.593.593,0,0,0,.92,0,4.919,4.919,0,0,0,.767-1.472.583.583,0,0,0-.511-.757Z" transform="translate(-387.376 -197.876)" fill="#fff"/>
        <path id="Path_36000" data-name="Path 36000" d="M393.32,202.54l3.3.3a.593.593,0,0,0,.634-.665,5.218,5.218,0,0,0-.5-1.585.593.593,0,0,0-.9-.174Z" transform="translate(-387.375 -197.944)" fill="#fff"/>
        <path id="Path_36001" data-name="Path 36001" d="M391.931,203.71l-2.546,2.137a.583.583,0,0,0,0,.91,5.052,5.052,0,0,0,1.472.767.583.583,0,0,0,.757-.511Z" transform="translate(-387.468 -197.867)" fill="#fff"/>
        <path id="Path_36002" data-name="Path 36002" d="M392.656,203.78l-.286,3.3a.583.583,0,0,0,.654.634,4.947,4.947,0,0,0,1.585-.5.583.583,0,0,0,.174-.9Z" transform="translate(-387.396 -197.865)" fill="#fff"/>
      </g>
    </g>
    <g id="freepik--Device--inject-2" transform="translate(2599.151 1441.746)">
      <path id="Path_36003" data-name="Path 36003" d="M403.4,267.758l.358-4.039a2.689,2.689,0,0,0-2.454-2.914l-13.006-1.145a2.7,2.7,0,0,0-2.924,2.454l-.348,4.029a8.722,8.722,0,0,1-3.752,6.544,10.562,10.562,0,0,0-4.724,7.914l-1.626,18.261a10.572,10.572,0,0,0,3.272,8.609,8.691,8.691,0,0,1,2.566,7.1l-.358,4.039a2.689,2.689,0,0,0,2.454,2.914l13.036,1.145a2.7,2.7,0,0,0,2.924-2.454l.348-4.029a8.722,8.722,0,0,1,3.753-6.544,10.542,10.542,0,0,0,4.724-7.914l1.6-18.231a10.572,10.572,0,0,0-3.272-8.609,8.691,8.691,0,0,1-2.566-7.127Z" transform="translate(-374.88 -259.65)" fill="#00a2f5"/>
      <path id="Path_36004" data-name="Path 36004" d="M403.4,267.758l.358-4.039a2.689,2.689,0,0,0-2.454-2.914l-13.006-1.145a2.7,2.7,0,0,0-2.924,2.454l-.348,4.029a8.722,8.722,0,0,1-3.752,6.544,10.562,10.562,0,0,0-4.724,7.914l-1.626,18.261a10.572,10.572,0,0,0,3.272,8.609,8.691,8.691,0,0,1,2.566,7.1l-.358,4.039a2.689,2.689,0,0,0,2.454,2.914l13.036,1.145a2.7,2.7,0,0,0,2.924-2.454l.348-4.029a8.722,8.722,0,0,1,3.753-6.544,10.542,10.542,0,0,0,4.724-7.914l1.6-18.231a10.572,10.572,0,0,0-3.272-8.609,8.691,8.691,0,0,1-2.566-7.127Z" transform="translate(-374.88 -259.65)" fill="#fff" opacity="0.4"/>
      <rect id="Rectangle_283" data-name="Rectangle 283" width="23.374" height="30.009" rx="6.18" transform="translate(6.865 15.535) rotate(5)" fill="#263238"/>
      <rect id="Rectangle_284" data-name="Rectangle 284" width="3.09" height="6.303" rx="0.753" transform="translate(35.086 26.427) rotate(5.143)" fill="#00a2f5"/>
      <path id="Path_36005" data-name="Path 36005" d="M384.112,286.093s-1.462-3.834.358-4.192,1.667,3.65,1.667,3.65Z" transform="translate(-374.685 -259.15)" fill="#fff"/>
      <path id="Path_36006" data-name="Path 36006" d="M384.48,286.536l1.789-.256s.409,1.36-.675,1.493S384.48,286.536,384.48,286.536Z" transform="translate(-374.665 -259.051)" fill="#fff"/>
      <path id="Path_36007" data-name="Path 36007" d="M389.762,285.534s2.106-3.527.368-4.192-2.27,3.3-2.27,3.3Z" transform="translate(-374.589 -259.164)" fill="#fff"/>
      <path id="Path_36008" data-name="Path 36008" d="M389.414,285.943l-1.718-.573s-.767,1.258.286,1.575S389.414,285.943,389.414,285.943Z" transform="translate(-374.599 -259.072)" fill="#fff"/>
      <path id="Path_36009" data-name="Path 36009" d="M385.451,298.783c-1.258-.112-3.885-.47-2.28-4.407,0,0,.307,1.523,1.022,1.605,0,0-1.3-3.323,2.362-5.511,0,0-.675,2.331.6,3.487.685.614.174,1.82.174,1.82a4.335,4.335,0,0,0,.654-2.6S390.666,299.243,385.451,298.783Z" transform="translate(-374.706 -258.957)" fill="#fff"/>
      <path id="Path_36010" data-name="Path 36010" d="M399.874,287.063l-7.352-.644a1.084,1.084,0,0,1-1.022-1.2h0a1.1,1.1,0,0,1,1.2-1.022l7.352.644a1.084,1.084,0,0,1,1.022,1.2h0a1.1,1.1,0,0,1-1.2,1.022Z" transform="translate(-374.507 -259.098)" fill="#fff"/>
      <path id="Path_36011" data-name="Path 36011" d="M396.122,297.638l-4.519-.4a1.084,1.084,0,0,1-1.022-1.2h0a1.1,1.1,0,0,1,1.2-1.022l4.519.4a1.1,1.1,0,0,1,1.022,1.2h0A1.114,1.114,0,0,1,396.122,297.638Z" transform="translate(-374.528 -258.855)" fill="#fff"/>
    </g>
    <g id="freepik--character-2--inject-2" transform="translate(2434.79 1299.072)">
      <path id="Path_36012" data-name="Path 36012" d="M317,226.361s8.579,13.558,15.5,16.308,23.077-8.783,23.077-8.783l6.4-1.779a2.6,2.6,0,0,0,1.615-1.881l.92-4.2a2.239,2.239,0,0,0-.368-1.779l-.736-1.022a2.239,2.239,0,0,0-3.435-.266l-5.879,6.053s-15.133,7.157-18.18,4.029-3.016-3.119-9.417-11.728Z" transform="translate(-211.82 -117.837)" fill="#f6e4d5"/>
      <path id="Path_36013" data-name="Path 36013" d="M311.8,205.829c-2.894,1.728-6.615,10.071,5.654,24.1l10.7-8.18S320.842,200.4,311.8,205.829Z" transform="translate(-212.001 -118.204)" fill="#00a2f5"/>
      <path id="Path_36014" data-name="Path 36014" d="M324.917,224.024c-2.362-9.366-5.685-12.934-5.685-12.934l-2.147,2.975-3.875,5.46,1.022,6.3c.91,1.268,1.953,2.587,3.149,3.957Z" transform="translate(-211.905 -118.066)" opacity="0.1"/>
      <path id="Path_36015" data-name="Path 36015" d="M281.79,316.5a68.419,68.419,0,0,1-2.72,12.781c-12.178,5-41.86,47.882-41.86,47.882l4.816,4.57s40.265-31.155,50.837-44.273c3.067-3.834,5.225-12.075,7.464-17.29A34.539,34.539,0,0,1,281.79,316.5Z" transform="translate(-213.612 -115.698)" fill="#f6e4d5"/>
      <path id="Path_36016" data-name="Path 36016" d="M243.283,379.166l-5.542-5.112a.685.685,0,0,0-.869-.061l-5.94,4.09a1.155,1.155,0,0,0-.307,1.616.919.919,0,0,0,.164.184c2.331,2.045,4.5,3.844,7.362,6.493,3.384,3.119,2.147,2.73,6.073,6.452,2.372,2.239,5.317-.082,4.427-1.155-4.09-4.867-4.09-7.525-4.407-10.838A2.8,2.8,0,0,0,243.283,379.166Z" transform="translate(-213.765 -114.409)" fill="#263238"/>
      <path id="Path_36017" data-name="Path 36017" d="M280.826,316.5a43.255,43.255,0,0,1-.736,5.031,38.956,38.956,0,0,0,17.576,3.067c.573-1.6,1.125-3.067,1.7-4.427A34.538,34.538,0,0,1,280.826,316.5Z" transform="translate(-212.649 -115.698)" opacity="0.1"/>
      <path id="Path_36018" data-name="Path 36018" d="M281.84,285.713c.164,10.133-1.646,24.038-2.331,32.637,3.456,1.7,11.922,5.286,20.664,4.57A224.942,224.942,0,0,0,310.9,292.4c3.793-13.742,3.067-33.343,3.067-33.343L279.407,256.9C278.026,277.983,281.84,285.713,281.84,285.713Z" transform="translate(-212.671 -117.037)" fill="#263238"/>
      <path id="Path_36019" data-name="Path 36019" d="M313.936,259.047l-34.559-2.157c-1.35,21.083,2.464,28.813,2.464,28.813.051,3.466-.123,7.372-.409,11.349,2.106,5.542,6.35,16.564,10.286,25.367a32.941,32.941,0,0,0,8.456.491A224.932,224.932,0,0,0,310.9,292.39C314.692,278.658,313.936,259.047,313.936,259.047Z" transform="translate(-212.671 -117.037)" opacity="0.5"/>
      <path id="Path_36020" data-name="Path 36020" d="M318.541,331.689c-.593-4.213-4.826-19.509-4.826-19.509-8.466,4.519-14.315,5.971-17.525,6.38,1.534,3.6,4.55,10.93,5.961,14.09,0,0-1.319,15.02,16.677,73.832l7.229-1.145S321.118,349.981,318.541,331.689Z" transform="translate(-212.287 -115.795)" fill="#f6e4d5"/>
      <path id="Path_36021" data-name="Path 36021" d="M324.913,401.822l-7.341,1.605a.685.685,0,0,0-.552.675v7.239a1.155,1.155,0,0,0,1.145,1.176h.245c3.067-.716,5.736-1.472,9.55-2.28,4.5-.971,3.476-.184,8.773-1.247,3.2-.644,3-4.4,1.615-4.284-6.35.552-8.548-.951-11.4-2.648A2.832,2.832,0,0,0,324.913,401.822Z" transform="translate(-211.819 -113.783)" fill="#263238"/>
      <path id="Path_36022" data-name="Path 36022" d="M313.715,312.18c-8.466,4.519-14.315,5.971-17.525,6.38.419,1.022.961,2.27,1.544,3.671a44.181,44.181,0,0,0,16.85-6.84C314.073,313.458,313.715,312.18,313.715,312.18Z" transform="translate(-212.287 -115.795)" opacity="0.1"/>
      <path id="Path_36023" data-name="Path 36023" d="M315.218,314.6s-6.994-26.727-6.82-35.786c.1-5.348,4.2-20.991,4.2-20.991L280.4,254s-9.56,17.76,0,32.044c0,0,7.934,18.844,15.337,35.306a58.545,58.545,0,0,0,19.478-6.748Z" transform="translate(-212.737 -117.102)" fill="#263238"/>
      <path id="Path_36024" data-name="Path 36024" d="M297.459,181.85c.112,3.609-.685,8.18-3.8,10.347-1.493,1.022-3.313,1.585-4.54,2.986s-1.759,3.2-2.485,4.785c-.245.532.552,1.022.808.47,1.022-2.2,1.7-4.407,3.783-5.8,1.851-1.227,3.691-1.789,4.99-3.722a15.818,15.818,0,0,0,2.178-9.069C298.389,181.257,297.439,181.257,297.459,181.85Z" transform="translate(-212.503 -118.733)" fill="#1a2e35"/>
      <path id="Path_36025" data-name="Path 36025" d="M298.339,177.412s.818-7.5-10.02-3.384c-10.378,3.947-6.431,9.713-16.206,15s5.572,9.274,2.045,13.926,8.323,5.112,11.574-3.251,7.771-5.828,10.808-9.99c1.789-2.464,2.566-7.669,2.566-7.669Z" transform="translate(-212.902 -118.927)" fill="#1a2e35"/>
      <path id="Path_36026" data-name="Path 36026" d="M303.693,188.67s-.777,3.17-3.773,2.045S302.261,190.388,303.693,188.67Z" transform="translate(-212.223 -118.57)" fill="#1a2e35"/>
      <path id="Path_36027" data-name="Path 36027" d="M300.877,182.876a5.5,5.5,0,0,0-1.738-.112,1.78,1.78,0,0,0-.491.389.736.736,0,0,1-1.227-.256,8.088,8.088,0,0,1,.44-6.646s.562,1.022.91,1.094c.521.123,1.932-.869,1.932-.869Z" transform="translate(-212.271 -118.849)" fill="#00a2f5"/>
      <path id="Path_36028" data-name="Path 36028" d="M277.65,256.292s25.736,4.09,38.69,4.4a63.4,63.4,0,0,1,1.82-18.118c2.4-8.538,9.2-15.746.93-33.394-4.5-9.652-30.531-10.981-34.488-1.973C280.5,216.528,291.474,221.794,277.65,256.292Z" transform="translate(-212.704 -118.29)" fill="#00a2f5"/>
      <path id="Path_36029" data-name="Path 36029" d="M312.505,198.686l-6.963-8.026A12.648,12.648,0,0,1,300.43,201.4s.706,5.041,11.472,14.171c6.7-4.877,1.943-10.818,1.943-10.818S309.929,202.255,312.505,198.686Z" transform="translate(-212.192 -118.525)" fill="#f6e4d5"/>
      <path id="Path_36030" data-name="Path 36030" d="M311.845,202.551a3.681,3.681,0,0,1,.552-3.865l-6.963-8.026a12.815,12.815,0,0,1-.2,2.934A14.233,14.233,0,0,0,311.845,202.551Z" transform="translate(-212.084 -118.525)" opacity="0.1"/>
      <path id="Path_36031" data-name="Path 36031" d="M303.367,179.564c-.511,7.883-.89,11.247,2.556,15.715,5.174,6.789,14.969,5.685,17.832-1.881,2.566-6.81,2.975-18.6-4.3-22.637a10.787,10.787,0,0,0-16.083,8.8Z" transform="translate(-212.133 -119.004)" fill="#f6e4d5"/>
      <path id="Path_36032" data-name="Path 36032" d="M315.3,182.9c-.072.644.2,1.207.613,1.258s.818-.429.91-1.022-.2-1.2-.613-1.247S315.413,182.309,315.3,182.9Z" transform="translate(-211.858 -118.723)" fill="#263238"/>
      <path id="Path_36033" data-name="Path 36033" d="M322.34,183.812c-.082.644.194,1.2.6,1.258s.818-.429.91-1.022-.2-1.2-.614-1.247S322.422,183.178,322.34,183.812Z" transform="translate(-211.7 -118.702)" fill="#263238"/>
      <path id="Path_36034" data-name="Path 36034" d="M323,182.775l1.585-.245S323.685,183.624,323,182.775Z" transform="translate(-211.685 -118.708)" fill="#263238"/>
      <path id="Path_36035" data-name="Path 36035" d="M320.012,184.64A17.178,17.178,0,0,0,321.781,189a2.863,2.863,0,0,1-2.331.143Z" transform="translate(-211.764 -118.661)" fill="#e2c7af"/>
      <path id="Path_36036" data-name="Path 36036" d="M315.841,191.06a5.788,5.788,0,0,0,.93.194.2.2,0,0,0,.215-.153h0a.194.194,0,0,0-.174-.2,5.112,5.112,0,0,1-3.855-2.495.194.194,0,0,0-.348.164A5.266,5.266,0,0,0,315.841,191.06Z" transform="translate(-211.918 -118.578)" fill="#263238"/>
      <path id="Path_36037" data-name="Path 36037" d="M312.656,181.163a.368.368,0,0,0,.419-.143,4.478,4.478,0,0,1,3.241-1.513.378.378,0,1,0,0-.746h0a5.112,5.112,0,0,0-3.855,1.84.368.368,0,0,0,.1.511h0A.143.143,0,0,0,312.656,181.163Z" transform="translate(-211.923 -118.793)" fill="#263238"/>
      <path id="Path_36038" data-name="Path 36038" d="M324.93,180.851a.378.378,0,0,0,.389-.624,3.7,3.7,0,0,0-3.262-1.217.368.368,0,0,0-.307.409h0a.368.368,0,0,0,.43.307h0a3.068,3.068,0,0,1,2.546,1.022A.409.409,0,0,0,324.93,180.851Z" transform="translate(-211.713 -118.788)" fill="#263238"/>
      <path id="Path_36039" data-name="Path 36039" d="M316,181.925l1.575-.245S316.654,182.733,316,181.925Z" transform="translate(-211.842 -118.727)" fill="#263238"/>
      <path id="Path_36040" data-name="Path 36040" d="M305.369,185.408a9.856,9.856,0,0,0,2.617-6.4c.1-3.967,6.329-8.241,14.315-5.971,0,0,2.29-7.157-3.374-4.161,0,0-9.039-6.135-16.8,2.955-5.4,6.35-2.474,13.221-.194,16.82a1.483,1.483,0,0,0,2.689-.409Z" transform="translate(-212.223 -119.06)" fill="#263238"/>
      <path id="Path_36041" data-name="Path 36041" d="M300.543,185.073a5.623,5.623,0,0,0,2.444,3.558c1.677,1.022,3.067-.3,3.119-2.188,0-1.707-.859-4.315-2.771-4.642a2.536,2.536,0,0,0-2.791,3.272Z" transform="translate(-212.192 -118.725)" fill="#f6e4d5"/>
      <path id="Path_36042" data-name="Path 36042" d="M321.09,172.746s3.006-1.288,3.885,1.8S323.329,172.869,321.09,172.746Z" transform="translate(-211.728 -118.934)" fill="#1a2e35"/>
      <path id="Path_36043" data-name="Path 36043" d="M317.388,172.19s-3.251.337-2.515,3.456S315.486,173.376,317.388,172.19Z" transform="translate(-211.87 -118.94)" fill="#1a2e35"/>
      <path id="Path_36044" data-name="Path 36044" d="M302.922,184.87a1.626,1.626,0,0,1,1.288,1.922,3.006,3.006,0,0,0,1.115,2.822,1.115,1.115,0,0,1-.849.521S300.018,185.729,302.922,184.87Z" transform="translate(-212.158 -118.656)" fill="#00a2f5"/>
      <path id="Path_36045" data-name="Path 36045" d="M302.922,184.87a1.626,1.626,0,0,1,1.288,1.922,3.006,3.006,0,0,0,1.115,2.822,1.115,1.115,0,0,1-.849.521S300.018,185.729,302.922,184.87Z" transform="translate(-212.158 -118.656)" fill="#fff" opacity="0.5"/>
      <path id="Path_36046" data-name="Path 36046" d="M295.751,214.127l-3.18-1.687-8.926,3.221-.286.746c.2,5.327.879,12.147-.389,21.554C294.851,223.176,295.751,214.127,295.751,214.127Z" transform="translate(-212.584 -118.036)" opacity="0.1"/>
      <path id="Path_36047" data-name="Path 36047" d="M289.714,221.534s-6.227,14.775-12.6,18.64-24.2-4.8-24.2-4.8l-6.605-.7A2.6,2.6,0,0,1,244.4,233.1l-1.6-4.008a2.229,2.229,0,0,1,.061-1.81l.562-1.135a2.239,2.239,0,0,1,3.343-.828l6.8,4.99s16.114,4.591,18.6.971,2.454-3.568,7.341-13.118Z" transform="translate(-213.49 -117.908)" fill="#f6e4d5"/>
      <path id="Path_36048" data-name="Path 36048" d="M293.659,203.37c2.894,1.738,6.605,10.082-5.664,24.1l-10.7-8.18S284.621,197.9,293.659,203.37Z" transform="translate(-212.712 -118.26)" fill="#00a2f5"/>
      <path id="Path_36049" data-name="Path 36049" d="M247.9,231.651l-1.237-.1c4.857-58.945-3.466-61.052-14-63.72-5.409-1.37-11.533-2.914-16.523-12.27-4.642-8.671-1.145-18.087,9.335-25.183,12.208-8.251,31.39-11.922,50.1-9.56a89.691,89.691,0,0,1,58.281,32.075c14.069,16.748,18.466,31.032,22,42.5l.961,3.067c6.135,19.58,5.511,30.183,5.48,30.623L361.069,229c0-.1.654-10.838-5.429-30.173l-.961-3.067c-3.507-11.37-7.863-25.562-21.768-42.075-32.576-38.792-83.781-37.831-106.725-22.28-10.051,6.8-13.292,15.388-8.936,23.568,4.734,8.855,10.327,10.276,15.736,11.646s10.48,2.658,13.5,11.247C249.7,187.215,250.162,204.28,247.9,231.651Z" transform="translate(-214.131 -120.111)" fill="#00a2f5"/>
      <g id="Group_4166" data-name="Group 4166" transform="translate(0 0)" opacity="0.3">
        <path id="Path_36050" data-name="Path 36050" d="M247.9,231.651l-1.237-.1c4.857-58.945-3.466-61.052-14-63.72-5.409-1.37-11.533-2.914-16.523-12.27-4.642-8.671-1.145-18.087,9.335-25.183,12.208-8.251,31.39-11.922,50.1-9.56a89.691,89.691,0,0,1,58.281,32.075c14.069,16.748,18.466,31.032,22,42.5l.961,3.067c6.135,19.58,5.511,30.183,5.48,30.623L361.069,229c0-.1.654-10.838-5.429-30.173l-.961-3.067c-3.507-11.37-7.863-25.562-21.768-42.075-32.576-38.792-83.781-37.831-106.725-22.28-10.051,6.8-13.292,15.388-8.936,23.568,4.734,8.855,10.327,10.276,15.736,11.646s10.48,2.658,13.5,11.247C249.7,187.215,250.162,204.28,247.9,231.651Z" transform="translate(-214.131 -120.111)" fill="#fff"/>
      </g>
      <rect id="Rectangle_285" data-name="Rectangle 285" width="4.131" height="14.488" transform="translate(31.092 104.24)" fill="#00a2f5"/>
      <rect id="Rectangle_286" data-name="Rectangle 286" width="4.131" height="2.474" transform="translate(31.092 104.24)" opacity="0.1"/>
      <rect id="Rectangle_287" data-name="Rectangle 287" width="4.131" height="1.656" transform="translate(31.092 117.072)" opacity="0.1"/>
      <path id="Path_36051" data-name="Path 36051" d="M248.707,223.23h-4.161a1.145,1.145,0,0,1-1.145-1.145h0a1.145,1.145,0,0,1,1.145-1.135h4.161a1.145,1.145,0,0,1,1.145,1.135h0A1.145,1.145,0,0,1,248.707,223.23Z" transform="translate(-213.473 -117.845)" fill="#00a2f5"/>
      <path id="Path_36052" data-name="Path 36052" d="M248.707,237.86h-4.161a1.145,1.145,0,0,1-1.145-1.135h0a1.145,1.145,0,0,1,1.145-1.145h4.161a1.145,1.145,0,0,1,1.145,1.145h0A1.145,1.145,0,0,1,248.707,237.86Z" transform="translate(-213.473 -117.516)" fill="#00a2f5"/>
      <rect id="Rectangle_288" data-name="Rectangle 288" width="4.131" height="14.488" transform="translate(145.476 101.735)" fill="#00a2f5"/>
      <rect id="Rectangle_289" data-name="Rectangle 289" width="4.131" height="2.474" transform="translate(145.476 101.735)" opacity="0.1"/>
      <rect id="Rectangle_290" data-name="Rectangle 290" width="4.131" height="1.656" transform="translate(145.476 114.557)" opacity="0.1"/>
      <path id="Path_36053" data-name="Path 36053" d="M360.587,220.78h-4.161a1.145,1.145,0,0,1-1.145-1.145h0a1.145,1.145,0,0,1,1.145-1.145h4.161a1.145,1.145,0,0,1,1.145,1.145h0A1.145,1.145,0,0,1,360.587,220.78Z" transform="translate(-210.959 -117.9)" fill="#00a2f5"/>
      <path id="Path_36054" data-name="Path 36054" d="M360.587,235.41h-4.161a1.145,1.145,0,0,1-1.145-1.145h0a1.145,1.145,0,0,1,1.145-1.145h4.161a1.145,1.145,0,0,1,1.145,1.145h0a1.145,1.145,0,0,1-1.145,1.145Z" transform="translate(-210.959 -117.571)" fill="#00a2f5"/>
    </g>
    <g id="freepik--character-1--inject-2" transform="translate(2351.42 1333.871)">
      <path id="Path_36055" data-name="Path 36055" d="M178.683,212.743s-13.814,6.186-20.572,3.64-13.865-23.118-13.865-23.118l-4.386-5.8a2.239,2.239,0,0,1,0-2.71l3.63-4.724a2.924,2.924,0,0,1,2.157-1.114h.235a2.853,2.853,0,0,1,2.975,2.914l-.153,7.157s10.889,17.454,15.143,17.177,11.186-3.18,11.186-3.18Z" transform="translate(-132.44 -153.588)" fill="#ffc3bd"/>
      <path id="Path_36056" data-name="Path 36056" d="M191.535,201.648c.491,3.067-1.022,11.063-18.885,13.936l-2.75-12.126S189.787,190.7,191.535,201.648Z" transform="translate(-131.755 -153.177)" fill="#263238"/>
      <path id="Path_36057" data-name="Path 36057" d="M149.252,180.727c1.8,2.29,4.611,3.067,6.268,1.779s1.534-4.223-.276-6.513-4.6-3.067-6.257-1.779S147.442,178.436,149.252,180.727Z" transform="translate(-132.251 -153.708)" fill="#00a2f5"/>
      <path id="Path_36058" data-name="Path 36058" d="M149.25,180.7a5.4,5.4,0,0,1-1.022-5.521c1.411-.746,3.752.256,5.44,2.393,1.421,1.8,1.932,3.865,1.431,5.184C153.391,183.631,150.907,182.793,149.25,180.7Z" transform="translate(-132.25 -153.678)" opacity="0.2"/>
      <path id="Path_36059" data-name="Path 36059" d="M137.833,189.8c.777,1.022,4.509-.665,8.333-3.691s6.309-6.268,5.532-7.249-4.509.675-8.333,3.691S137.056,188.815,137.833,189.8Z" transform="translate(-132.479 -153.596)" fill="#00a2f5"/>
      <path id="Path_36060" data-name="Path 36060" d="M142.587,188.411c-2.352,1.36-4.233,1.9-4.754,1.237s.481-2.433,2.413-4.448a6.727,6.727,0,0,1,1.247,1.227,7.332,7.332,0,0,1,1.094,1.984Z" transform="translate(-132.478 -153.447)" opacity="0.2"/>
      <path id="Path_36061" data-name="Path 36061" d="M134.032,192.717c1.8,2.29,4.6,3.067,6.257,1.779s1.544-4.213-.266-6.5-4.611-3.067-6.268-1.779S132.232,190.436,134.032,192.717Z" transform="translate(-132.593 -153.438)" fill="#00a2f5"/>
      <path id="Path_36062" data-name="Path 36062" d="M187.829,209.485a23.047,23.047,0,0,1-8.6,4.448c.164-12.27,6.135-12.4,6.135-12.4l1.135.644Z" transform="translate(-131.545 -153.08)" opacity="0.6"/>
      <path id="Path_36063" data-name="Path 36063" d="M204.58,302.369l-6.943,21.656a59.078,59.078,0,0,1,0,18.353c-1.575,10.3-10.491,64.5-10.491,64.5l-6.7.8s1.022-69.467,2.393-84.5,3.067-25.766,3.067-25.766Z" transform="translate(-131.518 -150.926)" fill="#ffc3bd"/>
      <path id="Path_36064" data-name="Path 36064" d="M185.825,297.41l18.681,4.959-4.468,13.957L183.76,313.5C184.854,303.749,185.825,297.41,185.825,297.41Z" transform="translate(-131.443 -150.926)" opacity="0.1"/>
      <path id="Path_36065" data-name="Path 36065" d="M217.15,303.172s7.658,32.443,35.786,102.809l6.411-1.605s-12.576-73.107-20.265-81.2L235.2,298.54Z" transform="translate(-130.693 -150.9)" fill="#ffc3bd"/>
      <path id="Path_36066" data-name="Path 36066" d="M235.165,298.54l2.28,14.151-16.8,3.067c-2.526-8.507-3.456-12.556-3.456-12.556Z" transform="translate(-130.692 -150.9)" opacity="0.1"/>
      <path id="Path_36067" data-name="Path 36067" d="M216.734,280.336s-5.419,5-6.82,9.049-8.18,25.879-8.18,25.879l-18.4-3.3s1.9-20.449,3.977-35.05,3.681-23.169,3.425-24.417L225.5,249.56S232.46,275.009,216.734,280.336Z" transform="translate(-131.453 -152.001)" fill="#00a2f5"/>
      <path id="Path_36068" data-name="Path 36068" d="M210.379,265.62l5.757,14.447c-.613.583-5.44,5.2-6.748,8.988-.368,1.022-1.074,3.241-1.932,5.94-2.6-14.642-1.176-30.735-1.176-30.735Z" transform="translate(-130.946 -151.671)" opacity="0.1"/>
      <path id="Path_36069" data-name="Path 36069" d="M205.863,252.59s-3.364,11.656,5.951,36.451c2.566,6.84,6.7,25.132,6.7,25.132l19.9-3.967-4.3-24.253s.879-24.048-5.9-35.623Z" transform="translate(-130.96 -151.984)" fill="#00a2f5"/>
      <path id="Path_36070" data-name="Path 36070" d="M180.774,403.743l6.963-.123a.634.634,0,0,1,.634.5l2.515,6.667a1.084,1.084,0,0,1-.808,1.288h-.225c-2.9-.051-5.47-.2-9.08-.2-4.253,0-3.17.511-8.18.583-3.016,0-3.568-3.384-2.29-3.548,5.849-.736,6.452-2.505,8.711-4.6a2.638,2.638,0,0,1,1.759-.562Z" transform="translate(-131.76 -148.539)" fill="#263238"/>
      <path id="Path_36071" data-name="Path 36071" d="M251.871,402.205l6.789-1.575a.624.624,0,0,1,.716.358l3.855,5.992a1.074,1.074,0,0,1-.521,1.421.923.923,0,0,1-.215.082c-2.842.552-5.4.93-8.916,1.7-4.161.89-3,1.155-7.873,2.27-2.935.675-4.192-2.566-2.975-3,5.562-1.943,5.787-3.793,7.556-6.309A2.576,2.576,0,0,1,251.871,402.205Z" transform="translate(-130.129 -148.607)" fill="#263238"/>
      <path id="Path_36072" data-name="Path 36072" d="M187.175,162.784s-4.724-.389-2.2,6.564l3.067-2.894,2.045-3.865Z" transform="translate(-131.433 -153.955)" fill="#263238"/>
      <path id="Path_36073" data-name="Path 36073" d="M187.175,162.784s-4.724-.389-2.2,6.564l3.067-2.894,2.045-3.865Z" transform="translate(-131.433 -153.955)" opacity="0.6"/>
      <path id="Path_36074" data-name="Path 36074" d="M229.956,252.891s-7.9.706-39.958,2.577c0,0-1.789-8.262-4.09-22.413-2.587-16.124-5.542-30.971-1.728-34.979,4.335-4.55,24.958-3.916,34.437-3.885a5.92,5.92,0,0,1,5.889,5.347Z" transform="translate(-131.475 -153.246)" fill="#263238"/>
      <path id="Path_36075" data-name="Path 36075" d="M211.272,194.14c-.051,2.178-1.973,6.758-12.7,15.1,0,0-8.18-7.9-7.372-13.946C196.937,194.273,204.78,194.13,211.272,194.14Z" transform="translate(-131.277 -153.246)" fill="#00a2f5"/>
      <path id="Path_36076" data-name="Path 36076" d="M198.477,206.563s-6.268-8.343-4.56-11.677a131.087,131.087,0,0,1,14.131-.736C208.037,195.725,207.014,199.855,198.477,206.563Z" transform="translate(-131.222 -153.246)" fill="#ffc3bd"/>
      <path id="Path_36077" data-name="Path 36077" d="M198.28,204.482l-4.09-7.157c3.067-2.229,2.362-4.253.716-7.3l7.229-10.225c.3,5.061,1.176,12.382,5.388,14.744a4.529,4.529,0,0,1-.44,2.393Z" transform="translate(-131.209 -153.568)" fill="#ffc3bd"/>
      <path id="Path_36078" data-name="Path 36078" d="M196.025,192.466a16.8,16.8,0,0,0-1.155-2.485l4.54-6.452c.941.317,2.515-.051,3.067.481a6.528,6.528,0,0,0,.153,1.022C202.242,187.487,199.093,191.168,196.025,192.466Z" transform="translate(-131.194 -153.485)" opacity="0.2"/>
      <path id="Path_36079" data-name="Path 36079" d="M205.587,171.656c.3,7.73.583,10.992-2.9,15.337-5.245,6.513-14.805,5.174-17.382-2.3-2.331-6.748-2.423-18.292,4.806-22.055a10.552,10.552,0,0,1,14.315,4.346,10.419,10.419,0,0,1,1.166,4.673Z" transform="translate(-131.44 -153.982)" fill="#ffc3bd"/>
      <path id="Path_36080" data-name="Path 36080" d="M193.363,174.613c.061.624-.225,1.166-.624,1.207s-.8-.44-.859-1.022.225-1.166.624-1.207S193.271,174.009,193.363,174.613Z" transform="translate(-131.261 -153.708)" fill="#1a2e35"/>
      <path id="Path_36081" data-name="Path 36081" d="M186.453,175.312c.061.634-.225,1.166-.624,1.207s-.8-.44-.859-1.022.225-1.166.624-1.2S186.391,174.689,186.453,175.312Z" transform="translate(-131.416 -153.692)" fill="#1a2e35"/>
      <path id="Path_36082" data-name="Path 36082" d="M188.711,176.18a16.891,16.891,0,0,1-1.851,4.223,2.781,2.781,0,0,0,2.28.194Z" transform="translate(-131.374 -153.65)" fill="#ff8935"/>
      <path id="Path_36083" data-name="Path 36083" d="M192.685,182.618a5.412,5.412,0,0,1-.92.164.194.194,0,0,1-.2-.164h0a.2.2,0,0,1,.174-.2,4.959,4.959,0,0,0,3.844-2.341.194.194,0,0,1,.256-.072.184.184,0,0,1,.082.245A5.184,5.184,0,0,1,192.685,182.618Z" transform="translate(-131.268 -153.564)" fill="#1a2e35"/>
      <path id="Path_36084" data-name="Path 36084" d="M196.084,172.974a.378.378,0,0,1-.409-.153,4.325,4.325,0,0,0-3.067-1.564.368.368,0,0,1-.368-.378.378.378,0,0,1,.378-.358h0a5.01,5.01,0,0,1,3.732,1.912.378.378,0,0,1-.112.5h0a.215.215,0,0,1-.153.041Z" transform="translate(-131.253 -153.777)" fill="#1a2e35"/>
      <path id="Path_36085" data-name="Path 36085" d="M184.01,172.349a.378.378,0,0,1-.358-.1.368.368,0,0,1,0-.521,3.619,3.619,0,0,1,3.221-1.114.358.358,0,0,1,.286.409h0a.368.368,0,0,1-.429.286h0a2.965,2.965,0,0,0-2.515.91A.46.46,0,0,1,184.01,172.349Z" transform="translate(-131.448 -153.776)" fill="#1a2e35"/>
      <path id="Path_36086" data-name="Path 36086" d="M203.3,178.618l-2.505-.47s1.646-5.736.47-7.208-3.875-2.648-4.754-5.388-14.315,2.648-12.137-8.64c0,0,1.022,3.067,2.546,4.182,0,0-2.239-7.74,6.288-6.881s13.9,9.775,13.9,9.775,11.022,7.229-.389,17.811a1.687,1.687,0,0,1-2.71-.562Z" transform="translate(-131.435 -154.145)" fill="#263238"/>
      <path id="Path_36087" data-name="Path 36087" d="M207.85,177.072a5.511,5.511,0,0,1-2.485,3.415c-1.677,1.022-3.067-.368-3-2.229,0-1.667.951-4.2,2.832-4.468a2.5,2.5,0,0,1,2.771,2.2,2.474,2.474,0,0,1-.123,1.084Z" transform="translate(-131.025 -153.704)" fill="#ffc3bd"/>
      <path id="Path_36088" data-name="Path 36088" d="M206.21,164.39s3.016-4.509,5.675-.879S208.316,163.092,206.21,164.39Z" transform="translate(-130.939 -153.966)" fill="#263238"/>
      <path id="Path_36089" data-name="Path 36089" d="M204.893,176.48a1.922,1.922,0,0,0-1.534,2.27s.481,1.564-1.319,3.354a1.329,1.329,0,0,0,1.022.613S208.338,177.492,204.893,176.48Z" transform="translate(-131.033 -153.643)" fill="#00a2f5"/>
      <path id="Path_36090" data-name="Path 36090" d="M204.893,176.48a1.922,1.922,0,0,0-1.534,2.27s.481,1.564-1.319,3.354a1.329,1.329,0,0,0,1.022.613S208.338,177.492,204.893,176.48Z" transform="translate(-131.033 -153.643)" fill="#fff" opacity="0.8"/>
      <path id="Path_36091" data-name="Path 36091" d="M224.263,204.8l1.2,12.812a22.2,22.2,0,0,1-8.18-12.914l2.975-.757Z" transform="translate(-130.69 -153.026)" opacity="0.6"/>
      <path id="Path_36092" data-name="Path 36092" d="M226.21,208.681s15.951,1.636,22.392-2.106,9.458-24.866,9.458-24.866l3.211-8.047a3.067,3.067,0,0,0-1.237-3.742l-2.934-1.8a3.067,3.067,0,0,0-2.045-.419l-1.094.164a3.067,3.067,0,0,0-2.6,3.292l.787,9.2s-4.632,17.116-9,17.556-4.315.44-15.041.153Z" transform="translate(-130.49 -153.841)" fill="#ffc3bd"/>
      <path id="Path_36093" data-name="Path 36093" d="M214,200.688c-.123,3.476,2.423,9.775,21.032,8.793l.2-13.445S214.358,188.991,214,200.688Z" transform="translate(-130.764 -153.251)" fill="#263238"/>
      <path id="Path_36094" data-name="Path 36094" d="M251.406,170.146c-1.258,2.628-3.814,4.029-5.716,3.119s-2.423-3.783-1.166-6.411,3.814-4.018,5.716-3.067S252.664,167.519,251.406,170.146Z" transform="translate(-130.093 -153.935)" fill="#00a2f5"/>
      <path id="Path_36095" data-name="Path 36095" d="M251.367,170.125a5.4,5.4,0,0,0-.194-5.613c-1.544-.419-3.609,1.074-4.785,3.527-1.022,2.045-1.022,4.2-.256,5.378C247.972,173.908,250.212,172.538,251.367,170.125Z" transform="translate(-130.054 -153.914)" opacity="0.2"/>
      <path id="Path_36096" data-name="Path 36096" d="M264.671,176.449c-.532,1.125-4.54.337-8.936-1.769s-7.536-4.734-6.994-5.859,4.55-.337,8.947,1.769S265.213,175.314,264.671,176.449Z" transform="translate(-129.985 -153.827)" fill="#00a2f5"/>
      <path id="Path_36097" data-name="Path 36097" d="M259.52,176.19c2.6.808,4.55.93,4.908.164s-1.022-2.27-3.323-3.814a6.737,6.737,0,0,0-.951,1.472,7.156,7.156,0,0,0-.634,2.178Z" transform="translate(-129.741 -153.732)" opacity="0.2"/>
      <path id="Path_36098" data-name="Path 36098" d="M268.886,178.518c-1.258,2.628-3.824,4.018-5.726,3.067s-2.423-3.773-1.166-6.4,3.824-4.029,5.726-3.119S270.2,175.89,268.886,178.518Z" transform="translate(-129.701 -153.748)" fill="#00a2f5"/>
    </g>
  </g>
</svg>
