<svg xmlns="http://www.w3.org/2000/svg" xmlns:xlink="http://www.w3.org/1999/xlink" width="445.143" height="390.64" viewBox="0 0 445.143 390.64">
  <defs>
    <radialGradient id="radial-gradient" cx="0.5" cy="0.5" r="0.5" gradientUnits="objectBoundingBox">
      <stop offset="0" stop-color="#fff"/>
      <stop offset="1" stop-color="#fff" stop-opacity="0"/>
    </radialGradient>
  </defs>
  <g id="Group_5366" data-name="Group 5366" transform="translate(-743.332 -807.176)">
    <g id="freepik--Shadow--inject-2" transform="translate(802.222 582.256)">
      <ellipse id="freepik--path--inject-2" cx="107.928" cy="11.32" rx="107.928" ry="11.32" transform="translate(56.11 592.92)" fill="#f5f5f5"/>
    </g>
    <g id="Group_57" data-name="Group 57" transform="translate(1231.955 703.94) rotate(180)" style="isolation: isolate">
      <path id="Path_1" data-name="Path 1" d="M380.3-316.336h-30.23l-.052-.052-.052.052H279.186l-14.927,14.928H218.041l-3.729-3.729a2.222,2.222,0,0,0-.353-2.662,2.23,2.23,0,0,0-3.151,0,2.22,2.22,0,0,0,0,3.143,2.221,2.221,0,0,0,2.665.358l4.075,4.073h45.528l-8.428,8.429a2.214,2.214,0,0,0-2.664.354,2.221,2.221,0,0,0,0,3.145,2.221,2.221,0,0,0,3.142,0,2.216,2.216,0,0,0,.357-2.661l24.191-24.2h39.259l-10.616,10.616H291.973a2.216,2.216,0,0,0-2.134-1.632,2.225,2.225,0,0,0-2.224,2.223,2.227,2.227,0,0,0,2.224,2.226,2.217,2.217,0,0,0,2.134-1.635h16.833l11.8-11.8h28.177L321.8-288.164H271.961l-17.212,17.215H237.423l-15.531-15.532H198.149l.01-.01-8.235-8.234H158.243a2.215,2.215,0,0,0-2.133-1.631,2.223,2.223,0,0,0-2.224,2.223,2.224,2.224,0,0,0,2.224,2.225,2.217,2.217,0,0,0,2.134-1.633h31.187l7.06,7.06H148.48a2.22,2.22,0,0,0-2.137-1.632,2.226,2.226,0,0,0-2.224,2.224,2.226,2.226,0,0,0,2.224,2.225,2.222,2.222,0,0,0,2.138-1.634H221.4l14.348,14.349H115.735a2.216,2.216,0,0,0-2.134-1.635,2.226,2.226,0,0,0-2.223,2.225,2.225,2.225,0,0,0,2.223,2.223,2.215,2.215,0,0,0,2.134-1.631h139.5l17.215-17.214h49.838l15.167-15.169H353.1l5.891,5.895a2.205,2.205,0,0,0,.357,2.662,2.217,2.217,0,0,0,3.142,0,2.22,2.22,0,0,0,0-3.144,2.216,2.216,0,0,0-2.663-.355l-6.238-6.241H338.641l11.819-11.82H380.8L401.744-336.1h19.691l6.376-6.378h52.52a2.219,2.219,0,0,0,2.137,1.631,2.221,2.221,0,0,0,2.219-2.224,2.221,2.221,0,0,0-2.219-2.224,2.222,2.222,0,0,0-2.138,1.633h-53l-6.38,6.379h-19.7Z" fill="#f0f0f0" style="mix-blend-mode: color-burn;isolation: isolate"/>
      <path id="Path_2" data-name="Path 2" d="M137.633-303.355l-9.648,9.652H72.4a2.217,2.217,0,0,0-2.134-1.632,2.222,2.222,0,0,0-2.223,2.223,2.223,2.223,0,0,0,2.223,2.225,2.216,2.216,0,0,0,2.134-1.634h56.075l10.769-10.764-.069-.07h50.213l20.467-20.464h27.441l9.987,9.986a2.218,2.218,0,0,0,.355,2.665,2.221,2.221,0,0,0,3.143,0,2.224,2.224,0,0,0,0-3.146,2.215,2.215,0,0,0-2.661-.356L237.782-325H211.037l16.635-16.633H328.311l26.481-26.485h58.5V-369.3H354.3l-26.486,26.484H282.523l.021-.021-11.055-11.054H212.737l-36.6,36.6H163.146L149.9-330.539H64.915L53.363-342.092a2.215,2.215,0,0,0-.356-2.662,2.225,2.225,0,0,0-3.147,0,2.23,2.23,0,0,0,0,3.145,2.218,2.218,0,0,0,2.664.355l11.9,11.9h84.989l12.062,12.06H125.365a2.216,2.216,0,0,0-2.134-1.634,2.226,2.226,0,0,0-2.223,2.224,2.226,2.226,0,0,0,2.223,2.225,2.216,2.216,0,0,0,2.134-1.631H176.63l36.592-36.6H271l9.891,9.893H227.179L188.9-304.537H47.838a2.215,2.215,0,0,0-2.13-1.632,2.226,2.226,0,0,0-2.228,2.223,2.228,2.228,0,0,0,2.228,2.226,2.215,2.215,0,0,0,2.13-1.635Z" fill="#f0f0f0" style="mix-blend-mode: color-burn;isolation: isolate"/>
    </g>
    <g id="Group_4091" data-name="Group 4091" transform="translate(-1465.355 -436.824)">
      <g id="freepik--Character--inject-2" transform="translate(2173.525 1210.594)">
        <path id="Path_35607" data-name="Path 35607" d="M250.56,358.39l5.92,7.56,20.72-28.97-11.39-6.01Z" fill="#f2c0be"/>
        <path id="Path_35608" data-name="Path 35608" d="M257.86,363.42l-5.39-8.88a.74.74,0,0,0-.92-.32L244,357.36a1.46,1.46,0,0,0-.62,2.09c1.94,3.07,3,4.45,5.4,8.36,1.46,2.4,3.34,6.06,5.36,9.38s5.37,1.55,4.82,0c-2.44-7-1.22-9-.75-12.17A2.41,2.41,0,0,0,257.86,363.42Z" fill="#263238"/>
        <path id="Path_35609" data-name="Path 35609" d="M273.18,207.21s25.05,66.23,22.19,90.45c-2,17.17-18.45,40.17-18.45,40.17l-13.27-5.48s6.68-20.5,11.89-32.69c2.33-34-39.29-71.9-29.79-92.45Z" fill="#263238"/>
        <path id="Path_35610" data-name="Path 35610" d="M261.5,332.92l15.95,6.9,3.5-3.8-17.57-8.67Z" fill="#00a2f5"/>
        <path id="Path_35611" data-name="Path 35611" d="M259.6,368.23a1.25,1.25,0,0,0,1-.31.72.72,0,0,0,.29-.68c-.15-1.16-3.14-2.65-3.48-2.82a.24.24,0,0,0-.23,0,.23.23,0,0,0-.07.23c.39,1.17,1.19,3.18,2.31,3.52Zm-1.86-3.18c1.18.63,2.68,1.62,2.76,2.24a.3.3,0,0,1-.14.29.78.78,0,0,1-.77.2c-.59-.18-1.28-1.19-1.85-2.73Z" fill="#00a2f5"/>
        <path id="Path_35612" data-name="Path 35612" d="M258.73,365.28a3.8,3.8,0,0,0,2.74-.24.75.75,0,0,0,.13-.94,1.16,1.16,0,0,0-.72-.65c-1.27-.4-3.54.92-3.63,1a.21.21,0,0,0-.11.19.24.24,0,0,0,.11.19,5.74,5.74,0,0,0,1.48.45Zm1.88-1.45h.14a.71.71,0,0,1,.46.4.509.509,0,0,1,0,.44c-.47.43-2.28.29-3.33-.11a5.45,5.45,0,0,1,2.73-.73Z" fill="#00a2f5"/>
        <path id="Path_35613" data-name="Path 35613" d="M277.84,156.61c1.69,2.12,3.58,4.4,5.47,6.52s3.82,4.28,5.83,6.32a104.923,104.923,0,0,0,12.69,11.19l.84.62.36.26h.05a.81.81,0,0,0,.47.16,6.25,6.25,0,0,0,2.63-.49,31.73,31.73,0,0,0,6.8-3.89,80.1,80.1,0,0,0,6.66-5.33c2.17-1.88,4.33-3.9,6.38-5.88l.06-.06a2.33,2.33,0,0,1,3.52,3,85.66,85.66,0,0,1-12.15,13.81,35.47,35.47,0,0,1-8.15,5.63,14.12,14.12,0,0,1-6,1.47,9.509,9.509,0,0,1-3.84-.81,10,10,0,0,1-.92-.48l-.32-.2-.25-.16-1-.64a76.3,76.3,0,0,1-7.56-5.52c-2.42-1.95-4.67-4-6.88-6.17s-4.32-4.34-6.35-6.63-4-4.57-5.89-7.15a4.69,4.69,0,0,1,7.42-5.73Z" fill="#f2c0be"/>
        <path id="Path_35614" data-name="Path 35614" d="M325.61,166.63l5.49-7.37,2.19,9.11s-4.35,3.9-8,2.57Z" fill="#f2c0be"/>
        <path id="Path_35615" data-name="Path 35615" d="M335.64,157.62l2.5,6.87-4.85,3.88-2.19-9.11Z" fill="#f2c0be"/>
        <path id="Path_35616" data-name="Path 35616" d="M237.59,405.53l9.17-.23,1.66-32.31-12.73.95Z" fill="#f2c0be"/>
        <path id="Path_35617" data-name="Path 35617" d="M247.06,403l-10.31-2a.57.57,0,0,0-.72.49l-1,7.38a1.91,1.91,0,0,0,1.51,1.92,27,27,0,0,1,8.56,2.44c2.61,1.13,7.35,3,11.27,3s3.25-3.8,1.54-4.11c-7.68-1.39-6.87-5.75-9.34-8.25a3,3,0,0,0-1.51-.87Z" fill="#263238"/>
        <path id="Path_35618" data-name="Path 35618" d="M279,156.07c.49,5.77.14,19.33-4.47,51.14H237.29c.33-14.06.22-23.13-6-49.16a6.24,6.24,0,0,1,5.14-7.68c2.66-.38,5.84-.75,9.06-.9a119.3,119.3,0,0,1,16.92,0c4.36.4,9.07,1.16,12.15,1.71a5.44,5.44,0,0,1,4.44,4.89Z" fill="#00a2f5"/>
        <path id="Path_35619" data-name="Path 35619" d="M263.7,171.61a.46.46,0,0,1-.23-.06,46.55,46.55,0,0,1-20.93-21.74.51.51,0,0,1,.29-.65.5.5,0,0,1,.65.29,45.45,45.45,0,0,0,20,21C270.7,156.9,265,150,265,150a.5.5,0,0,1,.76-.65c.26.3,6.35,7.58-1.57,22A.52.52,0,0,1,263.7,171.61Z" fill="#fff"/>
        <path id="Path_35620" data-name="Path 35620" d="M238.31,107.49c-.33-4.89,6.1-11.87,13.26-10.74,7.38,1.15,20.57,7.78,26.52.75,0,0,.05,11.24-6.95,13.91,2.95,2,11,1.5,12.84-1.25-.12,8.22-8.38,13.18-16.64,12.48S254,141,241.67,134,227,108.05,238.31,107.49Z" fill="#263238"/>
        <path id="Path_35621" data-name="Path 35621" d="M265.55,121.36,260.21,130c7.6,1.73,16.11-1.18,17.52-7.89C275.58,124.12,268,123.45,265.55,121.36Z" fill="#263238"/>
        <path id="Path_35622" data-name="Path 35622" d="M245,131.49l6.36-1c-.87,4.85-4.65,9.09-8.91,8.26C244.1,138,245.58,133.41,245,131.49Z" fill="#263238"/>
        <path id="Path_35623" data-name="Path 35623" d="M246.47,135.66l4-1.63c.18,3.33-1.66,6.71-4.59,6.82C246.91,140.09,247.18,136.83,246.47,135.66Z" fill="#263238"/>
        <path id="Path_35624" data-name="Path 35624" d="M246.82,130.41c1.16,5.45,2.4,15.42-1.34,19.06a66.07,66.07,0,0,0,16.64,12.58c5.14-8.56.28-12.58.28-12.58-6.09-1.45-6-6-5-10.19Z" fill="#f2c0be"/>
        <path id="Path_35625" data-name="Path 35625" d="M251.12,134l6.24,5.25a16.539,16.539,0,0,0-.47,3c-2.32-.33-5.56-2.88-5.85-5.31a8.14,8.14,0,0,1,.08-2.94Z" opacity="0.2"/>
        <path id="Path_35626" data-name="Path 35626" d="M240.21,121.75c2.82,8.68,3.83,12.41,9.46,15.87,8.47,5.19,18.52,0,18.36-9.27-.15-8.37-4.73-21.17-14.28-22.6a12.21,12.21,0,0,0-13.54,16Z" fill="#f2c0be"/>
        <path id="Path_35627" data-name="Path 35627" d="M241.92,115.83c7.48.06,12.24-8.92,21.05-5.28-2.54-5.5-8.11-9.67-14.05-7.17S231.56,115.73,241.92,115.83Z" fill="#263238"/>
        <path id="Path_35628" data-name="Path 35628" d="M243.87,127.7c4,2.16,1.61-13.87-3-17.15C234,118.55,238.54,124.86,243.87,127.7Z" fill="#263238"/>
        <path id="Path_35629" data-name="Path 35629" d="M263,234.41c-5.42-7.88-7.11-2.71-7.08,6.93.6,2.14,1.23,4.38,1.87,6.7,5.29,9.66,10.93,19.92,14.42,30.22C272.26,263.38,270.51,245.36,263,234.41Z" opacity="0.2"/>
        <path id="Path_35631" data-name="Path 35631" d="M232.44,376.74l17.17-1.51,1.2-6.33-19.43.7Z" fill="#00a2f5"/>
        <path id="Path_35632" data-name="Path 35632" d="M261.1,120.77a20,20,0,0,0,3.75,4,3.13,3.13,0,0,1-2.44,1.1Z" fill="#d69996"/>
        <path id="Path_35633" data-name="Path 35633" d="M258.82,129.48a6.241,6.241,0,0,0,1.23-.19.21.21,0,0,0,.16-.26.23.23,0,0,0-.27-.16,6,6,0,0,1-5.22-1.11.22.22,0,1,0-.29.32,6.22,6.22,0,0,0,4.39,1.4Z" fill="#263238"/>
        <path id="Path_35634" data-name="Path 35634" d="M239.16,128.41a6.83,6.83,0,0,0,3.88,3.35c2.23.74,3.43-1.21,2.87-3.35-.5-1.93-2.26-4.64-4.54-4.44S238.19,126.47,239.16,128.41Z" fill="#f2c0be"/>
        <path id="Path_35635" data-name="Path 35635" d="M249.92,118.27a.41.41,0,0,0,.29-.19,3.4,3.4,0,0,1,2.65-1.64.44.44,0,0,0,.43-.44.45.45,0,0,0-.45-.43,4.25,4.25,0,0,0-3.37,2,.44.44,0,0,0,.45.66Z" fill="#263238"/>
        <path id="Path_35636" data-name="Path 35636" d="M257.44,120.74a.34.34,0,0,0-.26.05,2.63,2.63,0,0,1-2.36.41.31.31,0,0,0-.42.19.33.33,0,0,0,.19.43,3.27,3.27,0,0,0,3-.48.35.35,0,0,0,.08-.47A.39.39,0,0,0,257.44,120.74Z" fill="#263238"/>
        <path id="Path_35637" data-name="Path 35637" d="M265,119a.35.35,0,0,0-.26.06,2.59,2.59,0,0,1-2.35.4.34.34,0,0,0-.43.19.33.33,0,0,0,.19.43,3.22,3.22,0,0,0,3-.48.33.33,0,0,0,.07-.46A.38.38,0,0,0,265,119Z" fill="#263238"/>
        <path id="Path_35638" data-name="Path 35638" d="M265,114.44a.39.39,0,0,0,.29-.13.43.43,0,0,0,0-.62,4.38,4.38,0,0,0-3.83-1.14.43.43,0,0,0-.31.52.45.45,0,0,0,.54.32,3.49,3.49,0,0,1,3,.94.43.43,0,0,0,.31.11Z" fill="#263238"/>
        <path id="Path_35639" data-name="Path 35639" d="M237.56,162.8c-2,2.23-3.95,4.21-6,6.23s-4.21,3.9-6.41,5.76a71.069,71.069,0,0,1-14.72,9.92c-.72.32-1.43.64-2.19.93-.37.15-.74.29-1.14.42l-.58.19-.3.1-.5.14a9.739,9.739,0,0,1-3.59.15,15.1,15.1,0,0,1-2.7-.63,38.14,38.14,0,0,1-8.29-4.1A94.09,94.09,0,0,1,177.6,171.3a2.33,2.33,0,0,1,2.8-3.7h.06c4.66,2.81,9.43,5.63,14.21,7.91a35.859,35.859,0,0,0,6.93,2.65,9.36,9.36,0,0,0,1.38.19c.38,0,.63,0,.55-.06s-.05,0,0,0l.2-.08.39-.16c.27-.1.53-.22.8-.35.53-.23,1.07-.52,1.61-.79a73.779,73.779,0,0,0,12.53-9.2c2-1.76,3.95-3.63,5.9-5.49s3.85-3.85,5.63-5.72l.06-.06a4.689,4.689,0,1,1,6.911,6.341Z" fill="#f2c0be"/>
        <path id="Path_35640" data-name="Path 35640" d="M252.07,405a1.11,1.11,0,0,0,.24-1,1,1,0,0,0-.45-.7c-1.08-.69-3.82.59-4.13.74a.17.17,0,0,0-.09.2.27.27,0,0,0,.17.2c1.19.51,3.32,1.28,4.17.65Zm-3.65-.76c1.11-.47,2.7-.95,3.27-.58a.4.4,0,0,1,.19.31.69.69,0,0,1-.21.73c-.45.3-1.67.16-3.25-.46Z" fill="#00a2f5"/>
        <path id="Path_35641" data-name="Path 35641" d="M249.09,403.63a3,3,0,0,0,1.12-2.27,1.119,1.119,0,0,0-1.66-.63c-1,.69-.92,3.35-.91,3.46a.26.26,0,0,0,.11.21.23.23,0,0,0,.22,0,3.68,3.68,0,0,0,1.12-.77Zm-.34-2.44.1-.08a.63.63,0,0,1,.57-.08c.28.09.34.23.37.33.14.66-.86,2-1.72,2.49a4.79,4.79,0,0,1,.68-2.66Z" fill="#00a2f5"/>
        <path id="Path_35642" data-name="Path 35642" d="M236.69,205l-.89,3.34c-.13.26.18.52.61.52h38.36c.34,0,.62-.17.63-.38l.28-3.33c0-.23-.28-.43-.64-.43H237.29a.66.66,0,0,0-.6.28Z" fill="#00a2f5"/>
        <path id="Path_35643" data-name="Path 35643" d="M241.84,209.24h-1c-.21,0-.36-.1-.35-.23l.4-4.33c0-.13.18-.24.38-.24h1c.21,0,.36.11.35.24l-.4,4.33C242.21,209.14,242,209.24,241.84,209.24Z" fill="#263238"/>
        <path id="Path_35644" data-name="Path 35644" d="M271.94,209.24h-1c-.2,0-.36-.1-.35-.23l.4-4.33c0-.13.19-.24.39-.24h1c.2,0,.36.11.34.24l-.39,4.33C272.32,209.14,272.14,209.24,271.94,209.24Z" fill="#263238"/>
        <path id="Path_35645" data-name="Path 35645" d="M256.89,209.24h-1c-.2,0-.36-.1-.35-.23l.4-4.33c0-.13.18-.24.39-.24h1c.2,0,.35.11.34.24l-.39,4.33C257.26,209.14,257.09,209.24,256.89,209.24Z" fill="#263238"/>
        <path id="Path_35646" data-name="Path 35646" d="M181.32,168.07l-4.92-8.69-3.21,8.71s3.88,4.51,7.59,3.72Z" fill="#f2c0be"/>
        <path id="Path_35647" data-name="Path 35647" d="M169.25,156.34l-2.29,7.45,7.3,5.37,2.14-9.78Z" fill="#f2c0be"/>
      </g>
      <g id="freepik--Icons--inject-2" transform="translate(2173.525 1210.594)">
        <path id="Path_35648" data-name="Path 35648" d="M334.85,146.45l-7-2.89-.26-2.63a16.369,16.369,0,0,1-1.82-1.81l-2.62-.26-2.89-7,1.68-2a15.87,15.87,0,0,1,0-2.58l-1.68-2,2.89-7,2.62-.25a17.368,17.368,0,0,1,1.82-1.82l.26-2.62,7-2.89,2,1.68a15.87,15.87,0,0,1,2.58,0l2-1.68,7,2.89.25,2.62a17.372,17.372,0,0,1,1.82,1.82l2.62.25,2.89,7-1.68,2a15.866,15.866,0,0,1,0,2.58l1.68,2-2.89,7-2.62.26a15.637,15.637,0,0,1-1.82,1.82l-.25,2.62-7,2.89-2-1.68a15.749,15.749,0,0,1-2.57,0Zm5.08-3.23,1.82,1.5,5.31-2.2.22-2.34.25-.2a15.268,15.268,0,0,0,2.05-2l.19-.25,2.35-.22,2.2-5.31-1.5-1.82v-.31a14.049,14.049,0,0,0,0-2.9v-.31l1.5-1.82-2.2-5.31-2.34-.22-.2-.25a15.268,15.268,0,0,0-2.05-2l-.25-.2-.22-2.34-5.31-2.2-1.82,1.5h-.31a14.051,14.051,0,0,0-2.9,0h-.31l-1.82-1.5-5.31,2.2-.22,2.34-.24.2a14.782,14.782,0,0,0-2.06,2l-.2.25-2.34.22L322,125l1.5,1.82v.31a14.047,14.047,0,0,0,0,2.9v.31l-1.5,1.82,2.2,5.31,2.34.22.2.24a14.193,14.193,0,0,0,2.05,2.05l.25.2.22,2.35,5.31,2.2,1.82-1.5h.31a14.049,14.049,0,0,0,2.9,0Z" fill="#00a2f5"/>
        <path id="Path_35649" data-name="Path 35649" d="M341.28,136.08a8.12,8.12,0,1,1,4.4-4.4,8.13,8.13,0,0,1-4.4,4.4Z" fill="#00a2f5"/>
        <path id="Path_35650" data-name="Path 35650" d="M255.64,58.79a.75.75,0,0,1-.75-.75A17.67,17.67,0,0,1,272.53,40.4a.75.75,0,0,1,.75.75,17.66,17.66,0,0,1-17.64,17.64Zm16.12-16.87a16.16,16.16,0,0,0-15.35,15.35A16.15,16.15,0,0,0,271.76,41.92Z" fill="#00a2f5"/>
        <path id="Path_35651" data-name="Path 35651" d="M260.59,46.86a.74.74,0,0,1-.75-.74,16.05,16.05,0,0,0-4.2-10.88,16.05,16.05,0,0,0-4.19,10.87.75.75,0,1,1-1.5,0,17.52,17.52,0,0,1,5.16-12.48.75.75,0,0,1,1.07,0,17.55,17.55,0,0,1,5.16,12.48.76.76,0,0,1-.75.75Z" fill="#00a2f5"/>
        <path id="Path_35652" data-name="Path 35652" d="M255.64,58.79A17.65,17.65,0,0,1,238,41.15a.75.75,0,0,1,.75-.75A17.66,17.66,0,0,1,256.39,58a.74.74,0,0,1-.75.79ZM239.52,41.92a16.16,16.16,0,0,0,15.36,15.35,16.14,16.14,0,0,0-15.36-15.35Z" fill="#00a2f5"/>
        <path id="Path_35653" data-name="Path 35653" d="M176.78,141.31h-7.17a3.58,3.58,0,0,1-3.54-3l-.15-.84a17.19,17.19,0,0,0-3.24-7.44,12.82,12.82,0,0,1-2.51-8.07,13.19,13.19,0,0,1,12.65-12.64,13,13,0,0,1,11,20.6,18.05,18.05,0,0,0-3.32,7.56l-.14.83A3.58,3.58,0,0,1,176.78,141.31Zm-3.59-30.49h-.33A11.67,11.67,0,0,0,161.67,122a11.35,11.35,0,0,0,2.22,7.14,18.7,18.7,0,0,1,3.51,8.08l.15.84a2.08,2.08,0,0,0,2.06,1.75h7.17a2.09,2.09,0,0,0,2.06-1.75l.14-.83a19.68,19.68,0,0,1,3.58-8.19,11.51,11.51,0,0,0-9.37-18.22Z" fill="#00a2f5"/>
        <path id="Path_35654" data-name="Path 35654" d="M178.57,144.48a1.09,1.09,0,0,0-1.08-1.09H168.9a1.09,1.09,0,1,0,0,2.17h.22a1,1,0,0,0-.27.65v.22a1,1,0,0,0,1,1h6.73a1,1,0,0,0,1-1v-.22a1,1,0,0,0-.26-.65h.22a1.09,1.09,0,0,0,1.03-1.08Z" fill="#00a2f5"/>
        <path id="Path_35655" data-name="Path 35655" d="M175.13,140.93h0a.38.38,0,0,1-.36-.39,74.64,74.64,0,0,1,1.54-12.21h-.19a2.92,2.92,0,0,1-2.91-.72,2.78,2.78,0,0,1-2.78.73,73.318,73.318,0,0,1,1.52,12.16.37.37,0,0,1-.36.39.35.35,0,0,1-.39-.36,74.434,74.434,0,0,0-1.58-12.38c-2.33-.71-5-2.72-5.08-4.29,0-.43.17-1.2,1.51-1.52a2,2,0,0,1,1.76.4c1,.78,1.82,2.6,2.41,4.8l.29.06c.86.15,1.95.12,2.35-.87a.4.4,0,0,1,.7,0c.4,1,1.54,1,2.43.86a5,5,0,0,0,.53-.12c.59-2.16,1.37-4,2.4-4.73a2,2,0,0,1,1.75-.4c1.32.32,1.5,1.06,1.49,1.48,0,1.52-2.68,3.48-5,4.25a76.119,76.119,0,0,0-1.6,12.46.37.37,0,0,1-.43.4Zm-8.61-17.86a1.55,1.55,0,0,0-.31,0c-1,.23-.94.63-.94.77,0,1,2,2.68,4.1,3.45a7.86,7.86,0,0,0-2-4,1.31,1.31,0,0,0-.85-.22Zm13.65,0a1.31,1.31,0,0,0-.82.31,7.72,7.72,0,0,0-2,3.86c2.09-.81,4-2.46,4-3.4,0-.34-.3-.58-.91-.73A1.759,1.759,0,0,0,180.17,123.07Z" fill="#00a2f5"/>
        <path id="Path_35656" data-name="Path 35656" d="M333.4,101.86a.89.89,0,0,1-.84-.6A81.35,81.35,0,0,0,283,51.67a.892.892,0,0,1,.6-1.68,83.08,83.08,0,0,1,50.68,50.67.88.88,0,0,1-.54,1.14A.8.8,0,0,1,333.4,101.86Z" fill="#00a2f5"/>
        <path id="Path_35657" data-name="Path 35657" d="M177.89,101.88a.8.8,0,0,1-.3-.06.89.89,0,0,1-.55-1.14A83.06,83.06,0,0,1,227.73,50a.892.892,0,0,1,.6,1.68,81.29,81.29,0,0,0-49.6,49.6A.89.89,0,0,1,177.89,101.88Z" fill="#00a2f5"/>
      </g>
    </g>
    <g id="Group_5404" data-name="Group 5404">
      <path id="Path_3" data-name="Path 3" d="M487.971-326.3a2.214,2.214,0,0,0-2.661-.354l-10.63-10.63H451.333l-12.041,12.04H416.9L396.92-305.259H379.615a2.218,2.218,0,0,0-2.138-1.633,2.223,2.223,0,0,0-2.219,2.225,2.222,2.222,0,0,0,2.219,2.224,2.217,2.217,0,0,0,2.138-1.633h17.794l19.985-19.984h20.715l-32.283,32.283H372.6l-13.965,13.963H308.317L297.846-267.34H269.075l-3.656,3.652a2.213,2.213,0,0,0-2.662.355,2.221,2.221,0,0,0,0,3.145,2.221,2.221,0,0,0,3.142,0,2.216,2.216,0,0,0,.356-2.663l3.3-3.307h15.3L264.5-245.792H249.992l-12.545-12.55H212.573a2.222,2.222,0,0,0-2.138-1.631,2.221,2.221,0,0,0-2.219,2.224,2.221,2.221,0,0,0,2.219,2.223,2.222,2.222,0,0,0,2.138-1.632h24.385l11.364,11.366H209.371l-12.876-12.88H103.436l-7.042-7.04a2.217,2.217,0,0,0-.356-2.661,2.22,2.22,0,0,0-3.143,0,2.224,2.224,0,0,0,0,3.146,2.217,2.217,0,0,0,2.666.352l7.387,7.387h70.838l-19.457,19.457H67.167L52.525-223.387a2.217,2.217,0,0,0-2.665.355,2.214,2.214,0,0,0,0,3.144,2.224,2.224,0,0,0,3.147,0,2.215,2.215,0,0,0,.356-2.662l14.3-14.3h87.162l20.642-20.642H196l12.877,12.88h56.114l21.544-21.55h11.8l10.471-10.472h48.645L337.2-256.386H292.937a2.219,2.219,0,0,0-2.134-1.633,2.229,2.229,0,0,0-2.227,2.225,2.229,2.229,0,0,0,2.227,2.224,2.22,2.22,0,0,0,2.134-1.633H337.7l35.4-35.393h33.226l45.5-45.5h22.366l10.286,10.283a2.215,2.215,0,0,0,.355,2.663,2.219,2.219,0,0,0,3.143,0A2.223,2.223,0,0,0,487.971-326.3Z" transform="translate(1231.955 703.94) rotate(180)" fill="#f0f0f0" style="mix-blend-mode: color-burn;isolation: isolate"/>
      <path id="Path_35630" data-name="Path 35630" d="M264.72,207.21s-3.88,71.39-6.85,95.59c-3.53,28.74-8.58,69.25-8.58,69.25l-14.89,2.33s-3.93-51.33-.28-66.69c7.77-32.78-6.34-79.93,3.17-100.48Z" transform="translate(708.17 773.77)" fill="#263238"/>
    </g>
    <g id="Group_59" data-name="Group 59" transform="translate(859.332 809.176)" style="isolation: isolate">
      <g id="Group_53" data-name="Group 53" transform="translate(97.132 135.132)" style="mix-blend-mode: overlay;isolation: isolate">
        <g id="Group_51" data-name="Group 51" transform="translate(13.57 1.29)">
          <path id="Path_47" data-name="Path 47" d="M1247.835-409.734l1.347,3.321,1.849-.806Z" transform="translate(-1244.805 409.734)" fill="none" stroke="#fff" stroke-linecap="round" stroke-linejoin="round" stroke-width="0.2"/>
          <path id="Path_48" data-name="Path 48" d="M1264-387.172l1.069-3.455,1.8,4.144Z" transform="translate(-1258.841 393.142)" fill="none" stroke="#fff" stroke-linecap="round" stroke-linejoin="round" stroke-width="0.2"/>
          <path id="Path_49" data-name="Path 49" d="M1239.6-383.358l2.431-1.141.78,2.649Z" transform="translate(-1237.653 387.82)" fill="none" stroke="#fff" stroke-linecap="round" stroke-linejoin="round" stroke-width="0.2"/>
          <path id="Path_50" data-name="Path 50" d="M1277.354-357.431l1.108-1.7.275,2.642Z" transform="translate(-1270.439 365.793)" fill="none" stroke="#fff" stroke-linecap="round" stroke-linejoin="round" stroke-width="0.2"/>
          <path id="Path_51" data-name="Path 51" d="M1264-364.369l1.757,2.392,1.108-1.7Z" transform="translate(-1258.841 370.339)" fill="none" stroke="#fff" stroke-linecap="round" stroke-linejoin="round" stroke-width="0.2"/>
          <path id="Path_52" data-name="Path 52" d="M1277.276-344.108l.01-2.082,1.046,2.4Z" transform="translate(-1270.371 354.552)" fill="none" stroke="#fff" stroke-linecap="round" stroke-linejoin="round" stroke-width="0.2"/>
          <path id="Path_53" data-name="Path 53" d="M1278.736-345.252l-.337,1.465-1.046-2.4Z" transform="translate(-1270.439 354.552)" fill="none" stroke="#fff" stroke-linecap="round" stroke-linejoin="round" stroke-width="0.2"/>
          <path id="Path_54" data-name="Path 54" d="M1278.837-328.79l-1.561-1.579,1.056.321Z" transform="translate(-1270.371 340.813)" fill="none" stroke="#fff" stroke-linecap="round" stroke-linejoin="round" stroke-width="0.2"/>
          <path id="Path_55" data-name="Path 55" d="M1270.663-329.043l.87-1.327,1.561,1.579Z" transform="translate(-1264.629 340.813)" fill="none" stroke="#fff" stroke-linecap="round" stroke-linejoin="round" stroke-width="0.2"/>
          <path id="Path_56" data-name="Path 56" d="M1283.244-317.21l-.781-1.159-1.011,1.664Z" transform="translate(-1273.998 330.391)" fill="none" stroke="#fff" stroke-linecap="round" stroke-linejoin="round" stroke-width="0.2"/>
          <path id="Path_57" data-name="Path 57" d="M1283.855-308.437l-.612-1.126-1.792.5Z" transform="translate(-1273.998 322.745)" fill="none" stroke="#fff" stroke-linecap="round" stroke-linejoin="round" stroke-width="0.2"/>
          <path id="Path_58" data-name="Path 58" d="M1284.039-304.187l-.184-.918-2.4-.621Z" transform="translate(-1273.998 319.412)" fill="none" stroke="#fff" stroke-linecap="round" stroke-linejoin="round" stroke-width="0.2"/>
          <path id="Path_59" data-name="Path 59" d="M1283.469-303.538l-2.017-2.188,2.588,1.539Z" transform="translate(-1273.998 319.412)" fill="none" stroke="#fff" stroke-linecap="round" stroke-linejoin="round" stroke-width="0.2"/>
          <path id="Path_60" data-name="Path 60" d="M1274.76-303.851l.88-1.876,2.017,2.188Z" transform="translate(-1268.187 319.412)" fill="none" stroke="#fff" stroke-linecap="round" stroke-linejoin="round" stroke-width="0.2"/>
          <path id="Path_61" data-name="Path 61" d="M1269.384-308.284l1.588.337-.88,1.876Z" transform="translate(-1263.518 321.634)" fill="none" stroke="#fff" stroke-linecap="round" stroke-linejoin="round" stroke-width="0.2"/>
          <path id="Path_62" data-name="Path 62" d="M1277.657-291.16l-1.342.6-1.555-.915Z" transform="translate(-1268.187 307.035)" fill="none" stroke="#fff" stroke-linecap="round" stroke-linejoin="round" stroke-width="0.2"/>
          <path id="Path_63" data-name="Path 63" d="M1281.113-279.745l-.31-.8-.63.8Z" transform="translate(-1272.887 297.543)" fill="none" stroke="#fff" stroke-linecap="round" stroke-linejoin="round" stroke-width="0.2"/>
          <path id="Path_64" data-name="Path 64" d="M1281.034-273.979l-.862-.505h.94Z" transform="translate(-1272.887 292.282)" fill="none" stroke="#fff" stroke-linecap="round" stroke-linejoin="round" stroke-width="0.2"/>
          <path id="Path_65" data-name="Path 65" d="M1279.36-273.72l.107-.765.862.505Z" transform="translate(-1272.181 292.282)" fill="none" stroke="#fff" stroke-linecap="round" stroke-linejoin="round" stroke-width="0.2"/>
          <path id="Path_66" data-name="Path 66" d="M1279.833-270.368l.5-.278-.969.26Z" transform="translate(-1272.181 288.948)" fill="none" stroke="#fff" stroke-linecap="round" stroke-linejoin="round" stroke-width="0.2"/>
          <path id="Path_67" data-name="Path 67" d="M1280.1-268.025l-.264-.63-.473-.019Z" transform="translate(-1272.181 287.235)" fill="none" stroke="#fff" stroke-linecap="round" stroke-linejoin="round" stroke-width="0.2"/>
          <path id="Path_68" data-name="Path 68" d="M1274.535-268.456l.635-.218.737.649Z" transform="translate(-1267.991 287.235)" fill="none" stroke="#fff" stroke-linecap="round" stroke-linejoin="round" stroke-width="0.2"/>
          <path id="Path_69" data-name="Path 69" d="M1275.615-265.94l.292-.647-1.372-.431Z" transform="translate(-1267.991 285.798)" fill="none" stroke="#fff" stroke-linecap="round" stroke-linejoin="round" stroke-width="0.2"/>
          <path id="Path_70" data-name="Path 70" d="M1274.567-265.646l-.032-1.372,1.08,1.078Z" transform="translate(-1267.991 285.798)" fill="none" stroke="#fff" stroke-linecap="round" stroke-linejoin="round" stroke-width="0.2"/>
          <path id="Path_71" data-name="Path 71" d="M1264.958-266.075l1.26-.943.032,1.372Z" transform="translate(-1259.674 285.798)" fill="none" stroke="#fff" stroke-linecap="round" stroke-linejoin="round" stroke-width="0.2"/>
          <path id="Path_72" data-name="Path 72" d="M1275.384-258.314l-.6-.22,1.048-.294Z" transform="translate(-1268.205 278.686)" fill="none" stroke="#fff" stroke-linecap="round" stroke-linejoin="round" stroke-width="0.2"/>
          <path id="Path_73" data-name="Path 73" d="M1274.781-255.592v-1l.6.22Z" transform="translate(-1268.205 276.745)" fill="none" stroke="#fff" stroke-linecap="round" stroke-linejoin="round" stroke-width="0.2"/>
          <path id="Path_74" data-name="Path 74" d="M1275.688-253.168l-.3-1.752-.6.781Z" transform="translate(-1268.205 275.291)" fill="none" stroke="#fff" stroke-linecap="round" stroke-linejoin="round" stroke-width="0.2"/>
          <path id="Path_75" data-name="Path 75" d="M1274.15-247.942l.083-1.044.907.971Z" transform="translate(-1267.657 270.138)" fill="none" stroke="#fff" stroke-linecap="round" stroke-linejoin="round" stroke-width="0.2"/>
          <path id="Path_76" data-name="Path 76" d="M1274.941-240.6l.2-1.006-.99.072Z" transform="translate(-1267.657 263.73)" fill="none" stroke="#fff" stroke-linecap="round" stroke-linejoin="round" stroke-width="0.2"/>
          <path id="Path_77" data-name="Path 77" d="M1267.193-239.543l-.956-1.131,1.041-.382Z" transform="translate(-1260.785 263.252)" fill="none" stroke="#fff" stroke-linecap="round" stroke-linejoin="round" stroke-width="0.2"/>
          <path id="Path_78" data-name="Path 78" d="M1274.378-240.122l-.791-.933-.085,1.513Z" transform="translate(-1267.094 263.252)" fill="none" stroke="#fff" stroke-linecap="round" stroke-linejoin="round" stroke-width="0.2"/>
          <path id="Path_79" data-name="Path 79" d="M1260.067-238.155l-.935,1.024,1.891.107Z" transform="translate(-1254.616 260.733)" fill="none" stroke="#fff" stroke-linecap="round" stroke-linejoin="round" stroke-width="0.2"/>
          <path id="Path_80" data-name="Path 80" d="M1259.3-243.614l.766.718-.935,1.024Z" transform="translate(-1254.616 265.473)" fill="none" stroke="#fff" stroke-linecap="round" stroke-linejoin="round" stroke-width="0.2"/>
          <path id="Path_81" data-name="Path 81" d="M1248.145-243.445l1.446,1.574.168-1.743Z" transform="translate(-1245.074 265.473)" fill="none" stroke="#fff" stroke-linecap="round" stroke-linejoin="round" stroke-width="0.2"/>
          <path id="Path_82" data-name="Path 82" d="M1245.587-240.974l.337-1.361,1.446,1.574Z" transform="translate(-1242.853 264.362)" fill="none" stroke="#fff" stroke-linecap="round" stroke-linejoin="round" stroke-width="0.2"/>
          <path id="Path_83" data-name="Path 83" d="M1224.807-240.486l3.071-1.849-.337,1.361Z" transform="translate(-1224.807 264.362)" fill="none" stroke="#fff" stroke-linecap="round" stroke-linejoin="round" stroke-width="0.2"/>
          <path id="Path_84" data-name="Path 84" d="M1267.516-248.888l.956-.1-.083,1.044Z" transform="translate(-1261.896 270.138)" fill="none" stroke="#fff" stroke-linecap="round" stroke-linejoin="round" stroke-width="0.2"/>
          <path id="Path_85" data-name="Path 85" d="M1260.412-247.636l.935-.61-.168,1.328Z" transform="translate(-1255.726 269.496)" fill="none" stroke="#fff" stroke-linecap="round" stroke-linejoin="round" stroke-width="0.2"/>
          <path id="Path_86" data-name="Path 86" d="M1264.958-259.85l.337,1.527.956-1.1Z" transform="translate(-1259.674 279.573)" fill="none" stroke="#fff" stroke-linecap="round" stroke-linejoin="round" stroke-width="0.2"/>
          <path id="Path_87" data-name="Path 87" d="M1250.293-259.2l1.93-.649.337,1.527Z" transform="translate(-1246.94 279.573)" fill="none" stroke="#fff" stroke-linecap="round" stroke-linejoin="round" stroke-width="0.2"/>
          <path id="Path_88" data-name="Path 88" d="M1246.665-320.287l-.168,1.579-3.468-1.243Z" transform="translate(-1240.631 332.057)" fill="none" stroke="#fff" stroke-linecap="round" stroke-linejoin="round" stroke-width="0.2"/>
          <path id="Path_89" data-name="Path 89" d="M1237.654-362.862l3.467-1.508,1.757,2.392Z" transform="translate(-1235.963 370.339)" fill="none" stroke="#fff" stroke-linecap="round" stroke-linejoin="round" stroke-width="0.2"/>
          <path id="Path_90" data-name="Path 90" d="M1247.2-314.274l-4.175-3.455,3.468,1.243Z" transform="translate(-1240.631 329.836)" fill="none" stroke="#fff" stroke-linecap="round" stroke-linejoin="round" stroke-width="0.2"/>
          <path id="Path_91" data-name="Path 91" d="M1259.095-282.032l-3.194-1.144,3.824.346Z" transform="translate(-1251.809 299.829)" fill="none" stroke="#fff" stroke-linecap="round" stroke-linejoin="round" stroke-width="0.2"/>
          <path id="Path_92" data-name="Path 92" d="M1275.17-273.72l-.635.218.742-.982Z" transform="translate(-1267.991 292.282)" fill="none" stroke="#fff" stroke-linecap="round" stroke-linejoin="round" stroke-width="0.2"/>
          <path id="Path_93" data-name="Path 93" d="M1251.625-253.432l-1.331-1.488,2.266.878Z" transform="translate(-1246.94 275.291)" fill="none" stroke="#fff" stroke-linecap="round" stroke-linejoin="round" stroke-width="0.2"/>
          <path id="Path_94" data-name="Path 94" d="M1252.189-270.432l-1.935-1.6,3.2.66Z" transform="translate(-1246.906 290.155)" fill="none" stroke="#fff" stroke-linecap="round" stroke-linejoin="round" stroke-width="0.2"/>
          <path id="Path_95" data-name="Path 95" d="M1270.663-320.287l1.42,1.916,1.011-1.664Z" transform="translate(-1264.629 332.057)" fill="none" stroke="#fff" stroke-linecap="round" stroke-linejoin="round" stroke-width="0.2"/>
          <path id="Path_96" data-name="Path 96" d="M1244.933-328.288l1.732,1.053-3.636.337Z" transform="translate(-1240.631 339.006)" fill="none" stroke="#fff" stroke-linecap="round" stroke-linejoin="round" stroke-width="0.2"/>
          <path id="Path_97" data-name="Path 97" d="M1239.034-351.226l3.844-.8-5.224-.884,1.38,1.684" transform="translate(-1235.963 360.388)" fill="none" stroke="#fff" stroke-linecap="round" stroke-linejoin="round" stroke-width="0.2"/>
          <path id="Path_98" data-name="Path 98" d="M1276.1-290.035l.213-.524-1.555-.915Z" transform="translate(-1268.187 307.035)" fill="none" stroke="#fff" stroke-linecap="round" stroke-linejoin="round" stroke-width="0.2"/>
        </g>
        <g id="Group_52" data-name="Group 52" transform="translate(0 0)">
          <path id="Path_99" data-name="Path 99" d="M1236.322-408.074l1.515-1.66,1.347,3.321Z" transform="translate(-1221.237 411.024)" fill="none" stroke="#fff" stroke-linecap="round" stroke-linejoin="round" stroke-width="0.2"/>
          <path id="Path_100" data-name="Path 100" d="M1236.753-394.315l-.431-2.8,2.862,1.66Z" transform="translate(-1221.237 400.067)" fill="none" stroke="#fff" stroke-linecap="round" stroke-linejoin="round" stroke-width="0.2"/>
          <path id="Path_101" data-name="Path 101" d="M1227.35-393.985l1.181-3.132.431,2.8Z" transform="translate(-1213.445 400.067)" fill="none" stroke="#fff" stroke-linecap="round" stroke-linejoin="round" stroke-width="0.2"/>
          <path id="Path_102" data-name="Path 102" d="M1227.35-375.5l1.612-.331-.256,3.016Z" transform="translate(-1213.445 381.58)" fill="none" stroke="#fff" stroke-linecap="round" stroke-linejoin="round" stroke-width="0.2"/>
          <path id="Path_103" data-name="Path 103" d="M1206.222-396.263l3.961-.854L1209-393.985Z" transform="translate(-1195.098 400.067)" fill="none" stroke="#fff" stroke-linecap="round" stroke-linejoin="round" stroke-width="0.2"/>
          <path id="Path_104" data-name="Path 104" d="M1232.237-415.149l2.053.713-1.515,1.66Z" transform="translate(-1217.689 415.726)" fill="none" stroke="#fff" stroke-linecap="round" stroke-linejoin="round" stroke-width="0.2"/>
          <path id="Path_105" data-name="Path 105" d="M1215.412-418.255l2.752,2.782-.538-2.373Z" transform="translate(-1203.078 418.424)" fill="none" stroke="#fff" stroke-linecap="round" stroke-linejoin="round" stroke-width="0.2"/>
          <path id="Path_106" data-name="Path 106" d="M1197.672-417.771l1.209-1.6-2.5-.168Z" transform="translate(-1186.547 419.534)" fill="none" stroke="#fff" stroke-linecap="round" stroke-linejoin="round" stroke-width="0.2"/>
          <path id="Path_107" data-name="Path 107" d="M1210.183-415.474c-.066.014-3.961-1.186-3.961-1.186l1.209-1.6Z" transform="translate(-1195.098 418.424)" fill="none" stroke="#fff" stroke-linecap="round" stroke-linejoin="round" stroke-width="0.2"/>
          <path id="Path_108" data-name="Path 108" d="M1181.11-404.093v-2.04l-3.805.589Z" transform="translate(-1169.986 407.896)" fill="none" stroke="#fff" stroke-linecap="round" stroke-linejoin="round" stroke-width="0.2"/>
          <path id="Path_109" data-name="Path 109" d="M1177.7-416.976l-.4,2.016,3.805-.589Z" transform="translate(-1169.986 417.313)" fill="none" stroke="#fff" stroke-linecap="round" stroke-linejoin="round" stroke-width="0.2"/>
          <path id="Path_110" data-name="Path 110" d="M1182.439-419.534l-2.112.337,3.407,1.427Z" transform="translate(-1172.61 419.534)" fill="none" stroke="#fff" stroke-linecap="round" stroke-linejoin="round" stroke-width="0.2"/>
          <path id="Path_111" data-name="Path 111" d="M1158.457-416.023l2.878-.953-.4,2.016Z" transform="translate(-1153.619 417.313)" fill="none" stroke="#fff" stroke-linecap="round" stroke-linejoin="round" stroke-width="0.2"/>
          <path id="Path_112" data-name="Path 112" d="M1140.858-408.242l2.316-1.492.568,2.12Z" transform="translate(-1138.335 411.024)" fill="none" stroke="#fff" stroke-linecap="round" stroke-linejoin="round" stroke-width="0.2"/>
          <path id="Path_113" data-name="Path 113" d="M1160.938-408.671l-1.912,1.057-.568-2.12Z" transform="translate(-1153.619 411.024)" fill="none" stroke="#fff" stroke-linecap="round" stroke-linejoin="round" stroke-width="0.2"/>
          <path id="Path_114" data-name="Path 114" d="M1141.713-395.707l2.03-2.061-2.884-.628Z" transform="translate(-1138.335 401.177)" fill="none" stroke="#fff" stroke-linecap="round" stroke-linejoin="round" stroke-width="0.2"/>
          <path id="Path_115" data-name="Path 115" d="M1122.963-381.345l.923-2.537,2.286.779Z" transform="translate(-1122.795 388.574)" fill="none" stroke="#fff" stroke-linecap="round" stroke-linejoin="round" stroke-width="0.2"/>
          <path id="Path_116" data-name="Path 116" d="M1131.41-398.4l-1.432,1.91,2.286.779Z" transform="translate(-1128.887 401.177)" fill="none" stroke="#fff" stroke-linecap="round" stroke-linejoin="round" stroke-width="0.2"/>
          <path id="Path_117" data-name="Path 117" d="M1149.38-393.624l.528,2.466-2.558-.405Z" transform="translate(-1143.973 397.034)" fill="none" stroke="#fff" stroke-linecap="round" stroke-linejoin="round" stroke-width="0.2"/>
          <path id="Path_118" data-name="Path 118" d="M1164.688-401.654l1.421,2.339-3.332-1.282Z" transform="translate(-1157.369 404.007)" fill="none" stroke="#fff" stroke-linecap="round" stroke-linejoin="round" stroke-width="0.2"/>
          <path id="Path_119" data-name="Path 119" d="M1126.172-377.96l-1.143,1.889-2.066-.131Z" transform="translate(-1122.795 383.431)" fill="none" stroke="#fff" stroke-linecap="round" stroke-linejoin="round" stroke-width="0.2"/>
          <path id="Path_120" data-name="Path 120" d="M1125.449-362.583l-.42-1.889-2.066-.131Z" transform="translate(-1122.795 371.831)" fill="none" stroke="#fff" stroke-linecap="round" stroke-linejoin="round" stroke-width="0.2"/>
          <path id="Path_121" data-name="Path 121" d="M1121.684-361.883l2.654-.7-2.486-2.02Z" transform="translate(-1121.684 371.831)" fill="none" stroke="#fff" stroke-linecap="round" stroke-linejoin="round" stroke-width="0.2"/>
          <path id="Path_122" data-name="Path 122" d="M1122.021-346.741l-.337-1.807,2.654-.7Z" transform="translate(-1121.684 358.497)" fill="none" stroke="#fff" stroke-linecap="round" stroke-linejoin="round" stroke-width="0.2"/>
          <path id="Path_123" data-name="Path 123" d="M1141.856-349.249l2,1.705,1.075-1.705Z" transform="translate(-1139.201 358.497)" fill="none" stroke="#fff" stroke-linecap="round" stroke-linejoin="round" stroke-width="0.2"/>
          <path id="Path_124" data-name="Path 124" d="M1138.665-363.6l3.5,1.889h-3.077Z" transform="translate(-1136.43 370.964)" fill="none" stroke="#fff" stroke-linecap="round" stroke-linejoin="round" stroke-width="0.2"/>
          <path id="Path_125" data-name="Path 125" d="M1142.366-377.555l-3.7,1.484,1.143-1.889Z" transform="translate(-1136.43 383.431)" fill="none" stroke="#fff" stroke-linecap="round" stroke-linejoin="round" stroke-width="0.2"/>
          <path id="Path_126" data-name="Path 126" d="M1165.491-390.784l-2.714-2.841.528,2.466Z" transform="translate(-1157.369 397.034)" fill="none" stroke="#fff" stroke-linecap="round" stroke-linejoin="round" stroke-width="0.2"/>
          <path id="Path_127" data-name="Path 127" d="M1166.109-392.342l-.618,1.559-2.714-2.841Z" transform="translate(-1157.369 397.034)" fill="none" stroke="#fff" stroke-linecap="round" stroke-linejoin="round" stroke-width="0.2"/>
          <path id="Path_128" data-name="Path 128" d="M1181.11-400.2l-2.385.888-1.421-2.339Z" transform="translate(-1169.986 404.007)" fill="none" stroke="#fff" stroke-linecap="round" stroke-linejoin="round" stroke-width="0.2"/>
          <path id="Path_129" data-name="Path 129" d="M1168.43-374.507l-2.269,1.479.083-1.853Z" transform="translate(-1160.308 380.757)" fill="none" stroke="#fff" stroke-linecap="round" stroke-linejoin="round" stroke-width="0.2"/>
          <path id="Path_130" data-name="Path 130" d="M1142.162-361.715l.121-1.52-3.618-.369Z" transform="translate(-1136.43 370.964)" fill="none" stroke="#fff" stroke-linecap="round" stroke-linejoin="round" stroke-width="0.2"/>
          <path id="Path_131" data-name="Path 131" d="M1209-388.35l-2.732-.443-.048-1.835Z" transform="translate(-1195.098 394.431)" fill="none" stroke="#fff" stroke-linecap="round" stroke-linejoin="round" stroke-width="0.2"/>
          <path id="Path_132" data-name="Path 132" d="M1188.1-389.74l2.433.947-.048-1.835Z" transform="translate(-1179.36 394.431)" fill="none" stroke="#fff" stroke-linecap="round" stroke-linejoin="round" stroke-width="0.2"/>
          <path id="Path_133" data-name="Path 133" d="M1183.4-382.324l3.051-.611-2.433-.947Z" transform="translate(-1175.282 388.574)" fill="none" stroke="#fff" stroke-linecap="round" stroke-linejoin="round" stroke-width="0.2"/>
          <path id="Path_134" data-name="Path 134" d="M1209.322-376.24l-1.66,1.712-1.072-2.155Z" transform="translate(-1195.417 382.322)" fill="none" stroke="#fff" stroke-linecap="round" stroke-linejoin="round" stroke-width="0.2"/>
          <path id="Path_135" data-name="Path 135" d="M1217.753-370.631l-3.016-.973,1.66-1.712Z" transform="translate(-1202.492 379.398)" fill="none" stroke="#fff" stroke-linecap="round" stroke-linejoin="round" stroke-width="0.2"/>
          <path id="Path_136" data-name="Path 136" d="M1183.4-376.072l4.123,1.544-1.072-2.155Z" transform="translate(-1175.282 382.322)" fill="none" stroke="#fff" stroke-linecap="round" stroke-linejoin="round" stroke-width="0.2"/>
          <path id="Path_137" data-name="Path 137" d="M1166.161-370.559l2.776,1.288-.507-2.767Z" transform="translate(-1160.308 378.287)" fill="none" stroke="#fff" stroke-linecap="round" stroke-linejoin="round" stroke-width="0.2"/>
          <path id="Path_138" data-name="Path 138" d="M1165.363-360.8l2.776,1.288-2.9.232Z" transform="translate(-1159.51 368.528)" fill="none" stroke="#fff" stroke-linecap="round" stroke-linejoin="round" stroke-width="0.2"/>
          <path id="Path_139" data-name="Path 139" d="M1187.527-370.494l-3.616,1.223-.507-2.767Z" transform="translate(-1175.282 378.287)" fill="none" stroke="#fff" stroke-linecap="round" stroke-linejoin="round" stroke-width="0.2"/>
          <path id="Path_140" data-name="Path 140" d="M1189.75-358.151l-2.5-.932,3.616-1.223Z" transform="translate(-1178.626 368.1)" fill="none" stroke="#fff" stroke-linecap="round" stroke-linejoin="round" stroke-width="0.2"/>
          <path id="Path_141" data-name="Path 141" d="M1208.2-340.161c.034-.046.648-3.013.648-3.013l-2.628-.755Z" transform="translate(-1195.098 353.878)" fill="none" stroke="#fff" stroke-linecap="round" stroke-linejoin="round" stroke-width="0.2"/>
          <path id="Path_142" data-name="Path 142" d="M1214.737-360.306l1.508,2.91,1.508-1.937Z" transform="translate(-1202.492 368.1)" fill="none" stroke="#fff" stroke-linecap="round" stroke-linejoin="round" stroke-width="0.2"/>
          <path id="Path_143" data-name="Path 143" d="M1248.145-340.11l3.833,1.282-2.6.274Z" transform="translate(-1231.504 350.561)" fill="none" stroke="#fff" stroke-linecap="round" stroke-linejoin="round" stroke-width="0.2"/>
          <path id="Path_144" data-name="Path 144" d="M1228.41-337.164l.673-2.945-2.888.252Z" transform="translate(-1212.443 350.561)" fill="none" stroke="#fff" stroke-linecap="round" stroke-linejoin="round" stroke-width="0.2"/>
          <path id="Path_145" data-name="Path 145" d="M1221.272-335.178l2.863-.32-2.215-2.693Z" transform="translate(-1208.167 348.895)" fill="none" stroke="#fff" stroke-linecap="round" stroke-linejoin="round" stroke-width="0.2"/>
          <path id="Path_146" data-name="Path 146" d="M1223.984-315.38l.151-2.349-2.863.32Z" transform="translate(-1208.167 331.125)" fill="none" stroke="#fff" stroke-linecap="round" stroke-linejoin="round" stroke-width="0.2"/>
          <path id="Path_147" data-name="Path 147" d="M1246.207-314.274l-4.327-1.106.151-2.349Z" transform="translate(-1226.064 331.125)" fill="none" stroke="#fff" stroke-linecap="round" stroke-linejoin="round" stroke-width="0.2"/>
          <path id="Path_148" data-name="Path 148" d="M1243.725-297.681l-1.845-2.2,4.327,1.106Z" transform="translate(-1226.064 315.624)" fill="none" stroke="#fff" stroke-linecap="round" stroke-linejoin="round" stroke-width="0.2"/>
          <path id="Path_149" data-name="Path 149" d="M1258.353-281.049l-2.452-2.126,3.194,1.144Z" transform="translate(-1238.239 301.118)" fill="none" stroke="#fff" stroke-linecap="round" stroke-linejoin="round" stroke-width="0.2"/>
          <path id="Path_150" data-name="Path 150" d="M1250.259-269.783l-.005-2.252,1.935,1.6Z" transform="translate(-1233.336 291.445)" fill="none" stroke="#fff" stroke-linecap="round" stroke-linejoin="round" stroke-width="0.2"/>
          <path id="Path_151" data-name="Path 151" d="M1226.868-271.375l3.077-.66.005,2.252Z" transform="translate(-1213.027 291.445)" fill="none" stroke="#fff" stroke-linecap="round" stroke-linejoin="round" stroke-width="0.2"/>
          <path id="Path_152" data-name="Path 152" d="M1165.242-350.778l3.131,2.637-.235-2.869Z" transform="translate(-1159.51 360.027)" fill="none" stroke="#fff" stroke-linecap="round" stroke-linejoin="round" stroke-width="0.2"/>
          <path id="Path_153" data-name="Path 153" d="M1157.071-347.543l4.207.932-3.131-2.637Z" transform="translate(-1152.414 358.497)" fill="none" stroke="#fff" stroke-linecap="round" stroke-linejoin="round" stroke-width="0.2"/>
          <path id="Path_154" data-name="Path 154" d="M1189.75-350.078l-2.261,1.937-.235-2.869Z" transform="translate(-1178.626 360.027)" fill="none" stroke="#fff" stroke-linecap="round" stroke-linejoin="round" stroke-width="0.2"/>
          <path id="Path_155" data-name="Path 155" d="M1129.013-327.362l.967-1.557,1.094,1.681Z" transform="translate(-1128.049 340.843)" fill="none" stroke="#fff" stroke-linecap="round" stroke-linejoin="round" stroke-width="0.2"/>
          <path id="Path_156" data-name="Path 156" d="M1189.039-341.992l4.242,1.831-1.98-3.768Z" transform="translate(-1180.176 353.878)" fill="none" stroke="#fff" stroke-linecap="round" stroke-linejoin="round" stroke-width="0.2"/>
          <path id="Path_157" data-name="Path 157" d="M1129.013-317.089l1.115,2.275.945-2.15Z" transform="translate(-1128.049 330.57)" fill="none" stroke="#fff" stroke-linecap="round" stroke-linejoin="round" stroke-width="0.2"/>
          <path id="Path_158" data-name="Path 158" d="M1144.4-285.417l1.089-1.307-1.81-.937Z" transform="translate(-1140.782 305.013)" fill="none" stroke="#fff" stroke-linecap="round" stroke-linejoin="round" stroke-width="0.2"/>
          <path id="Path_159" data-name="Path 159" d="M1178.08-310.526l2.235-1.455,2.677,2.8Z" transform="translate(-1170.659 326.133)" fill="none" stroke="#fff" stroke-linecap="round" stroke-linejoin="round" stroke-width="0.2"/>
          <path id="Path_160" data-name="Path 160" d="M1179.891-298l-1.812-2.923,4.912,1.341Z" transform="translate(-1170.659 316.533)" fill="none" stroke="#fff" stroke-linecap="round" stroke-linejoin="round" stroke-width="0.2"/>
          <path id="Path_161" data-name="Path 161" d="M1152-278.332l-2.849-.9,1.089-1.307Z" transform="translate(-1145.539 298.832)" fill="none" stroke="#fff" stroke-linecap="round" stroke-linejoin="round" stroke-width="0.2"/>
          <path id="Path_162" data-name="Path 162" d="M1173.888-275.358l-.318-3.356-2.77,1.97Z" transform="translate(-1164.338 297.245)" fill="none" stroke="#fff" stroke-linecap="round" stroke-linejoin="round" stroke-width="0.2"/>
          <path id="Path_163" data-name="Path 163" d="M1198.554-267.018l-.713,3.509-3.578-1.692Z" transform="translate(-1184.713 287.087)" fill="none" stroke="#fff" stroke-linecap="round" stroke-linejoin="round" stroke-width="0.2"/>
          <path id="Path_164" data-name="Path 164" d="M1224.965-263.77l-2.8-3.248-.713,3.509Z" transform="translate(-1208.324 287.087)" fill="none" stroke="#fff" stroke-linecap="round" stroke-linejoin="round" stroke-width="0.2"/>
          <path id="Path_165" data-name="Path 165" d="M1229.95-265.426l-.283,1.656-2.8-3.248Z" transform="translate(-1213.027 287.087)" fill="none" stroke="#fff" stroke-linecap="round" stroke-linejoin="round" stroke-width="0.2"/>
          <path id="Path_166" data-name="Path 166" d="M1221.894-240.486l-.441-1.588,3.512-.261Z" transform="translate(-1208.324 265.652)" fill="none" stroke="#fff" stroke-linecap="round" stroke-linejoin="round" stroke-width="0.2"/>
          <path id="Path_167" data-name="Path 167" d="M1173.888-262.357l-2.2,1.868-.886-3.255Z" transform="translate(-1164.338 284.243)" fill="none" stroke="#fff" stroke-linecap="round" stroke-linejoin="round" stroke-width="0.2"/>
          <path id="Path_168" data-name="Path 168" d="M1149.153-270.613l.039,2.065,2.81-1.161Z" transform="translate(-1145.539 290.21)" fill="none" stroke="#fff" stroke-linecap="round" stroke-linejoin="round" stroke-width="0.2"/>
          <path id="Path_169" data-name="Path 169" d="M1145.667-253.1l1.955-.726-1.457-1.1Z" transform="translate(-1142.511 276.581)" fill="none" stroke="#fff" stroke-linecap="round" stroke-linejoin="round" stroke-width="0.2"/>
          <path id="Path_170" data-name="Path 170" d="M1152.257-263.743l-1.353,2.26-1.457-1.1Z" transform="translate(-1145.793 284.243)" fill="none" stroke="#fff" stroke-linecap="round" stroke-linejoin="round" stroke-width="0.2"/>
          <path id="Path_171" data-name="Path 171" d="M1146.574-244.44l-.907-1.406,1.955-.726Z" transform="translate(-1142.511 269.331)" fill="none" stroke="#fff" stroke-linecap="round" stroke-linejoin="round" stroke-width="0.2"/>
          <path id="Path_172" data-name="Path 172" d="M1139.535-238.709l1.714-.941-.907-1.406Z" transform="translate(-1137.186 264.541)" fill="none" stroke="#fff" stroke-linecap="round" stroke-linejoin="round" stroke-width="0.2"/>
          <path id="Path_173" data-name="Path 173" d="M1153.61-246.571l2.239,1-3.286,1.137Z" transform="translate(-1148.5 269.331)" fill="none" stroke="#fff" stroke-linecap="round" stroke-linejoin="round" stroke-width="0.2"/>
          <path id="Path_174" data-name="Path 174" d="M1180.915-250.479l-1.18-2.731-2.2,1.869Z" transform="translate(-1170.184 275.096)" fill="none" stroke="#fff" stroke-linecap="round" stroke-linejoin="round" stroke-width="0.2"/>
          <path id="Path_175" data-name="Path 175" d="M1205.629-240.348l-2.4,1.038,2.839.55Z" transform="translate(-1192.5 263.927)" fill="none" stroke="#fff" stroke-linecap="round" stroke-linejoin="round" stroke-width="0.2"/>
          <path id="Path_176" data-name="Path 176" d="M1157.429-298.244l2.717-.346v-2.336Z" transform="translate(-1152.725 316.533)" fill="none" stroke="#fff" stroke-linecap="round" stroke-linejoin="round" stroke-width="0.2"/>
          <path id="Path_177" data-name="Path 177" d="M1173.571-282.588l-1.812-.587-.958,2.557Z" transform="translate(-1164.338 301.118)" fill="none" stroke="#fff" stroke-linecap="round" stroke-linejoin="round" stroke-width="0.2"/>
          <path id="Path_178" data-name="Path 178" d="M1138.434-316.141l1.259,2.15h-2.2Z" transform="translate(-1135.409 329.746)" fill="none" stroke="#fff" stroke-linecap="round" stroke-linejoin="round" stroke-width="0.2"/>
          <path id="Path_179" data-name="Path 179" d="M1139.693-299.8l-1.39,1.6-.814-1.6Z" transform="translate(-1135.409 315.555)" fill="none" stroke="#fff" stroke-linecap="round" stroke-linejoin="round" stroke-width="0.2"/>
          <path id="Path_180" data-name="Path 180" d="M1154.242-300.778l.419,2.534,2.717-2.682Z" transform="translate(-1149.958 316.533)" fill="none" stroke="#fff" stroke-linecap="round" stroke-linejoin="round" stroke-width="0.2"/>
          <path id="Path_181" data-name="Path 181" d="M1141.25-230.371l.148,3.173-1.862-2.233Z" transform="translate(-1137.186 255.263)" fill="none" stroke="#fff" stroke-linecap="round" stroke-linejoin="round" stroke-width="0.2"/>
          <path id="Path_182" data-name="Path 182" d="M1154.764-229.645l-2.2-.726.148,3.173Z" transform="translate(-1148.5 255.263)" fill="none" stroke="#fff" stroke-linecap="round" stroke-linejoin="round" stroke-width="0.2"/>
          <path id="Path_183" data-name="Path 183" d="M1154.764-237.146l1.084-1.863-3.286,1.137Z" transform="translate(-1148.5 262.764)" fill="none" stroke="#fff" stroke-linecap="round" stroke-linejoin="round" stroke-width="0.2"/>
          <path id="Path_184" data-name="Path 184" d="M1153.684-222.4l2.633-.723-.579-1.724Z" transform="translate(-1149.474 250.469)" fill="none" stroke="#fff" stroke-linecap="round" stroke-linejoin="round" stroke-width="0.2"/>
          <path id="Path_185" data-name="Path 185" d="M1171.516-224.286l-2.224-.565.579,1.724Z" transform="translate(-1163.027 250.469)" fill="none" stroke="#fff" stroke-linecap="round" stroke-linejoin="round" stroke-width="0.2"/>
          <path id="Path_186" data-name="Path 186" d="M1175.4-218.673l-1.705-.723,1.645-1.159Z" transform="translate(-1166.85 246.738)" fill="none" stroke="#fff" stroke-linecap="round" stroke-linejoin="round" stroke-width="0.2"/>
          <path id="Path_187" data-name="Path 187" d="M1170.377-239.009l1.14,2.428-2.224-.565Z" transform="translate(-1163.027 262.764)" fill="none" stroke="#fff" stroke-linecap="round" stroke-linejoin="round" stroke-width="0.2"/>
          <path id="Path_188" data-name="Path 188" d="M1206.07-231.909l-.571,1.712-2.268-2.262Z" transform="translate(-1192.5 257.076)" fill="none" stroke="#fff" stroke-linecap="round" stroke-linejoin="round" stroke-width="0.2"/>
          <path id="Path_189" data-name="Path 189" d="M1180.273-237.522l-2.739-1.488,3.381.862Z" transform="translate(-1170.184 262.764)" fill="none" stroke="#fff" stroke-linecap="round" stroke-linejoin="round" stroke-width="0.2"/>
          <path id="Path_190" data-name="Path 190" d="M1178.673-236.581l1.6-.941-2.739-1.488Z" transform="translate(-1170.184 262.764)" fill="none" stroke="#fff" stroke-linecap="round" stroke-linejoin="round" stroke-width="0.2"/>
          <path id="Path_191" data-name="Path 191" d="M1186.254-218.673l1.427-.723-1.488-1.159Z" transform="translate(-1177.705 246.738)" fill="none" stroke="#fff" stroke-linecap="round" stroke-linejoin="round" stroke-width="0.2"/>
          <path id="Path_192" data-name="Path 192" d="M1187.793-227.7l-.111,2.1-1.488-1.159Z" transform="translate(-1177.705 252.947)" fill="none" stroke="#fff" stroke-linecap="round" stroke-linejoin="round" stroke-width="0.2"/>
          <path id="Path_193" data-name="Path 193" d="M1201.259-230.2l-2.91-1.636.642-.626Z" transform="translate(-1188.26 257.076)" fill="none" stroke="#fff" stroke-linecap="round" stroke-linejoin="round" stroke-width="0.2"/>
          <path id="Path_194" data-name="Path 194" d="M1197.5-225.6l3.022-.463-2.91-1.636Z" transform="translate(-1187.526 252.947)" fill="none" stroke="#fff" stroke-linecap="round" stroke-linejoin="round" stroke-width="0.2"/>
          <path id="Path_195" data-name="Path 195" d="M1200.228-213.9l-2.725-.912,3.022-.463Z" transform="translate(-1187.526 242.15)" fill="none" stroke="#fff" stroke-linecap="round" stroke-linejoin="round" stroke-width="0.2"/>
          <path id="Path_196" data-name="Path 196" d="M1125.837-330.026l-1.595-.168.628,1.724Z" transform="translate(-1123.906 341.95)" fill="none" stroke="#fff" stroke-linecap="round" stroke-linejoin="round" stroke-width="0.2"/>
          <path id="Path_197" data-name="Path 197" d="M1139.087-347.543l-2.725.97.723-2.675Z" transform="translate(-1134.43 358.497)" fill="none" stroke="#fff" stroke-linecap="round" stroke-linejoin="round" stroke-width="0.2"/>
          <path id="Path_198" data-name="Path 198" d="M1146.3-336.289l.047,2.106-1.678.546Z" transform="translate(-1141.648 347.243)" fill="none" stroke="#fff" stroke-linecap="round" stroke-linejoin="round" stroke-width="0.2"/>
          <path id="Path_199" data-name="Path 199" d="M1145.932-317.591l.419-2.7-1.678.546Z" transform="translate(-1141.648 333.347)" fill="none" stroke="#fff" stroke-linecap="round" stroke-linejoin="round" stroke-width="0.2"/>
          <path id="Path_200" data-name="Path 200" d="M1157.379-317.739l-2.717-2.548-.419,2.7Z" transform="translate(-1149.958 333.347)" fill="none" stroke="#fff" stroke-linecap="round" stroke-linejoin="round" stroke-width="0.2"/>
          <path id="Path_201" data-name="Path 201" d="M1157.071-336.289l2.095,2.106h-2.048Z" transform="translate(-1152.414 347.243)" fill="none" stroke="#fff" stroke-linecap="round" stroke-linejoin="round" stroke-width="0.2"/>
          <path id="Path_202" data-name="Path 202" d="M1198.513-315.3l-.771,3.232-2.677-2.8Z" transform="translate(-1185.408 329.012)" fill="none" stroke="#fff" stroke-linecap="round" stroke-linejoin="round" stroke-width="0.2"/>
          <path id="Path_203" data-name="Path 203" d="M1172.99-328.035l2.9,1.093-.793-2.267Z" transform="translate(-1166.239 341.095)" fill="none" stroke="#fff" stroke-linecap="round" stroke-linejoin="round" stroke-width="0.2"/>
          <path id="Path_204" data-name="Path 204" d="M1172.99-320.287l.67,2.548,2.235-1.455Z" transform="translate(-1166.239 333.347)" fill="none" stroke="#fff" stroke-linecap="round" stroke-linejoin="round" stroke-width="0.2"/>
          <path id="Path_205" data-name="Path 205" d="M1243.028-337.164l1.9-1.39-1.231-1.556Z" transform="translate(-1227.061 350.561)" fill="none" stroke="#fff" stroke-linecap="round" stroke-linejoin="round" stroke-width="0.2"/>
          <path id="Path_206" data-name="Path 206" d="M1227.7-352.91l1.38,1.684-2.888.253Z" transform="translate(-1212.443 361.677)" fill="none" stroke="#fff" stroke-linecap="round" stroke-linejoin="round" stroke-width="0.2"/>
          <path id="Path_207" data-name="Path 207" d="M1218.895-299.879l-1.28,1.906-2.2-.7Z" transform="translate(-1203.078 315.624)" fill="none" stroke="#fff" stroke-linecap="round" stroke-linejoin="round" stroke-width="0.2"/>
          <path id="Path_208" data-name="Path 208" d="M1234.532-283.636l.743-1.466-3.125-.292Z" transform="translate(-1217.614 303.045)" fill="none" stroke="#fff" stroke-linecap="round" stroke-linejoin="round" stroke-width="0.2"/>
          <path id="Path_209" data-name="Path 209" d="M1226.868-282.976l.7-2.418,2.382,1.758Z" transform="translate(-1213.027 303.045)" fill="none" stroke="#fff" stroke-linecap="round" stroke-linejoin="round" stroke-width="0.2"/>
          <path id="Path_210" data-name="Path 210" d="M1194.949-290.734l-.953,2.273-2.147-.692Z" transform="translate(-1182.615 307.683)" fill="none" stroke="#fff" stroke-linecap="round" stroke-linejoin="round" stroke-width="0.2"/>
          <path id="Path_211" data-name="Path 211" d="M1210.629-282.976l-2.461-.848,3.156-1.57Z" transform="translate(-1196.788 303.045)" fill="none" stroke="#fff" stroke-linecap="round" stroke-linejoin="round" stroke-width="0.2"/>
          <path id="Path_212" data-name="Path 212" d="M1194.263-270.794l1.83-2.665,2.461.848-4.291,1.817" transform="translate(-1184.713 292.681)" fill="none" stroke="#fff" stroke-linecap="round" stroke-linejoin="round" stroke-width="0.2"/>
        </g>
      </g>
      <g id="Group_54" data-name="Group 54" transform="translate(97 135)">
        <path id="Path_213" data-name="Path 213" d="M923.05,65.53a.168.168,0,1,0-.168.168A.168.168,0,0,0,923.05,65.53Z" transform="translate(-906.114 -64.072)" stroke="#fff" stroke-width="0.2" fill="url(#radial-gradient)" style="mix-blend-mode: screen;isolation: isolate"/>
        <path id="Path_214" data-name="Path 214" d="M947.337,84.637a.168.168,0,1,0-.168.168A.168.168,0,0,0,947.337,84.637Z" transform="translate(-927.205 -80.665)" stroke="#fff" stroke-width="0.2" fill="url(#radial-gradient)" style="mix-blend-mode: screen;isolation: isolate"/>
        <path id="Path_215" data-name="Path 215" d="M933.285,90.765a.168.168,0,1,0-.168.168A.168.168,0,0,0,933.285,90.765Z" transform="translate(-915.001 -85.987)" stroke="#fff" stroke-width="0.2" fill="url(#radial-gradient)" style="mix-blend-mode: screen;isolation: isolate"/>
        <path id="Path_216" data-name="Path 216" d="M960.987,116.13a.168.168,0,1,0-.168.168A.168.168,0,0,0,960.987,116.13Z" transform="translate(-939.059 -108.014)" stroke="#fff" stroke-width="0.2" fill="url(#radial-gradient)" style="mix-blend-mode: screen;isolation: isolate"/>
        <path id="Path_217" data-name="Path 217" d="M939.213,110.9a.168.168,0,1,0-.168.168A.168.168,0,0,0,939.213,110.9Z" transform="translate(-920.149 -103.468)" stroke="#fff" stroke-width="0.2" fill="url(#radial-gradient)" style="mix-blend-mode: screen;isolation: isolate"/>
        <path id="Path_218" data-name="Path 218" d="M952.568,129.074a.168.168,0,1,0-.168.168A.168.168,0,0,0,952.568,129.074Z" transform="translate(-931.747 -119.255)" stroke="#fff" stroke-width="0.2" fill="url(#radial-gradient)" style="mix-blend-mode: screen;isolation: isolate"/>
        <path id="Path_219" data-name="Path 219" d="M952.49,144.9a.168.168,0,1,0-.168.168A.168.168,0,0,0,952.49,144.9Z" transform="translate(-931.68 -132.994)" stroke="#fff" stroke-width="0.2" fill="url(#radial-gradient)" style="mix-blend-mode: screen;isolation: isolate"/>
        <path id="Path_220" data-name="Path 220" d="M945.878,154.977a.168.168,0,1,0-.168.168A.168.168,0,0,0,945.878,154.977Z" transform="translate(-925.937 -141.749)" stroke="#fff" stroke-width="0.2" fill="url(#radial-gradient)" style="mix-blend-mode: screen;isolation: isolate"/>
        <path id="Path_221" data-name="Path 221" d="M956.666,169.538a.168.168,0,1,0-.168.168A.168.168,0,0,0,956.666,169.538Z" transform="translate(-935.306 -154.394)" stroke="#fff" stroke-width="0.2" fill="url(#radial-gradient)" style="mix-blend-mode: screen;isolation: isolate"/>
        <path id="Path_222" data-name="Path 222" d="M949.975,183.791a.168.168,0,1,0-.168.168A.168.168,0,0,0,949.975,183.791Z" transform="translate(-929.495 -166.772)" stroke="#fff" stroke-width="0.2" fill="url(#radial-gradient)" style="mix-blend-mode: screen;isolation: isolate"/>
        <circle id="Ellipse_22" data-name="Ellipse 22" cx="0.168" cy="0.168" r="0.168" transform="translate(17.661 17.943)" stroke="#fff" stroke-width="0.2" fill="url(#radial-gradient)" style="mix-blend-mode: screen;isolation: isolate"/>
        <path id="Path_223" data-name="Path 223" d="M916.964,175.376a.168.168,0,1,0-.159.178A.168.168,0,0,0,916.964,175.376Z" transform="translate(-900.828 -159.472)" stroke="#fff" stroke-width="0.2" fill="url(#radial-gradient)" style="mix-blend-mode: screen;isolation: isolate"/>
        <path id="Path_224" data-name="Path 224" d="M907.365,189.861a.168.168,0,1,0-.159.178A.168.168,0,0,0,907.365,189.861Z" transform="translate(-892.492 -172.051)" stroke="#fff" stroke-width="0.2" fill="url(#radial-gradient)" style="mix-blend-mode: screen;isolation: isolate"/>
        <path id="Path_225" data-name="Path 225" d="M955.387,200.771a.168.168,0,1,0-.158.178A.168.168,0,0,0,955.387,200.771Z" transform="translate(-934.195 -181.525)" stroke="#fff" stroke-width="0.2" fill="url(#radial-gradient)" style="mix-blend-mode: screen;isolation: isolate"/>
        <path id="Path_226" data-name="Path 226" d="M944.6,166.98a.168.168,0,1,0-.168.168A.168.168,0,0,0,944.6,166.98Z" transform="translate(-924.826 -152.173)" stroke="#fff" stroke-width="0.2" fill="url(#radial-gradient)" style="mix-blend-mode: screen;isolation: isolate"/>
        <path id="Path_227" data-name="Path 227" d="M918.243,157.535a.168.168,0,1,0-.168.168A.168.168,0,0,0,918.243,157.535Z" transform="translate(-901.939 -143.971)" stroke="#fff" stroke-width="0.2" fill="url(#radial-gradient)" style="mix-blend-mode: screen;isolation: isolate"/>
        <path id="Path_228" data-name="Path 228" d="M963.073,136.205a.168.168,0,1,0-.168.168A.168.168,0,0,0,963.073,136.205Z" transform="translate(-940.87 -125.447)" stroke="#fff" stroke-width="0.2" fill="url(#radial-gradient)" style="mix-blend-mode: screen;isolation: isolate"/>
        <path id="Path_229" data-name="Path 229" d="M960.515,147.334a.168.168,0,1,0-.168.168A.168.168,0,0,0,960.515,147.334Z" transform="translate(-938.649 -135.112)" stroke="#fff" stroke-width="0.2" fill="url(#radial-gradient)" style="mix-blend-mode: screen;isolation: isolate"/>
        <path id="Path_230" data-name="Path 230" d="M964.352,156.9a.168.168,0,1,0-.168.168A.168.168,0,0,0,964.352,156.9Z" transform="translate(-941.981 -143.416)" stroke="#fff" stroke-width="0.2" fill="url(#radial-gradient)" style="mix-blend-mode: screen;isolation: isolate"/>
        <path id="Path_231" data-name="Path 231" d="M970.34,165.7a.168.168,0,1,0-.168.168A.168.168,0,0,0,970.34,165.7Z" transform="translate(-947.181 -151.062)" stroke="#fff" stroke-width="0.2" fill="url(#radial-gradient)" style="mix-blend-mode: screen;isolation: isolate"/>
        <path id="Path_232" data-name="Path 232" d="M974.934,174.259a.168.168,0,1,0-.168.168A.168.168,0,0,0,974.934,174.259Z" transform="translate(-951.17 -158.494)" stroke="#fff" stroke-width="0.2" fill="url(#radial-gradient)" style="mix-blend-mode: screen;isolation: isolate"/>
        <path id="Path_233" data-name="Path 233" d="M976.331,181.233a.168.168,0,1,0-.168.168A.168.168,0,0,0,976.331,181.233Z" transform="translate(-952.383 -164.55)" stroke="#fff" stroke-width="0.2" fill="url(#radial-gradient)" style="mix-blend-mode: screen;isolation: isolate"/>
        <path id="Path_234" data-name="Path 234" d="M972.034,186.128a.168.168,0,1,0-.168.168A.168.168,0,0,0,972.034,186.128Z" transform="translate(-948.652 -168.801)" stroke="#fff" stroke-width="0.2" fill="url(#radial-gradient)" style="mix-blend-mode: screen;isolation: isolate"/>
        <path id="Path_235" data-name="Path 235" d="M961.794,190.742a.168.168,0,1,0-.168.168A.168.168,0,0,0,961.794,190.742Z" transform="translate(-939.759 -172.808)" stroke="#fff" stroke-width="0.2" fill="url(#radial-gradient)" style="mix-blend-mode: screen;isolation: isolate"/>
        <path id="Path_236" data-name="Path 236" d="M960.316,194.722a.168.168,0,1,0-.168.168A.168.168,0,0,0,960.316,194.722Z" transform="translate(-938.475 -176.264)" stroke="#fff" stroke-width="0.2" fill="url(#radial-gradient)" style="mix-blend-mode: screen;isolation: isolate"/>
        <path id="Path_237" data-name="Path 237" d="M962.534,200.78a.168.168,0,1,0-.168.168A.168.168,0,0,0,962.534,200.78Z" transform="translate(-940.402 -181.525)" stroke="#fff" stroke-width="0.2" fill="url(#radial-gradient)" style="mix-blend-mode: screen;isolation: isolate"/>
        <path id="Path_238" data-name="Path 238" d="M961.935,204.619a.168.168,0,1,0-.168.168A.168.168,0,0,0,961.935,204.619Z" transform="translate(-939.882 -184.859)" stroke="#fff" stroke-width="0.2" fill="url(#radial-gradient)" style="mix-blend-mode: screen;isolation: isolate"/>
        <path id="Path_239" data-name="Path 239" d="M958.167,206.732a.168.168,0,1,0-.168.168A.168.168,0,0,0,958.167,206.732Z" transform="translate(-936.61 -186.694)" stroke="#fff" stroke-width="0.2" fill="url(#radial-gradient)" style="mix-blend-mode: screen;isolation: isolate"/>
        <path id="Path_240" data-name="Path 240" d="M954.574,206.591a.168.168,0,1,0-.168.168A.168.168,0,0,0,954.574,206.591Z" transform="translate(-933.49 -186.571)" stroke="#fff" stroke-width="0.2" fill="url(#radial-gradient)" style="mix-blend-mode: screen;isolation: isolate"/>
        <path id="Path_241" data-name="Path 241" d="M949.749,208.246a.168.168,0,1,0-.168.168A.168.168,0,0,0,949.749,208.246Z" transform="translate(-929.299 -188.009)" stroke="#fff" stroke-width="0.2" fill="url(#radial-gradient)" style="mix-blend-mode: screen;isolation: isolate"/>
        <path id="Path_242" data-name="Path 242" d="M950,218.671a.168.168,0,1,0-.168.168A.168.168,0,0,0,950,218.671Z" transform="translate(-929.514 -197.062)" stroke="#fff" stroke-width="0.2" fill="url(#radial-gradient)" style="mix-blend-mode: screen;isolation: isolate"/>
        <path id="Path_243" data-name="Path 243" d="M950,226.279a.168.168,0,1,0-.168.168A.168.168,0,0,0,950,226.279Z" transform="translate(-929.514 -203.669)" stroke="#fff" stroke-width="0.2" fill="url(#radial-gradient)" style="mix-blend-mode: screen;isolation: isolate"/>
        <path id="Path_244" data-name="Path 244" d="M942.731,227.018a.168.168,0,1,0-.168.168A.168.168,0,0,0,942.731,227.018Z" transform="translate(-923.204 -204.31)" stroke="#fff" stroke-width="0.2" fill="url(#radial-gradient)" style="mix-blend-mode: screen;isolation: isolate"/>
        <path id="Path_245" data-name="Path 245" d="M941.451,237.11a.168.168,0,1,0-.168.168A.168.168,0,0,0,941.451,237.11Z" transform="translate(-922.093 -213.074)" stroke="#fff" stroke-width="0.2" fill="url(#radial-gradient)" style="mix-blend-mode: screen;isolation: isolate"/>
        <path id="Path_246" data-name="Path 246" d="M949.364,234.209a.168.168,0,1,0-.169.168A.168.168,0,0,0,949.364,234.209Z" transform="translate(-928.965 -210.555)" stroke="#fff" stroke-width="0.2" fill="url(#radial-gradient)" style="mix-blend-mode: screen;isolation: isolate"/>
        <path id="Path_247" data-name="Path 247" d="M925.508,220.345a.168.168,0,1,0-.168.168A.168.168,0,0,0,925.508,220.345Z" transform="translate(-908.248 -198.516)" stroke="#fff" stroke-width="0.2" fill="url(#radial-gradient)" style="mix-blend-mode: screen;isolation: isolate"/>
        <path id="Path_248" data-name="Path 248" d="M935.626,231.65a.168.168,0,1,0-.168.168A.168.168,0,0,0,935.626,231.65Z" transform="translate(-917.035 -208.333)" stroke="#fff" stroke-width="0.2" fill="url(#radial-gradient)" style="mix-blend-mode: screen;isolation: isolate"/>
        <path id="Path_249" data-name="Path 249" d="M923.36,232.93a.168.168,0,1,0-.168.168A.168.168,0,0,0,923.36,232.93Z" transform="translate(-906.382 -209.444)" stroke="#fff" stroke-width="0.2" fill="url(#radial-gradient)" style="mix-blend-mode: screen;isolation: isolate"/>
        <path id="Path_250" data-name="Path 250" d="M896.668,234.6a.168.168,0,1,0-.168.168A.168.168,0,0,0,896.668,234.6Z" transform="translate(-883.203 -210.892)" stroke="#fff" stroke-width="0.2" fill="url(#radial-gradient)" style="mix-blend-mode: screen;isolation: isolate"/>
        <path id="Path_251" data-name="Path 251" d="M960.174,211.522a.168.168,0,1,0-.168.168A.168.168,0,0,0,960.174,211.522Z" transform="translate(-938.353 -190.854)" stroke="#fff" stroke-width="0.2" fill="url(#radial-gradient)" style="mix-blend-mode: screen;isolation: isolate"/>
        <path id="Path_252" data-name="Path 252" d="M957.958,216.436a.168.168,0,1,0-.168.168A.168.168,0,0,0,957.958,216.436Z" transform="translate(-936.428 -195.121)" stroke="#fff" stroke-width="0.2" fill="url(#radial-gradient)" style="mix-blend-mode: screen;isolation: isolate"/>
        <path id="Path_253" data-name="Path 253" d="M940.172,215.414a.168.168,0,1,0-.168.168A.168.168,0,0,0,940.172,215.414Z" transform="translate(-920.983 -194.233)" stroke="#fff" stroke-width="0.2" fill="url(#radial-gradient)" style="mix-blend-mode: screen;isolation: isolate"/>
        <path id="Path_254" data-name="Path 254" d="M954.574,220.345a.168.168,0,1,0-.168.168A.168.168,0,0,0,954.574,220.345Z" transform="translate(-933.49 -198.516)" stroke="#fff" stroke-width="0.2" fill="url(#radial-gradient)" style="mix-blend-mode: screen;isolation: isolate"/>
        <path id="Path_255" data-name="Path 255" d="M956.887,233.658a.168.168,0,1,0-.168.168A.168.168,0,0,0,956.887,233.658Z" transform="translate(-935.498 -210.077)" stroke="#fff" stroke-width="0.2" fill="url(#radial-gradient)" style="mix-blend-mode: screen;isolation: isolate"/>
        <path id="Path_256" data-name="Path 256" d="M955.374,241.3a.168.168,0,1,0-.168.168A.168.168,0,0,0,955.374,241.3Z" transform="translate(-934.184 -216.714)" stroke="#fff" stroke-width="0.2" fill="url(#radial-gradient)" style="mix-blend-mode: screen;isolation: isolate"/>
        <path id="Path_257" data-name="Path 257" d="M948.717,245.7a.168.168,0,1,0-.168.168A.168.168,0,0,0,948.717,245.7Z" transform="translate(-928.403 -220.537)" stroke="#fff" stroke-width="0.2" fill="url(#radial-gradient)" style="mix-blend-mode: screen;isolation: isolate"/>
        <path id="Path_258" data-name="Path 258" d="M934.347,244.893a.168.168,0,1,0-.168.168A.168.168,0,0,0,934.347,244.893Z" transform="translate(-915.924 -219.833)" stroke="#fff" stroke-width="0.2" fill="url(#radial-gradient)" style="mix-blend-mode: screen;isolation: isolate"/>
        <path id="Path_259" data-name="Path 259" d="M920.8,243.273a.168.168,0,1,0-.168.168A.168.168,0,0,0,920.8,243.273Z" transform="translate(-904.161 -218.426)" stroke="#fff" stroke-width="0.2" fill="url(#radial-gradient)" style="mix-blend-mode: screen;isolation: isolate"/>
        <path id="Path_260" data-name="Path 260" d="M900.021,246.982a.168.168,0,1,0-.168.168A.168.168,0,0,0,900.021,246.982Z" transform="translate(-886.115 -221.647)" stroke="#fff" stroke-width="0.2" fill="url(#radial-gradient)" style="mix-blend-mode: screen;isolation: isolate"/>
        <path id="Path_261" data-name="Path 261" d="M894.464,262.81a.168.168,0,1,0-.168.168A.168.168,0,0,0,894.464,262.81Z" transform="translate(-881.288 -235.393)" stroke="#fff" stroke-width="0.2" fill="url(#radial-gradient)" style="mix-blend-mode: screen;isolation: isolate"/>
        <path id="Path_262" data-name="Path 262" d="M893.185,270.487a.168.168,0,1,0-.168.168A.168.168,0,0,0,893.185,270.487Z" transform="translate(-880.178 -242.06)" stroke="#fff" stroke-width="0.2" fill="url(#radial-gradient)" style="mix-blend-mode: screen;isolation: isolate"/>
        <path id="Path_263" data-name="Path 263" d="M872.718,263.843a.168.168,0,1,0-.168.168A.168.168,0,0,0,872.718,263.843Z" transform="translate(-862.404 -236.29)" stroke="#fff" stroke-width="0.2" fill="url(#radial-gradient)" style="mix-blend-mode: screen;isolation: isolate"/>
        <path id="Path_264" data-name="Path 264" d="M873.563,247.56a.168.168,0,1,0-.168.168A.168.168,0,0,0,873.563,247.56Z" transform="translate(-863.139 -222.149)" stroke="#fff" stroke-width="0.2" fill="url(#radial-gradient)" style="mix-blend-mode: screen;isolation: isolate"/>
        <path id="Path_265" data-name="Path 265" d="M861.408,254.71a.168.168,0,1,0-.168.168A.168.168,0,0,0,861.408,254.71Z" transform="translate(-852.583 -228.359)" stroke="#fff" stroke-width="0.2" fill="url(#radial-gradient)" style="mix-blend-mode: screen;isolation: isolate"/>
        <path id="Path_266" data-name="Path 266" d="M878.445,242.806a.168.168,0,1,0-.168.168A.168.168,0,0,0,878.445,242.806Z" transform="translate(-867.378 -218.021)" stroke="#fff" stroke-width="0.2" fill="url(#radial-gradient)" style="mix-blend-mode: screen;isolation: isolate"/>
        <path id="Path_267" data-name="Path 267" d="M852.748,236.255a.168.168,0,1,0-.168.168A.168.168,0,0,0,852.748,236.255Z" transform="translate(-845.063 -212.332)" stroke="#fff" stroke-width="0.2" fill="url(#radial-gradient)" style="mix-blend-mode: screen;isolation: isolate"/>
        <path id="Path_268" data-name="Path 268" d="M912.869,122.681a.168.168,0,1,0-.168.168A.168.168,0,0,0,912.869,122.681Z" transform="translate(-897.272 -113.703)" stroke="#fff" stroke-width="0.2" fill="url(#radial-gradient)" style="mix-blend-mode: screen;isolation: isolate"/>
        <path id="Path_269" data-name="Path 269" d="M911.537,78.148a.168.168,0,1,0-.168.168A.168.168,0,0,0,911.537,78.148Z" transform="translate(-896.115 -75.03)" stroke="#fff" stroke-width="0.2" fill="url(#radial-gradient)" style="mix-blend-mode: screen;isolation: isolate"/>
        <path id="Path_270" data-name="Path 270" d="M881.109,69.131a.168.168,0,1,0-.168.168A.168.168,0,0,0,881.109,69.131Z" transform="translate(-869.691 -67.2)" stroke="#fff" stroke-width="0.2" fill="url(#radial-gradient)" style="mix-blend-mode: screen;isolation: isolate"/>
        <path id="Path_271" data-name="Path 271" d="M871.953,55.73a.168.168,0,1,0-.168.168A.168.168,0,0,0,871.953,55.73Z" transform="translate(-861.74 -55.562)" stroke="#fff" stroke-width="0.2" fill="url(#radial-gradient)" style="mix-blend-mode: screen;isolation: isolate"/>
        <path id="Path_272" data-name="Path 272" d="M907.451,60.115a.168.168,0,1,0-.168.168A.168.168,0,0,0,907.451,60.115Z" transform="translate(-892.567 -59.37)" stroke="#fff" stroke-width="0.2" fill="url(#radial-gradient)" style="mix-blend-mode: screen;isolation: isolate"/>
        <path id="Path_273" data-name="Path 273" d="M863.854,146.033a.168.168,0,1,0-.168.168A.168.168,0,0,0,863.854,146.033Z" transform="translate(-854.706 -133.982)" stroke="#fff" stroke-width="0.2" fill="url(#radial-gradient)" style="mix-blend-mode: screen;isolation: isolate"/>
        <path id="Path_274" data-name="Path 274" d="M847.894,154.977a.168.168,0,1,0-.168.168A.168.168,0,0,0,847.894,154.977Z" transform="translate(-840.847 -141.749)" stroke="#fff" stroke-width="0.2" fill="url(#radial-gradient)" style="mix-blend-mode: screen;isolation: isolate"/>
        <path id="Path_275" data-name="Path 275" d="M853.294,174.338a.168.168,0,1,0-.168.168A.168.168,0,0,0,853.294,174.338Z" transform="translate(-845.537 -158.563)" stroke="#fff" stroke-width="0.2" fill="url(#radial-gradient)" style="mix-blend-mode: screen;isolation: isolate"/>
        <path id="Path_276" data-name="Path 276" d="M853.294,192.089a.168.168,0,1,0-.168.168A.168.168,0,0,0,853.294,192.089Z" transform="translate(-845.537 -173.978)" stroke="#fff" stroke-width="0.2" fill="url(#radial-gradient)" style="mix-blend-mode: screen;isolation: isolate"/>
        <path id="Path_277" data-name="Path 277" d="M890.627,184.53a.168.168,0,1,0-.168.168A.168.168,0,0,0,890.627,184.53Z" transform="translate(-877.956 -167.413)" stroke="#fff" stroke-width="0.2" fill="url(#radial-gradient)" style="mix-blend-mode: screen;isolation: isolate"/>
        <path id="Path_278" data-name="Path 278" d="M870.279,163.217a.168.168,0,1,0-.168.168A.168.168,0,0,0,870.279,163.217Z" transform="translate(-860.287 -148.905)" stroke="#fff" stroke-width="0.2" fill="url(#radial-gradient)" style="mix-blend-mode: screen;isolation: isolate"/>
        <path id="Path_279" data-name="Path 279" d="M902.082,208.246a.168.168,0,1,0-.168.168A.168.168,0,0,0,902.082,208.246Z" transform="translate(-887.905 -188.009)" stroke="#fff" stroke-width="0.2" fill="url(#radial-gradient)" style="mix-blend-mode: screen;isolation: isolate"/>
        <path id="Path_280" data-name="Path 280" d="M902.565,101.948a.168.168,0,1,0-.168.168A.168.168,0,0,0,902.565,101.948Z" transform="translate(-888.323 -95.698)" stroke="#fff" stroke-width="0.2" fill="url(#radial-gradient)" style="mix-blend-mode: screen;isolation: isolate"/>
        <path id="Path_281" data-name="Path 281" d="M851.807,72.771a.3.3,0,1,0-.3.3A.3.3,0,0,0,851.807,72.771Z" transform="translate(-844.024 -70.249)" stroke="#fff" stroke-width="0.2" fill="url(#radial-gradient)" style="mix-blend-mode: screen;isolation: isolate"/>
        <path id="Path_282" data-name="Path 282" d="M880.724,83.8a.3.3,0,1,0-.3.3A.3.3,0,0,0,880.724,83.8Z" transform="translate(-869.136 -79.825)" stroke="#fff" stroke-width="0.2" fill="url(#radial-gradient)" style="mix-blend-mode: screen;isolation: isolate"/>
        <path id="Path_283" data-name="Path 283" d="M914.1,99.021a.3.3,0,1,0-.3.3A.3.3,0,0,0,914.1,99.021Z" transform="translate(-898.121 -93.045)" stroke="#fff" stroke-width="0.2" fill="url(#radial-gradient)" style="mix-blend-mode: screen;isolation: isolate"/>
        <path id="Path_284" data-name="Path 284" d="M922.647,134.7a.3.3,0,1,0-.3.3A.3.3,0,0,0,922.647,134.7Z" transform="translate(-905.542 -124.033)" stroke="#fff" stroke-width="0.2" fill="url(#radial-gradient)" style="mix-blend-mode: screen;isolation: isolate"/>
        <path id="Path_285" data-name="Path 285" d="M888.635,114.119a.3.3,0,1,0-.3.3A.3.3,0,0,0,888.635,114.119Z" transform="translate(-876.006 -106.157)" stroke="#fff" stroke-width="0.2" fill="url(#radial-gradient)" style="mix-blend-mode: screen;isolation: isolate"/>
        <path id="Path_286" data-name="Path 286" d="M861.756,123.415a.3.3,0,1,0-.3.3A.3.3,0,0,0,861.756,123.415Z" transform="translate(-852.664 -114.229)" stroke="#fff" stroke-width="0.2" fill="url(#radial-gradient)" style="mix-blend-mode: screen;isolation: isolate"/>
        <path id="Path_287" data-name="Path 287" d="M841.294,99.544a.3.3,0,1,0-.3.3A.3.3,0,0,0,841.294,99.544Z" transform="translate(-834.894 -93.499)" stroke="#fff" stroke-width="0.2" fill="url(#radial-gradient)" style="mix-blend-mode: screen;isolation: isolate"/>
        <path id="Path_288" data-name="Path 288" d="M895.774,159.13a.3.3,0,1,0-.3.3A.3.3,0,0,0,895.774,159.13Z" transform="translate(-882.205 -145.245)" stroke="#fff" stroke-width="0.2" fill="url(#radial-gradient)" style="mix-blend-mode: screen;isolation: isolate"/>
        <path id="Path_289" data-name="Path 289" d="M837.991,81.64a.168.168,0,1,0-.168.168A.168.168,0,0,0,837.991,81.64Z" transform="translate(-832.248 -78.063)" stroke="#fff" stroke-width="0.2" fill="url(#radial-gradient)" style="mix-blend-mode: screen;isolation: isolate"/>
        <path id="Path_290" data-name="Path 290" d="M816.073,76.868a.168.168,0,1,0-.168.168A.168.168,0,0,0,816.073,76.868Z" transform="translate(-813.214 -73.918)" stroke="#fff" stroke-width="0.2" fill="url(#radial-gradient)" style="mix-blend-mode: screen;isolation: isolate"/>
        <path id="Path_291" data-name="Path 291" d="M805.194,91.382a.168.168,0,1,0-.168.168A.168.168,0,0,0,805.194,91.382Z" transform="translate(-803.765 -86.523)" stroke="#fff" stroke-width="0.2" fill="url(#radial-gradient)" style="mix-blend-mode: screen;isolation: isolate"/>
        <path id="Path_292" data-name="Path 292" d="M890.627,57.009a.168.168,0,1,0-.168.168A.168.168,0,0,0,890.627,57.009Z" transform="translate(-877.956 -56.673)" stroke="#fff" stroke-width="0.2" fill="url(#radial-gradient)" style="mix-blend-mode: screen;isolation: isolate"/>
        <path id="Path_293" data-name="Path 293" d="M855.542,58.288a.168.168,0,1,0-.168.168A.168.168,0,0,0,855.542,58.288Z" transform="translate(-847.488 -57.783)" stroke="#fff" stroke-width="0.2" fill="url(#radial-gradient)" style="mix-blend-mode: screen;isolation: isolate"/>
        <path id="Path_294" data-name="Path 294" d="M833.672,65.53a.168.168,0,1,0-.168.168A.168.168,0,0,0,833.672,65.53Z" transform="translate(-828.497 -64.072)" stroke="#fff" stroke-width="0.2" fill="url(#radial-gradient)" style="mix-blend-mode: screen;isolation: isolate"/>
        <path id="Path_295" data-name="Path 295" d="M881.8,98.581a.168.168,0,1,0-.168.168A.168.168,0,0,0,881.8,98.581Z" transform="translate(-870.295 -92.774)" stroke="#fff" stroke-width="0.2" fill="url(#radial-gradient)" style="mix-blend-mode: screen;isolation: isolate"/>
        <path id="Path_296" data-name="Path 296" d="M863.314,91.382a.168.168,0,1,0-.168.168A.168.168,0,0,0,863.314,91.382Z" transform="translate(-854.238 -86.523)" stroke="#fff" stroke-width="0.2" fill="url(#radial-gradient)" style="mix-blend-mode: screen;isolation: isolate"/>
        <path id="Path_297" data-name="Path 297" d="M841.375,114.465a.168.168,0,1,0-.168.168A.168.168,0,0,0,841.375,114.465Z" transform="translate(-835.186 -106.568)" stroke="#fff" stroke-width="0.2" fill="url(#radial-gradient)" style="mix-blend-mode: screen;isolation: isolate"/>
        <path id="Path_298" data-name="Path 298" d="M840.245,126.167a.168.168,0,1,0-.168.168A.168.168,0,0,0,840.245,126.167Z" transform="translate(-834.205 -116.73)" stroke="#fff" stroke-width="0.2" fill="url(#radial-gradient)" style="mix-blend-mode: screen;isolation: isolate"/>
        <path id="Path_299" data-name="Path 299" d="M799.458,144.754a.168.168,0,1,0-.168.168A.168.168,0,0,0,799.458,144.754Z" transform="translate(-798.784 -132.871)" stroke="#fff" stroke-width="0.2" fill="url(#radial-gradient)" style="mix-blend-mode: screen;isolation: isolate"/>
        <path id="Path_300" data-name="Path 300" d="M858.618,103.227a.168.168,0,1,0-.168.168A.168.168,0,0,0,858.618,103.227Z" transform="translate(-850.16 -96.809)" stroke="#fff" stroke-width="0.2" fill="url(#radial-gradient)" style="mix-blend-mode: screen;isolation: isolate"/>
        <path id="Path_301" data-name="Path 301" d="M817.071,126.016a.168.168,0,1,0-.168.168A.168.168,0,0,0,817.071,126.016Z" transform="translate(-814.079 -116.599)" stroke="#fff" stroke-width="0.2" fill="url(#radial-gradient)" style="mix-blend-mode: screen;isolation: isolate"/>
        <path id="Path_302" data-name="Path 302" d="M832.285,138.975a.168.168,0,1,0-.168.168A.168.168,0,0,0,832.285,138.975Z" transform="translate(-827.292 -127.853)" stroke="#fff" stroke-width="0.2" fill="url(#radial-gradient)" style="mix-blend-mode: screen;isolation: isolate"/>
        <path id="Path_303" data-name="Path 303" d="M811.424,146.033a.168.168,0,1,0-.168.168A.168.168,0,0,0,811.424,146.033Z" transform="translate(-809.176 -133.982)" stroke="#fff" stroke-width="0.2" fill="url(#radial-gradient)" style="mix-blend-mode: screen;isolation: isolate"/>
        <path id="Path_304" data-name="Path 304" d="M796.9,131.335a.168.168,0,1,0-.168.168A.168.168,0,0,0,796.9,131.335Z" transform="translate(-796.562 -121.218)" stroke="#fff" stroke-width="0.2" fill="url(#radial-gradient)" style="mix-blend-mode: screen;isolation: isolate"/>
        <path id="Path_305" data-name="Path 305" d="M804.229,158.175a.168.168,0,1,0-.168.168A.168.168,0,0,0,804.229,158.175Z" transform="translate(-802.927 -144.526)" stroke="#fff" stroke-width="0.2" fill="url(#radial-gradient)" style="mix-blend-mode: screen;isolation: isolate"/>
        <path id="Path_306" data-name="Path 306" d="M822.565,97.3a.168.168,0,1,0-.168.168A.168.168,0,0,0,822.565,97.3Z" transform="translate(-818.851 -91.665)" stroke="#fff" stroke-width="0.2" fill="url(#radial-gradient)" style="mix-blend-mode: screen;isolation: isolate"/>
        <path id="Path_307" data-name="Path 307" d="M813.982,111.66a.168.168,0,1,0-.168.168A.168.168,0,0,0,813.982,111.66Z" transform="translate(-811.398 -104.132)" stroke="#fff" stroke-width="0.2" fill="url(#radial-gradient)" style="mix-blend-mode: screen;isolation: isolate"/>
        <path id="Path_308" data-name="Path 308" d="M798.178,110.661a.168.168,0,1,0-.168.168A.168.168,0,0,0,798.178,110.661Z" transform="translate(-797.673 -103.265)" stroke="#fff" stroke-width="0.2" fill="url(#radial-gradient)" style="mix-blend-mode: screen;isolation: isolate"/>
        <path id="Path_309" data-name="Path 309" d="M820.171,159.124a.168.168,0,1,0-.168.168A.168.168,0,0,0,820.171,159.124Z" transform="translate(-816.772 -145.351)" stroke="#fff" stroke-width="0.2" fill="url(#radial-gradient)" style="mix-blend-mode: screen;isolation: isolate"/>
        <path id="Path_310" data-name="Path 310" d="M829.457,175.465a.168.168,0,1,0-.168.168A.168.168,0,0,0,829.457,175.465Z" transform="translate(-824.836 -159.541)" stroke="#fff" stroke-width="0.2" fill="url(#radial-gradient)" style="mix-blend-mode: screen;isolation: isolate"/>
        <path id="Path_311" data-name="Path 311" d="M832.643,154.977a.168.168,0,1,0-.168.168A.168.168,0,0,0,832.643,154.977Z" transform="translate(-827.603 -141.749)" stroke="#fff" stroke-width="0.2" fill="url(#radial-gradient)" style="mix-blend-mode: screen;isolation: isolate"/>
        <path id="Path_312" data-name="Path 312" d="M818.891,187.605a.168.168,0,1,0-.168.168A.168.168,0,0,0,818.891,187.605Z" transform="translate(-815.66 -170.084)" stroke="#fff" stroke-width="0.2" fill="url(#radial-gradient)" style="mix-blend-mode: screen;isolation: isolate"/>
        <path id="Path_313" data-name="Path 313" d="M867.064,196.434a.168.168,0,1,0-.168.168A.168.168,0,0,0,867.064,196.434Z" transform="translate(-857.494 -177.751)" stroke="#fff" stroke-width="0.2" fill="url(#radial-gradient)" style="mix-blend-mode: screen;isolation: isolate"/>
        <path id="Path_314" data-name="Path 314" d="M883.383,201.805a.168.168,0,1,0-.168.168A.168.168,0,0,0,883.383,201.805Z" transform="translate(-871.666 -182.415)" stroke="#fff" stroke-width="0.2" fill="url(#radial-gradient)" style="mix-blend-mode: screen;isolation: isolate"/>
        <path id="Path_315" data-name="Path 315" d="M832.285,194.722a.168.168,0,1,0-.168.168A.168.168,0,0,0,832.285,194.722Z" transform="translate(-827.292 -176.264)" stroke="#fff" stroke-width="0.2" fill="url(#radial-gradient)" style="mix-blend-mode: screen;isolation: isolate"/>
        <path id="Path_316" data-name="Path 316" d="M824.368,204.651a.168.168,0,1,0-.168.168A.168.168,0,0,0,824.368,204.651Z" transform="translate(-820.416 -184.887)" stroke="#fff" stroke-width="0.2" fill="url(#radial-gradient)" style="mix-blend-mode: screen;isolation: isolate"/>
        <path id="Path_317" data-name="Path 317" d="M846.016,211.522a.168.168,0,1,0-.168.168A.168.168,0,0,0,846.016,211.522Z" transform="translate(-839.216 -190.854)" stroke="#fff" stroke-width="0.2" fill="url(#radial-gradient)" style="mix-blend-mode: screen;isolation: isolate"/>
        <path id="Path_318" data-name="Path 318" d="M824.662,220.107a.168.168,0,1,0-.168.168A.168.168,0,0,0,824.662,220.107Z" transform="translate(-820.672 -198.309)" stroke="#fff" stroke-width="0.2" fill="url(#radial-gradient)" style="mix-blend-mode: screen;isolation: isolate"/>
        <path id="Path_319" data-name="Path 319" d="M820.882,234.6a.168.168,0,1,0-.168.168A.168.168,0,0,0,820.882,234.6Z" transform="translate(-817.389 -210.892)" stroke="#fff" stroke-width="0.2" fill="url(#radial-gradient)" style="mix-blend-mode: screen;isolation: isolate"/>
        <path id="Path_320" data-name="Path 320" d="M836.143,228.693a.168.168,0,1,0-.168.168A.168.168,0,0,0,836.143,228.693Z" transform="translate(-830.642 -205.765)" stroke="#fff" stroke-width="0.2" fill="url(#radial-gradient)" style="mix-blend-mode: screen;isolation: isolate"/>
        <path id="Path_321" data-name="Path 321" d="M827.777,244.893a.168.168,0,1,0-.168.168A.168.168,0,0,0,827.777,244.893Z" transform="translate(-823.378 -219.833)" stroke="#fff" stroke-width="0.2" fill="url(#radial-gradient)" style="mix-blend-mode: screen;isolation: isolate"/>
        <path id="Path_322" data-name="Path 322" d="M815.1,251.54a.168.168,0,1,0-.168.168A.168.168,0,0,0,815.1,251.54Z" transform="translate(-812.367 -225.606)" stroke="#fff" stroke-width="0.2" fill="url(#radial-gradient)" style="mix-blend-mode: screen;isolation: isolate"/>
        <path id="Path_323" data-name="Path 323" d="M828.9,269.207a.168.168,0,1,0-.168.168A.168.168,0,0,0,828.9,269.207Z" transform="translate(-824.351 -240.948)" stroke="#fff" stroke-width="0.2" fill="url(#radial-gradient)" style="mix-blend-mode: screen;isolation: isolate"/>
        <path id="Path_324" data-name="Path 324" d="M848.91,263.843a.168.168,0,1,0-.168.168A.168.168,0,0,0,848.91,263.843Z" transform="translate(-841.729 -236.29)" stroke="#fff" stroke-width="0.2" fill="url(#radial-gradient)" style="mix-blend-mode: screen;isolation: isolate"/>
        <path id="Path_325" data-name="Path 325" d="M844.248,250.12a.168.168,0,1,0-.168.168A.168.168,0,0,0,844.248,250.12Z" transform="translate(-837.681 -224.372)" stroke="#fff" stroke-width="0.2" fill="url(#radial-gradient)" style="mix-blend-mode: screen;isolation: isolate"/>
        <path id="Path_326" data-name="Path 326" d="M861.871,268.609a.168.168,0,1,0-.168.168A.168.168,0,0,0,861.871,268.609Z" transform="translate(-852.984 -240.429)" stroke="#fff" stroke-width="0.2" fill="url(#radial-gradient)" style="mix-blend-mode: screen;isolation: isolate"/>
        <path id="Path_327" data-name="Path 327" d="M812.7,175.465a.168.168,0,1,0-.168.168A.168.168,0,0,0,812.7,175.465Z" transform="translate(-810.287 -159.541)" stroke="#fff" stroke-width="0.2" fill="url(#radial-gradient)" style="mix-blend-mode: screen;isolation: isolate"/>
        <path id="Path_328" data-name="Path 328" d="M881.437,131.565a.168.168,0,1,0-.168.168A.168.168,0,0,0,881.437,131.565Z" transform="translate(-869.976 -121.418)" stroke="#fff" stroke-width="0.2" fill="url(#radial-gradient)" style="mix-blend-mode: screen;isolation: isolate"/>
        <path id="Path_329" data-name="Path 329" d="M901.41,137.073a.168.168,0,1,0-.168.168A.168.168,0,0,0,901.41,137.073Z" transform="translate(-887.321 -126.201)" stroke="#fff" stroke-width="0.2" fill="url(#radial-gradient)" style="mix-blend-mode: screen;isolation: isolate"/>
        <path id="Path_330" data-name="Path 330" d="M932.719,147.312a.168.168,0,1,0-.168.168A.168.168,0,0,0,932.719,147.312Z" transform="translate(-914.51 -135.093)" stroke="#fff" stroke-width="0.2" fill="url(#radial-gradient)" style="mix-blend-mode: screen;isolation: isolate"/>
        <path id="Path_331" data-name="Path 331" d="M869.478,222.055a.168.168,0,1,0-.168.168A.168.168,0,0,0,869.478,222.055Z" transform="translate(-859.59 -200.001)" stroke="#fff" stroke-width="0.2" fill="url(#radial-gradient)" style="mix-blend-mode: screen;isolation: isolate"/>
      </g>
    </g>
  </g>
</svg>
