<svg xmlns="http://www.w3.org/2000/svg" width="217" height="60.527" viewBox="0 0 217 60.527">
  <g id="Group_5404" data-name="Group 5404" transform="translate(-128 -42)">
    <path id="Path_11531" data-name="Path 11531" d="M-61.065-13.959h2.3V9.993h4.72V-13.959h5.959v-4.72h-5.959v-.944c0-5.723,2.419-7.787,5.959-7.787a5.71,5.71,0,0,1,4.661,2.065l3.658-3.068a10.684,10.684,0,0,0-8.318-3.717c-6.431,0-11.268,4.72-10.678,13.451h-2.3ZM-33.632,9.993h4.72V-18.679h-4.72Zm-.649-38.052a3.086,3.086,0,0,0,3.127,3.009,3.06,3.06,0,0,0,3.009-3.009,3.126,3.126,0,0,0-3.009-3.127A3.147,3.147,0,0,0-34.281-28.059Zm18.112,11.8v-2.419h-4.72V9.993h4.72V-5.523c0-5.31,2.419-7.787,5.959-7.787A5.71,5.71,0,0,1-5.55-11.246l3.658-3.068a10.684,10.684,0,0,0-8.318-3.717A10.732,10.732,0,0,0-16.169-16.26Zm32.86,41c8.2,0,14.926-6.43,14.336-14.749V-18.679h-4.72v3.717a14.255,14.255,0,0,0-9.616-3.717A14.351,14.351,0,0,0,2.355-4.343,14.351,14.351,0,0,0,16.691,9.993a14.255,14.255,0,0,0,9.616-3.717v4.13a9.616,9.616,0,1,1-19.233,0V9.462H2.414A14.314,14.314,0,0,0,16.691,24.742Zm0-38.7a9.618,9.618,0,0,1,9.616,9.616,9.618,9.618,0,0,1-9.616,9.616A9.618,9.618,0,0,1,7.075-4.343,9.618,9.618,0,0,1,16.691-13.959ZM38.283-3.222C38.46,5.45,44.478,9.757,50.5,9.757c7.61,0,12.212-6.018,12.212-13.274V-18.679h-4.72V-3.517c0,4.425-2.95,8.318-7.551,8.318C45.717,4.8,43,.907,43-3.517V-18.679h-4.72ZM58.106-18.679V9.993h4.72V-5.169c.118-5.251,3.894-7.905,7.61-7.905S77.81-10.42,77.81-5.169V9.993h4.72V-5.169c0-7.256-4.6-13.333-12.212-13.333a12.221,12.221,0,0,0-7.492,2.537v-2.714Z" transform="translate(262.47 76.13)" fill="#fff"/>
    <g id="Group_4661" data-name="Group 4661" transform="translate(128 42)">
      <path id="Path_11532" data-name="Path 11532" d="M1773.074,460.232c1.771-3.44,3.495-6.893,4.1-10.736,1.611-10.223-.056-19.676-7.54-27.628-6.16-6.545-14.267-8.848-23.218-8.952-7.367-.086-14.737-.014-22.105-.024-.767,0-1.534-.088-2.3-.134l-.764.019a2.8,2.8,0,0,0-.274,1.644c0,10.028-.039,20.056.015,30.084.04,7.6,7.975,12.779,15.5,10.19,1.66-.571,1.722-.769.376-1.874a10.723,10.723,0,0,1-4.082-8.657c-.023-6.253.022-12.507-.037-18.76-.013-1.333.3-1.908,1.868-1.865,4.515.125,9.047-.091,13.548.18,8.476.51,14.326,4.988,16.786,12.68a21.226,21.226,0,0,1-.381,14.451c-2.635,6.8-7.942,10.743-15.469,11.261-6.866.472-16.273.516-16.83.5-.371-.011-.444.078-.248.393.568.908,1.118,1.827,1.672,2.743.085.14.21.264.2.443l-4.126.014c-.086-.211.094-.34.184-.489q.809-1.352,1.639-2.693c.183-.3.149-.41-.241-.406-1.171.011-2.343.007-3.515,0a.509.509,0,0,0-.513.258c-.617,1.046-1.245,2.087-1.869,3.13l0,.173,4.155.046-2.074,3.485h4.279l-2.138,3.517a1.082,1.082,0,0,0,.241.065q3.845,0,7.69-.008a2.784,2.784,0,0,0,.341-.042c.215-.028.432-.041.649-.049,3.842.081,3.188.106,10.514-.136a32.5,32.5,0,0,0,17.374-5.834l.021-.021,2.261-1.859.388-.367,3.792-4.562" transform="translate(-1712.736 -412.758)" fill="#fff"/>
      <path id="Path_11533" data-name="Path 11533" d="M1866.674,553.468a.311.311,0,0,1,.194-.283" transform="translate(-1808.968 -505.795)" fill="#fff"/>
      <path id="Path_11534" data-name="Path 11534" d="M1739.345,581.2l.016.014.007-.014Z" transform="translate(-1722.219 -526.432)" fill="#fff"/>
      <path id="Path_11535" data-name="Path 11535" d="M1739.346,581.2l.011.02,0-.007Z" transform="translate(-1722.22 -526.433)" fill="#fff"/>
      <path id="Path_11536" data-name="Path 11536" d="M1733.153,586.913h6.56l-3.183-5.674Z" transform="translate(-1723.307 -526.45)" fill="#fff"/>
      <path id="Path_11537" data-name="Path 11537" d="M1730.876,571.886l-2.758,4.77h5.508Z" transform="translate(-1716.791 -522.179)" fill="#fff"/>
      <path id="Path_11538" data-name="Path 11538" d="M1719.225,586.341l2.192-3.785h-4.381Z" transform="translate(-1710.944 -527.051)" fill="#fff"/>
      <path id="Path_11539" data-name="Path 11539" d="M1711.507,571.906c-.481,0-.365.222-.212.486.629,1.085,1.255,2.172,1.956,3.387l2.229-3.871C1714.053,571.908,1712.78,571.913,1711.507,571.906Z" transform="translate(-1708.262 -522.188)" fill="#fff"/>
      <path id="Path_11540" data-name="Path 11540" d="M1725.281,562.526l-2.207,3.829h4.4Z" transform="translate(-1713.702 -517.138)" fill="#fff"/>
      <path id="Path_11541" data-name="Path 11541" d="M1708.662,582.974c-.879,0-1.758,0-2.835,0l1.7,2.94c.525-.915.976-1.719,1.446-2.513C1709.21,582.994,1708.979,582.972,1708.662,582.974Z" transform="translate(-1705.827 -527.242)" fill="#fff"/>
      <path id="Path_11542" data-name="Path 11542" d="M1733.431,570.523q0-.139,0-.278C1733.336,570.339,1733.155,570.434,1733.431,570.523Z" transform="translate(-1719.257 -521.43)" fill="#fff"/>
    </g>
  </g>
</svg>
