<svg id="Group_4699" data-name="Group 4699" xmlns="http://www.w3.org/2000/svg" width="366.999" height="383.321" viewBox="0 0 366.999 383.321">
  <path id="Path_11833" data-name="Path 11833" d="M51.88,126.479s-5.185,3.953-.214,9.172a.471.471,0,0,0,.325.137l45.347-.265s3.867-4.338.659-9.343Z" transform="translate(-35.615 -45.876)" fill="#ebebeb"/>
  <path id="Path_11834" data-name="Path 11834" d="M89.416,131.334c0,.051-5.638.094-12.6.094s-12.6-.043-12.6-.094,5.647-.094,12.6-.094S89.416,131.283,89.416,131.334Z" transform="translate(-37.738 -46.589)" fill="#e0e0e0"/>
  <path id="Path_11835" data-name="Path 11835" d="M83.43,133.254s-2.652.086-5.921.086-5.929-.043-5.929-.086,2.652-.094,5.929-.094S83.43,133.2,83.43,133.254Z" transform="translate(-38.802 -46.854)" fill="#e0e0e0"/>
  <path id="Path_11836" data-name="Path 11836" d="M99.074,135.357s.094-.522.24-1.36a19.157,19.157,0,0,0,.257-3.3,18.343,18.343,0,0,0-.325-3.3c-.154-.856-.291-1.343-.265-1.352s.06.12.137.351a9.906,9.906,0,0,1,.257.975,15.973,15.973,0,0,1,.385,3.328,16.548,16.548,0,0,1-.317,3.328c-.094.419-.171.762-.248.984a1.712,1.712,0,0,1-.12.351Z" transform="translate(-42.758 -45.857)" fill="#e0e0e0"/>
  <path id="Path_11837" data-name="Path 11837" d="M103,126.12a1.36,1.36,0,0,1,.2.325,3.044,3.044,0,0,1,.205.411c.068.163.163.342.231.556a9.409,9.409,0,0,1,.428,1.5,11.743,11.743,0,0,1,.205,1.908,10.987,10.987,0,0,1-.171,1.908,8.893,8.893,0,0,1-.411,1.514c-.06.214-.154.394-.214.556a3.1,3.1,0,0,1-.2.411,2.24,2.24,0,0,1-.2.334s.222-.5.488-1.343a11.285,11.285,0,0,0,.368-1.5,12.748,12.748,0,0,0,.145-1.882,11.506,11.506,0,0,0-.18-1.874,10.641,10.641,0,0,0-.385-1.489A8.619,8.619,0,0,0,103,126.12Z" transform="translate(-43.339 -45.868)" fill="#e0e0e0"/>
  <path id="Path_11838" data-name="Path 11838" d="M60.423,135.5a1.275,1.275,0,0,1-.214-.3,3.568,3.568,0,0,1-.205-.376c-.077-.154-.171-.325-.248-.522a7.889,7.889,0,0,1-.436-1.429,9.352,9.352,0,0,1-.18-1.831,9.736,9.736,0,0,1,.222-1.814,8.078,8.078,0,0,1,.513-1.429c.086-.2.18-.368.257-.513a3.425,3.425,0,0,1,.222-.376,1.489,1.489,0,0,1,.222-.291A10.544,10.544,0,0,0,60,127.852a8.334,8.334,0,0,0-.428,1.4,9.479,9.479,0,0,0-.214,1.788,9.779,9.779,0,0,0,.163,1.788,9.6,9.6,0,0,0,.394,1.412C60.175,135.039,60.458,135.5,60.423,135.5Z" transform="translate(-37.006 -45.938)" fill="#e0e0e0"/>
  <path id="Path_11839" data-name="Path 11839" d="M54.664,136.6a2.311,2.311,0,0,1-.231-.351,3.421,3.421,0,0,1-.24-.419,5.583,5.583,0,0,1-.274-.59,9.549,9.549,0,0,1-.513-1.6,10.591,10.591,0,0,1-.257-2.045,10.412,10.412,0,0,1,.163-2.053,9.856,9.856,0,0,1,.445-1.617c.077-.231.171-.419.248-.6a4.058,4.058,0,0,1,.222-.436,1.916,1.916,0,0,1,.214-.351,14.142,14.142,0,0,0-.565,1.429,11,11,0,0,0-.4,1.609,12.449,12.449,0,0,0-.145,2.019,11.063,11.063,0,0,0,.24,2.011,11.594,11.594,0,0,0,.471,1.591C54.382,136.08,54.733,136.576,54.664,136.6Z" transform="translate(-36.14 -45.925)" fill="#e0e0e0"/>
  <path id="Path_11840" data-name="Path 11840" d="M100.6,153.23v8.676H83.82V153.23Z" transform="translate(-40.569 -49.604)" fill="#ebebeb"/>
  <path id="Path_11841" data-name="Path 11841" d="M40.09,157.49v.231a4.962,4.962,0,0,0,4.988,4.654H95.053v-.625H83.2a4.338,4.338,0,0,1-4.338-4.338h0a4.338,4.338,0,0,1,4.338-4.338H95.071v-.915l-49.993.163a5.005,5.005,0,0,0-4.988,5.168Z" transform="translate(-34.254 -49.454)" fill="#e0e0e0"/>
  <path id="Path_11842" data-name="Path 11842" d="M100.831,158.424c0,.051-3.422.086-7.7.086s-7.7,0-7.7-.086,3.422-.094,7.7-.094S100.831,158.373,100.831,158.424Z" transform="translate(-40.802 -50.325)" fill="#e0e0e0"/>
  <path id="Path_11843" data-name="Path 11843" d="M100.689,160.7c0,.051-3.268.094-7.29.094s-7.29-.043-7.29-.094,3.26-.094,7.29-.094S100.689,160.653,100.689,160.7Z" transform="translate(-40.9 -50.64)" fill="#e0e0e0"/>
  <path id="Path_11844" data-name="Path 11844" d="M101.218,162.794c0,.051-2.935.094-6.554.094s-6.554,0-6.554-.094,2.935-.094,6.554-.094S101.218,162.743,101.218,162.794Z" transform="translate(-41.189 -50.928)" fill="#e0e0e0"/>
  <path id="Path_11845" data-name="Path 11845" d="M100.883,156.366c0,.051-3.422.094-7.546.094s-7.546-.043-7.546-.094,3.38-.086,7.546-.086S100.883,156.314,100.883,156.366Z" transform="translate(-40.854 -50.043)" fill="#e0e0e0"/>
  <path id="Path_11846" data-name="Path 11846" d="M100.883,154.316c0,.051-3.012.094-6.716.094s-6.716-.043-6.716-.094,3-.086,6.716-.086S100.883,154.264,100.883,154.316Z" transform="translate(-41.093 -49.76)" fill="#e0e0e0"/>
  <path id="Path_11847" data-name="Path 11847" d="M46.764,152.52a11.444,11.444,0,0,0-1.061,1.266,6.426,6.426,0,0,0,.086,7.427,11.252,11.252,0,0,0,1.1,1.241,1.43,1.43,0,0,1-.359-.265,5.572,5.572,0,0,1-.856-.856,6.306,6.306,0,0,1-.086-7.581,5.469,5.469,0,0,1,.813-.915A1.779,1.779,0,0,1,46.764,152.52Z" transform="translate(-34.871 -49.504)" fill="#f5f5f5"/>
  <path id="Path_11848" data-name="Path 11848" d="M44.8,152.31a10.269,10.269,0,0,0-1.027,1.258A6.426,6.426,0,0,0,43.867,161a10.136,10.136,0,0,0,1.087,1.232,1.918,1.918,0,0,1-.359-.265,5.136,5.136,0,0,1-.856-.856,6.323,6.323,0,0,1-.094-7.581,5.912,5.912,0,0,1,.856-.915A1.361,1.361,0,0,1,44.8,152.31Z" transform="translate(-34.593 -49.475)" fill="#f5f5f5"/>
  <path id="Path_11849" data-name="Path 11849" d="M84.473,152.52a12.744,12.744,0,0,0-1.061,1.266,6.426,6.426,0,0,0,.086,7.427,11.25,11.25,0,0,0,1.078,1.241,1.633,1.633,0,0,1-.359-.265,5.568,5.568,0,0,1-.856-.856,6.34,6.34,0,0,1-.086-7.581,5.868,5.868,0,0,1,.856-.915A2.147,2.147,0,0,1,84.473,152.52Z" transform="translate(-40.315 -49.504)" fill="#f5f5f5"/>
  <path id="Path_11850" data-name="Path 11850" d="M82.5,152.31a10.762,10.762,0,0,0-1.061,1.258A6.408,6.408,0,0,0,81.522,161a11.123,11.123,0,0,0,1.052,1.232,1.916,1.916,0,0,1-.359-.265,5.467,5.467,0,0,1-.856-.856,6.323,6.323,0,0,1-.094-7.581,5.912,5.912,0,0,1,.813-.915,1.548,1.548,0,0,1,.419-.308Z" transform="translate(-40.025 -49.475)" fill="#f5f5f5"/>
  <path id="Path_11851" data-name="Path 11851" d="M53.375,158.968l-.051-3.525a2.473,2.473,0,0,0-.12-.907.856.856,0,0,0-.676-.565c-.436-.2-1.129.171-1.437.676a3.32,3.32,0,0,0-.342,1.711,23.333,23.333,0,0,0,.137,2.789,3.123,3.123,0,0,0,.325,1.275,1.07,1.07,0,0,0,2.019-.171A3.687,3.687,0,0,0,53.375,158.968Z" transform="translate(-35.793 -49.702)" fill="#f5f5f5"/>
  <path id="Path_11852" data-name="Path 11852" d="M73.777,158.616c0,.051-3.611.094-8.068.094s-8.068-.043-8.068-.094,3.611-.086,8.068-.086S73.777,158.573,73.777,158.616Z" transform="translate(-36.789 -50.353)" fill="#f5f5f5"/>
  <path id="Path_11853" data-name="Path 11853" d="M49.894,150.732,49.8,142.51h4.475l.154,8.222Z" transform="translate(-35.657 -48.128)" fill="#f5f5f5"/>
  <path id="Path_11854" data-name="Path 11854" d="M54.018,144.2a11.65,11.65,0,0,1-2.079.094,11.65,11.65,0,0,1-2.079-.094,11.656,11.656,0,0,1,2.079-.094,11.656,11.656,0,0,1,2.079.094Z" transform="translate(-35.666 -48.362)" fill="#e0e0e0"/>
  <path id="Path_11855" data-name="Path 11855" d="M54.018,145.684a11.653,11.653,0,0,1-2.079.094,11.653,11.653,0,0,1-2.079-.094,12.2,12.2,0,0,1,2.079-.086A12.2,12.2,0,0,1,54.018,145.684Z" transform="translate(-35.666 -48.568)" fill="#e0e0e0"/>
  <path id="Path_11856" data-name="Path 11856" d="M54.018,147.172a13.36,13.36,0,0,1-2.079.086,13.36,13.36,0,0,1-2.079-.086,11.656,11.656,0,0,1,2.079-.094,11.648,11.648,0,0,1,2.079.094Z" transform="translate(-35.666 -48.772)" fill="#e0e0e0"/>
  <path id="Path_11857" data-name="Path 11857" d="M54.018,148.652a11.65,11.65,0,0,1-2.079.094,11.65,11.65,0,0,1-2.079-.094,11.653,11.653,0,0,1,2.079-.094,11.653,11.653,0,0,1,2.079.094Z" transform="translate(-35.666 -48.976)" fill="#e0e0e0"/>
  <path id="Path_11858" data-name="Path 11858" d="M54.018,150.132a11.653,11.653,0,0,1-2.079.094,11.653,11.653,0,0,1-2.079-.094,11.65,11.65,0,0,1,2.079-.094,11.65,11.65,0,0,1,2.079.094Z" transform="translate(-35.666 -49.18)" fill="#e0e0e0"/>
  <path id="Path_11859" data-name="Path 11859" d="M49.52,142.26H99.145a23.29,23.29,0,0,1,0,8.881H49.734v-.607h3.012a1.42,1.42,0,0,0,1.463-1.42v-4.92a1.42,1.42,0,0,0-1.429-1.42H49.52Z" transform="translate(-35.616 -48.092)" fill="#ebebeb"/>
  <path id="Path_11860" data-name="Path 11860" d="M63.025,147.155h.856a.145.145,0,0,1,.086,0,.171.171,0,0,1,.094.154v.06a1.855,1.855,0,0,1-.06.205,2.327,2.327,0,0,1-.513.941.984.984,0,0,1-.71.359h-.094a.787.787,0,0,1-.565-.411,1.874,1.874,0,0,1-.248-.992,2.5,2.5,0,0,1,.111-.7,2.344,2.344,0,0,1,.488-.967,1.01,1.01,0,0,1,.744-.394.693.693,0,0,1,.317.077.967.967,0,0,1,.479.6.137.137,0,0,1,0,.086.154.154,0,0,1,0,.086.188.188,0,0,1-.154.094h-.06a.171.171,0,0,1-.111-.12h0a.607.607,0,0,0-.1-.2.436.436,0,0,0-.744-.12,1.472,1.472,0,0,0-.453.65,2.464,2.464,0,0,0-.2.933,1.711,1.711,0,0,0,.145.736.471.471,0,0,0,.428.317.573.573,0,0,0,.4-.24,2.207,2.207,0,0,0,.428-.77h-.6a.214.214,0,0,1-.2-.205v-.06A.188.188,0,0,1,63.025,147.155Z" transform="translate(-37.4 -48.537)" fill="#fafafa"/>
  <path id="Path_11861" data-name="Path 11861" d="M66.216,145.553v.06c0,.12.231,1.146.582,3.072a.077.077,0,0,1,0,.043.2.2,0,0,1,0,.094.163.163,0,0,1-.145.086h0a.145.145,0,0,1-.137-.12l-.2-1.027H65.292l-.488,1.027a.18.18,0,0,1-.154.086.2.2,0,0,1-.094,0,.171.171,0,0,1-.077-.145.128.128,0,0,1,0-.06.749.749,0,0,1,.154-.334c.71-1.557,1.138-2.473,1.275-2.755a.2.2,0,0,1,.171-.128.188.188,0,0,1,.137.1Zm-.222.685-.548,1.164h.779Z" transform="translate(-37.776 -48.543)" fill="#fafafa"/>
  <path id="Path_11862" data-name="Path 11862" d="M69.467,148.912h-1.5a.171.171,0,0,1-.094,0,.257.257,0,0,1-.086-.188h0c0-.06.137-1.078.411-3.063v-.06a.162.162,0,0,1,.163-.111h.077a.163.163,0,0,1,.094.163,3.557,3.557,0,0,1-.1.856c-.163,1.3-.257,1.994-.265,2.062h1.275a.2.2,0,0,1,.094,0,.154.154,0,0,1,.111.163.146.146,0,0,1,0,.06A.188.188,0,0,1,69.467,148.912Z" transform="translate(-38.255 -48.548)" fill="#fafafa"/>
  <path id="Path_11863" data-name="Path 11863" d="M71.828,145.552v.06c0,.12.231,1.146.582,3.072a.077.077,0,0,1,0,.043.2.2,0,0,1,0,.094.163.163,0,0,1-.145.086h0a.145.145,0,0,1-.137-.12l-.2-1.027h-1.07l-.5,1.027a.18.18,0,0,1-.145.086.206.206,0,0,1-.1,0,.171.171,0,0,1-.077-.145.129.129,0,0,1,0-.06l.154-.334c.71-1.557,1.138-2.473,1.275-2.755a.214.214,0,0,1,.171-.128A.188.188,0,0,1,71.828,145.552Zm-.222.684-.548,1.164h.779Z" transform="translate(-38.579 -48.542)" fill="#fafafa"/>
  <path id="Path_11864" data-name="Path 11864" d="M74.685,147.327c.111.325.205.573.265.744.154.428.231.65.231.676a.171.171,0,0,1,0,.094.163.163,0,0,1-.3-.043v-.077c-.086-.18-.214-.53-.4-1.052l-.856,1.155a.171.171,0,0,1-.154.094.2.2,0,0,1-.094,0,.154.154,0,0,1-.086-.145h0a.47.47,0,0,1,.094-.145c.282-.368.6-.8.941-1.309a2.934,2.934,0,0,1-.1-.282c-.325-.856-.479-1.292-.479-1.326a.163.163,0,0,1,0-.086.145.145,0,0,1,.137-.094.2.2,0,0,1,.171.1l.5,1.343,1-1.36a.2.2,0,0,1,.154-.077.137.137,0,0,1,.086,0,.171.171,0,0,1,.086.163.317.317,0,0,1,0,.077Z" transform="translate(-39.049 -48.554)" fill="#fafafa"/>
  <path id="Path_11865" data-name="Path 11865" d="M78.81,145.474a.171.171,0,0,1,.086,0,.188.188,0,0,1,.094.154q-.376,2.9-.411,3.132a1.882,1.882,0,0,1-.317.813,1.155,1.155,0,0,1-.992.488,1.3,1.3,0,0,1-.479-.12,1.018,1.018,0,0,1-.522-.471.145.145,0,0,1,0-.086.132.132,0,0,1,.154-.171.18.18,0,0,1,.137.068.958.958,0,0,0,.761.436.77.77,0,0,0,.6-.3,1.626,1.626,0,0,0,.325-.941.8.8,0,0,1-.214.231.856.856,0,0,1-.539.18h-.1a.787.787,0,0,1-.565-.411,1.78,1.78,0,0,1-.248-.992v-.565a8.776,8.776,0,0,1,.2-1.283v-.051a.232.232,0,0,1,.248-.12.137.137,0,0,1,.086.137,3.134,3.134,0,0,1-.077.684,9.89,9.89,0,0,0-.12,1.044,1.967,1.967,0,0,0,.137.8c.094.248.248.368.436.368h.06a.8.8,0,0,0,.453-.359,2.4,2.4,0,0,0,.368-.856l.222-1.711a.273.273,0,0,1,0-.077.154.154,0,0,1,.222-.026Z" transform="translate(-39.478 -48.539)" fill="#fafafa"/>
  <path id="Path_11866" data-name="Path 11866" d="M105.286,151.241c-.051,0-.086-2.045-.086-4.56a43.367,43.367,0,0,1,.086-4.56,41.877,41.877,0,0,1,.094,4.56C105.38,149.2,105.337,151.241,105.286,151.241Z" transform="translate(-43.657 -48.073)" fill="#f5f5f5"/>
  <path id="Path_11867" data-name="Path 11867" d="M57.856,151.241c-.051,0-.086-2.045-.086-4.56a43.363,43.363,0,0,1,.086-4.56,41.878,41.878,0,0,1,.094,4.56C57.95,149.2,57.907,151.241,57.856,151.241Z" transform="translate(-36.808 -48.073)" fill="#e0e0e0"/>
  <path id="Path_11868" data-name="Path 11868" d="M106.3,151.241c-.051,0-.094-2.045-.094-4.56s.043-4.56.094-4.56.094,2.045.094,4.56S106.355,151.241,106.3,151.241Z" transform="translate(-43.802 -48.073)" fill="#f5f5f5"/>
  <path id="Path_11869" data-name="Path 11869" d="M56.906,151.241c-.051,0-.086-2.045-.086-4.56a43.351,43.351,0,0,1,.086-4.56A41.88,41.88,0,0,1,57,146.68C57,149.2,56.974,151.241,56.906,151.241Z" transform="translate(-36.671 -48.073)" fill="#e0e0e0"/>
  <path id="Path_11870" data-name="Path 11870" d="M90.33,143.876h0l5.245,4.227h-.06l-.693.188L90.4,149.446h0l-4-1.711-1.138-.479-.3-.137h0l.308.128,1.138.471,4.021,1.711h0l4.415-1.172.693-.188v.06L90.3,143.85h0" transform="translate(-40.722 -48.318)" fill="#e0e0e0"/>
  <path id="Path_11871" data-name="Path 11871" d="M96.745,148.03l.291.265.376-.077-.163.351.2.342-.394-.051-.257.291-.077-.385-.359-.154.351-.188Z" transform="translate(-42.38 -48.903)" fill="#e0e0e0"/>
  <path id="Path_11872" data-name="Path 11872" d="M90.9,149.98l.188.163.248-.068-.094.231.137.214-.248-.017-.163.2-.06-.24-.24-.094.214-.128Z" transform="translate(-41.558 -49.173)" fill="#e0e0e0"/>
  <path id="Path_11873" data-name="Path 11873" d="M84.44,147.281l.317.017.188-.248.077.308.3.1-.265.163-.017.317-.24-.2-.3.086.12-.291Z" transform="translate(-40.659 -48.768)" fill="#e0e0e0"/>
  <path id="Path_11874" data-name="Path 11874" d="M99.56,143.912l.308.026.2-.248.077.3.291.111-.265.163-.009.317-.24-.2-.3.086.111-.291Z" transform="translate(-42.842 -48.305)" fill="#e0e0e0"/>
  <path id="Path_11875" data-name="Path 11875" d="M90.95,143.7l.2.009.128-.154.051.188.18.068-.163.111-.009.2-.154-.128-.188.06.068-.188Z" transform="translate(-41.599 -48.286)" fill="#e0e0e0"/>
  <path id="Path_11876" data-name="Path 11876" d="M98.792,144.154s-1.711,0-3.79-.128-3.782-.18-3.782-.2,1.711,0,3.79.128S98.792,144.137,98.792,144.154Z" transform="translate(-41.638 -48.324)" fill="#e0e0e0"/>
  <path id="Path_11877" data-name="Path 11877" d="M93.706,141.462H43.414c-.659-1.5-.856-2.918,0-4.192H93.706A4.826,4.826,0,0,1,93.706,141.462Z" transform="translate(-34.652 -47.414)" fill="#e0e0e0"/>
  <rect id="Rectangle_1766" data-name="Rectangle 1766" width="27.251" height="1.523" transform="translate(19.174 91.058)" fill="#ebebeb"/>
  <path id="Path_11878" data-name="Path 11878" d="M45.623,141.5a1.889,1.889,0,0,1-.4-.5,3.688,3.688,0,0,1-.453-1.489,3.739,3.739,0,0,1,.188-1.54,1.394,1.394,0,0,1,.308-.565,5.633,5.633,0,0,1-.18.607,4.278,4.278,0,0,0-.137,1.489,4.133,4.133,0,0,0,.394,1.437,5.519,5.519,0,0,1,.282.565Z" transform="translate(-34.928 -47.432)" fill="#e0e0e0"/>
  <path id="Path_11879" data-name="Path 11879" d="M46.853,141.5a1.785,1.785,0,0,1-.394-.5A3.55,3.55,0,0,1,46,139.5a3.739,3.739,0,0,1,.188-1.54,1.523,1.523,0,0,1,.308-.565,5.629,5.629,0,0,1-.18.607,4.278,4.278,0,0,0-.137,1.489,4.133,4.133,0,0,0,.394,1.437A5.517,5.517,0,0,1,46.853,141.5Z" transform="translate(-35.106 -47.432)" fill="#e0e0e0"/>
  <path id="Path_11880" data-name="Path 11880" d="M99.92,141.388a8.995,8.995,0,0,0,.351-2.045,8.128,8.128,0,0,0-.334-2.053,3.594,3.594,0,0,1,.513,2.053,3.747,3.747,0,0,1-.53,2.045Z" transform="translate(-42.894 -47.417)" fill="#f5f5f5"/>
  <path id="Path_11881" data-name="Path 11881" d="M98.818,141.393c-.051,0,.163-.856.154-2.011s-.214-1.985-.154-2a4.774,4.774,0,0,1,.334,2A4.842,4.842,0,0,1,98.818,141.393Z" transform="translate(-42.733 -47.429)" fill="#f5f5f5"/>
  <rect id="Rectangle_1767" data-name="Rectangle 1767" width="17.908" height="18.994" transform="matrix(1, -0.005, 0.005, 1, 82.76, 31.091)" fill="#ebebeb"/>
  <rect id="Rectangle_1768" data-name="Rectangle 1768" width="17.908" height="18.994" transform="translate(100.857 30.394) rotate(-0.573)" fill="#f5f5f5"/>
  <path id="Path_11882" data-name="Path 11882" d="M129.973,75.425c11.9.1,23.837,0,35.73-.163a.188.188,0,1,0,0-.376q-17.848-.1-35.73.214a.163.163,0,1,0,0,.325Z" transform="translate(-47.198 -39.085)" fill="#e0e0e0"/>
  <rect id="Rectangle_1769" data-name="Rectangle 1769" width="32.539" height="15.478" transform="matrix(1, -0.005, 0.005, 1, 71.592, 49.846)" fill="#ebebeb"/>
  <rect id="Rectangle_1770" data-name="Rectangle 1770" width="32.539" height="15.478" transform="matrix(1, -0.005, 0.005, 1, 103.989, 49.671)" fill="#f5f5f5"/>
  <path id="Path_11883" data-name="Path 11883" d="M116.971,96.222c21.612.24,43.3,0,64.915-.325a.188.188,0,1,0,0-.376c-21.613-.111-43.311-.1-64.923.376a.163.163,0,1,0,0,.325Z" transform="translate(-45.32 -42.06)" fill="#e0e0e0"/>
  <rect id="Rectangle_1771" data-name="Rectangle 1771" width="32.539" height="15.478" transform="matrix(1, -0.005, 0.005, 1, 42.221, 138.566)" fill="#ebebeb"/>
  <rect id="Rectangle_1772" data-name="Rectangle 1772" width="32.539" height="15.478" transform="matrix(1, -0.005, 0.005, 1, 74.615, 138.381)" fill="#f5f5f5"/>
  <path id="Path_11884" data-name="Path 11884" d="M82.6,198.632c21.613.248,43.3,0,64.923-.317a.2.2,0,0,0,0-.385c-21.613-.111-43.3-.1-64.915.376a.163.163,0,1,0,0,.325Z" transform="translate(-40.372 -55.776)" fill="#e0e0e0"/>
  <rect id="Rectangle_1773" data-name="Rectangle 1773" width="8.205" height="40.838" transform="matrix(1, -0.005, 0.005, 1, 22.865, 24.578)" fill="#e0e0e0"/>
  <rect id="Rectangle_1774" data-name="Rectangle 1774" width="8.205" height="56.17" transform="matrix(1, -0.005, 0.005, 1, 30.876, 9.348)" fill="#ebebeb"/>
  <rect id="Rectangle_1775" data-name="Rectangle 1775" width="12.757" height="45.518" transform="matrix(1, -0.005, 0.005, 1, 39.164, 19.836)" fill="#f5f5f5"/>
  <path id="Path_11885" data-name="Path 11885" d="M91.687,66.357a47.388,47.388,0,0,1-6.374.214,47.467,47.467,0,0,1-6.383-.214,44.979,44.979,0,0,1,6.383-.222,44.9,44.9,0,0,1,6.374.222Z" transform="translate(-39.863 -37.821)" fill="#e0e0e0"/>
  <path id="Path_11886" data-name="Path 11886" d="M91.687,64.118a46.484,46.484,0,0,1-6.374.222,46.561,46.561,0,0,1-6.383-.222,46.563,46.563,0,0,1,6.383-.222,46.485,46.485,0,0,1,6.374.222Z" transform="translate(-39.863 -37.498)" fill="#e0e0e0"/>
  <path id="Path_11887" data-name="Path 11887" d="M91.687,101.3a44.9,44.9,0,0,1-6.374.222,44.985,44.985,0,0,1-6.383-.222,46.567,46.567,0,0,1,6.383-.222,46.488,46.488,0,0,1,6.374.222Z" transform="translate(-39.863 -42.867)" fill="#e0e0e0"/>
  <path id="Path_11888" data-name="Path 11888" d="M91.687,99.068a46.486,46.486,0,0,1-6.374.222,46.559,46.559,0,0,1-6.383-.222,46.564,46.564,0,0,1,6.383-.222,46.488,46.488,0,0,1,6.374.222Z" transform="translate(-39.863 -42.545)" fill="#e0e0e0"/>
  <path id="Path_11889" data-name="Path 11889" d="M86.592,90.764c-.128,0-.222-4.595-.222-10.267s.094-10.267.222-10.267.214,4.586.214,10.267S86.712,90.764,86.592,90.764Z" transform="translate(-40.938 -38.417)" fill="#e0e0e0"/>
  <rect id="Rectangle_1776" data-name="Rectangle 1776" width="13.878" height="34.361" transform="translate(51.961 30.94)" fill="#ebebeb"/>
  <path id="Path_11890" data-name="Path 11890" d="M75.973,54.733a2.353,2.353,0,1,1-.7-1.67A2.361,2.361,0,0,1,75.973,54.733Z" transform="translate(-38.754 -35.839)" fill="#e0e0e0"/>
  <rect id="Rectangle_1777" data-name="Rectangle 1777" width="1.455" height="33.411" transform="translate(34.13 25.388)" fill="#e0e0e0"/>
  <rect id="Rectangle_1778" data-name="Rectangle 1778" width="144.503" height="4.945" transform="translate(0 113.274)" fill="#e0e0e0"/>
  <rect id="Rectangle_1779" data-name="Rectangle 1779" width="144.503" height="4.945" transform="translate(0 65.524)" fill="#e0e0e0"/>
  <rect id="Rectangle_1780" data-name="Rectangle 1780" width="115.01" height="4.663" transform="translate(29.493 154.158)" fill="#e0e0e0"/>
  <rect id="Rectangle_1781" data-name="Rectangle 1781" width="5.51" height="46.647" transform="translate(66.737 70.094)" fill="#e0e0e0"/>
  <rect id="Rectangle_1782" data-name="Rectangle 1782" width="5.51" height="45.219" transform="translate(29.518 113.378)" fill="#e0e0e0"/>
  <path id="Path_11891" data-name="Path 11891" d="M147.42,139.65,144,144.518s7.623,2.113,7.623,8.89-4.663,8.043-9.737,8.043-9.951-1.48-9.745-8.257,6.562-9.318,6.562-9.318l-3.174-4.227Z" transform="translate(-47.534 -47.707)" fill="#f5f5f5"/>
  <rect id="Rectangle_1783" data-name="Rectangle 1783" width="152.965" height="70.544" transform="translate(176.662 268.405)" fill="#3d5b81"/>
  <path id="Path_11892" data-name="Path 11892" d="M389.6,411.223H243.78v-63.5H389.6Zm-144.871-.95H388.651v-61.6H244.73Z" transform="translate(-63.619 -75.602)" fill="#e0e0e0"/>
  <rect id="Rectangle_1784" data-name="Rectangle 1784" width="37.373" height="70.544" transform="translate(329.626 268.405)" fill="#253c59"/>
  <path id="Path_11893" data-name="Path 11893" d="M244.3,370.625H389.183a.2.2,0,0,0,0-.385H244.3a.2.2,0,0,0,0,.385Z" transform="translate(-63.672 -79.548)" fill="#e0e0e0"/>
  <path id="Path_11894" data-name="Path 11894" d="M329.448,367.194a159,159,0,0,0,.051-19.157.2.2,0,1,0-.394,0,158.99,158.99,0,0,0,.051,19.157.145.145,0,0,0,.291,0Z" transform="translate(-75.916 -76.351)" fill="#e0e0e0"/>
  <path id="Path_11895" data-name="Path 11895" d="M374.453,358.936a1.968,1.968,0,1,1-.573-1.4A1.976,1.976,0,0,1,374.453,358.936Z" transform="translate(-81.927 -77.697)" fill="#e0e0e0"/>
  <path id="Path_11896" data-name="Path 11896" d="M285.593,358.942A1.976,1.976,0,1,1,283.659,357,1.977,1.977,0,0,1,285.593,358.942Z" transform="translate(-69.106 -77.703)" fill="#e0e0e0"/>
  <path id="Path_11897" data-name="Path 11897" d="M330.633,384.5a1.976,1.976,0,1,1-1.968-1.977,1.977,1.977,0,0,1,1.968,1.977Z" transform="translate(-75.604 -81.22)" fill="#e0e0e0"/>
  <path id="Path_11898" data-name="Path 11898" d="M259.732,425.83l-7.872,44.294h4.423L270.8,425.83Z" transform="translate(-64.808 -86.881)" fill="#1f497f"/>
  <path id="Path_11899" data-name="Path 11899" d="M403.951,425.83,410.54,470.2h-4.432L392.88,425.83Z" transform="translate(-85.148 -86.881)" fill="#1f497f"/>
  <path id="Path_11900" data-name="Path 11900" d="M438.511,425.83l7.461,44.372H441.54l-14.1-44.372Z" transform="translate(-90.139 -86.881)" fill="#1f497f"/>
  <path id="Path_11901" data-name="Path 11901" d="M330.483,407.836a1.976,1.976,0,1,1-1.977-1.976A1.976,1.976,0,0,1,330.483,407.836Z" transform="translate(-75.583 -83.997)" fill="#e0e0e0"/>
  <path id="Path_11902" data-name="Path 11902" d="M244.3,396.155H389.183a.2.2,0,0,0,0-.385H244.3a.2.2,0,0,0,0,.385Z" transform="translate(-63.672 -82.54)" fill="#e0e0e0"/>
  <path id="Path_11905" data-name="Path 11905" d="M319.773,340.531a54.206,54.206,0,0,1-.248-7.315,54.205,54.205,0,0,1,.248-7.315,54.181,54.181,0,0,1,.248,7.315,54.18,54.18,0,0,1-.248,7.315Z" transform="translate(-74.568 -73.36)" fill="#e0e0e0"/>
  <rect id="Rectangle_1789" data-name="Rectangle 1789" width="72.478" height="75.55" transform="translate(258.766 105.779)" fill="#3d5b81"/>
  <rect id="Rectangle_1790" data-name="Rectangle 1790" width="72.478" height="75.55" transform="translate(253.863 105.779)" fill="#ff6340"/>
  <path id="Path_11909" data-name="Path 11909" d="M402.411,231.082H329.89V155.49h72.521Zm-72.478-.043h72.435V155.533H329.933Z" transform="translate(-76.053 -49.737)" fill="#e0e0e0"/>
  <rect id="Rectangle_1791" data-name="Rectangle 1791" width="52.987" height="55.238" transform="translate(263.6 115.963)" fill="#fff"/>
  <path id="Path_11910" data-name="Path 11910" d="M339.676,232.38a8.885,8.885,0,0,1-1.309,1.514c-.856.856-2.028,2.1-3.362,3.422s-2.567,2.49-3.422,3.32a8.879,8.879,0,0,1-1.531,1.275,8.2,8.2,0,0,1,1.3-1.514c.856-.9,2.036-2.1,3.422-3.422s2.567-2.49,3.422-3.32a8.223,8.223,0,0,1,1.48-1.275Z" transform="translate(-76.09 -60.505)" fill="#e0e0e0"/>
  <path id="Path_11911" data-name="Path 11911" d="M403.23,232.22a8.358,8.358,0,0,1,1.523,1.309c.9.856,2.1,2.028,3.422,3.363s2.49,2.567,3.32,3.422a8.552,8.552,0,0,1,1.275,1.532,8.2,8.2,0,0,1-1.523-1.258c-.9-.856-2.1-2.036-3.422-3.38s-2.49-2.567-3.32-3.465A9.07,9.07,0,0,1,403.23,232.22Z" transform="translate(-86.643 -60.483)" fill="#e0e0e0"/>
  <path id="Path_11912" data-name="Path 11912" d="M403.07,165.951a8.384,8.384,0,0,1,1.3-1.523c.856-.856,2.036-2.1,3.371-3.422s2.567-2.481,3.465-3.311a7.77,7.77,0,0,1,1.532-1.275,8.916,8.916,0,0,1-1.3,1.514c-.856.856-2.045,2.1-3.422,3.422s-2.567,2.49-3.422,3.32A8.558,8.558,0,0,1,403.07,165.951Z" transform="translate(-86.62 -50.042)" fill="#e0e0e0"/>
  <path id="Path_11913" data-name="Path 11913" d="M339.523,166.094a8.559,8.559,0,0,1-1.514-1.309c-.9-.856-2.1-2.036-3.422-3.371s-2.481-2.567-3.311-3.422A8.887,8.887,0,0,1,330,156.46a7.783,7.783,0,0,1,1.514,1.3c.856.856,2.1,2.036,3.422,3.371s2.49,2.567,3.32,3.474a7.9,7.9,0,0,1,1.266,1.489Z" transform="translate(-76.083 -50.047)" fill="#e0e0e0"/>
  <path id="Path_11914" data-name="Path 11914" d="M394.123,222.637a1.831,1.831,0,0,1,0-.274v-3.747c0-2.618,0-6.426-.051-11.26,0-9.677-.06-23.461-.1-39.957l.205.205H341.332l.24-.231v55.238l-.205-.205,38.263.1,10.746.051h.026l-10.7.051-38.391.1h-.2V167.16H394.4v.205c-.043,16.556-.077,30.382-.1,40.085,0,4.817-.043,8.607-.051,11.217v3.688A.392.392,0,0,1,394.123,222.637Z" transform="translate(-77.673 -51.395)" fill="#e0e0e0"/>
  <rect id="Rectangle_1792" data-name="Rectangle 1792" width="17.685" height="17.685" transform="translate(281.25 134.779)" fill="#ff6340"/>
  <g id="freepik--Plant--inject-2" transform="translate(43.778 242.148)">
    <rect id="Rectangle_1793" data-name="Rectangle 1793" width="51.875" height="7.127" transform="translate(23.925 97.109)" fill="#ff6340"/>
    <path id="Path_11915" data-name="Path 11915" d="M164.355,433.387H112.3V426.08h52.055Zm-51.875-.18h51.7V426.26h-51.7Z" transform="translate(-88.46 -329.065)" fill="#263238"/>
    <path id="Path_11916" data-name="Path 11916" d="M118.02,431.74l7.469,36.842h27.627l7.221-34.464Z" transform="translate(-89.286 -329.883)" fill="#ff6340"/>
    <path id="Path_11917" data-name="Path 11917" d="M118.02,470.73l3.987,5.476h33.582l4.749-5.476Z" transform="translate(-89.286 -335.513)" fill="#c65b43"/>
    <path id="Path_11918" data-name="Path 11918" d="M140.387,420.134c-.1,0-.231-17.069-.291-38.117s0-38.117.077-38.117.231,17.061.291,38.117S140.489,420.134,140.387,420.134Z" transform="translate(-92.47 -317.199)" fill="#263238"/>
    <path id="Path_11919" data-name="Path 11919" d="M153.19,383.08a2.346,2.346,0,0,1-.145.4l-.462,1.1-.334.8c-.111.3-.222.625-.351.967s-.257.719-.394,1.112-.248.856-.385,1.266a52.485,52.485,0,0,0-1.454,6.349,78.649,78.649,0,0,0-.8,7.949,107.807,107.807,0,0,0,.411,14.545c.171,1.848.334,3.345.462,4.381.051.479.094.856.128,1.189a2.568,2.568,0,0,1,0,.419,1.266,1.266,0,0,1-.094-.411c-.06-.308-.12-.7-.205-1.181-.163-1.027-.376-2.524-.573-4.372a96.063,96.063,0,0,1-.522-14.545,72,72,0,0,1,.856-7.983,46.929,46.929,0,0,1,1.54-6.374c.145-.445.257-.856.411-1.266s.291-.761.428-1.1.257-.667.376-.967.257-.548.368-.787c.214-.436.385-.8.53-1.078A1.472,1.472,0,0,1,153.19,383.08Z" transform="translate(-93.672 -322.856)" fill="#263238"/>
    <path id="Path_11920" data-name="Path 11920" d="M151.259,367a4.776,4.776,0,0,1-.171.565c-.128.394-.308.924-.539,1.583-.12.351-.248.736-.394,1.147s-.265.856-.419,1.377c-.3.992-.65,2.113-.967,3.371-.163.633-.342,1.292-.522,1.976s-.317,1.412-.488,2.156c-.359,1.489-.616,3.1-.958,4.783-.565,3.422-1.07,7.136-1.42,11.123s-.471,7.7-.522,11.174,0,6.545.18,9.138c.043,1.3.128,2.473.2,3.508s.12,1.917.188,2.644.094,1.258.128,1.668a3.835,3.835,0,0,1,0,.59,3.185,3.185,0,0,1-.094-.582c-.051-.411-.111-.967-.2-1.66s-.171-1.617-.248-2.644-.2-2.207-.257-3.508c-.171-2.567-.248-5.707-.257-9.155s.171-7.238.5-11.2.856-7.7,1.455-11.123c.342-1.711.616-3.3.992-4.791q.265-1.121.513-2.156c.188-.685.368-1.343.548-1.976.325-1.258.693-2.379,1.018-3.363.163-.488.308-.95.445-1.378s.3-.787.428-1.129c.257-.659.462-1.181.607-1.566A3.108,3.108,0,0,1,151.259,367Z" transform="translate(-93.11 -320.534)" fill="#263238"/>
    <path id="Path_11921" data-name="Path 11921" d="M134.945,423.543a.763.763,0,0,1,0-.2,4.339,4.339,0,0,0-.051-.59c0-.548-.086-1.3-.145-2.259-.128-1.994-.308-4.826-.522-8.316-.453-7.016-1.1-16.71-2.284-27.379-.6-5.33-1.3-10.4-2.028-14.99-.385-2.284-.736-4.466-1.138-6.494s-.761-3.919-1.121-5.638-.719-3.268-1.027-4.629-.59-2.567-.856-3.491-.411-1.668-.539-2.2c-.06-.231-.1-.419-.137-.573s0-.2,0-.2a.626.626,0,0,1,.077.188l.163.565.53,2.165c.265.95.573,2.113.856,3.474s.719,2.9,1.078,4.62.787,3.6,1.164,5.638.779,4.21,1.172,6.5c.744,4.595,1.455,9.66,2.062,15,1.181,10.669,1.788,20.38,2.173,27.379.2,3.517.325,6.357.4,8.325.043.958.068,1.711.086,2.267v.582A1.861,1.861,0,0,1,134.945,423.543Z" transform="translate(-90.306 -317.587)" fill="#263238"/>
    <path id="Path_11922" data-name="Path 11922" d="M137.247,352.768a5.148,5.148,0,0,0-5.134-4.278,8.068,8.068,0,0,0-6.177,3.354,19.4,19.4,0,0,0-2.978,6.605,44.816,44.816,0,0,0-1.822,17.565,26.522,26.522,0,0,0,7.307,15.837,2.288,2.288,0,0,0,3.842.291,39.307,39.307,0,0,0,12.766-29.886,12.158,12.158,0,0,0-1.6-6.434c-1.241-1.865-4.133-3.842-6.237-3.1" transform="translate(-89.707 -317.861)" fill="#37a642"/>
    <path id="Path_11923" data-name="Path 11923" d="M134.86,339.394l-30.8-18.2a1.455,1.455,0,0,1-.753-.762c-.12-.453.222-.856.556-1.232a21.262,21.262,0,0,1,16.479-6.477,18.823,18.823,0,0,1,14.9,9.266c2.977,5.322,3.072,12.355-.342,17.4" transform="translate(-87.158 -312.692)" fill="#37a642"/>
    <path id="Path_11924" data-name="Path 11924" d="M109.34,315.822l.4-.051c.265,0,.659-.06,1.164-.051a22.822,22.822,0,0,1,4.278.334,25.043,25.043,0,0,1,19.97,18.07,23.591,23.591,0,0,1,.762,4.218,8.266,8.266,0,0,1,0,.856,1.532,1.532,0,0,1-.231.676,5.135,5.135,0,0,0,0-1.557,26.052,26.052,0,0,0-.856-4.167,25.215,25.215,0,0,0-19.756-17.882,27.388,27.388,0,0,0-4.278-.453A10.2,10.2,0,0,1,109.34,315.822Z" transform="translate(-88.033 -313.129)" fill="#263238"/>
    <path id="Path_11925" data-name="Path 11925" d="M133.431,329.22a7.417,7.417,0,0,1-1.557.71c-.984.385-2.353.856-3.893,1.369s-2.943.856-3.97,1.129a7.209,7.209,0,0,1-1.711.317,8.616,8.616,0,0,1,1.617-.573l3.927-1.223,3.919-1.266A7.991,7.991,0,0,1,133.431,329.22Z" transform="translate(-89.904 -315.079)" fill="#263238"/>
    <path id="Path_11926" data-name="Path 11926" d="M129.618,314a12.646,12.646,0,0,1,.368,3.422,13.305,13.305,0,0,1-.188,3.422,22.03,22.03,0,0,1-.18-3.422A21.394,21.394,0,0,1,129.618,314Z" transform="translate(-90.951 -312.881)" fill="#263238"/>
    <path id="Path_11927" data-name="Path 11927" d="M103.83,321.59a12.838,12.838,0,0,1,2.242-.787c1.395-.436,3.345-.984,5.527-1.506s4.158-.924,5.6-1.181a13.031,13.031,0,0,1,2.353-.317,16.408,16.408,0,0,1-2.3.573c-1.429.317-3.422.762-5.57,1.283s-4.124,1.027-5.544,1.395A16.529,16.529,0,0,1,103.83,321.59Z" transform="translate(-87.237 -313.43)" fill="#263238"/>
    <path id="Path_11928" data-name="Path 11928" d="M119.143,346.972c-2.652-2.011-5.45-2.4-8.778-2.276a26.824,26.824,0,0,0-9.617,2.481c-5.2,2.276-10.088,5.638-13.193,10.387s-4.192,11.046-1.865,16.256a2.3,2.3,0,0,0,1.052,1.275,2.567,2.567,0,0,0,1.711-.128c5.912-1.934,11.867-3.876,17.309-6.9s10.387-7.221,13.3-12.714a10.841,10.841,0,0,0,1.4-4.218,5.262,5.262,0,0,0-1.36-4.124" transform="translate(-84.437 -317.31)" fill="#37a642"/>
    <path id="Path_11929" data-name="Path 11929" d="M119.525,346.63a3.1,3.1,0,0,1-.428.171l-1.241.428-.856.3-1.044.411c-.753.3-1.617.607-2.567,1.044l-1.455.667c-.5.231-1,.513-1.54.787-1.07.522-2.156,1.2-3.311,1.882A52.464,52.464,0,0,0,94.028,363.8c-.856,1.052-1.626,2.045-2.284,3.046-.342.488-.684.95-.984,1.42s-.565.924-.856,1.352c-.556.856-.967,1.711-1.36,2.379-.2.359-.385.685-.539.993l-.411.856c-.24.488-.428.856-.582,1.172a2.166,2.166,0,0,1-.222.4,1.866,1.866,0,0,1,.154-.428l.522-1.206q.171-.4.385-.856c.145-.308.325-.642.513-1,.376-.719.77-1.549,1.318-2.413l.856-1.378c.291-.479.633-.941.967-1.446.659-1.01,1.454-2.011,2.276-3.089a56.958,56.958,0,0,1,6.023-6.391,56.365,56.365,0,0,1,7.067-5.2c1.172-.676,2.267-1.343,3.354-1.865.539-.265,1.044-.548,1.557-.77l1.463-.65c.933-.428,1.814-.71,2.567-1,.385-.137.736-.274,1.061-.376l.915-.274,1.258-.359A2.656,2.656,0,0,1,119.525,346.63Z" transform="translate(-84.777 -317.593)" fill="#263238"/>
    <path id="Path_11930" data-name="Path 11930" d="M98.625,359.75a63.251,63.251,0,0,1-6.451,2.079,62.387,62.387,0,0,1-6.554,1.711,64.171,64.171,0,0,1,6.451-2.079,59.871,59.871,0,0,1,6.554-1.711Z" transform="translate(-84.608 -319.487)" fill="#263238"/>
    <path id="Path_11931" data-name="Path 11931" d="M100.487,374.074a11.525,11.525,0,0,1-.137-2.011c0-1.241,0-2.96,0-4.86s.163-3.611.265-4.851a10.549,10.549,0,0,1,.248-2,11.868,11.868,0,0,1,0,2.019c0,1.36-.094,3.012-.145,4.843s-.094,3.491-.128,4.851A9.907,9.907,0,0,1,100.487,374.074Z" transform="translate(-86.734 -319.574)" fill="#263238"/>
    <path id="Path_11932" data-name="Path 11932" d="M114.583,366.485c-.1,0-.428-3.482-.727-7.795s-.453-7.812-.351-7.82.428,3.482.719,7.795S114.685,366.485,114.583,366.485Z" transform="translate(-88.63 -318.205)" fill="#263238"/>
    <path id="Path_11933" data-name="Path 11933" d="M97,350.456a11.735,11.735,0,0,1,2.071-.06c1.275,0,3.037.043,4.98.111s3.7.145,4.98.214a11.227,11.227,0,0,1,2.062.205,11.752,11.752,0,0,1-2.071.06c-1.275,0-3.037-.051-4.98-.111s-3.7-.145-4.98-.222a10.869,10.869,0,0,1-2.062-.2Z" transform="translate(-86.251 -318.134)" fill="#263238"/>
    <path id="Path_11934" data-name="Path 11934" d="M131.228,393.4a1.224,1.224,0,0,1-.051-.411q0-.462-.051-1.181c0-1.035-.06-2.524,0-4.372s.163-4.038.376-6.468.59-5.091,1.087-7.863,1.129-5.39,1.754-7.752,1.309-4.458,1.925-6.2,1.155-3.14,1.557-4.09c.2-.445.351-.813.471-1.1a2.39,2.39,0,0,1,.188-.376,1.653,1.653,0,0,1-.12.4c-.1.291-.24.659-.4,1.121-.368.958-.856,2.37-1.446,4.124s-1.215,3.85-1.84,6.2-1.215,4.963-1.711,7.7-.856,5.416-1.112,7.837-.394,4.6-.462,6.443-.094,3.328-.094,4.355v1.189a2.487,2.487,0,0,1-.069.436Z" transform="translate(-91.175 -318.598)" fill="#263238"/>
    <path id="Path_11935" data-name="Path 11935" d="M131.567,376.52a8.782,8.782,0,0,1-1.232,1.352c-.8.8-1.934,1.865-3.226,2.995s-2.5,2.122-3.422,2.806a8.2,8.2,0,0,1-1.5,1.044,9.483,9.483,0,0,1,1.335-1.241l3.32-2.883,3.286-2.909A9.412,9.412,0,0,1,131.567,376.52Z" transform="translate(-89.888 -321.909)" fill="#263238"/>
    <path id="Path_11936" data-name="Path 11936" d="M143.089,383.6a12.155,12.155,0,0,1-1.309-1.814l-3.055-4.449-3.106-4.4a14.043,14.043,0,0,1-1.249-1.865,12.652,12.652,0,0,1,1.455,1.711c.856,1.087,2,2.618,3.208,4.355s2.242,3.337,2.96,4.518A12.38,12.38,0,0,1,143.089,383.6Z" transform="translate(-91.647 -321.122)" fill="#263238"/>
    <path id="Path_11937" data-name="Path 11937" d="M136.1,356.81c.051.086-3.191,2.267-7.247,4.877s-7.384,4.646-7.435,4.56,3.183-2.267,7.238-4.877S136.042,356.724,136.1,356.81Z" transform="translate(-89.777 -319.062)" fill="#263238"/>
    <path id="Path_11938" data-name="Path 11938" d="M147.657,366.766a58.484,58.484,0,0,1-4.911-4.526,63.83,63.83,0,0,1-4.646-4.8,59.589,59.589,0,0,1,4.911,4.535A62.848,62.848,0,0,1,147.657,366.766Z" transform="translate(-92.186 -319.154)" fill="#263238"/>
    <path id="Path_11939" data-name="Path 11939" d="M152,364.667l2.789-.231a13.69,13.69,0,0,0,5.621-1.711,23.411,23.411,0,0,1,2.618-1.318c3.422-1.378,7.281-1.129,10.986-1.318a45.45,45.45,0,0,0,17.48-4.466,1.711,1.711,0,0,0,.762-.693c.573-1.044-.488-1.968-1.4-2.567-4.689-2.892-9.463-5.818-14.785-7.256s-11.354-1.189-15.9,1.934c-5.322,3.671-7.264,11.2-8.171,17.6" transform="translate(-94.193 -317.251)" fill="#37a642"/>
    <path id="Path_11940" data-name="Path 11940" d="M192.272,355.032a3.075,3.075,0,0,1-.471-.222l-1.318-.693c-1.146-.6-2.8-1.489-4.877-2.481a44.712,44.712,0,0,0-7.546-2.909,24.882,24.882,0,0,0-9.805-.813,16.727,16.727,0,0,0-8.915,3.833,19.773,19.773,0,0,0-4.646,6.52c-.975,2.079-1.574,3.859-2.019,5.074l-.5,1.4a2.866,2.866,0,0,1-.188.479,2.147,2.147,0,0,1,.12-.5c.111-.359.257-.856.428-1.429a47.2,47.2,0,0,1,1.925-5.134,19.68,19.68,0,0,1,4.646-6.665,16.975,16.975,0,0,1,9.146-3.927,24.916,24.916,0,0,1,9.916.856,44.846,44.846,0,0,1,7.572,3c2.071,1.035,3.7,1.959,4.826,2.567l1.283.753A2.62,2.62,0,0,1,192.272,355.032Z" transform="translate(-94.191 -317.704)" fill="#263238"/>
    <path id="Path_11941" data-name="Path 11941" d="M188.549,358.692c-.06.086-3.7-2.276-8.137-5.262s-7.983-5.484-7.923-5.57,3.7,2.276,8.137,5.262S188.6,358.606,188.549,358.692Z" transform="translate(-97.151 -317.77)" fill="#263238"/>
    <path id="Path_11942" data-name="Path 11942" d="M185.816,347.64a9.3,9.3,0,0,1-2.652.479,8.9,8.9,0,0,1-2.7-.043,17.957,17.957,0,0,1,2.669-.265,17.98,17.98,0,0,1,2.687-.171Z" transform="translate(-98.302 -317.739)" fill="#263238"/>
    <path id="Path_11943" data-name="Path 11943" d="M167.634,345.21a7.04,7.04,0,0,1-1.2,1.865,7.911,7.911,0,0,1-1.506,1.711,6.843,6.843,0,0,1,1.189-1.865A8.08,8.08,0,0,1,167.634,345.21Z" transform="translate(-96.06 -317.388)" fill="#263238"/>
    <path id="Path_11944" data-name="Path 11944" d="M170.031,361.679a9.259,9.259,0,0,1-1.754-.95c-1.044-.633-2.473-1.574-3.987-2.669s-2.858-2.148-3.825-2.909a10.581,10.581,0,0,1-1.506-1.3,10.561,10.561,0,0,1,1.668,1.087l3.876,2.823c1.514,1.1,2.909,2.062,3.919,2.755A12.178,12.178,0,0,1,170.031,361.679Z" transform="translate(-95.198 -318.635)" fill="#263238"/>
    <path id="Path_11945" data-name="Path 11945" d="M155.648,381.728c-2.661-.7-5.827,1.874-6.374,4.569s.462,5.442,1.643,7.923A40.469,40.469,0,0,0,161.9,408.585a27.191,27.191,0,0,0,16.787,6.186c-1.121-5.219.3-10.661-.325-15.957a20.765,20.765,0,0,0-18.387-18.207c-1.711-.18-3.653-.445-4.329,1.121" transform="translate(-93.777 -322.479)" fill="#37a642"/>
    <path id="Path_11946" data-name="Path 11946" d="M179.791,414.983a1.867,1.867,0,0,1-.376-.18,6.421,6.421,0,0,1-.992-.667,10.318,10.318,0,0,1-2.627-3.508c-.419-.856-.856-1.711-1.352-2.7s-.933-2.045-1.429-3.157a31.9,31.9,0,0,0-1.763-3.371,26.445,26.445,0,0,0-2.413-3.286c-1.814-2.139-3.765-3.987-5.459-5.75a36.193,36.193,0,0,1-4.158-5,18.139,18.139,0,0,1-2.036-3.884,11.871,11.871,0,0,1-.359-1.138,1.222,1.222,0,0,1-.077-.4s.18.539.565,1.489a20.129,20.129,0,0,0,2.122,3.79,38.722,38.722,0,0,0,4.192,4.9c1.711,1.711,3.653,3.594,5.493,5.75a26.829,26.829,0,0,1,2.447,3.337,31.652,31.652,0,0,1,1.754,3.422l1.395,3.166c.445.984.907,1.891,1.318,2.712a10.5,10.5,0,0,0,2.481,3.517C179.287,414.692,179.817,414.941,179.791,414.983Z" transform="translate(-94.879 -322.692)" fill="#263238"/>
    <path id="Path_11947" data-name="Path 11947" d="M167.63,413.5a8.182,8.182,0,0,1,.248-1.788c.205-1.1.548-2.567,1.01-4.227s.95-3.1,1.343-4.133a8.035,8.035,0,0,1,.727-1.651,9.84,9.84,0,0,1-.479,1.711c-.325,1.061-.779,2.524-1.241,4.158s-.856,3.106-1.1,4.184A9.41,9.41,0,0,1,167.63,413.5Z" transform="translate(-96.45 -325.545)" fill="#263238"/>
    <path id="Path_11948" data-name="Path 11948" d="M180.938,400.046a10.565,10.565,0,0,1-1.865-.428c-1.146-.3-2.729-.71-4.483-1.1s-3.363-.7-4.526-.924a11.533,11.533,0,0,1-1.874-.411,8.765,8.765,0,0,1,1.917.154,41.747,41.747,0,0,1,4.56.856c1.763.436,3.345.856,4.475,1.215a9.014,9.014,0,0,1,1.8.642Z" transform="translate(-96.531 -324.892)" fill="#263238"/>
    <path id="Path_11949" data-name="Path 11949" d="M156.12,402.558a10.471,10.471,0,0,1,.282-2.071c.231-1.266.608-3.012,1.1-4.911s1.027-3.611,1.437-4.826a11.866,11.866,0,0,1,.761-1.951,12.14,12.14,0,0,1-.5,2.028c-.359,1.232-.856,2.943-1.335,4.843s-.907,3.619-1.206,4.877A13.258,13.258,0,0,1,156.12,402.558Z" transform="translate(-94.788 -323.682)" fill="#263238"/>
    <path id="Path_11950" data-name="Path 11950" d="M173.508,387.236c0,.1-3.32-.171-7.4-.6a69.935,69.935,0,0,1-7.367-.967,72.848,72.848,0,0,1,7.41.6A72.311,72.311,0,0,1,173.508,387.236Z" transform="translate(-95.166 -323.23)" fill="#263238"/>
    <path id="Path_11951" data-name="Path 11951" d="M164.346,434.45c0,.1-11.645.188-26.019.188s-26.027-.086-26.027-.188,11.653-.18,26.027-.18S164.346,434.347,164.346,434.45Z" transform="translate(-88.46 -330.248)" fill="#455a64"/>
    <path id="Path_11952" data-name="Path 11952" d="M157.741,451.968c0,.1-7.854.18-17.531.18s-17.54-.077-17.54-.18,7.854-.188,17.54-.188S157.741,451.874,157.741,451.968Z" transform="translate(-89.958 -332.776)" fill="#455a64"/>
    <path id="Path_11953" data-name="Path 11953" d="M157.485,454.48c0,.1-7.7.188-17.223.188s-17.232-.086-17.232-.188,7.7-.18,17.232-.18S157.485,454.377,157.485,454.48Z" transform="translate(-90.01 -333.14)" fill="#455a64"/>
    <path id="Path_11954" data-name="Path 11954" d="M157.878,449.91c0,.1-8.12.188-18.139.188s-18.139-.086-18.139-.188,8.12-.18,18.139-.18S157.878,449.807,157.878,449.91Z" transform="translate(-89.803 -332.48)" fill="#455a64"/>
  </g>
  <g id="freepik--speech-bubble--inject-2" transform="translate(242.225 5.239)">
    <path id="Path_11955" data-name="Path 11955" d="M316.33,97.114l6.46-11.38a30.494,30.494,0,1,1,7.307,8.128h0Z" transform="translate(-316.33 -39.182)" fill="#fff"/>
    <path id="Path_11956" data-name="Path 11956" d="M316.33,97.1l13.75-3.32-.051.154h0a.094.094,0,0,1,.12-.145,31.379,31.379,0,0,0,6.237,3.722,30.861,30.861,0,0,0,8.3,2.327,27.377,27.377,0,0,0,4.774.222c.856-.051,1.66-.068,2.5-.145l2.567-.394A30.408,30.408,0,0,0,373.347,87.4a30.007,30.007,0,0,0,5.074-11.636,30.631,30.631,0,0,0-.368-13.373,29.673,29.673,0,0,0-6.443-12.372l-1.232-1.352a11.383,11.383,0,0,0-1.326-1.241,16.311,16.311,0,0,0-1.36-1.189l-1.437-1.078a12.259,12.259,0,0,0-1.532-1l-1.523-.924-1.6-.787a14.907,14.907,0,0,0-1.609-.719,30.8,30.8,0,0,0-13.484-2.079A29.621,29.621,0,0,0,334.118,43.3a30.639,30.639,0,0,0-14.34,17.566,32.867,32.867,0,0,0-1.343,9.814,30.279,30.279,0,0,0,4.458,14.99.111.111,0,0,1,0,.1c-4.167,7.221-6.2,10.738-6.545,11.328l6.374-11.431v.1a30.306,30.306,0,0,1-4.56-15.093,32.984,32.984,0,0,1,1.309-9.925,30.9,30.9,0,0,1,14.46-17.8,30.04,30.04,0,0,1,12.543-3.7,30.9,30.9,0,0,1,13.69,2.1,13.208,13.208,0,0,1,1.634.727l1.617.787,1.549.933a15.972,15.972,0,0,1,1.514,1l1.437,1.07a18.288,18.288,0,0,1,1.378,1.206c.445.419.933.8,1.343,1.258l1.241,1.378A29.946,29.946,0,0,1,378.4,62.237a30.921,30.921,0,0,1,.359,13.578,30.418,30.418,0,0,1-5.134,11.773,30.8,30.8,0,0,1-19.08,12.227l-2.567.385c-.856.068-1.711.094-2.524.137a27.114,27.114,0,0,1-4.826-.24,30.8,30.8,0,0,1-8.351-2.387,31.662,31.662,0,0,1-6.263-3.782l.137-.137h0a.1.1,0,0,1,0,.145h0Z" transform="translate(-316.33 -39.171)" fill="#263238"/>
    <path id="Path_11957" data-name="Path 11957" d="M348.1,68.925h1.985l4.329-5.989v-4s3.063-.2,2.7,4.988,0,3.859,0,3.859,6.5,0,7.042.59c.394.411.573,6.845.642,10.378a3.8,3.8,0,0,1-2.687,3.825,2.824,2.824,0,0,1-.7.094c-1.626,0-9.916-1.318-9.916-1.318H348.07Z" transform="translate(-320.913 -42.025)" fill="#ff6340"/>
    <path id="Path_11958" data-name="Path 11958" d="M341.47,69.34l1.224,13.553h3.388V69.614Z" transform="translate(-319.96 -43.527)" fill="#ff6340"/>
  </g>
  <g id="freepik--Character--inject-2" transform="translate(120.663)">
    <path id="Path_11959" data-name="Path 11959" d="M225.582,103.36a29.091,29.091,0,0,1-15.983,4.56,53.6,53.6,0,0,0-5.373-.06,8.146,8.146,0,0,0-4.911,1.908,4.475,4.475,0,0,0-1.266,4.885c1.01,2.31,4.278,3.226,4.774,5.7.359,1.78-.967,3.474-2.464,4.509s-3.243,1.711-4.5,3.029a6.186,6.186,0,0,0,3.072,10.319c1.275.3,2.841.308,3.534,1.42a4.021,4.021,0,0,1,.188,2.678,9.514,9.514,0,0,0,.727,5.63,5.228,5.228,0,0,0,4.595,2.969c.753,0,1.489-.257,2.242-.24a1.857,1.857,0,0,1,1.805,1.087,3.911,3.911,0,0,1-.068,1.54c-.274,2.524,2.242,4.5,4.68,5.219,4.868,1.455,10.267.051,14.408-2.943s6.973-7.427,8.9-12.132a82.366,82.366,0,0,0,3.987-14.682" transform="translate(-177.112 -42.643)" fill="#263238"/>
    <path id="Path_11960" data-name="Path 11960" d="M283.619,248.215a10.541,10.541,0,0,0-2.4-3.585c-6.443-6.845-16.205-10.139-25.591-9.6s-18.378,4.62-25.668,10.532c-3.893,3.157-9.146,9.24-10.515,14.066,5.715,1.378,14.254-.539,19.679-2.892s10.729-5.194,16.573-5.792c6.776-.693,13.433,1.711,20.107,3.072a12.884,12.884,0,0,0,4.081.325,4.86,4.86,0,0,0,3.474-1.951A4.766,4.766,0,0,0,283.619,248.215Z" transform="translate(-180.767 -60.746)" fill="#ff725e"/>
    <g id="Group_4696" data-name="Group 4696" transform="translate(38.673 174.227)" opacity="0.3">
      <path id="Path_11961" data-name="Path 11961" d="M283.619,248.215a10.541,10.541,0,0,0-2.4-3.585c-6.443-6.845-16.205-10.139-25.591-9.6s-18.378,4.62-25.668,10.532c-3.893,3.157-9.146,9.24-10.515,14.066,5.715,1.378,14.254-.539,19.679-2.892s10.729-5.194,16.573-5.792c6.776-.693,13.433,1.711,20.107,3.072a12.884,12.884,0,0,0,4.081.325,4.86,4.86,0,0,0,3.474-1.951A4.766,4.766,0,0,0,283.619,248.215Z" transform="translate(-219.44 -234.973)" fill="#7bb6dd"/>
    </g>
    <path id="Path_11962" data-name="Path 11962" d="M287.358,340.529l16.316-10.567s16.256,13.031,19.431,11.371L303.734,309l-26.1,15.4Z" transform="translate(-189.169 -70.857)" fill="#fc5f2d"/>
    <path id="Path_11963" data-name="Path 11963" d="M299.412,322.462a1.54,1.54,0,0,1,.958-1.822,1.48,1.48,0,0,1,1.814.941,1.626,1.626,0,0,1-1.027,1.917,1.54,1.54,0,0,1-1.78-1.181" transform="translate(-192.308 -72.616)" fill="#e0e0e0"/>
    <g id="Group_4697" data-name="Group 4697" transform="translate(111.998 238.144)" opacity="0.6">
      <path id="Path_11964" data-name="Path 11964" d="M307.707,309l-2.567,1.66L324.7,341.034s1.489,1.07,2.4.3Z" transform="translate(-305.14 -309)" fill="#fff"/>
    </g>
    <path id="Path_11965" data-name="Path 11965" d="M308.088,333.541c.154-.094-.248-.933-.205-2.011s.462-1.891.317-2-.924.676-.95,1.985S307.969,333.669,308.088,333.541Z" transform="translate(-193.446 -73.84)" fill="#263238"/>
    <path id="Path_11966" data-name="Path 11966" d="M312.184,336.613c.171-.051,0-.856.376-1.839s.967-1.514.856-1.668-1.052.282-1.463,1.455S312.03,336.7,312.184,336.613Z" transform="translate(-194.102 -74.332)" fill="#263238"/>
    <path id="Path_11967" data-name="Path 11967" d="M318,336.612c-.06-.163-.975.094-1.6,1.018s-.522,1.865-.351,1.857.359-.744.856-1.5S318.076,336.783,318,336.612Z" transform="translate(-194.698 -74.816)" fill="#263238"/>
    <path id="Path_11968" data-name="Path 11968" d="M303.235,335.968c.111-.154-.548-.753-1.018-1.711s-.608-1.8-.8-1.8-.342,1,.231,2.1S303.158,336.122,303.235,335.968Z" transform="translate(-192.58 -74.247)" fill="#263238"/>
    <path id="Path_11969" data-name="Path 11969" d="M291.4,318.49l7.418,16.924-2.49,1.763-8.556-16.5Z" transform="translate(-190.634 -72.241)" opacity="0.3"/>
    <path id="Path_11970" data-name="Path 11970" d="M266.7,240.879c-.667,0-22.614-.488-34.464,7.341l-9.412,5.288.248,9.5s-2.011,3.354-1.566,5.365-.06,10.507-.06,10.507-3.516.222-3.961,6.263c0,0-4.877,2.011-7.016,5.587s-24.06,43.815-25.394,50.3-2.242,17.882,2.678,21.681,15.931,2.456,15.931,2.456,1.566,4.7,11.183,4.92,24.359-10.952,24.359-10.952l44.269-30.177-10.507-22.425-15.461,9.454,16.539-19.225s7.606-12.962,5.365-26.6C277.776,260.036,266.7,240.879,266.7,240.879Z" transform="translate(-175.652 -60.897)" fill="#263238"/>
    <path id="Path_11971" data-name="Path 11971" d="M277.1,248.949h-7.487a76.291,76.291,0,0,0-8.094.436,44.763,44.763,0,0,0-9.668,2.019c-6.682,2.259-12.055,5.844-15.88,8.4l-4.5,3.114-1.224.856a1.885,1.885,0,0,1-.445.265,4.091,4.091,0,0,1,.385-.342l1.181-.907c1.035-.787,2.567-1.908,4.423-3.243a63.282,63.282,0,0,1,15.914-8.556,43.875,43.875,0,0,1,9.771-2.011,79.308,79.308,0,0,1,8.137-.334c2.31,0,4.184.086,5.476.154l1.489.086A1.969,1.969,0,0,1,277.1,248.949Z" transform="translate(-182.263 -62.665)" fill="#455a64"/>
    <path id="Path_11972" data-name="Path 11972" d="M232.111,257.106a2.567,2.567,0,0,0-.693,1.283,1.523,1.523,0,0,0,.462,1.378,1.578,1.578,0,0,0,2.7-1.078,1.532,1.532,0,0,0-.607-1.326,2.482,2.482,0,0,0-1.395-.445.733.733,0,0,1,.419-.128,1.84,1.84,0,0,1,1.155.325,1.814,1.814,0,0,1,.856,1.591,1.968,1.968,0,0,1-3.422,1.36,1.857,1.857,0,0,1-.5-1.711,1.934,1.934,0,0,1,.616-1.035C231.948,257.115,232.1,257.08,232.111,257.106Z" transform="translate(-182.443 -63.833)" fill="#455a64"/>
    <path id="Path_11973" data-name="Path 11973" d="M241.134,257.473c-.043.043-.351-.188-.787-.633a4.03,4.03,0,0,1-1.069-4.586c.2-.6.376-.941.428-.924a2.726,2.726,0,0,1-.12,1,5.672,5.672,0,0,0-.077,2.284,5.809,5.809,0,0,0,1.078,2.019C240.946,257.122,241.177,257.43,241.134,257.473Z" transform="translate(-183.587 -63.073)" fill="#455a64"/>
    <path id="Path_11974" data-name="Path 11974" d="M243.31,256.22c0,.043-.342-.145-.744-.565a5.458,5.458,0,0,1-1.164-5.125c.154,0,0,1.42.471,3.02a12.588,12.588,0,0,0,1.437,2.669Z" transform="translate(-183.905 -62.965)" fill="#455a64"/>
    <path id="Path_11975" data-name="Path 11975" d="M270.906,247.955c-.068,0-.094-.4-.154-1.035a8.409,8.409,0,0,0-.539-2.353,6.663,6.663,0,0,0-1.335-1.994c-.428-.462-.7-.753-.659-.8s.385.154.856.573A5.484,5.484,0,0,1,270.6,244.4a6.322,6.322,0,0,1,.445,2.515A2.25,2.25,0,0,1,270.906,247.955Z" transform="translate(-187.81 -61.757)" fill="#455a64"/>
    <path id="Path_11976" data-name="Path 11976" d="M274.408,247.917c-.068,0-.077-.4-.068-1.027a8.225,8.225,0,0,0-.2-2.361,10.14,10.14,0,0,0-1.112-2.1c-.334-.53-.513-.856-.462-.915s.325.248.719.736a7.213,7.213,0,0,1,1.283,2.156,5.914,5.914,0,0,1,.077,2.515A2.671,2.671,0,0,1,274.408,247.917Z" transform="translate(-188.437 -61.72)" fill="#455a64"/>
    <path id="Path_11977" data-name="Path 11977" d="M230.49,346.311a4.279,4.279,0,0,1,.4-1c.3-.642.761-1.574,1.369-2.764,1.215-2.387,3-5.818,5.245-10.045,4.483-8.453,10.746-20.1,17.72-32.924l5.134-9.369a41.582,41.582,0,0,0,1.3-36.568c-.539-1.224-1.01-2.148-1.335-2.772l-.376-.71a1.585,1.585,0,0,1-.111-.248,1.405,1.405,0,0,1,.154.231l.411.684c.351.607.856,1.523,1.42,2.738a41.017,41.017,0,0,1,2.473,27.585,41.668,41.668,0,0,1-3.619,9.275c-1.643,3.02-3.345,6.152-5.082,9.36l-17.822,32.864-5.373,9.976-1.446,2.721-.359.719A1.558,1.558,0,0,1,230.49,346.311Z" transform="translate(-182.363 -62.382)" fill="#455a64"/>
    <path id="Path_11978" data-name="Path 11978" d="M280.05,328.74a3.757,3.757,0,0,1-.479.342l-1.42.856-5.245,3.3c-4.423,2.738-10.515,6.545-17.18,10.858s-12.637,8.274-16.915,11.166l-5.134,3.422-1.412.907a3.308,3.308,0,0,1-.5.3,2.564,2.564,0,0,1,.453-.368l1.36-.984,5.048-3.534c4.278-2.952,10.267-6.99,16.9-11.311s12.791-8.085,17.258-10.746c2.233-1.335,4.056-2.4,5.313-3.114l1.463-.856A3.338,3.338,0,0,1,280.05,328.74Z" transform="translate(-182.546 -73.57)" fill="#455a64"/>
    <path id="Path_11979" data-name="Path 11979" d="M294.525,342.708a4.657,4.657,0,0,1-.411-.856l-1.07-2.43c-.924-2.045-2.242-4.851-3.722-7.94s-2.764-5.8-3.773-7.923l-1.121-2.413a4.28,4.28,0,0,1-.359-.907,3.826,3.826,0,0,1,.513.856c.308.556.736,1.352,1.249,2.353,1.027,1.994,2.421,4.774,3.893,7.872s2.755,5.921,3.611,8.008c.428,1.035.744,1.891.941,2.49A4.446,4.446,0,0,1,294.525,342.708Z" transform="translate(-190.099 -72.459)" fill="#455a64"/>
    <path id="Path_11980" data-name="Path 11980" d="M230.49,357.592c-.077-.094,7.487-6.785,16.907-14.947s17.112-14.7,17.2-14.605-7.487,6.811-16.907,14.939S230.575,357.686,230.49,357.592Z" transform="translate(-182.362 -73.484)" fill="#455a64"/>
    <path id="Path_11981" data-name="Path 11981" d="M219.53,378.19a10.7,10.7,0,0,0,1.822-2.028c.915-1.42,2.036-3.508,3.3-5.775s2.336-4.381,3.123-5.9a18.122,18.122,0,0,1,1.335-2.421,15.5,15.5,0,0,1-1.052,2.567c-.719,1.557-1.763,3.679-3.012,5.989a61.558,61.558,0,0,1-3.422,5.741,6.987,6.987,0,0,1-1.42,1.48A1.916,1.916,0,0,1,219.53,378.19Z" transform="translate(-180.78 -78.241)" fill="#455a64"/>
    <path id="Path_11982" data-name="Path 11982" d="M228.9,380.686c-.068,0,.419-.967.958-2.567a33.567,33.567,0,0,0,1.386-6.451,23.707,23.707,0,0,0,0-6.571,6.964,6.964,0,0,0-.573-1.882,3.738,3.738,0,0,1-.376-.625,2.447,2.447,0,0,1,.522.539,5.818,5.818,0,0,1,.736,1.908,20.98,20.98,0,0,1,.171,6.682,27.533,27.533,0,0,1-1.54,6.511,13.683,13.683,0,0,1-.856,1.84A2.664,2.664,0,0,1,228.9,380.686Z" transform="translate(-182.132 -78.3)" fill="#455a64"/>
    <path id="Path_11983" data-name="Path 11983" d="M218.07,367.687a7.7,7.7,0,0,1,1.711-.548,27.124,27.124,0,0,0,3.944-1.4,40.874,40.874,0,0,0,5.014-3.157,5.7,5.7,0,0,1-1.318,1.215,15.565,15.565,0,0,1-3.585,2.31,19.129,19.129,0,0,1-4.056,1.309A6.413,6.413,0,0,1,218.07,367.687Z" transform="translate(-180.569 -78.381)" fill="#455a64"/>
    <path id="Path_11984" data-name="Path 11984" d="M227.209,295.89a.857.857,0,0,1-.12.18l-.376.5c-.334.445-.813,1.1-1.386,1.976a44.365,44.365,0,0,0-4.056,7.889,102.923,102.923,0,0,0-3.91,12.577,128.829,128.829,0,0,1-4.714,15.486c-2.148,5.339-4.937,10.079-6.7,14.716a36.139,36.139,0,0,0-2.661,12.791,22.248,22.248,0,0,0,.565,4.988,21.64,21.64,0,0,0,1.223,3.6,21.188,21.188,0,0,0,1.1,2.148c.12.222.222.4.308.548a1.221,1.221,0,0,1,.094.2.863.863,0,0,1-.137-.171l-.342-.522a19.292,19.292,0,0,1-1.189-2.122,20.849,20.849,0,0,1-1.3-3.619A22.373,22.373,0,0,1,202.97,362a35.713,35.713,0,0,1,2.567-12.937c1.754-4.68,4.466-9.463,6.665-14.742s3.422-10.627,4.723-15.4a99.634,99.634,0,0,1,4.021-12.595,41.563,41.563,0,0,1,4.2-7.863c.6-.856,1.1-1.514,1.463-1.934l.411-.479A.849.849,0,0,0,227.209,295.89Z" transform="translate(-178.389 -68.757)" fill="#455a64"/>
    <path id="Path_11985" data-name="Path 11985" d="M232.532,264.33a8.425,8.425,0,0,1-.445,1.044,12.091,12.091,0,0,0-.856,2.943,14.151,14.151,0,0,0,.154,4.518c.265,1.711.975,3.422,1.455,5.425a9.217,9.217,0,0,1,.248,2.96,17.436,17.436,0,0,1-.436,2.712,42.783,42.783,0,0,1-1.326,4.424c-.436,1.241-.856,2.225-1.1,2.909a5.138,5.138,0,0,1-.471,1.035,6.223,6.223,0,0,1,.308-1.1c.257-.779.573-1.771.958-2.952s.856-2.729,1.224-4.415a11.534,11.534,0,0,0,.154-5.476c-.462-1.908-1.181-3.713-1.42-5.459a13.689,13.689,0,0,1-.068-4.637,10.4,10.4,0,0,1,1-2.96,6.534,6.534,0,0,1,.419-.736A.855.855,0,0,1,232.532,264.33Z" transform="translate(-182.257 -64.759)" fill="#455a64"/>
    <path id="Path_11986" data-name="Path 11986" d="M234.2,289.646A10.84,10.84,0,0,0,236.356,286a13.689,13.689,0,0,0,.667-4.535,32.106,32.106,0,0,0-.7-5.63,54.547,54.547,0,0,1-.95-5.655,22.083,22.083,0,0,1,.094-4.706,12.874,12.874,0,0,1,.753-3.08,5.9,5.9,0,0,1,.359-.779c.1-.171.154-.257.171-.257s-.145.394-.368,1.1a15.062,15.062,0,0,0-.607,3.063,24.462,24.462,0,0,0,0,4.62c.163,1.711.59,3.619.975,5.613a30.143,30.143,0,0,1,.676,5.715,13.218,13.218,0,0,1-.787,4.637,8.829,8.829,0,0,1-1.591,2.755,6.51,6.51,0,0,1-.616.608C234.294,289.595,234.209,289.655,234.2,289.646Z" transform="translate(-182.898 -64.35)" fill="#455a64"/>
    <path id="Path_11987" data-name="Path 11987" d="M255.348,286.536a5.486,5.486,0,0,1-1.035.188c-.667.086-1.634.24-2.815.445a59.4,59.4,0,0,0-9.086,2.327,60.281,60.281,0,0,0-8.6,3.756c-1.061.573-1.908,1.044-2.49,1.386a4.448,4.448,0,0,1-.933.488,4.834,4.834,0,0,1,.856-.633c.556-.385,1.386-.907,2.43-1.514a50.163,50.163,0,0,1,17.771-6.126c1.2-.163,2.173-.265,2.849-.3A4.286,4.286,0,0,1,255.348,286.536Z" transform="translate(-182.348 -67.9)" fill="#455a64"/>
    <path id="Path_11988" data-name="Path 11988" d="M257.967,275.618c0,.086-1.266.068-3.26.376a24.158,24.158,0,0,0-13.681,7.187c-1.386,1.463-2.088,2.516-2.156,2.464a3.123,3.123,0,0,1,.445-.77,16.017,16.017,0,0,1,1.48-1.908,21.076,21.076,0,0,1,2.567-2.49,24.9,24.9,0,0,1,3.679-2.413,25.192,25.192,0,0,1,4.09-1.66,21.067,21.067,0,0,1,3.516-.719,16.018,16.018,0,0,1,2.421-.137A3.861,3.861,0,0,1,257.967,275.618Z" transform="translate(-183.573 -66.386)" fill="#455a64"/>
    <path id="Path_11989" data-name="Path 11989" d="M259.487,298.51a4.588,4.588,0,0,1-.958.368c-.633.205-1.532.513-2.652.907a82.415,82.415,0,0,0-8.5,3.585,80.178,80.178,0,0,0-8.008,4.552c-.992.642-1.788,1.172-2.336,1.549a4.667,4.667,0,0,1-.856.539,4.372,4.372,0,0,1,.779-.676c.513-.419,1.283-.993,2.259-1.711a62.138,62.138,0,0,1,7.991-4.7,64.012,64.012,0,0,1,8.556-3.482c1.129-.351,2.053-.616,2.7-.77A4.172,4.172,0,0,1,259.487,298.51Z" transform="translate(-183.184 -69.535)" fill="#455a64"/>
    <path id="Path_11990" data-name="Path 11990" d="M292.651,271.762a3.923,3.923,0,0,1-.856-.282c-.53-.205-1.309-.5-2.319-.856a43.488,43.488,0,0,0-8.556-1.874l.214-.2c.1,3.688.077,8.06-.248,12.723a104.739,104.739,0,0,1-1.805,13.527v-.094a65.153,65.153,0,0,0,2.849,7.6c.4.856.77,1.557,1.018,2.019a6.5,6.5,0,0,1,.4.693,3.98,3.98,0,0,1-.5-.642,19.669,19.669,0,0,1-1.121-1.976,57.441,57.441,0,0,1-3-7.581v-.094a115,115,0,0,0,1.711-13.484c.325-4.646.368-9,.317-12.68v-.222h.222a40.141,40.141,0,0,1,8.556,2.036c1,.368,1.763.7,2.284.933A5.253,5.253,0,0,1,292.651,271.762Z" transform="translate(-189.328 -65.264)" fill="#455a64"/>
    <path id="Path_11991" data-name="Path 11991" d="M293.681,276.158a10.881,10.881,0,0,1-1.8-.5c-1.1-.325-2.627-.753-4.329-1.146-3.422-.8-6.212-1.318-6.195-1.446a7.49,7.49,0,0,1,1.865.163c1.146.163,2.712.436,4.432.856A21.434,21.434,0,0,1,293.681,276.158Z" transform="translate(-189.708 -66.076)" fill="#455a64"/>
    <path id="Path_11992" data-name="Path 11992" d="M287.828,260.91c0,.06-1.044-.24-2.712-.633a46.832,46.832,0,0,0-6.605-1.052,51.35,51.35,0,0,0-6.691-.085,24.827,24.827,0,0,1-2.789.1,2.566,2.566,0,0,1,.736-.171c.479-.077,1.172-.171,2.028-.248a39.416,39.416,0,0,1,6.751-.043,36.251,36.251,0,0,1,6.648,1.189,19.358,19.358,0,0,1,1.942.633A2.392,2.392,0,0,1,287.828,260.91Z" transform="translate(-187.928 -64.097)" fill="#455a64"/>
    <path id="Path_11993" data-name="Path 11993" d="M266.756,264.409a6.224,6.224,0,0,1-1.138.351c-.736.2-1.814.436-3.166.676a43.359,43.359,0,0,1-10.652.53,13.23,13.23,0,0,1-5.733-1.437,5,5,0,0,1-1.788-1.934,3.67,3.67,0,0,1-.291-2.293,11.915,11.915,0,0,1,.95-3.106,3.62,3.62,0,0,1,.607-1.027s-.171.385-.445,1.087a13.92,13.92,0,0,0-.8,3.089,3.422,3.422,0,0,0,.325,2.062,4.534,4.534,0,0,0,1.711,1.711,13.147,13.147,0,0,0,5.553,1.343,47.976,47.976,0,0,0,10.575-.4c1.343-.188,2.43-.385,3.174-.531a6.3,6.3,0,0,1,1.121-.12Z" transform="translate(-184.302 -63.723)" fill="#455a64"/>
    <path id="Path_11994" data-name="Path 11994" d="M260.949,85.435c-4.09-8.864-14.212-7.119-19.054-4.766a21.39,21.39,0,0,0-10.7,11.337c-1.42,3.422-2.567,7.324-5.424,9.412a40.659,40.659,0,0,1-4.064,2.113,5.279,5.279,0,0,0-2.849,3.6c-.428,2.952,2.567,5,5.031,6.186-1.48,1.01-1.865,3.294-1.343,5.134a13.211,13.211,0,0,0,2.926,4.706,72.512,72.512,0,0,0,14.845,12.517c4.672,2.909,7.7,3.251,12.714,1.164,2.036-.856,3.936-2.242,6.109-2.49,2.524-.282,4.937,1.01,7.435,1.532s5.647-.2,6.46-2.824a19.359,19.359,0,0,0,.342-3.174c.128-1.052.65-2.2,1.6-2.438a4.292,4.292,0,0,1,2.293.522c1.805.6,4.526,14,6.254,13.185,0,0,2.516-22.708-2.327-36-1.549-4.278-4.851-13.279-7.487-16.8-3.628-4.826-12.321-3.756-12.757-2.9" transform="translate(-180.676 -39.649)" fill="#263238"/>
    <path id="Path_11995" data-name="Path 11995" d="M258.257,88.187c-6.443-2.25-15.136,2.7-17.112,9.223-2.2,7.247-4.586,16.188-5.005,21.886-.856,11.457,7.3,14.853,7.3,14.853l-3.311,17.908,27.918-9.027,9.745-42.2.907-3.542Z" transform="translate(-183.169 -40.93)" fill="#ffb476"/>
    <path id="Path_11996" data-name="Path 11996" d="M242,109.268c.094.248,1.42-.111,2.875.462s2.242,1.711,2.464,1.609.068-.428-.265-.95a3.97,3.97,0,0,0-1.891-1.506,3.773,3.773,0,0,0-2.379-.154C242.231,108.943,242,109.157,242,109.268Z" transform="translate(-184.025 -43.958)" fill="#263238"/>
    <path id="Path_11997" data-name="Path 11997" d="M258.887,113.6c.171.2,1.326-.539,2.883-.428s2.652.967,2.841.787-.068-.436-.548-.856a4,4,0,0,0-2.25-.856,3.867,3.867,0,0,0-2.319.573C258.981,113.172,258.81,113.506,258.887,113.6Z" transform="translate(-186.46 -44.483)" fill="#263238"/>
    <path id="Path_11998" data-name="Path 11998" d="M250.693,119.2a10.147,10.147,0,0,0-2.37-1.027c-.376-.137-.727-.3-.727-.582a1.976,1.976,0,0,1,.531-1.087l1.84-2.7c2.567-3.842,4.56-7.042,4.406-7.144s-2.379,2.926-4.971,6.768c-.625.958-1.224,1.857-1.8,2.729a2.276,2.276,0,0,0-.565,1.48,1.027,1.027,0,0,0,.5.719,3.464,3.464,0,0,0,.642.248A10.122,10.122,0,0,0,250.693,119.2Z" transform="translate(-184.752 -43.165)" fill="#263238"/>
    <path id="Path_11999" data-name="Path 11999" d="M244.6,141.932a30.006,30.006,0,0,0,16.094-.4s-5.416,6.9-16.616,3.2Z" transform="translate(-184.325 -47.974)" fill="#eb996e"/>
    <path id="Path_12000" data-name="Path 12000" d="M250.331,127.292C250.186,127.1,250.4,127.523,250.331,127.292Z" transform="translate(-185.22 -46.015)" fill="#eb996e"/>
    <path id="Path_12001" data-name="Path 12001" d="M255.292,126.147a2.84,2.84,0,0,0-1.711-1.489,3.166,3.166,0,0,0-3.02.488,1.959,1.959,0,0,0-.265,1.711c.539.693.59,1.275,1.343,1.711a3.944,3.944,0,0,0,3.286-.376,1.814,1.814,0,0,0,.368-2.045Z" transform="translate(-185.209 -45.627)" fill="#eb996e"/>
    <path id="Path_12002" data-name="Path 12002" d="M255.289,123.78c-.248-.068-.642,1.583-2.327,2.421s-3.422.248-3.482.479c0,.094.317.411,1.061.607a4.218,4.218,0,0,0,2.875-.3,3.688,3.688,0,0,0,1.848-2.062C255.495,124.25,255.4,123.8,255.289,123.78Z" transform="translate(-185.105 -45.532)" fill="#263238"/>
    <path id="Path_12003" data-name="Path 12003" d="M262.569,104.336c-.086.436,1.189.856,2.481,1.831s2.173,1.976,2.567,1.711c.171-.12.163-.573-.094-1.181a4.706,4.706,0,0,0-1.566-1.882,4.449,4.449,0,0,0-2.259-.856C263.023,103.994,262.612,104.131,262.569,104.336Z" transform="translate(-186.994 -43.287)" fill="#263238"/>
    <path id="Path_12004" data-name="Path 12004" d="M243.09,102.2c.334.325,1.506-.163,2.943-.317s2.7,0,2.943-.411c.1-.2-.12-.53-.693-.856a4.492,4.492,0,0,0-2.456-.351,4.415,4.415,0,0,0-2.284.933C243.064,101.657,242.936,102.034,243.09,102.2Z" transform="translate(-184.173 -42.747)" fill="#263238"/>
    <path id="Path_12005" data-name="Path 12005" d="M284.035,97.216a4.406,4.406,0,0,0-2.139-1.908A142.893,142.893,0,0,0,264.682,87.3l-2.43,1.377a12.064,12.064,0,0,0,5.9,12.047c1.66.924,3.816,1.8,4.03,3.688s-1.831,3.294-2.986,4.885a6.16,6.16,0,0,0-.2,6.845c.744,1.155,1.874,2.028,2.567,3.217a6.135,6.135,0,0,1,.231,5.279c-.693,1.711-1.848,3.961-3.422,4.911a10.464,10.464,0,0,0,11.2-4.714c1.3-2.207,1.4-4.885,1.574-7.444a95.51,95.51,0,0,1,2.764-17.24A4.535,4.535,0,0,0,284.035,97.216Z" transform="translate(-186.933 -40.882)" fill="#263238"/>
    <path id="Path_12006" data-name="Path 12006" d="M261.455,87.23a23.657,23.657,0,0,1-5.33,5.134,8.059,8.059,0,0,1-7.093,1c.573-.633,1.155-1.266,1.711-1.908a35.619,35.619,0,0,1-13.613,5.63c3.063-3.722,6.22-7.521,10.4-9.925s9.668-3.14,13.75-.582" transform="translate(-183.321 -40.546)" fill="#263238"/>
    <path id="Path_12007" data-name="Path 12007" d="M284.5,112.9l-13.039,10.13c1.5,1.634.915,5.792-.556,7.444s-3.422,3.063-4,5.2c-.633,2.336.607,4.757.642,7.179.051,3.422-2.25,6.366-4.03,9.292s-3.063,6.845-1.078,9.643c2.233,3.149,7.29,2.7,10.344.342s4.8-5.989,7.067-9.1,5.81-5.5,9.651-5.134A73.8,73.8,0,0,0,284.5,112.9Z" transform="translate(-186.831 -43.954)" fill="#263238"/>
    <path id="Path_12008" data-name="Path 12008" d="M287.082,138.206c-.077-.145.693-.7,2.011-1.763a26.113,26.113,0,0,0,4.928-5,16.391,16.391,0,0,0,2.2-4.184,13.194,13.194,0,0,0,.77-5.236,11.773,11.773,0,0,0-1.788-5.459,18.156,18.156,0,0,0-4.338-4.672c-3.508-2.729-7.7-4.278-11.362-5.912a40.967,40.967,0,0,1-9.566-5.253,17.447,17.447,0,0,1-4.868-5.6c-.8-1.583-.924-2.567-.8-2.567a18.641,18.641,0,0,1,1.54,2.148,20.184,20.184,0,0,0,5.065,4.791,45.569,45.569,0,0,0,9.42,4.56c1.865.744,3.859,1.514,5.9,2.456a31.134,31.134,0,0,1,6.083,3.619,19.857,19.857,0,0,1,4.834,5.3,13.6,13.6,0,0,1,1.977,6.494,14.7,14.7,0,0,1-1.1,5.989,16.949,16.949,0,0,1-2.687,4.492,21.048,21.048,0,0,1-5.681,4.749C288.066,138.027,287.134,138.326,287.082,138.206Z" transform="translate(-187.234 -41.641)" fill="#263238"/>
    <path id="Path_12009" data-name="Path 12009" d="M287.807,106.636a5.528,5.528,0,0,1-1.138-.368c-.719-.265-1.711-.667-3.02-1.2a38.347,38.347,0,0,1-9.318-5.3,18.883,18.883,0,0,1-6.186-8.693,12.285,12.285,0,0,1-.607-3.209,7.907,7.907,0,0,1,0-.856,1.146,1.146,0,0,1,0-.308,20.415,20.415,0,0,0,.856,4.278,19.68,19.68,0,0,0,6.178,8.445,42.557,42.557,0,0,0,9.163,5.365l2.96,1.318a6.668,6.668,0,0,1,1.112.53Z" transform="translate(-187.71 -40.795)" fill="#455a64"/>
    <path id="Path_12010" data-name="Path 12010" d="M288.031,120.171a14.944,14.944,0,0,0,.351-1.472,7.28,7.28,0,0,0-.693-4,11.388,11.388,0,0,0-3.953-4.552c-1.874-1.36-4.2-2.438-6.528-3.833a23.461,23.461,0,0,1-5.835-4.911,24.094,24.094,0,0,1-3.422-5.228,21.186,21.186,0,0,1-1.429-3.944c-.137-.479-.188-.856-.24-1.112a1.148,1.148,0,0,1-.051-.394,13.634,13.634,0,0,1,.453,1.463,24.813,24.813,0,0,0,1.549,3.85,24.56,24.56,0,0,0,3.422,5.134,23.52,23.52,0,0,0,5.75,4.808c2.293,1.369,4.637,2.473,6.537,3.876a11.517,11.517,0,0,1,4,4.757,7.2,7.2,0,0,1,.573,4.15,4.691,4.691,0,0,1-.334,1.1C288.108,120.051,288.048,120.18,288.031,120.171Z" transform="translate(-187.523 -41.377)" fill="#455a64"/>
    <path id="Path_12011" data-name="Path 12011" d="M207.44,110.36a.241.241,0,0,1,.077-.137,3.507,3.507,0,0,1,.282-.376,3.859,3.859,0,0,1,1.454-1.078,8.676,8.676,0,0,1,2.823-.488c1.1-.06,2.37-.145,3.765-.145a20.391,20.391,0,0,0,4.492-.419,11.063,11.063,0,0,0,4.509-2.37,19.842,19.842,0,0,0,3.679-4.364,58.334,58.334,0,0,0,2.935-5.442,44.86,44.86,0,0,1,3.08-5.425,16.642,16.642,0,0,1,4.038-4.21,16.873,16.873,0,0,1,9.283-3.029,15.889,15.889,0,0,1,6.5,1.146l.958.419.659.376a3.861,3.861,0,0,1,.539.334,3.07,3.07,0,0,1-.573-.257l-.684-.334-.958-.376a16.4,16.4,0,0,0-6.434-.992,16.8,16.8,0,0,0-9.052,3.046,16.257,16.257,0,0,0-3.919,4.124,44.3,44.3,0,0,0-3.02,5.348,58.536,58.536,0,0,1-2.969,5.484,19.936,19.936,0,0,1-3.782,4.432,11.362,11.362,0,0,1-4.689,2.421,20.252,20.252,0,0,1-4.577.376c-1.395,0-2.644,0-3.756.077a8.555,8.555,0,0,0-2.764.4,3.859,3.859,0,0,0-1.455.975A5.355,5.355,0,0,1,207.44,110.36Z" transform="translate(-179.034 -40.242)" fill="#455a64"/>
    <path id="Path_12012" data-name="Path 12012" d="M197.414,95.548c-5.134-12.962-11.978-25.668-12.92-35.328l-10.224.411c.214,3.739,1.557,34.857,8.8,47.161s31.443,41.069,31.443,41.069l8.513-21.895S202.556,108.519,197.414,95.548Z" transform="translate(-174.244 -36.971)" fill="#ffb476"/>
    <path id="Path_12013" data-name="Path 12013" d="M180.645,36.7H176.17s.436,2.635,2.464,2.781,1.634-.317,1.634-.317l-.453.419-2.789.548s.137,2.173,1.976,2.515l2.712-2.515Z" transform="translate(-174.519 -33.575)" fill="#ffbe9d"/>
    <path id="Path_12014" data-name="Path 12014" d="M192.618,35.779a17.518,17.518,0,0,1-.453,3.166l-4.09,3.371-1.044-4.962a1.523,1.523,0,0,0-1.4-1.215l-1.857-.12s.719-2.567-1.617-2.353c0,0-1.283-.351-2.319,3.944-1.129,4.7-5.989,15.735-5.57,19.422l10.37.419c-.111-3.422,2.712-7.076,4.107-8.65a3.7,3.7,0,0,0,.856-1.651,5.185,5.185,0,0,1,1.164-2.276c1.283-1.42,3.979-3.979,3.979-3.979V33.084S193.012,32.528,192.618,35.779ZM184.3,43.325l-2.13.967.359-2.173,1.771-.171Z" transform="translate(-174.24 -33.048)" fill="#ffb476"/>
    <path id="Path_12015" data-name="Path 12015" d="M182.677,44.587a3.984,3.984,0,0,1,.1-.916c.1-.59.248-1.429.445-2.473l.719-3.645a14.745,14.745,0,0,0,.351-2.13c0-.693-.257-1.489-1-1.532a1.85,1.85,0,0,0-1.651,1.069,5.135,5.135,0,0,0-.411.993l-.334,1.018-1.112,3.542c-.334,1.01-.642,1.814-.856,2.361a3.284,3.284,0,0,1-.419.856,3.592,3.592,0,0,1,.257-.856c.18-.565.445-1.378.736-2.387s.642-2.259,1.018-3.576c.111-.342.214-.684.325-1.035a5.133,5.133,0,0,1,.436-1.078,3.345,3.345,0,0,1,.8-.941,1.711,1.711,0,0,1,1.292-.351,1.916,1.916,0,0,1,.65.231,1.489,1.489,0,0,1,.462.522,2.567,2.567,0,0,1,.257,1.232,14.285,14.285,0,0,1-.385,2.2l-.856,3.636c-.231,1.027-.428,1.865-.582,2.438a3.322,3.322,0,0,1-.248.821Z" transform="translate(-174.857 -33.112)" fill="#eb996e"/>
    <path id="Path_12016" data-name="Path 12016" d="M185.687,44.333a17.242,17.242,0,0,1-.128-2.515c0-.342-.051-.667-.077-.967a.915.915,0,0,0-.2-.625c-.291-.214-.642-.214-.625-.291s.077-.06.214-.077a.958.958,0,0,1,.6.111,1.1,1.1,0,0,1,.411.856,6.973,6.973,0,0,1,.12,1,4.817,4.817,0,0,1-.317,2.507Z" transform="translate(-175.745 -34.03)" fill="#eb996e"/>
    <path id="Path_12017" data-name="Path 12017" d="M190.567,42.859a5.792,5.792,0,0,1-.856.856,11.03,11.03,0,0,1-2.4,1.617,8.351,8.351,0,0,1-2.849.676,3.149,3.149,0,0,1-1.206,0,3.645,3.645,0,0,1,1.164-.282,11.028,11.028,0,0,0,2.7-.77,16.043,16.043,0,0,0,2.43-1.455C190.139,43.056,190.524,42.808,190.567,42.859Z" transform="translate(-175.543 -34.464)" fill="#eb996e"/>
    <path id="Path_12018" data-name="Path 12018" d="M285.91,153.431s11.516-.342,18.413-2.4,33.369-8.351,33.369-8.351l42.481-7.084.856,10.986s-39.469,11.542-47.135,14.169-42.7,14.648-49.325,13.125l-4.107-8.445Z" transform="translate(-189.578 -47.085)" fill="#ffb476"/>
    <path id="Path_12019" data-name="Path 12019" d="M417.234,120.259c-.693-.154-4.133,1.412-4.133,1.412a2.3,2.3,0,0,0,.068-2.841l-4.723,2.319a48.77,48.77,0,0,1-3.944,3.585,53.533,53.533,0,0,0-5.989,6.511l-2.823,2.627,1.754,10.4a8.659,8.659,0,0,0,3.645-.479c1.463-.676,3.6-3.422,3.6-3.422l4.03-.342a2.319,2.319,0,0,0,1.283-.5,3.371,3.371,0,0,0,1-2.755c2.567-1.455,1.069-3.3,1.069-3.3a3.183,3.183,0,0,0,2.071-1.138,1.925,1.925,0,0,0-.128-2.259c-.479-.856-4.175-.59-4.175-.59l-.2-1.087s5.647-4.483,6.913-5.459S417.884,120.4,417.234,120.259Z" transform="translate(-206.217 -44.814)" fill="#ffb476"/>
    <path id="Path_12020" data-name="Path 12020" d="M414.37,122a5.989,5.989,0,0,1-1.711,2.071,21.4,21.4,0,0,0-2.062,2.019,8.557,8.557,0,0,0-1.514,3.114,16.908,16.908,0,0,1-1.266,3.422,11.773,11.773,0,0,1-1.711,2.413,11.04,11.04,0,0,1-1.48,1.326,2.123,2.123,0,0,1-.625.368c-.051-.06.8-.65,1.874-1.908a12.542,12.542,0,0,0,1.583-2.387,18.292,18.292,0,0,0,1.215-3.32,8.557,8.557,0,0,1,1.617-3.251,18.267,18.267,0,0,1,2.173-1.994A22.066,22.066,0,0,0,414.369,122Z" transform="translate(-207.417 -45.268)" fill="#eb996e"/>
    <path id="Path_12021" data-name="Path 12021" d="M412.4,139.263a6.143,6.143,0,0,1-1.882.856,9.471,9.471,0,0,1-2.242.462,9.086,9.086,0,0,1-1.36,0,2.96,2.96,0,0,1-1.446-.5,1.711,1.711,0,0,1-.719-1.4,2.121,2.121,0,0,1,.753-1.249,2.566,2.566,0,0,1,1.112-.625c.376-.1.719-.18,1.035-.24a5.87,5.87,0,0,1,2.07-.24c0,.051-.77.205-2,.539l-.992.291a2.225,2.225,0,0,0-.941.573,1.84,1.84,0,0,0-.6.975,1.24,1.24,0,0,0,.548,1.018,4.355,4.355,0,0,0,2.515.462,10.448,10.448,0,0,0,2.173-.359C411.646,139.511,412.373,139.194,412.4,139.263Z" transform="translate(-207.525 -47.256)" fill="#eb996e"/>
    <path id="Path_12022" data-name="Path 12022" d="M414.084,135.272a3.508,3.508,0,0,1-1.455.436,8.553,8.553,0,0,1-1.651.12,2.49,2.49,0,0,1-1.968-.753,1.959,1.959,0,0,1-.086-2.122,2.823,2.823,0,0,1,1.258-1.164,3.1,3.1,0,0,1,1.472-.419c0,.068-.539.24-1.318.693a2.7,2.7,0,0,0-1.044,1.078,1.575,1.575,0,0,0,.06,1.651,2.225,2.225,0,0,0,1.643.625,12.149,12.149,0,0,0,1.6,0A9.979,9.979,0,0,1,414.084,135.272Z" transform="translate(-208.089 -46.575)" fill="#eb996e"/>
    <path id="Path_12023" data-name="Path 12023" d="M410.834,143.087a3.827,3.827,0,0,1-1.189.368,9.969,9.969,0,0,1-2.995.359,1.155,1.155,0,0,1-.916-.385,1.326,1.326,0,0,1-.265-.856,1.711,1.711,0,0,1,.719-1.266c.753-.453,1.3-.171,1.266-.137a2.37,2.37,0,0,0-1.078.394,1.412,1.412,0,0,0-.5,1.027.958.958,0,0,0,.188.59.727.727,0,0,0,.607.222,14.778,14.778,0,0,0,2.909-.222A3.3,3.3,0,0,1,410.834,143.087Z" transform="translate(-207.629 -47.911)" fill="#eb996e"/>
    <path id="Path_12024" data-name="Path 12024" d="M260.392,198.371a3.425,3.425,0,0,1-.8.462,14.315,14.315,0,0,1-2.353.856,17.831,17.831,0,0,1-8.282.411,17.42,17.42,0,0,1-7.538-3.422,14.634,14.634,0,0,1-1.84-1.711,3.68,3.68,0,0,1-.565-.736c.068-.06.907.958,2.567,2.207a18.439,18.439,0,0,0,7.435,3.26,18.729,18.729,0,0,0,8.111-.265C259.168,198.91,260.34,198.311,260.392,198.371Z" transform="translate(-183.593 -55.218)" fill="#ff725e"/>
    <path id="Path_12025" data-name="Path 12025" d="M237.237,158.313s27.071-8.659,28.081-8.932,24.889,1.857,24.889,1.857-1.01,15.82,4.98,20.945h0l-17.566,6.331-5.536,15.238s-3.089,6.212-.633,12.038c4.646,11.029,12.706,28.432,11.516,30.425-.128.205-.856-5.989-12.312-9.275-3.474-.984-9.779-1-15.486.154-24.556,4.945-34.036,16.256-36.791,18.233,0,0,5.057-39.674,2.669-45.869s-4.92-10.267-2.952-15.752,4.92-14.348,4.92-14.348l-9.677-10.952,13.519-22.477L239.231,146.2Z" transform="translate(-179.886 -46.917)" fill="#92c9e8"/>
    <path id="Path_12026" data-name="Path 12026" d="M249.2,202.536a3.647,3.647,0,0,1-.933,0,14.542,14.542,0,0,1-2.524-.325,15.623,15.623,0,0,1-7.375-3.876,14.665,14.665,0,0,1-4.167-7.2,13.319,13.319,0,0,1-.342-2.567,3.271,3.271,0,0,1,.051-.924,29.6,29.6,0,0,0,.6,3.371,15.238,15.238,0,0,0,4.167,6.965,16.307,16.307,0,0,0,7.144,3.884A17.7,17.7,0,0,0,249.2,202.536Z" transform="translate(-182.847 -54.286)" fill="#263238"/>
    <path id="Path_12027" data-name="Path 12027" d="M222.08,165.85a9.069,9.069,0,0,1,1.882,4.663,9.2,9.2,0,0,1-.445,5.014,24.5,24.5,0,0,0,0-4.945A24.473,24.473,0,0,0,222.08,165.85Z" transform="translate(-181.148 -51.306)" fill="#263238"/>
    <path id="Path_12028" data-name="Path 12028" d="M288.349,171.33c0,.068-.556.453-1.377,1.249a11.617,11.617,0,0,0-2.524,3.6,11.122,11.122,0,0,0-.958,4.278,8.244,8.244,0,0,1,0,1.857,4.629,4.629,0,0,1-.351-1.857,9.977,9.977,0,0,1,.856-4.475,10.319,10.319,0,0,1,2.712-3.662,4.791,4.791,0,0,1,1.643-.992Z" transform="translate(-189.964 -52.056)" fill="#263238"/>
    <g id="Group_4698" data-name="Group 4698" transform="translate(52.552 139.801)" opacity="0.3">
      <path id="Path_12029" data-name="Path 12029" d="M245.44,203.027a12.423,12.423,0,0,1-6.776-3.833,14.015,14.015,0,0,1-2.935-4.064c-.616,2.687,3.123,7.452,6.768,9.206a13.125,13.125,0,0,0,11.739-.325A43.981,43.981,0,0,1,245.44,203.027Z" transform="translate(-235.662 -195.13)"/>
    </g>
    <path id="Path_12030" data-name="Path 12030" d="M276.48,226.874c0,.051-.71-.488-2.113-1.121a16.1,16.1,0,0,0-6.323-1.318,23.461,23.461,0,0,0-9.412,1.908,60.89,60.89,0,0,0-10.267,5.887,108.9,108.9,0,0,1-18.917,10.5c-2.567,1.087-4.654,1.865-6.118,2.37-.727.265-1.3.445-1.711.565a2.953,2.953,0,0,1-.6.163,2.844,2.844,0,0,1,.573-.248l1.66-.642c1.446-.556,3.525-1.369,6.049-2.5a115.727,115.727,0,0,0,18.823-10.575,59.187,59.187,0,0,1,10.361-5.9,23.452,23.452,0,0,1,9.574-1.84,15.657,15.657,0,0,1,6.391,1.48A9.7,9.7,0,0,1,276.48,226.874Z" transform="translate(-180.995 -59.27)" fill="#fff"/>
    <path id="Path_12031" data-name="Path 12031" d="M271.806,210.213a15.966,15.966,0,0,0-1.626-1.266,11.4,11.4,0,0,0-5.279-1.66,18.1,18.1,0,0,0-8.094,1.489,96.949,96.949,0,0,0-9.163,4.569,88.756,88.756,0,0,1-9.266,4.466,35.165,35.165,0,0,1-8.128,2.173,23.238,23.238,0,0,1-5.664.094,14.821,14.821,0,0,1-1.523-.248,2.379,2.379,0,0,1-.522-.137c0-.043.736.1,2.062.214a25.667,25.667,0,0,0,5.6-.231,36.569,36.569,0,0,0,8.017-2.242,95.722,95.722,0,0,0,9.206-4.449,93.534,93.534,0,0,1,9.223-4.56,18.224,18.224,0,0,1,8.274-1.42,11.123,11.123,0,0,1,5.348,1.831A5.991,5.991,0,0,1,271.806,210.213Z" transform="translate(-181.215 -56.947)" fill="#fff"/>
    <path id="Path_12032" data-name="Path 12032" d="M235.037,198.159a4.884,4.884,0,0,1-.548.445,5.647,5.647,0,0,1-.7.445,9.039,9.039,0,0,1-.967.513,14.217,14.217,0,0,1-2.7.95,16.588,16.588,0,0,1-3.474.445,17.044,17.044,0,0,1-3.491-.368,14.152,14.152,0,0,1-2.721-.856,9.667,9.667,0,0,1-.984-.479,4.99,4.99,0,0,1-.71-.428c-.376-.248-.573-.4-.556-.428s.856.471,2.37,1.044a16.772,16.772,0,0,0,2.678.761,18.41,18.41,0,0,0,3.422.3,17.837,17.837,0,0,0,3.38-.4,15.829,15.829,0,0,0,2.661-.856C234.164,198.655,234.985,198.091,235.037,198.159Z" transform="translate(-180.586 -55.769)" fill="#fff"/>
    <path id="Path_12033" data-name="Path 12033" d="M277.773,195.22a1.714,1.714,0,0,1-.334.291,7.432,7.432,0,0,1-1.078.676,11.807,11.807,0,0,1-4.483,1.292,20.388,20.388,0,0,1-6.888-.633c-2.567-.616-5.228-1.617-8.094-2.43a36.9,36.9,0,0,0-15.11-.975,37.917,37.917,0,0,0-4.543.933c-1.052.282-1.634.462-1.643.428s.128-.077.4-.18.667-.257,1.2-.411a31.653,31.653,0,0,1,4.535-1.078,35.593,35.593,0,0,1,15.281.856c2.892.856,5.561,1.831,8.068,2.456a20.637,20.637,0,0,0,6.768.719,12.449,12.449,0,0,0,4.432-1.129C277.268,195.562,277.747,195.177,277.773,195.22Z" transform="translate(-183.1 -55.009)" fill="#fff"/>
    <path id="Path_12034" data-name="Path 12034" d="M275.156,179.839a2.566,2.566,0,0,1-.548.086c-.359,0-.856.1-1.583.154a30.247,30.247,0,0,1-5.81-.419c-2.43-.394-5.271-1.112-8.4-1.959a63.426,63.426,0,0,0-10.267-2.139,27.079,27.079,0,0,0-2.746-.086c-.453,0-.9,0-1.343.043l-1.309.154a24.165,24.165,0,0,0-4.885,1.223c-3.046,1.078-5.707,2.319-8.043,3.106a21.585,21.585,0,0,1-5.681,1.249,8.834,8.834,0,0,1-1.583,0,2.343,2.343,0,0,1-.556-.051,3.6,3.6,0,0,1,.556,0,12.074,12.074,0,0,0,1.566-.094,22.939,22.939,0,0,0,5.6-1.378c2.3-.813,4.937-2.079,8.008-3.191a24.561,24.561,0,0,1,4.954-1.275l1.343-.163h1.369a27.765,27.765,0,0,1,2.789.086,62.086,62.086,0,0,1,10.353,2.182c3.123.856,5.938,1.626,8.351,2.053a32.509,32.509,0,0,0,5.75.548l1.574-.06A2.344,2.344,0,0,1,275.156,179.839Z" transform="translate(-181.194 -52.586)" fill="#fff"/>
    <path id="Path_12035" data-name="Path 12035" d="M293.468,153.81c.077.043-.8,1.292-1.617,3.559a18.31,18.31,0,0,0-.856,9.249,18.7,18.7,0,0,0,3.867,8.445c1.523,1.874,2.746,2.781,2.687,2.849a4.526,4.526,0,0,1-.856-.616,16.476,16.476,0,0,1-2.062-2.036,18.087,18.087,0,0,1-4.073-8.556,17.8,17.8,0,0,1,.975-9.412,16.259,16.259,0,0,1,1.292-2.567,4.756,4.756,0,0,1,.642-.915Z" transform="translate(-191.001 -49.616)" fill="#fff"/>
    <path id="Path_12036" data-name="Path 12036" d="M238.391,155.721a2.26,2.26,0,0,1-.753.171,19.01,19.01,0,0,1-2.113.231,11.122,11.122,0,0,1-3.157-.248,6.9,6.9,0,0,1-3.422-1.925c-.993-.975-1.711-2.036-2.507-2.918a9.625,9.625,0,0,0-2.31-2,5.989,5.989,0,0,0-2.678-.787,1.712,1.712,0,0,1,.779-.086,4.748,4.748,0,0,1,2.053.6,9.009,9.009,0,0,1,2.464,2.011c.8.856,1.557,1.934,2.507,2.866a6.785,6.785,0,0,0,3.174,1.848,11.817,11.817,0,0,0,3.046.325A15.448,15.448,0,0,1,238.391,155.721Z" transform="translate(-181.057 -48.876)" fill="#fff"/>
    <path id="Path_12037" data-name="Path 12037" d="M239.2,454.759c-.12,0-.222-8.967-.222-20.03s.1-20.03.222-20.03.222,8.967.222,20.03S239.331,454.759,239.2,454.759Z" transform="translate(-183.588 -85.274)" fill="#263238"/>
    <path id="Path_12038" data-name="Path 12038" d="M243.632,442.729c-.128,0-.222-8.967-.222-20.03s.094-20.03.222-20.03.222,8.967.222,20.03S243.752,442.729,243.632,442.729Z" transform="translate(-184.228 -83.536)" fill="#263238"/>
  </g>
</svg>
