<svg xmlns="http://www.w3.org/2000/svg" xmlns:xlink="http://www.w3.org/1999/xlink" width="1366.46" height="661.657" viewBox="0 0 1366.46 661.657">
  <defs>
    <clipPath id="clip-path">
      <rect id="Rectangle_291" data-name="Rectangle 291" width="1366" height="514" transform="translate(0 2216)" fill="#fff" stroke="#707070" stroke-width="1"/>
    </clipPath>
    <clipPath id="clip-path-2">
      <path id="Path_36114" data-name="Path 36114" d="M0,0H1366V568L125.422,570.735-.358,556.656Z" transform="translate(1565 2734)" fill="#fff" stroke="#707070" stroke-width="1"/>
    </clipPath>
    <linearGradient id="linear-gradient" x1="0.5" x2="0.5" y2="1" gradientUnits="objectBoundingBox">
      <stop offset="0" stop-color="#00a2f5"/>
      <stop offset="1" stop-color="#fff"/>
    </linearGradient>
    <linearGradient id="linear-gradient-2" x1="0.5" x2="1.118" y2="0.945" gradientUnits="objectBoundingBox">
      <stop offset="0" stop-color="#fff"/>
      <stop offset="1" stop-color="#00a2f5"/>
    </linearGradient>
  </defs>
  <g id="Group_5379" data-name="Group 5379" transform="translate(-1564.642 -2668.281)">
    <g id="Group_5372" data-name="Group 5372" transform="translate(1565.102 436.281)">
      <g id="Mask_Group_1" data-name="Mask Group 1" transform="translate(0 16)" clip-path="url(#clip-path)">
        <g id="Group_5371" data-name="Group 5371">
          <path id="Path_36101" data-name="Path 36101" d="M0-10.832s70.769-20.712,225.552-15.5S445.78,11.09,619.134,10.016,831.546-26.332,999.2-26.332s188.095,32.473,335.953,36.348,255.479-20.848,255.479-20.848V235.726H0Z" transform="translate(0 2264.473)" fill="#00a2f5" opacity="0.2"/>
          <path id="Path_36099" data-name="Path 36099" d="M1743.884-10.832S1666.3-31.544,1496.6-26.332,1255.153,11.09,1065.1,10.016,832.219-26.332,648.415-26.332,442.2,6.141,280.094,10.016,0-10.832,0-10.832V235.726H1743.884Z" transform="translate(-377.884 2264.473)" fill="#00a2f5" opacity="0.2"/>
          <g id="Group_5370" data-name="Group 5370" transform="translate(741.938 -889.636)">
            <path id="Path_36102" data-name="Path 36102" d="M0-19.727S131.286,17.744,285.782,17.744,468.214-18.233,623.687-38.38,944.31-19.727,944.31-19.727V437.2H0Z" transform="translate(-320.247 3182.632)" fill="#00a2f5"/>
            <path id="Path_36100" data-name="Path 36100" d="M944.31-19.727S813.024,17.744,658.528,17.744,476.1-18.233,320.623-38.38,0-19.727,0-19.727V437.2H944.31Z" transform="translate(-741.938 3182.632)" fill="#00a2f5"/>
          </g>
        </g>
      </g>
      <path id="Path_36113" data-name="Path 36113" d="M0,0H1366V284.393s-347.1,39.264-688.6,39.264S0,284.393,0,284.393Z" transform="translate(0 2570)" fill="#00a2f5"/>
    </g>
    <g id="Mask_Group_2" data-name="Mask Group 2" clip-path="url(#clip-path-2)">
      <g id="Group_5378" data-name="Group 5378">
        <circle id="Ellipse_154" data-name="Ellipse 154" cx="167.512" cy="167.512" r="167.512" transform="matrix(0.946, -0.326, 0.326, 0.946, 2718.179, 2793.258)" opacity="0.2" fill="url(#linear-gradient)"/>
        <g id="Group_5376" data-name="Group 5376" transform="translate(1375.098 2769.607)">
          <g id="Group_3547" data-name="Group 3547" transform="translate(24.603 199.675)">
            <g id="Group_3534" data-name="Group 3534" transform="translate(27.068)">
              <path id="Path_34496" data-name="Path 34496" d="M-498.615,99.421a4.132,4.132,0,0,1-5.676-1.382,4.131,4.131,0,0,1,1.382-5.676,4.131,4.131,0,0,1,5.676,1.381A4.133,4.133,0,0,1-498.615,99.421Z" transform="translate(504.893 -91.76)" fill="#fff" opacity="0.3"/>
              <path id="Path_34497" data-name="Path 34497" d="M-498.615,99.421a4.132,4.132,0,0,1-5.676-1.382,4.131,4.131,0,0,1,1.382-5.676,4.131,4.131,0,0,1,5.676,1.381A4.133,4.133,0,0,1-498.615,99.421Z" transform="translate(504.893 -31.255)" fill="#fff" opacity="0.3"/>
              <path id="Path_34500" data-name="Path 34500" d="M-498.615,99.421a4.132,4.132,0,0,1-5.676-1.382,4.131,4.131,0,0,1,1.382-5.676,4.131,4.131,0,0,1,5.676,1.381A4.133,4.133,0,0,1-498.615,99.421Z" transform="translate(504.893 19.697)" fill="#fff" opacity="0.3"/>
              <path id="Path_34502" data-name="Path 34502" d="M-498.615,99.421a4.132,4.132,0,0,1-5.676-1.382,4.131,4.131,0,0,1,1.382-5.676,4.131,4.131,0,0,1,5.676,1.381A4.133,4.133,0,0,1-498.615,99.421Z" transform="translate(504.893 70.648)" fill="#fff"/>
              <path id="Path_34504" data-name="Path 34504" d="M-498.615,99.421a4.132,4.132,0,0,1-5.676-1.382,4.131,4.131,0,0,1,1.382-5.676,4.131,4.131,0,0,1,5.676,1.381A4.133,4.133,0,0,1-498.615,99.421Z" transform="translate(504.893 123.192)" fill="#fff"/>
              <path id="Path_34498" data-name="Path 34498" d="M-498.615,99.421a4.132,4.132,0,0,1-5.676-1.382,4.131,4.131,0,0,1,1.382-5.676,4.131,4.131,0,0,1,5.676,1.381A4.133,4.133,0,0,1-498.615,99.421Z" transform="translate(504.893 -4.187)" fill="#fff" opacity="0.3"/>
              <path id="Path_34499" data-name="Path 34499" d="M-498.615,99.421a4.132,4.132,0,0,1-5.676-1.382,4.131,4.131,0,0,1,1.382-5.676,4.131,4.131,0,0,1,5.676,1.381A4.133,4.133,0,0,1-498.615,99.421Z" transform="translate(504.893 46.765)" fill="#fff" opacity="0.3"/>
              <path id="Path_34501" data-name="Path 34501" d="M-498.615,99.421a4.132,4.132,0,0,1-5.676-1.382,4.131,4.131,0,0,1,1.382-5.676,4.131,4.131,0,0,1,5.676,1.381A4.133,4.133,0,0,1-498.615,99.421Z" transform="translate(504.893 97.716)" fill="#fff"/>
              <path id="Path_34503" data-name="Path 34503" d="M-498.615,99.421a4.132,4.132,0,0,1-5.676-1.382,4.131,4.131,0,0,1,1.382-5.676,4.131,4.131,0,0,1,5.676,1.381A4.133,4.133,0,0,1-498.615,99.421Z" transform="translate(504.893 150.26)" fill="#fff" opacity="0.3"/>
              <path id="Path_34601" data-name="Path 34601" d="M-498.615,99.421a4.132,4.132,0,0,1-5.676-1.382,4.131,4.131,0,0,1,1.382-5.676,4.131,4.131,0,0,1,5.676,1.381A4.133,4.133,0,0,1-498.615,99.421Z" transform="translate(504.893 229.871)" fill="#fff" opacity="0.3"/>
              <path id="Path_34602" data-name="Path 34602" d="M-498.615,99.421a4.132,4.132,0,0,1-5.676-1.382,4.131,4.131,0,0,1,1.382-5.676,4.131,4.131,0,0,1,5.676,1.381A4.133,4.133,0,0,1-498.615,99.421Z" transform="translate(504.893 255.347)" fill="#fff" opacity="0.3"/>
            </g>
            <g id="Group_3535" data-name="Group 3535" transform="translate(52.543 114.641)">
              <path id="Path_34512" data-name="Path 34512" d="M-498.615,99.421a4.132,4.132,0,0,1-5.676-1.382,4.131,4.131,0,0,1,1.382-5.676,4.131,4.131,0,0,1,5.676,1.381A4.133,4.133,0,0,1-498.615,99.421Z" transform="translate(504.893 -91.76)" fill="#fff" opacity="0.3"/>
              <path id="Path_34514" data-name="Path 34514" d="M-498.615,99.421a4.132,4.132,0,0,1-5.676-1.382,4.131,4.131,0,0,1,1.382-5.676,4.131,4.131,0,0,1,5.676,1.381A4.133,4.133,0,0,1-498.615,99.421Z" transform="translate(504.893 -40.808)" fill="#fff" opacity="0.3"/>
              <path id="Path_34516" data-name="Path 34516" d="M-498.615,99.421a4.132,4.132,0,0,1-5.676-1.382,4.131,4.131,0,0,1,1.382-5.676,4.131,4.131,0,0,1,5.676,1.381A4.133,4.133,0,0,1-498.615,99.421Z" transform="translate(504.893 10.143)" fill="#fff" opacity="0.3"/>
              <path id="Path_34518" data-name="Path 34518" d="M-498.615,99.421a4.132,4.132,0,0,1-5.676-1.382,4.131,4.131,0,0,1,1.382-5.676,4.131,4.131,0,0,1,5.676,1.381A4.133,4.133,0,0,1-498.615,99.421Z" transform="translate(504.893 62.687)" fill="#fff" opacity="0.3"/>
              <path id="Path_34513" data-name="Path 34513" d="M-498.615,99.421a4.132,4.132,0,0,1-5.676-1.382,4.131,4.131,0,0,1,1.382-5.676,4.131,4.131,0,0,1,5.676,1.381A4.133,4.133,0,0,1-498.615,99.421Z" transform="translate(504.893 -64.692)" fill="#fff"/>
              <path id="Path_34515" data-name="Path 34515" d="M-498.615,99.421a4.132,4.132,0,0,1-5.676-1.382,4.131,4.131,0,0,1,1.382-5.676,4.131,4.131,0,0,1,5.676,1.381A4.133,4.133,0,0,1-498.615,99.421Z" transform="translate(504.893 -13.74)" fill="#fff" opacity="0.3"/>
              <path id="Path_34517" data-name="Path 34517" d="M-498.615,99.421a4.132,4.132,0,0,1-5.676-1.382,4.131,4.131,0,0,1,1.382-5.676,4.131,4.131,0,0,1,5.676,1.381A4.133,4.133,0,0,1-498.615,99.421Z" transform="translate(504.893 37.211)" fill="#fff"/>
              <path id="Path_34519" data-name="Path 34519" d="M-498.615,99.421a4.132,4.132,0,0,1-5.676-1.382,4.131,4.131,0,0,1,1.382-5.676,4.131,4.131,0,0,1,5.676,1.381A4.133,4.133,0,0,1-498.615,99.421Z" transform="translate(504.893 89.755)" fill="#fff" opacity="0.3"/>
            </g>
            <g id="Group_3536" data-name="Group 3536" transform="translate(78.019 113.049)">
              <path id="Path_34520" data-name="Path 34520" d="M-498.615,99.421a4.132,4.132,0,0,1-5.676-1.382,4.131,4.131,0,0,1,1.382-5.676,4.131,4.131,0,0,1,5.676,1.381A4.133,4.133,0,0,1-498.615,99.421Z" transform="translate(504.893 -91.76)" fill="#fff"/>
              <path id="Path_34522" data-name="Path 34522" d="M-498.615,99.421a4.132,4.132,0,0,1-5.676-1.382,4.131,4.131,0,0,1,1.382-5.676,4.131,4.131,0,0,1,5.676,1.381A4.133,4.133,0,0,1-498.615,99.421Z" transform="translate(504.893 -40.808)" fill="#fff"/>
              <path id="Path_34524" data-name="Path 34524" d="M-498.615,99.421a4.132,4.132,0,0,1-5.676-1.382,4.131,4.131,0,0,1,1.382-5.676,4.131,4.131,0,0,1,5.676,1.381A4.133,4.133,0,0,1-498.615,99.421Z" transform="translate(504.893 10.143)" fill="#fff"/>
              <path id="Path_34526" data-name="Path 34526" d="M-498.615,99.421a4.132,4.132,0,0,1-5.676-1.382,4.131,4.131,0,0,1,1.382-5.676,4.131,4.131,0,0,1,5.676,1.381A4.133,4.133,0,0,1-498.615,99.421Z" transform="translate(504.893 62.687)" fill="#fff" opacity="0.3"/>
              <path id="Path_34521" data-name="Path 34521" d="M-498.615,99.421a4.132,4.132,0,0,1-5.676-1.382,4.131,4.131,0,0,1,1.382-5.676,4.131,4.131,0,0,1,5.676,1.381A4.133,4.133,0,0,1-498.615,99.421Z" transform="translate(504.893 -64.692)" fill="#fff" opacity="0.3"/>
              <path id="Path_34523" data-name="Path 34523" d="M-498.615,99.421a4.132,4.132,0,0,1-5.676-1.382,4.131,4.131,0,0,1,1.382-5.676,4.131,4.131,0,0,1,5.676,1.381A4.133,4.133,0,0,1-498.615,99.421Z" transform="translate(504.893 -13.74)" fill="#fff" opacity="0.3"/>
              <path id="Path_34525" data-name="Path 34525" d="M-498.615,99.421a4.132,4.132,0,0,1-5.676-1.382,4.131,4.131,0,0,1,1.382-5.676,4.131,4.131,0,0,1,5.676,1.381A4.133,4.133,0,0,1-498.615,99.421Z" transform="translate(504.893 37.211)" fill="#fff"/>
              <path id="Path_34527" data-name="Path 34527" d="M-498.615,99.421a4.132,4.132,0,0,1-5.676-1.382,4.131,4.131,0,0,1,1.382-5.676,4.131,4.131,0,0,1,5.676,1.381A4.133,4.133,0,0,1-498.615,99.421Z" transform="translate(504.893 89.755)" fill="#fff" opacity="0.3"/>
              <path id="Path_34603" data-name="Path 34603" d="M-498.615,99.421a4.132,4.132,0,0,1-5.676-1.382,4.131,4.131,0,0,1,1.382-5.676,4.131,4.131,0,0,1,5.676,1.381A4.133,4.133,0,0,1-498.615,99.421Z" transform="translate(504.893 116.823)" fill="#fff" opacity="0.3"/>
              <path id="Path_34604" data-name="Path 34604" d="M-498.615,99.421a4.132,4.132,0,0,1-5.676-1.382,4.131,4.131,0,0,1,1.382-5.676,4.131,4.131,0,0,1,5.676,1.381A4.133,4.133,0,0,1-498.615,99.421Z" transform="translate(504.893 142.298)" fill="#fff" opacity="0.3"/>
              <path id="Path_34605" data-name="Path 34605" d="M-498.615,99.421a4.132,4.132,0,0,1-5.676-1.382,4.131,4.131,0,0,1,1.382-5.676,4.131,4.131,0,0,1,5.676,1.381A4.133,4.133,0,0,1-498.615,99.421Z" transform="translate(504.893 169.366)" fill="#fff" opacity="0.3"/>
            </g>
            <g id="Group_3537" data-name="Group 3537" transform="translate(105.087 89.165)">
              <path id="Path_34528" data-name="Path 34528" d="M-498.615,99.421a4.132,4.132,0,0,1-5.676-1.382,4.131,4.131,0,0,1,1.382-5.676,4.131,4.131,0,0,1,5.676,1.381A4.133,4.133,0,0,1-498.615,99.421Z" transform="translate(504.893 -67.876)" fill="#fff" opacity="0.3"/>
              <path id="Path_34618" data-name="Path 34618" d="M-498.615,99.421a4.132,4.132,0,0,1-5.676-1.382,4.131,4.131,0,0,1,1.382-5.676,4.131,4.131,0,0,1,5.676,1.381A4.133,4.133,0,0,1-498.615,99.421Z" transform="translate(504.893 -91.76)" fill="#fff" opacity="0.3"/>
              <path id="Path_34530" data-name="Path 34530" d="M-498.615,99.421a4.132,4.132,0,0,1-5.676-1.382,4.131,4.131,0,0,1,1.382-5.676,4.131,4.131,0,0,1,5.676,1.381A4.133,4.133,0,0,1-498.615,99.421Z" transform="translate(504.893 -16.925)" fill="#fff" opacity="0.3"/>
              <path id="Path_34532" data-name="Path 34532" d="M-498.615,99.421a4.132,4.132,0,0,1-5.676-1.382,4.131,4.131,0,0,1,1.382-5.676,4.131,4.131,0,0,1,5.676,1.381A4.133,4.133,0,0,1-498.615,99.421Z" transform="translate(504.893 34.027)" fill="#fff" opacity="0.3"/>
              <path id="Path_34534" data-name="Path 34534" d="M-498.615,99.421a4.132,4.132,0,0,1-5.676-1.382,4.131,4.131,0,0,1,1.382-5.676,4.131,4.131,0,0,1,5.676,1.381A4.133,4.133,0,0,1-498.615,99.421Z" transform="translate(504.893 86.57)" fill="#fff"/>
              <path id="Path_34529" data-name="Path 34529" d="M-498.615,99.421a4.132,4.132,0,0,1-5.676-1.382,4.131,4.131,0,0,1,1.382-5.676,4.131,4.131,0,0,1,5.676,1.381A4.133,4.133,0,0,1-498.615,99.421Z" transform="translate(504.893 -40.808)" fill="#fff" opacity="0.3"/>
              <path id="Path_34531" data-name="Path 34531" d="M-498.615,99.421a4.132,4.132,0,0,1-5.676-1.382,4.131,4.131,0,0,1,1.382-5.676,4.131,4.131,0,0,1,5.676,1.381A4.133,4.133,0,0,1-498.615,99.421Z" transform="translate(504.893 10.143)" fill="#fff"/>
              <path id="Path_34533" data-name="Path 34533" d="M-498.615,99.421a4.132,4.132,0,0,1-5.676-1.382,4.131,4.131,0,0,1,1.382-5.676,4.131,4.131,0,0,1,5.676,1.381A4.133,4.133,0,0,1-498.615,99.421Z" transform="translate(504.893 61.095)" fill="#fff" opacity="0.3"/>
              <path id="Path_34535" data-name="Path 34535" d="M-498.615,99.421a4.132,4.132,0,0,1-5.676-1.382,4.131,4.131,0,0,1,1.382-5.676,4.131,4.131,0,0,1,5.676,1.381A4.133,4.133,0,0,1-498.615,99.421Z" transform="translate(504.893 113.638)" fill="#fff" opacity="0.3"/>
            </g>
            <g id="Group_3538" data-name="Group 3538" transform="translate(130.563 57.32)">
              <path id="Path_34536" data-name="Path 34536" d="M-498.615,99.421a4.132,4.132,0,0,1-5.676-1.382,4.131,4.131,0,0,1,1.382-5.676,4.131,4.131,0,0,1,5.676,1.381A4.133,4.133,0,0,1-498.615,99.421Z" transform="translate(504.893 -36.032)" fill="#fff"/>
              <path id="Path_34592" data-name="Path 34592" d="M-498.615,99.421a4.132,4.132,0,0,1-5.676-1.382,4.131,4.131,0,0,1,1.382-5.676,4.131,4.131,0,0,1,5.676,1.381A4.133,4.133,0,0,1-498.615,99.421Z" transform="translate(504.893 -59.915)" fill="#fff"/>
              <path id="Path_34593" data-name="Path 34593" d="M-498.615,99.421a4.132,4.132,0,0,1-5.676-1.382,4.131,4.131,0,0,1,1.382-5.676,4.131,4.131,0,0,1,5.676,1.381A4.133,4.133,0,0,1-498.615,99.421Z" transform="translate(504.893 -91.76)" fill="#fff" opacity="0.3"/>
              <path id="Path_34538" data-name="Path 34538" d="M-498.615,99.421a4.132,4.132,0,0,1-5.676-1.382,4.131,4.131,0,0,1,1.382-5.676,4.131,4.131,0,0,1,5.676,1.381A4.133,4.133,0,0,1-498.615,99.421Z" transform="translate(504.893 14.92)" fill="#fff" opacity="0.3"/>
              <path id="Path_34540" data-name="Path 34540" d="M-498.615,99.421a4.132,4.132,0,0,1-5.676-1.382,4.131,4.131,0,0,1,1.382-5.676,4.131,4.131,0,0,1,5.676,1.381A4.133,4.133,0,0,1-498.615,99.421Z" transform="translate(504.893 65.871)" fill="#fff"/>
              <path id="Path_34542" data-name="Path 34542" d="M-498.615,99.421a4.132,4.132,0,0,1-5.676-1.382,4.131,4.131,0,0,1,1.382-5.676,4.131,4.131,0,0,1,5.676,1.381A4.133,4.133,0,0,1-498.615,99.421Z" transform="translate(504.893 118.415)" fill="#fff"/>
              <path id="Path_34537" data-name="Path 34537" d="M-498.615,99.421a4.132,4.132,0,0,1-5.676-1.382,4.131,4.131,0,0,1,1.382-5.676,4.131,4.131,0,0,1,5.676,1.381A4.133,4.133,0,0,1-498.615,99.421Z" transform="translate(504.893 -8.964)" fill="#fff"/>
              <path id="Path_34539" data-name="Path 34539" d="M-498.615,99.421a4.132,4.132,0,0,1-5.676-1.382,4.131,4.131,0,0,1,1.382-5.676,4.131,4.131,0,0,1,5.676,1.381A4.133,4.133,0,0,1-498.615,99.421Z" transform="translate(504.893 41.988)" fill="#fff"/>
              <path id="Path_34541" data-name="Path 34541" d="M-498.615,99.421a4.132,4.132,0,0,1-5.676-1.382,4.131,4.131,0,0,1,1.382-5.676,4.131,4.131,0,0,1,5.676,1.381A4.133,4.133,0,0,1-498.615,99.421Z" transform="translate(504.893 92.939)" fill="#fff" opacity="0.3"/>
              <path id="Path_34543" data-name="Path 34543" d="M-498.615,99.421a4.132,4.132,0,0,1-5.676-1.382,4.131,4.131,0,0,1,1.382-5.676,4.131,4.131,0,0,1,5.676,1.381A4.133,4.133,0,0,1-498.615,99.421Z" transform="translate(504.893 145.483)" fill="#fff" opacity="0.3"/>
            </g>
            <g id="Group_3539" data-name="Group 3539" transform="translate(156.039 25.476)">
              <path id="Path_34544" data-name="Path 34544" d="M-498.615,99.421a4.132,4.132,0,0,1-5.676-1.382,4.131,4.131,0,0,1,1.382-5.676,4.131,4.131,0,0,1,5.676,1.381A4.133,4.133,0,0,1-498.615,99.421Z" transform="translate(504.893 -4.187)" fill="#fff"/>
              <path id="Path_34594" data-name="Path 34594" d="M-498.615,99.421a4.132,4.132,0,0,1-5.676-1.382,4.131,4.131,0,0,1,1.382-5.676,4.131,4.131,0,0,1,5.676,1.381A4.133,4.133,0,0,1-498.615,99.421Z" transform="translate(504.893 -28.07)" fill="#fff"/>
              <path id="Path_34595" data-name="Path 34595" d="M-498.615,99.421a4.132,4.132,0,0,1-5.676-1.382,4.131,4.131,0,0,1,1.382-5.676,4.131,4.131,0,0,1,5.676,1.381A4.133,4.133,0,0,1-498.615,99.421Z" transform="translate(504.893 -59.915)" fill="#fff" opacity="0.3"/>
              <path id="Path_34596" data-name="Path 34596" d="M-498.615,99.421a4.132,4.132,0,0,1-5.676-1.382,4.131,4.131,0,0,1,1.382-5.676,4.131,4.131,0,0,1,5.676,1.381A4.133,4.133,0,0,1-498.615,99.421Z" transform="translate(504.893 -91.76)" fill="#fff" opacity="0.3"/>
              <path id="Path_34546" data-name="Path 34546" d="M-498.615,99.421a4.132,4.132,0,0,1-5.676-1.382,4.131,4.131,0,0,1,1.382-5.676,4.131,4.131,0,0,1,5.676,1.381A4.133,4.133,0,0,1-498.615,99.421Z" transform="translate(504.893 46.765)" fill="#fff" opacity="0.3"/>
              <path id="Path_34548" data-name="Path 34548" d="M-498.615,99.421a4.132,4.132,0,0,1-5.676-1.382,4.131,4.131,0,0,1,1.382-5.676,4.131,4.131,0,0,1,5.676,1.381A4.133,4.133,0,0,1-498.615,99.421Z" transform="translate(504.893 97.716)" fill="#fff"/>
              <path id="Path_34550" data-name="Path 34550" d="M-498.615,99.421a4.132,4.132,0,0,1-5.676-1.382,4.131,4.131,0,0,1,1.382-5.676,4.131,4.131,0,0,1,5.676,1.381A4.133,4.133,0,0,1-498.615,99.421Z" transform="translate(504.893 150.26)" fill="#fff"/>
              <path id="Path_34545" data-name="Path 34545" d="M-498.615,99.421a4.132,4.132,0,0,1-5.676-1.382,4.131,4.131,0,0,1,1.382-5.676,4.131,4.131,0,0,1,5.676,1.381A4.133,4.133,0,0,1-498.615,99.421Z" transform="translate(504.893 22.881)" fill="#fff"/>
              <path id="Path_34547" data-name="Path 34547" d="M-498.615,99.421a4.132,4.132,0,0,1-5.676-1.382,4.131,4.131,0,0,1,1.382-5.676,4.131,4.131,0,0,1,5.676,1.381A4.133,4.133,0,0,1-498.615,99.421Z" transform="translate(504.893 73.832)" fill="#fff"/>
              <path id="Path_34549" data-name="Path 34549" d="M-498.615,99.421a4.132,4.132,0,0,1-5.676-1.382,4.131,4.131,0,0,1,1.382-5.676,4.131,4.131,0,0,1,5.676,1.381A4.133,4.133,0,0,1-498.615,99.421Z" transform="translate(504.893 124.784)" fill="#fff" opacity="0.3"/>
              <path id="Path_34551" data-name="Path 34551" d="M-498.615,99.421a4.132,4.132,0,0,1-5.676-1.382,4.131,4.131,0,0,1,1.382-5.676,4.131,4.131,0,0,1,5.676,1.381A4.133,4.133,0,0,1-498.615,99.421Z" transform="translate(504.893 177.328)" fill="#fff" opacity="0.3"/>
              <path id="Path_34606" data-name="Path 34606" d="M-498.615,99.421a4.132,4.132,0,0,1-5.676-1.382,4.131,4.131,0,0,1,1.382-5.676,4.131,4.131,0,0,1,5.676,1.381A4.133,4.133,0,0,1-498.615,99.421Z" transform="translate(504.893 204.396)" fill="#fff" opacity="0.3"/>
              <path id="Path_34607" data-name="Path 34607" d="M-498.615,99.421a4.132,4.132,0,0,1-5.676-1.382,4.131,4.131,0,0,1,1.382-5.676,4.131,4.131,0,0,1,5.676,1.381A4.133,4.133,0,0,1-498.615,99.421Z" transform="translate(504.893 226.687)" fill="#fff" opacity="0.3"/>
            </g>
            <g id="Group_3540" data-name="Group 3540" transform="translate(181.514 89.165)">
              <path id="Path_34552" data-name="Path 34552" d="M-498.615,99.421a4.132,4.132,0,0,1-5.676-1.382,4.131,4.131,0,0,1,1.382-5.676,4.131,4.131,0,0,1,5.676,1.381A4.133,4.133,0,0,1-498.615,99.421Z" transform="translate(504.893 -67.876)" fill="#fff"/>
              <path id="Path_34597" data-name="Path 34597" d="M-498.615,99.421a4.132,4.132,0,0,1-5.676-1.382,4.131,4.131,0,0,1,1.382-5.676,4.131,4.131,0,0,1,5.676,1.381A4.133,4.133,0,0,1-498.615,99.421Z" transform="translate(504.893 -91.76)" fill="#fff"/>
              <path id="Path_34554" data-name="Path 34554" d="M-498.615,99.421a4.132,4.132,0,0,1-5.676-1.382,4.131,4.131,0,0,1,1.382-5.676,4.131,4.131,0,0,1,5.676,1.381A4.133,4.133,0,0,1-498.615,99.421Z" transform="translate(504.893 -16.925)" fill="#fff" opacity="0.3"/>
              <path id="Path_34556" data-name="Path 34556" d="M-498.615,99.421a4.132,4.132,0,0,1-5.676-1.382,4.131,4.131,0,0,1,1.382-5.676,4.131,4.131,0,0,1,5.676,1.381A4.133,4.133,0,0,1-498.615,99.421Z" transform="translate(504.893 34.027)" fill="#fff"/>
              <path id="Path_34558" data-name="Path 34558" d="M-498.615,99.421a4.132,4.132,0,0,1-5.676-1.382,4.131,4.131,0,0,1,1.382-5.676,4.131,4.131,0,0,1,5.676,1.381A4.133,4.133,0,0,1-498.615,99.421Z" transform="translate(504.893 86.57)" fill="#fff"/>
              <path id="Path_34553" data-name="Path 34553" d="M-498.615,99.421a4.132,4.132,0,0,1-5.676-1.382,4.131,4.131,0,0,1,1.382-5.676,4.131,4.131,0,0,1,5.676,1.381A4.133,4.133,0,0,1-498.615,99.421Z" transform="translate(504.893 -40.808)" fill="#fff"/>
              <path id="Path_34555" data-name="Path 34555" d="M-498.615,99.421a4.132,4.132,0,0,1-5.676-1.382,4.131,4.131,0,0,1,1.382-5.676,4.131,4.131,0,0,1,5.676,1.381A4.133,4.133,0,0,1-498.615,99.421Z" transform="translate(504.893 10.143)" fill="#fff"/>
              <path id="Path_34557" data-name="Path 34557" d="M-498.615,99.421a4.132,4.132,0,0,1-5.676-1.382,4.131,4.131,0,0,1,1.382-5.676,4.131,4.131,0,0,1,5.676,1.381A4.133,4.133,0,0,1-498.615,99.421Z" transform="translate(504.893 61.095)" fill="#fff" opacity="0.3"/>
              <path id="Path_34559" data-name="Path 34559" d="M-498.615,99.421a4.132,4.132,0,0,1-5.676-1.382,4.131,4.131,0,0,1,1.382-5.676,4.131,4.131,0,0,1,5.676,1.381A4.133,4.133,0,0,1-498.615,99.421Z" transform="translate(504.893 113.638)" fill="#fff"/>
              <path id="Path_34608" data-name="Path 34608" d="M-498.615,99.421a4.132,4.132,0,0,1-5.676-1.382,4.131,4.131,0,0,1,1.382-5.676,4.131,4.131,0,0,1,5.676,1.381A4.133,4.133,0,0,1-498.615,99.421Z" transform="translate(504.893 139.114)" fill="#fff"/>
              <path id="Path_34609" data-name="Path 34609" d="M-498.615,99.421a4.132,4.132,0,0,1-5.676-1.382,4.131,4.131,0,0,1,1.382-5.676,4.131,4.131,0,0,1,5.676,1.381A4.133,4.133,0,0,1-498.615,99.421Z" transform="translate(504.893 161.405)" fill="#fff" opacity="0.3"/>
              <path id="Path_34610" data-name="Path 34610" d="M-498.615,99.421a4.132,4.132,0,0,1-5.676-1.382,4.131,4.131,0,0,1,1.382-5.676,4.131,4.131,0,0,1,5.676,1.381A4.133,4.133,0,0,1-498.615,99.421Z" transform="translate(504.893 183.697)" fill="#fff" opacity="0.3"/>
            </g>
            <g id="Group_3541" data-name="Group 3541" transform="translate(206.99 57.32)">
              <path id="Path_34560" data-name="Path 34560" d="M-498.615,99.421a4.132,4.132,0,0,1-5.676-1.382,4.131,4.131,0,0,1,1.382-5.676,4.131,4.131,0,0,1,5.676,1.381A4.133,4.133,0,0,1-498.615,99.421Z" transform="translate(504.893 -36.032)" fill="#fff" opacity="0.3"/>
              <path id="Path_34598" data-name="Path 34598" d="M-498.615,99.421a4.132,4.132,0,0,1-5.676-1.382,4.131,4.131,0,0,1,1.382-5.676,4.131,4.131,0,0,1,5.676,1.381A4.133,4.133,0,0,1-498.615,99.421Z" transform="translate(504.893 -59.915)" fill="#fff"/>
              <path id="Path_34599" data-name="Path 34599" d="M-498.615,99.421a4.132,4.132,0,0,1-5.676-1.382,4.131,4.131,0,0,1,1.382-5.676,4.131,4.131,0,0,1,5.676,1.381A4.133,4.133,0,0,1-498.615,99.421Z" transform="translate(504.893 -91.76)" fill="#fff" opacity="0.3"/>
              <path id="Path_34562" data-name="Path 34562" d="M-498.615,99.421a4.132,4.132,0,0,1-5.676-1.382,4.131,4.131,0,0,1,1.382-5.676,4.131,4.131,0,0,1,5.676,1.381A4.133,4.133,0,0,1-498.615,99.421Z" transform="translate(504.893 14.92)" fill="#fff"/>
              <path id="Path_34564" data-name="Path 34564" d="M-498.615,99.421a4.132,4.132,0,0,1-5.676-1.382,4.131,4.131,0,0,1,1.382-5.676,4.131,4.131,0,0,1,5.676,1.381A4.133,4.133,0,0,1-498.615,99.421Z" transform="translate(504.893 65.871)" fill="#fff"/>
              <path id="Path_34566" data-name="Path 34566" d="M-498.615,99.421a4.132,4.132,0,0,1-5.676-1.382,4.131,4.131,0,0,1,1.382-5.676,4.131,4.131,0,0,1,5.676,1.381A4.133,4.133,0,0,1-498.615,99.421Z" transform="translate(504.893 118.415)" fill="#fff"/>
              <path id="Path_34561" data-name="Path 34561" d="M-498.615,99.421a4.132,4.132,0,0,1-5.676-1.382,4.131,4.131,0,0,1,1.382-5.676,4.131,4.131,0,0,1,5.676,1.381A4.133,4.133,0,0,1-498.615,99.421Z" transform="translate(504.893 -8.964)" fill="#fff" opacity="0.3"/>
              <path id="Path_34563" data-name="Path 34563" d="M-498.615,99.421a4.132,4.132,0,0,1-5.676-1.382,4.131,4.131,0,0,1,1.382-5.676,4.131,4.131,0,0,1,5.676,1.381A4.133,4.133,0,0,1-498.615,99.421Z" transform="translate(504.893 41.988)" fill="#fff" opacity="0.3"/>
              <path id="Path_34565" data-name="Path 34565" d="M-498.615,99.421a4.132,4.132,0,0,1-5.676-1.382,4.131,4.131,0,0,1,1.382-5.676,4.131,4.131,0,0,1,5.676,1.381A4.133,4.133,0,0,1-498.615,99.421Z" transform="translate(504.893 92.939)" fill="#fff" opacity="0.3"/>
              <path id="Path_34567" data-name="Path 34567" d="M-498.615,99.421a4.132,4.132,0,0,1-5.676-1.382,4.131,4.131,0,0,1,1.382-5.676,4.131,4.131,0,0,1,5.676,1.381A4.133,4.133,0,0,1-498.615,99.421Z" transform="translate(504.893 145.483)" fill="#fff"/>
              <path id="Path_34611" data-name="Path 34611" d="M-498.615,99.421a4.132,4.132,0,0,1-5.676-1.382,4.131,4.131,0,0,1,1.382-5.676,4.131,4.131,0,0,1,5.676,1.381A4.133,4.133,0,0,1-498.615,99.421Z" transform="translate(504.893 170.959)" fill="#fff"/>
            </g>
            <g id="Group_3542" data-name="Group 3542" transform="translate(234.059 87.573)">
              <path id="Path_34568" data-name="Path 34568" d="M-498.615,99.421a4.132,4.132,0,0,1-5.676-1.382,4.131,4.131,0,0,1,1.382-5.676,4.131,4.131,0,0,1,5.676,1.381A4.133,4.133,0,0,1-498.615,99.421Z" transform="translate(504.893 -66.284)" fill="#fff" opacity="0.3"/>
              <path id="Path_34600" data-name="Path 34600" d="M-498.615,99.421a4.132,4.132,0,0,1-5.676-1.382,4.131,4.131,0,0,1,1.382-5.676,4.131,4.131,0,0,1,5.676,1.381A4.133,4.133,0,0,1-498.615,99.421Z" transform="translate(504.893 -91.76)" fill="#fff" opacity="0.3"/>
              <path id="Path_34570" data-name="Path 34570" d="M-498.615,99.421a4.132,4.132,0,0,1-5.676-1.382,4.131,4.131,0,0,1,1.382-5.676,4.131,4.131,0,0,1,5.676,1.381A4.133,4.133,0,0,1-498.615,99.421Z" transform="translate(504.893 -15.333)" fill="#fff" opacity="0.3"/>
              <path id="Path_34572" data-name="Path 34572" d="M-498.615,99.421a4.132,4.132,0,0,1-5.676-1.382,4.131,4.131,0,0,1,1.382-5.676,4.131,4.131,0,0,1,5.676,1.381A4.133,4.133,0,0,1-498.615,99.421Z" transform="translate(504.893 35.619)" fill="#fff"/>
              <path id="Path_34574" data-name="Path 34574" d="M-498.615,99.421a4.132,4.132,0,0,1-5.676-1.382,4.131,4.131,0,0,1,1.382-5.676,4.131,4.131,0,0,1,5.676,1.381A4.133,4.133,0,0,1-498.615,99.421Z" transform="translate(504.893 88.163)" fill="#fff"/>
              <path id="Path_34569" data-name="Path 34569" d="M-498.615,99.421a4.132,4.132,0,0,1-5.676-1.382,4.131,4.131,0,0,1,1.382-5.676,4.131,4.131,0,0,1,5.676,1.381A4.133,4.133,0,0,1-498.615,99.421Z" transform="translate(504.893 -39.216)" fill="#fff" opacity="0.3"/>
              <path id="Path_34571" data-name="Path 34571" d="M-498.615,99.421a4.132,4.132,0,0,1-5.676-1.382,4.131,4.131,0,0,1,1.382-5.676,4.131,4.131,0,0,1,5.676,1.381A4.133,4.133,0,0,1-498.615,99.421Z" transform="translate(504.893 11.735)" fill="#fff" opacity="0.3"/>
              <path id="Path_34573" data-name="Path 34573" d="M-498.615,99.421a4.132,4.132,0,0,1-5.676-1.382,4.131,4.131,0,0,1,1.382-5.676,4.131,4.131,0,0,1,5.676,1.381A4.133,4.133,0,0,1-498.615,99.421Z" transform="translate(504.893 62.687)" fill="#fff" opacity="0.3"/>
              <path id="Path_34575" data-name="Path 34575" d="M-498.615,99.421a4.132,4.132,0,0,1-5.676-1.382,4.131,4.131,0,0,1,1.382-5.676,4.131,4.131,0,0,1,5.676,1.381A4.133,4.133,0,0,1-498.615,99.421Z" transform="translate(504.893 142.298)" fill="#fff"/>
              <path id="Path_34612" data-name="Path 34612" d="M-498.615,99.421a4.132,4.132,0,0,1-5.676-1.382,4.131,4.131,0,0,1,1.382-5.676,4.131,4.131,0,0,1,5.676,1.381A4.133,4.133,0,0,1-498.615,99.421Z" transform="translate(504.893 115.231)" fill="#fff"/>
            </g>
            <g id="Group_3543" data-name="Group 3543" transform="translate(259.534 113.049)">
              <path id="Path_34576" data-name="Path 34576" d="M-498.615,99.421a4.132,4.132,0,0,1-5.676-1.382,4.131,4.131,0,0,1,1.382-5.676,4.131,4.131,0,0,1,5.676,1.381A4.133,4.133,0,0,1-498.615,99.421Z" transform="translate(504.893 -91.76)" fill="#fff" opacity="0.3"/>
              <path id="Path_34578" data-name="Path 34578" d="M-498.615,99.421a4.132,4.132,0,0,1-5.676-1.382,4.131,4.131,0,0,1,1.382-5.676,4.131,4.131,0,0,1,5.676,1.381A4.133,4.133,0,0,1-498.615,99.421Z" transform="translate(504.893 -40.808)" fill="#fff" opacity="0.3"/>
              <path id="Path_34580" data-name="Path 34580" d="M-498.615,99.421a4.132,4.132,0,0,1-5.676-1.382,4.131,4.131,0,0,1,1.382-5.676,4.131,4.131,0,0,1,5.676,1.381A4.133,4.133,0,0,1-498.615,99.421Z" transform="translate(504.893 10.143)" fill="#fff" opacity="0.3"/>
              <path id="Path_34582" data-name="Path 34582" d="M-498.615,99.421a4.132,4.132,0,0,1-5.676-1.382,4.131,4.131,0,0,1,1.382-5.676,4.131,4.131,0,0,1,5.676,1.381A4.133,4.133,0,0,1-498.615,99.421Z" transform="translate(504.893 62.687)" fill="#fff"/>
              <path id="Path_34577" data-name="Path 34577" d="M-498.615,99.421a4.132,4.132,0,0,1-5.676-1.382,4.131,4.131,0,0,1,1.382-5.676,4.131,4.131,0,0,1,5.676,1.381A4.133,4.133,0,0,1-498.615,99.421Z" transform="translate(504.893 -64.692)" fill="#fff" opacity="0.3"/>
              <path id="Path_34579" data-name="Path 34579" d="M-498.615,99.421a4.132,4.132,0,0,1-5.676-1.382,4.131,4.131,0,0,1,1.382-5.676,4.131,4.131,0,0,1,5.676,1.381A4.133,4.133,0,0,1-498.615,99.421Z" transform="translate(504.893 -13.74)" fill="#fff"/>
              <path id="Path_34581" data-name="Path 34581" d="M-498.615,99.421a4.132,4.132,0,0,1-5.676-1.382,4.131,4.131,0,0,1,1.382-5.676,4.131,4.131,0,0,1,5.676,1.381A4.133,4.133,0,0,1-498.615,99.421Z" transform="translate(504.893 37.211)" fill="#fff" opacity="0.3"/>
              <path id="Path_34583" data-name="Path 34583" d="M-498.615,99.421a4.132,4.132,0,0,1-5.676-1.382,4.131,4.131,0,0,1,1.382-5.676,4.131,4.131,0,0,1,5.676,1.381A4.133,4.133,0,0,1-498.615,99.421Z" transform="translate(504.893 89.755)" fill="#fff"/>
            </g>
            <g id="Group_3544" data-name="Group 3544" transform="translate(285.01 113.049)">
              <path id="Path_34584" data-name="Path 34584" d="M-498.615,99.421a4.132,4.132,0,0,1-5.676-1.382,4.131,4.131,0,0,1,1.382-5.676,4.131,4.131,0,0,1,5.676,1.381A4.133,4.133,0,0,1-498.615,99.421Z" transform="translate(504.893 -91.76)" fill="#fff"/>
              <path id="Path_34586" data-name="Path 34586" d="M-498.615,99.421a4.132,4.132,0,0,1-5.676-1.382,4.131,4.131,0,0,1,1.382-5.676,4.131,4.131,0,0,1,5.676,1.381A4.133,4.133,0,0,1-498.615,99.421Z" transform="translate(504.893 -40.808)" fill="#fff"/>
              <path id="Path_34588" data-name="Path 34588" d="M-498.615,99.421a4.132,4.132,0,0,1-5.676-1.382,4.131,4.131,0,0,1,1.382-5.676,4.131,4.131,0,0,1,5.676,1.381A4.133,4.133,0,0,1-498.615,99.421Z" transform="translate(504.893 10.143)" fill="#fff" opacity="0.3"/>
              <path id="Path_34590" data-name="Path 34590" d="M-498.615,99.421a4.132,4.132,0,0,1-5.676-1.382,4.131,4.131,0,0,1,1.382-5.676,4.131,4.131,0,0,1,5.676,1.381A4.133,4.133,0,0,1-498.615,99.421Z" transform="translate(504.893 62.687)" fill="#fff"/>
              <path id="Path_34585" data-name="Path 34585" d="M-498.615,99.421a4.132,4.132,0,0,1-5.676-1.382,4.131,4.131,0,0,1,1.382-5.676,4.131,4.131,0,0,1,5.676,1.381A4.133,4.133,0,0,1-498.615,99.421Z" transform="translate(504.893 -64.692)" fill="#fff" opacity="0.3"/>
              <path id="Path_34587" data-name="Path 34587" d="M-498.615,99.421a4.132,4.132,0,0,1-5.676-1.382,4.131,4.131,0,0,1,1.382-5.676,4.131,4.131,0,0,1,5.676,1.381A4.133,4.133,0,0,1-498.615,99.421Z" transform="translate(504.893 -13.74)" fill="#fff" opacity="0.3"/>
              <path id="Path_34589" data-name="Path 34589" d="M-498.615,99.421a4.132,4.132,0,0,1-5.676-1.382,4.131,4.131,0,0,1,1.382-5.676,4.131,4.131,0,0,1,5.676,1.381A4.133,4.133,0,0,1-498.615,99.421Z" transform="translate(504.893 37.211)" fill="#fff" opacity="0.3"/>
              <path id="Path_34591" data-name="Path 34591" d="M-498.615,99.421a4.132,4.132,0,0,1-5.676-1.382,4.131,4.131,0,0,1,1.382-5.676,4.131,4.131,0,0,1,5.676,1.381A4.133,4.133,0,0,1-498.615,99.421Z" transform="translate(504.893 89.755)" fill="#fff"/>
            </g>
            <g id="Group_3545" data-name="Group 3545" transform="translate(0 57.32)">
              <path id="Path_34510" data-name="Path 34510" d="M-498.615,99.421a4.132,4.132,0,0,1-5.676-1.382,4.131,4.131,0,0,1,1.382-5.676,4.131,4.131,0,0,1,5.676,1.381A4.133,4.133,0,0,1-498.615,99.421Z" transform="translate(504.893 -67.876)" fill="#fff" opacity="0.3"/>
              <path id="Path_34508" data-name="Path 34508" d="M-498.615,99.421a4.132,4.132,0,0,1-5.676-1.382,4.131,4.131,0,0,1,1.382-5.676,4.131,4.131,0,0,1,5.676,1.381A4.133,4.133,0,0,1-498.615,99.421Z" transform="translate(504.893 -13.74)" fill="#fff" opacity="0.3"/>
              <path id="Path_34506" data-name="Path 34506" d="M-498.615,99.421a4.132,4.132,0,0,1-5.676-1.382,4.131,4.131,0,0,1,1.382-5.676,4.131,4.131,0,0,1,5.676,1.381A4.133,4.133,0,0,1-498.615,99.421Z" transform="translate(504.893 35.619)" fill="#fff" opacity="0.3"/>
              <path id="Path_34511" data-name="Path 34511" d="M-498.615,99.421a4.132,4.132,0,0,1-5.676-1.382,4.131,4.131,0,0,1,1.382-5.676,4.131,4.131,0,0,1,5.676,1.381A4.133,4.133,0,0,1-498.615,99.421Z" transform="translate(504.893 -91.76)" fill="#fff" opacity="0.3"/>
              <path id="Path_34509" data-name="Path 34509" d="M-498.615,99.421a4.132,4.132,0,0,1-5.676-1.382,4.131,4.131,0,0,1,1.382-5.676,4.131,4.131,0,0,1,5.676,1.381A4.133,4.133,0,0,1-498.615,99.421Z" transform="translate(504.893 -40.808)" fill="#fff" opacity="0.3"/>
              <path id="Path_34507" data-name="Path 34507" d="M-498.615,99.421a4.132,4.132,0,0,1-5.676-1.382,4.131,4.131,0,0,1,1.382-5.676,4.131,4.131,0,0,1,5.676,1.381A4.133,4.133,0,0,1-498.615,99.421Z" transform="translate(504.893 10.143)" fill="#fff" opacity="0.3"/>
              <path id="Path_34505" data-name="Path 34505" d="M-498.615,99.421a4.132,4.132,0,0,1-5.676-1.382,4.131,4.131,0,0,1,1.382-5.676,4.131,4.131,0,0,1,5.676,1.381A4.133,4.133,0,0,1-498.615,99.421Z" transform="translate(504.893 62.687)" fill="#fff" opacity="0.3"/>
            </g>
          </g>
          <g id="Group_3546" data-name="Group 3546" transform="translate(56.451 293.003)">
            <path id="Path_34619" data-name="Path 34619" d="M4611.718,763.069h78.564l25.1-26.752" transform="translate(-4535.543 -661.109)" fill="none" stroke="#fff" stroke-width="1"/>
            <path id="Path_34614" data-name="Path 34614" d="M4685.881,689.083l-24.964,24.77v27.393" transform="translate(-4506.493 -689.083)" fill="none" stroke="#fff" stroke-width="1"/>
            <path id="Path_34615" data-name="Path 34615" d="M4709.072,741.246V713.853l24.962-24.77h-52.206l-51.332,24.77-26.453,24.77L4579.609,766.2v49.989l25.555,27.348H4630.5V816.185l26-25.555-26-26.227" transform="translate(-4579.609 -689.083)" fill="none" stroke="#fff" stroke-width="1"/>
            <path id="Path_34616" data-name="Path 34616" d="M4685.881,689.083l-24.964,24.77v27.393" transform="translate(-4557.956 -689.083)" fill="none" stroke="#fff" stroke-width="1"/>
            <path id="Path_34620" data-name="Path 34620" d="M4755.118,704.214l25.944,27.276,26.14,52.28v75.768l-26.14,26.9H4675.744V912.2h53.038l24.732-24.333" transform="translate(-4497.71 -680.121)" fill="none" stroke="#fff" stroke-width="1"/>
            <path id="Path_34621" data-name="Path 34621" d="M4724.79,863.927V887.35l-26.781-23.424,2.331-26.991-27.1-26.956h-51.581l-26.441-24.26" transform="translate(-4545.401 -631.851)" fill="none" stroke="#fff" stroke-width="1"/>
            <path id="Path_34622" data-name="Path 34622" d="M4644.595,840.19h130.033l25.354-25.936V762.382l-27.1-26.81" transform="translate(-4516.159 -661.55)" fill="none" stroke="#fff" stroke-width="1"/>
            <path id="Path_34623" data-name="Path 34623" d="M4758.147,753.562l-27.664,23.809H4627.612" transform="translate(-4526.216 -650.896)" fill="none" stroke="#fff" stroke-width="1"/>
          </g>
        </g>
        <circle id="Ellipse_153" data-name="Ellipse 153" cx="139.03" cy="139.03" r="139.03" transform="translate(1431.34 2762.251)" opacity="0.2" fill="url(#linear-gradient-2)"/>
      </g>
    </g>
  </g>
</svg>
