<svg xmlns="http://www.w3.org/2000/svg" width="25.167" height="18.875" viewBox="0 0 25.167 18.875">
  <path id="Icon_awesome-envelope" data-name="Icon awesome-envelope" d="M24.691,10.733a.3.3,0,0,1,.477.231V21.016a2.36,2.36,0,0,1-2.359,2.359H2.359A2.36,2.36,0,0,1,0,21.016V10.969a.294.294,0,0,1,.477-.231c1.1.855,2.561,1.942,7.575,5.584,1.037.757,2.787,2.35,4.532,2.34,1.755.015,3.539-1.612,4.537-2.34C22.135,12.679,23.59,11.588,24.691,10.733ZM12.584,17.084c1.14.02,2.782-1.435,3.608-2.035,6.523-4.734,7.019-5.147,8.523-6.326a1.176,1.176,0,0,0,.452-.929V6.859A2.36,2.36,0,0,0,22.808,4.5H2.359A2.36,2.36,0,0,0,0,6.859v.934a1.183,1.183,0,0,0,.452.929c1.5,1.175,2,1.593,8.523,6.326C9.8,15.648,11.443,17.1,12.584,17.084Z" transform="translate(0 -4.5)" fill="#ff5933"/>
</svg>
