<svg xmlns="http://www.w3.org/2000/svg" width="88" height="77" viewBox="0 0 88 77">
  <path id="Icon_awesome-quote-left" data-name="Icon awesome-quote-left" d="M79.75,40.75H66v-11a11.01,11.01,0,0,1,11-11h1.375A4.115,4.115,0,0,0,82.5,14.625V6.375A4.115,4.115,0,0,0,78.375,2.25H77a27.492,27.492,0,0,0-27.5,27.5V71a8.252,8.252,0,0,0,8.25,8.25h22A8.252,8.252,0,0,0,88,71V49A8.252,8.252,0,0,0,79.75,40.75Zm-49.5,0H16.5v-11a11.01,11.01,0,0,1,11-11h1.375A4.115,4.115,0,0,0,33,14.625V6.375A4.115,4.115,0,0,0,28.875,2.25H27.5A27.492,27.492,0,0,0,0,29.75V71a8.252,8.252,0,0,0,8.25,8.25h22A8.252,8.252,0,0,0,38.5,71V49A8.252,8.252,0,0,0,30.25,40.75Z" transform="translate(0 -2.25)" opacity="0.1"/>
</svg>
