<svg xmlns="http://www.w3.org/2000/svg" xmlns:xlink="http://www.w3.org/1999/xlink" width="1366" height="691" viewBox="0 0 1366 691">
  <defs>
    <clipPath id="clip-path">
      <rect id="Rectangle_293" data-name="Rectangle 293" width="1366" height="691" fill="#fff"/>
    </clipPath>
  </defs>
  <g id="Mask_Group_3" data-name="Mask Group 3" clip-path="url(#clip-path)">
    <g id="Group_5388" data-name="Group 5388">
      <g id="Group_5387" data-name="Group 5387">
        <path id="Path_4502" data-name="Path 4502" d="M-430.3-1537.354l-11.059,561.332s185.648,141.9,345.092,141.168,225.469-141.863,491.658-79.384,330.2-23.233,418.5-71.015,189.733,7.933,179.933-72.147-.226-537.44-.226-537.44Z" transform="translate(407.356 1514.321)" fill="#00a2f5" opacity="0.1"/>
        <path id="Path_4502-2" data-name="Path 4502" d="M1729-393l-69.937,557.5s170.753,148.431,330.265,154.044,240.335-132.035,499.955-59.342,332.613-9.956,425.927-53.935S3104.1,220.7,3102.7,140.714s56.146-534.2,56.146-534.2Z" transform="matrix(0.995, -0.105, 0.105, 0.995, -1718.27, 561.379)" fill="#00a2f5"/>
      </g>
      <g id="Group_5362" data-name="Group 5362" transform="translate(1614.521 595.145) rotate(180)" opacity="0.5">
        <g id="Group_3122" data-name="Group 3122" transform="translate(156.31 76.219)">
          <path id="Path_4032" data-name="Path 4032" d="M164.392,172.913l22.411.249L208.394,199.8l46.581.517L316,261l14.992.166L377.7,308.783l-.37,33.307" transform="translate(-113.551 281.125)" fill="none" stroke="#fff" stroke-miterlimit="10" stroke-width="0.567"/>
          <path id="Path_4033" data-name="Path 4033" d="M403.806,337.816l.242-21.783L351.22,256.826l-11.909-.132-60.828-58.28-48.077-.533L205.535,171.2l-32.345-.359L159.212,183.03" transform="translate(-132.694 273.479)" fill="none" stroke="#fff" stroke-miterlimit="10" stroke-width="0.567"/>
          <path id="Path_4034" data-name="Path 4034" d="M430.609,305.015l-61.32-64.07-17.386-.193-60.828-58.279L243,181.938l-14.051-14.557-56.992-.632-13.092,9.333" transform="translate(-133.984 258.345)" fill="none" stroke="#fff" stroke-miterlimit="10" stroke-width="0.567"/>
          <path id="Path_4035" data-name="Path 4035" d="M164.438,168.824l33.365.371L216.229,181.4l52.644.585,54.574,63.01,18.675.208,66.195,67.7" transform="translate(-113.383 266.015)" fill="none" stroke="#fff" stroke-miterlimit="10" stroke-width="0.567"/>
          <path id="Path_4036" data-name="Path 4036" d="M164.506,162.691l49.8.553,16.383,21.784,57.319.636,16.077,14.58,109.739,1.218,33.813-33.815,6.726,5.925" transform="translate(-113.132 243.35)" fill="none" stroke="#fff" stroke-miterlimit="10" stroke-width="0.567"/>
          <path id="Path_4037" data-name="Path 4037" d="M497.017,159.449l-11.164,11.159-10.97-.122L448.736,199l-100.149-1.112L332.047,176.1l-57.162-.634-13.329-14.549-93.316-1.035-14.2,14.552" transform="translate(-151.806 231.369)" fill="none" stroke="#fff" stroke-miterlimit="10" stroke-width="0.567"/>
          <path id="Path_4038" data-name="Path 4038" d="M165.079,200.056l66.567.739,9.992,12.112,69.294.769,8.664,9.7,76.126.845,12.892-16.644.426-38.4,25.684-23.726,21.38.237" transform="translate(-111.013 179.613)" fill="none" stroke="#fff" stroke-miterlimit="10" stroke-width="0.567"/>
          <path id="Path_4039" data-name="Path 4039" d="M475.363,140.54l-19.1-.212-37.714,37.326-.479,43.13-11.954,10.194-54.933-.61-13.622-9.752-65.69-.729-9.591-14.507-86.1-.956-17.537,16.391" transform="translate(-134.803 160.702)" fill="none" stroke="#fff" stroke-miterlimit="10" stroke-width="0.567"/>
          <path id="Path_4040" data-name="Path 4040" d="M164.613,310.54l110.046,1.221L400.065,181.408l.789-71.061" transform="translate(-112.734 49.903)" fill="none" stroke="#fff" stroke-miterlimit="10" stroke-width="0.567"/>
          <path id="Path_4041" data-name="Path 4041" d="M154.533,317.346l9.127-9.765,148.383,1.647,122.9-120.549.9-80.893" transform="translate(-149.985 40.438)" fill="none" stroke="#fff" stroke-miterlimit="10" stroke-width="0.567"/>
          <path id="Path_4042" data-name="Path 4042" d="M388.633,102.024l-14.187,16.921-.875,78.815-84.9,80.883-.125,11.3L262.72,313.587,164.681,312.5" transform="translate(-112.482 19.145)" fill="none" stroke="#fff" stroke-miterlimit="10" stroke-width="0.567"/>
          <path id="Path_4043" data-name="Path 4043" d="M164.738,306.716l79.922.887L259.747,288.6l.182-16.362,58.259-59.028.918-82.74,37.347-33.372" transform="translate(-112.272 0.929)" fill="none" stroke="#fff" stroke-miterlimit="10" stroke-width="0.567"/>
          <path id="Path_4044" data-name="Path 4044" d="M390.947,95.308l-37.976,39.367-.908,81.758-58.243,57.51-.175,15.793-14.094,12.426L165.672,300.9l-11.389,10.815" transform="translate(-150.911 -5.672)" fill="none" stroke="#fff" stroke-miterlimit="10" stroke-width="0.567"/>
          <path id="Path_4045" data-name="Path 4045" d="M159.617,314.5l12.357-11.846,107.908,1.2,13.042-17.91.115-10.312,82.471-77.89.858-77.3,20.419-19.031" transform="translate(-131.196 16.862)" fill="none" stroke="#fff" stroke-miterlimit="10" stroke-width="0.567"/>
          <path id="Path_4046" data-name="Path 4046" d="M165.312,340.055l39.181.435,19.032-16.59,11.279.125L267.912,286.7l1.382-124.445-40.325-43.074.2-17.627,20.875-20.619" transform="translate(-110.153 -58.782)" fill="none" stroke="#fff" stroke-miterlimit="10" stroke-width="0.567"/>
          <path id="Path_4047" data-name="Path 4047" d="M265.614,80.421l-26.243,24.358-.258,23.229,35.564,39.478-1.268,114.282-50.9,51.011-52.855-.586-9.7,10.419" transform="translate(-129.975 -60.692)" fill="none" stroke="#fff" stroke-miterlimit="10" stroke-width="0.567"/>
          <path id="Path_4048" data-name="Path 4048" d="M164.857,323.082l30.627.34,40.633-41.263,1.074-96.788-35.56-39.951.412-37.129,29.668-29.261" transform="translate(-111.832 -65.835)" fill="none" stroke="#fff" stroke-miterlimit="10" stroke-width="0.567"/>
          <path id="Path_4049" data-name="Path 4049" d="M260.1,77.755,228.946,106.03l-.593,53.393,30.82,34.493-1.019,91.829L229.24,320.875l-63.316-.7-11.573,8.782" transform="translate(-150.657 -70.545)" fill="none" stroke="#fff" stroke-miterlimit="10" stroke-width="0.567"/>
          <path id="Path_4050" data-name="Path 4050" d="M165.419,261.448l11.8.131L200.5,236.547l.865-77.919-33.23-33.568.391-35.191" transform="translate(-109.754 -25.773)" fill="none" stroke="#fff" stroke-miterlimit="10" stroke-width="0.567"/>
          <path id="Path_4051" data-name="Path 4051" d="M218.056,76.687l-42.593,37.878-.72,64.864,35.645,32.206-.741,66.783-18.728,17.4-19.857-.22-11.346,10.769" transform="translate(-130.828 -74.492)" fill="none" stroke="#fff" stroke-miterlimit="10" stroke-width="0.567"/>
          <path id="Path_4052" data-name="Path 4052" d="M159.664,259.99,161.3,112.531l40.783-36.312" transform="translate(-131.025 -76.219)" fill="none" stroke="#fff" stroke-miterlimit="10" stroke-width="0.567"/>
          <path id="Path_4053" data-name="Path 4053" d="M153.565,184.319l15.5,13.254,48.792.541,77.308,81.328-1.411,127.131" transform="translate(-153.565 323.279)" fill="none" stroke="#fff" stroke-miterlimit="10" stroke-width="0.567"/>
        </g>
        <path id="Path_4054" data-name="Path 4054" d="M158.7,118.862a4.609,4.609,0,1,0,4.658-4.555A4.609,4.609,0,0,0,158.7,118.862Z" transform="translate(21.716 140.759)" fill="#fff"/>
        <path id="Path_4055" data-name="Path 4055" d="M153.412,134.653a4.607,4.607,0,1,0,4.658-4.559A4.605,4.605,0,0,0,153.412,134.653Z" transform="translate(2.18 199.098)" fill="#fff"/>
        <path id="Path_4056" data-name="Path 4056" d="M158.585,129.088a4.607,4.607,0,1,0,4.658-4.559A4.605,4.605,0,0,0,158.585,129.088Z" transform="translate(21.298 178.532)" fill="#fff"/>
        <path id="Path_4057" data-name="Path 4057" d="M158.466,139.816a4.607,4.607,0,1,0,4.658-4.555A4.609,4.609,0,0,0,158.466,139.816Z" transform="translate(20.858 218.197)" fill="#fff"/>
        <path id="Path_4058" data-name="Path 4058" d="M158.347,150.549a4.607,4.607,0,1,0,4.658-4.555A4.606,4.606,0,0,0,158.347,150.549Z" transform="translate(20.418 257.862)" fill="#fff"/>
        <path id="Path_4059" data-name="Path 4059" d="M157.722,160.765a4.607,4.607,0,1,0,4.658-4.555A4.61,4.61,0,0,0,157.722,160.765Z" transform="translate(18.109 295.617)" fill="#fff"/>
        <path id="Path_4060" data-name="Path 4060" d="M158.052,177.126a4.607,4.607,0,1,0,4.658-4.555A4.605,4.605,0,0,0,158.052,177.126Z" transform="translate(19.328 356.081)" fill="#fff"/>
        <path id="Path_4061" data-name="Path 4061" d="M157.592,172.525a4.607,4.607,0,1,0,4.658-4.56A4.609,4.609,0,0,0,157.592,172.525Z" transform="translate(17.628 339.059)" fill="#fff"/>
        <path id="Path_4062" data-name="Path 4062" d="M152.822,187.8a4.607,4.607,0,1,0,4.658-4.555A4.605,4.605,0,0,0,152.822,187.8Z" transform="translate(0 395.536)" fill="#fff"/>
        <path id="Path_4063" data-name="Path 4063" d="M164.2,130.168a4.607,4.607,0,1,0,4.658-4.555A4.605,4.605,0,0,0,164.2,130.168Z" transform="translate(42.034 182.541)" fill="#fff"/>
        <path id="Path_4064" data-name="Path 4064" d="M164.144,134.768a4.609,4.609,0,1,0,4.663-4.555A4.612,4.612,0,0,0,164.144,134.768Z" transform="translate(41.842 199.541)" fill="#fff"/>
        <path id="Path_4065" data-name="Path 4065" d="M164.088,139.879a4.607,4.607,0,1,0,4.658-4.555A4.605,4.605,0,0,0,164.088,139.879Z" transform="translate(41.635 218.43)" fill="#fff"/>
        <path id="Path_4066" data-name="Path 4066" d="M164.025,145.5a4.609,4.609,0,1,0,4.658-4.555A4.61,4.61,0,0,0,164.025,145.5Z" transform="translate(41.402 239.207)" fill="#fff"/>
        <path id="Path_4067" data-name="Path 4067" d="M153.292,145.386a4.609,4.609,0,1,0,4.663-4.559A4.609,4.609,0,0,0,153.292,145.386Z" transform="translate(1.737 238.763)" fill="#fff"/>
        <path id="Path_4068" data-name="Path 4068" d="M153.173,156.119a4.609,4.609,0,1,0,4.663-4.559A4.609,4.609,0,0,0,153.173,156.119Z" transform="translate(1.297 278.428)" fill="#fff"/>
        <path id="Path_4069" data-name="Path 4069" d="M153.06,166.336a4.607,4.607,0,1,0,4.658-4.555A4.605,4.605,0,0,0,153.06,166.336Z" transform="translate(0.88 316.205)" fill="#fff"/>
        <path id="Path_4070" data-name="Path 4070" d="M163.969,150.616a4.607,4.607,0,1,0,4.658-4.559A4.606,4.606,0,0,0,163.969,150.616Z" transform="translate(41.195 258.091)" fill="#fff"/>
        <path id="Path_4071" data-name="Path 4071" d="M163.9,156.745a4.607,4.607,0,1,0,4.658-4.555A4.606,4.606,0,0,0,163.9,156.745Z" transform="translate(40.944 280.76)" fill="#fff"/>
        <path id="Path_4072" data-name="Path 4072" d="M163.855,160.838a4.609,4.609,0,1,0,4.658-4.559A4.612,4.612,0,0,0,163.855,160.838Z" transform="translate(40.774 295.868)" fill="#fff"/>
        <path id="Path_4073" data-name="Path 4073" d="M163.793,166.46a4.607,4.607,0,1,0,4.658-4.56A4.612,4.612,0,0,0,163.793,166.46Z" transform="translate(40.545 316.645)" fill="#fff"/>
        <path id="Path_4074" data-name="Path 4074" d="M163.725,172.593a4.607,4.607,0,1,0,4.658-4.559A4.605,4.605,0,0,0,163.725,172.593Z" transform="translate(40.294 339.31)" fill="#fff"/>
        <path id="Path_4075" data-name="Path 4075" d="M163.685,176.166a4.607,4.607,0,1,0,4.658-4.555A4.606,4.606,0,0,0,163.685,176.166Z" transform="translate(40.146 352.533)" fill="#fff"/>
      </g>
      <g id="Group_5365" data-name="Group 5365" transform="translate(-93 -24.926)" opacity="0.5">
        <g id="Group_3122-2" data-name="Group 3122" transform="translate(3.488)">
          <path id="Path_4032-2" data-name="Path 4032" d="M0,169.177l22.411-.249L44,142.286l46.581-.517,61.023-60.682,14.992-.166,46.711-47.614L212.939,0" transform="translate(50.841 106.636)" fill="none" stroke="#fff" stroke-miterlimit="10" stroke-width="0.567"/>
          <path id="Path_4033-2" data-name="Path 4033" d="M244.594,0l.242,21.783L192.007,80.99l-11.909.132L119.271,139.4l-48.077.533L46.322,166.614l-32.345.359L0,154.786" transform="translate(26.519 118.556)" fill="none" stroke="#fff" stroke-miterlimit="10" stroke-width="0.567"/>
          <path id="Path_4034-2" data-name="Path 4034" d="M271.745,0l-61.32,64.07-17.386.193-60.828,58.279-48.077.534L70.084,137.634l-56.992.632L0,128.934" transform="translate(24.879 166.492)" fill="none" stroke="#fff" stroke-miterlimit="10" stroke-width="0.567"/>
          <path id="Path_4035-2" data-name="Path 4035" d="M0,144.083l33.365-.371,18.426-12.205,52.644-.585,54.574-63.01,18.675-.208L243.88,0" transform="translate(51.054 150.929)" fill="none" stroke="#fff" stroke-miterlimit="10" stroke-width="0.567"/>
          <path id="Path_4036-2" data-name="Path 4036" d="M0,38.77l49.8-.553L66.18,16.434,123.5,15.8l16.077-14.58L249.314,0l33.813,33.815,6.726-5.925" transform="translate(51.374 285.041)" fill="none" stroke="#fff" stroke-miterlimit="10" stroke-width="0.567"/>
          <path id="Path_4037-2" data-name="Path 4037" d="M342.976,39.55,331.812,28.39l-10.97.122L294.7,0,194.546,1.112,178.006,22.9l-57.162.634L107.515,38.081,14.2,39.116,0,24.564" transform="translate(2.235 299.483)" fill="none" stroke="#fff" stroke-miterlimit="10" stroke-width="0.567"/>
          <path id="Path_4038-2" data-name="Path 4038" d="M0,24.162l66.567-.739L76.56,11.311l69.294-.769,8.664-9.7L230.643,0l12.892,16.644.426,38.4,25.684,23.726,21.38-.237" transform="translate(54.066 326.021)" fill="none" stroke="#fff" stroke-miterlimit="10" stroke-width="0.567"/>
          <path id="Path_4039-2" data-name="Path 4039" d="M316.721,90.438l-19.1.212L259.905,53.325l-.479-43.13L247.473,0,192.54.61l-13.622,9.752-65.69.729L103.637,25.6l-86.1.956L0,10.163" transform="translate(23.838 338.171)" fill="none" stroke="#fff" stroke-miterlimit="10" stroke-width="0.567"/>
          <path id="Path_4040-2" data-name="Path 4040" d="M0,1.221,110.046,0,235.452,130.354l.789,71.061" transform="translate(51.88 368.187)" fill="none" stroke="#fff" stroke-miterlimit="10" stroke-width="0.567"/>
          <path id="Path_4041-2" data-name="Path 4041" d="M0,0,9.127,9.765,157.511,8.119l122.9,120.549.9,80.893" transform="translate(4.549 372.068)" fill="none" stroke="#fff" stroke-miterlimit="10" stroke-width="0.567"/>
          <path id="Path_4042-2" data-name="Path 4042" d="M223.952,211.564l-14.187-16.921-.875-78.815-84.9-80.883-.125-11.3L98.038,0,0,1.088" transform="translate(52.199 397.119)" fill="none" stroke="#fff" stroke-miterlimit="10" stroke-width="0.567"/>
          <path id="Path_4043-2" data-name="Path 4043" d="M0,.887,79.922,0,95.009,19.007l.182,16.362L153.45,94.4l.918,82.74,37.347,33.372" transform="translate(52.466 421.319)" fill="none" stroke="#fff" stroke-miterlimit="10" stroke-width="0.567"/>
          <path id="Path_4044-2" data-name="Path 4044" d="M236.664,216.405l-37.976-39.367L197.78,95.28,139.538,37.77l-.175-15.793L125.268,9.551,11.389,10.815,0,0" transform="translate(3.372 423.81)" fill="none" stroke="#fff" stroke-miterlimit="10" stroke-width="0.567"/>
          <path id="Path_4045-2" data-name="Path 4045" d="M0,0,12.357,11.846l107.908-1.2,13.042,17.91.115,10.312,82.471,77.89.858,77.3,20.419,19.031" transform="translate(28.421 398.49)" fill="none" stroke="#fff" stroke-miterlimit="10" stroke-width="0.567"/>
          <path id="Path_4046-2" data-name="Path 4046" d="M0,.435,39.181,0,58.214,16.59l11.279-.125L102.6,53.786l1.382,124.445L63.656,221.305l.2,17.627,20.875,20.619" transform="translate(55.159 448.144)" fill="none" stroke="#fff" stroke-miterlimit="10" stroke-width="0.567"/>
          <path id="Path_4047-2" data-name="Path 4047" d="M105.666,262.19,79.423,237.833,79.165,214.6l35.564-39.478L113.461,60.843,62.558,9.832,9.7,10.419,0,0" transform="translate(29.973 447.932)" fill="none" stroke="#fff" stroke-miterlimit="10" stroke-width="0.567"/>
          <path id="Path_4048-2" data-name="Path 4048" d="M0,.34,30.627,0,71.26,41.263l1.074,96.788L36.774,178l.412,37.129,29.668,29.261" transform="translate(53.025 472.264)" fill="none" stroke="#fff" stroke-miterlimit="10" stroke-width="0.567"/>
          <path id="Path_4049-2" data-name="Path 4049" d="M105.747,251.2,74.594,222.925,74,169.532l30.82-34.493L103.8,43.21,74.889,8.079l-63.316.7L0,0" transform="translate(3.695 471.442)" fill="none" stroke="#fff" stroke-miterlimit="10" stroke-width="0.567"/>
          <path id="Path_4050-2" data-name="Path 4050" d="M0,.131,11.8,0,35.079,25.032l.865,77.919L2.714,136.519,3.1,171.71" transform="translate(55.665 494.045)" fill="none" stroke="#fff" stroke-miterlimit="10" stroke-width="0.567"/>
          <path id="Path_4051-2" data-name="Path 4051" d="M58.339,229.677,15.746,191.8l-.72-64.864L50.671,94.73,49.93,27.947,31.2,10.549l-19.857.22L0,0" transform="translate(28.889 497.979)" fill="none" stroke="#fff" stroke-miterlimit="10" stroke-width="0.567"/>
          <path id="Path_4052-2" data-name="Path 4052" d="M0,0,1.636,147.459l40.783,36.312" transform="translate(28.639 546.081)" fill="none" stroke="#fff" stroke-miterlimit="10" stroke-width="0.567"/>
          <path id="Path_4053-2" data-name="Path 4053" d="M0,222.254,15.5,209l48.792-.541L141.6,127.131,140.187,0" transform="translate(0 0)" fill="none" stroke="#fff" stroke-miterlimit="10" stroke-width="0.567"/>
        </g>
        <path id="Path_4054-2" data-name="Path 4054" d="M0,4.658A4.609,4.609,0,1,1,4.658,9.213,4.609,4.609,0,0,1,0,4.658Z" transform="translate(27.592 541.792)" fill="#fff"/>
        <path id="Path_4055-2" data-name="Path 4055" d="M0,4.658A4.607,4.607,0,1,1,4.658,9.218,4.605,4.605,0,0,1,0,4.658Z" transform="translate(2.77 467.662)" fill="#fff"/>
        <path id="Path_4056-2" data-name="Path 4056" d="M0,4.658A4.607,4.607,0,1,1,4.658,9.218,4.605,4.605,0,0,1,0,4.658Z" transform="translate(27.061 493.793)" fill="#fff"/>
        <path id="Path_4057-2" data-name="Path 4057" d="M0,4.663A4.607,4.607,0,1,1,4.658,9.218,4.609,4.609,0,0,1,0,4.663Z" transform="translate(26.502 443.395)" fill="#fff"/>
        <path id="Path_4058-2" data-name="Path 4058" d="M0,4.658A4.607,4.607,0,1,1,4.658,9.213,4.606,4.606,0,0,1,0,4.658Z" transform="translate(25.943 393.001)" fill="#fff"/>
        <path id="Path_4059-2" data-name="Path 4059" d="M0,4.663A4.607,4.607,0,1,1,4.658,9.218,4.61,4.61,0,0,1,0,4.663Z" transform="translate(23.009 345.026)" fill="#fff"/>
        <path id="Path_4060-2" data-name="Path 4060" d="M0,4.658A4.607,4.607,0,1,1,4.658,9.213,4.605,4.605,0,0,1,0,4.658Z" transform="translate(24.558 268.205)" fill="#fff"/>
        <path id="Path_4061-2" data-name="Path 4061" d="M0,4.658a4.607,4.607,0,1,1,4.658,4.56A4.609,4.609,0,0,1,0,4.658Z" transform="translate(22.398 289.828)" fill="#fff"/>
        <path id="Path_4062-2" data-name="Path 4062" d="M0,4.658A4.607,4.607,0,1,1,4.658,9.213,4.605,4.605,0,0,1,0,4.658Z" transform="translate(0 218.074)" fill="#fff"/>
        <path id="Path_4063-2" data-name="Path 4063" d="M0,4.658A4.607,4.607,0,1,1,4.658,9.213,4.605,4.605,0,0,1,0,4.658Z" transform="translate(53.408 488.703)" fill="#fff"/>
        <path id="Path_4064-2" data-name="Path 4064" d="M0,4.658A4.609,4.609,0,1,1,4.663,9.213,4.612,4.612,0,0,1,0,4.658Z" transform="translate(53.164 467.103)" fill="#fff"/>
        <path id="Path_4065-2" data-name="Path 4065" d="M0,4.658A4.607,4.607,0,1,1,4.658,9.213,4.605,4.605,0,0,1,0,4.658Z" transform="translate(52.901 443.104)" fill="#fff"/>
        <path id="Path_4066-2" data-name="Path 4066" d="M0,4.658A4.609,4.609,0,1,1,4.658,9.213,4.61,4.61,0,0,1,0,4.658Z" transform="translate(52.605 416.705)" fill="#fff"/>
        <path id="Path_4067-2" data-name="Path 4067" d="M0,4.658A4.609,4.609,0,1,1,4.663,9.218,4.609,4.609,0,0,1,0,4.658Z" transform="translate(2.207 417.263)" fill="#fff"/>
        <path id="Path_4068-2" data-name="Path 4068" d="M0,4.658A4.609,4.609,0,1,1,4.663,9.218,4.609,4.609,0,0,1,0,4.658Z" transform="translate(1.648 366.865)" fill="#fff"/>
        <path id="Path_4069-2" data-name="Path 4069" d="M0,4.658A4.607,4.607,0,1,1,4.658,9.213,4.605,4.605,0,0,1,0,4.658Z" transform="translate(1.118 318.871)" fill="#fff"/>
        <path id="Path_4070-2" data-name="Path 4070" d="M0,4.658A4.607,4.607,0,1,1,4.658,9.218,4.606,4.606,0,0,1,0,4.658Z" transform="translate(52.342 392.705)" fill="#fff"/>
        <path id="Path_4071-2" data-name="Path 4071" d="M0,4.658A4.607,4.607,0,1,1,4.658,9.213,4.606,4.606,0,0,1,0,4.658Z" transform="translate(52.023 363.907)" fill="#fff"/>
        <path id="Path_4072-2" data-name="Path 4072" d="M0,4.658A4.609,4.609,0,1,1,4.658,9.218,4.612,4.612,0,0,1,0,4.658Z" transform="translate(51.807 344.706)" fill="#fff"/>
        <path id="Path_4073-2" data-name="Path 4073" d="M0,4.658a4.607,4.607,0,1,1,4.658,4.56A4.612,4.612,0,0,1,0,4.658Z" transform="translate(51.516 318.307)" fill="#fff"/>
        <path id="Path_4074-2" data-name="Path 4074" d="M0,4.658A4.607,4.607,0,1,1,4.658,9.218,4.605,4.605,0,0,1,0,4.658Z" transform="translate(51.197 289.509)" fill="#fff"/>
        <path id="Path_4075-2" data-name="Path 4075" d="M0,4.658A4.607,4.607,0,1,1,4.658,9.213,4.606,4.606,0,0,1,0,4.658Z" transform="translate(51.009 272.713)" fill="#fff"/>
      </g>
      <g id="Group_5363" data-name="Group 5363" transform="translate(599.46 -359.816)">
        <g id="Group_3547" data-name="Group 3547" transform="translate(24.603 199.675)">
          <g id="Group_3534" data-name="Group 3534" transform="translate(27.108)">
            <path id="Path_34496" data-name="Path 34496" d="M-498.606,99.432a4.139,4.139,0,0,1-5.684-1.385,4.137,4.137,0,0,1,1.384-5.684,4.137,4.137,0,0,1,5.684,1.383A4.139,4.139,0,0,1-498.606,99.432Z" transform="translate(504.893 -91.76)" fill="#fff" opacity="0.3"/>
            <path id="Path_34497" data-name="Path 34497" d="M-498.606,99.432a4.139,4.139,0,0,1-5.684-1.385,4.137,4.137,0,0,1,1.384-5.684,4.137,4.137,0,0,1,5.684,1.383A4.139,4.139,0,0,1-498.606,99.432Z" transform="translate(504.893 -31.166)" fill="#fff" opacity="0.3"/>
            <path id="Path_34500" data-name="Path 34500" d="M-498.606,99.432a4.139,4.139,0,0,1-5.684-1.385,4.137,4.137,0,0,1,1.384-5.684,4.137,4.137,0,0,1,5.684,1.383A4.139,4.139,0,0,1-498.606,99.432Z" transform="translate(504.893 19.861)" fill="#fff" opacity="0.3"/>
            <path id="Path_34502" data-name="Path 34502" d="M-498.606,99.432a4.139,4.139,0,0,1-5.684-1.385,4.137,4.137,0,0,1,1.384-5.684,4.137,4.137,0,0,1,5.684,1.383A4.139,4.139,0,0,1-498.606,99.432Z" transform="translate(504.893 70.887)" fill="#fff"/>
            <path id="Path_34504" data-name="Path 34504" d="M-498.606,99.432a4.139,4.139,0,0,1-5.684-1.385,4.137,4.137,0,0,1,1.384-5.684,4.137,4.137,0,0,1,5.684,1.383A4.139,4.139,0,0,1-498.606,99.432Z" transform="translate(504.893 123.508)" fill="#fff"/>
            <path id="Path_34498" data-name="Path 34498" d="M-498.606,99.432a4.139,4.139,0,0,1-5.684-1.385,4.137,4.137,0,0,1,1.384-5.684,4.137,4.137,0,0,1,5.684,1.383A4.139,4.139,0,0,1-498.606,99.432Z" transform="translate(504.893 -4.058)" fill="#fff" opacity="0.3"/>
            <path id="Path_34499" data-name="Path 34499" d="M-498.606,99.432a4.139,4.139,0,0,1-5.684-1.385,4.137,4.137,0,0,1,1.384-5.684,4.137,4.137,0,0,1,5.684,1.383A4.139,4.139,0,0,1-498.606,99.432Z" transform="translate(504.893 46.968)" fill="#fff" opacity="0.3"/>
            <path id="Path_34501" data-name="Path 34501" d="M-498.606,99.432a4.139,4.139,0,0,1-5.684-1.385,4.137,4.137,0,0,1,1.384-5.684,4.137,4.137,0,0,1,5.684,1.383A4.139,4.139,0,0,1-498.606,99.432Z" transform="translate(504.893 97.995)" fill="#fff"/>
            <path id="Path_34503" data-name="Path 34503" d="M-498.606,99.432a4.139,4.139,0,0,1-5.684-1.385,4.137,4.137,0,0,1,1.384-5.684,4.137,4.137,0,0,1,5.684,1.383A4.139,4.139,0,0,1-498.606,99.432Z" transform="translate(504.893 150.616)" fill="#fff" opacity="0.3"/>
            <path id="Path_34601" data-name="Path 34601" d="M-498.606,99.432a4.139,4.139,0,0,1-5.684-1.385,4.137,4.137,0,0,1,1.384-5.684,4.137,4.137,0,0,1,5.684,1.383A4.139,4.139,0,0,1-498.606,99.432Z" transform="translate(504.893 230.345)" fill="#fff" opacity="0.3"/>
            <path id="Path_34602" data-name="Path 34602" d="M-498.606,99.432a4.139,4.139,0,0,1-5.684-1.385,4.137,4.137,0,0,1,1.384-5.684,4.137,4.137,0,0,1,5.684,1.383A4.139,4.139,0,0,1-498.606,99.432Z" transform="translate(504.893 255.858)" fill="#fff" opacity="0.3"/>
          </g>
          <g id="Group_3535" data-name="Group 3535" transform="translate(52.621 114.809)">
            <path id="Path_34512" data-name="Path 34512" d="M-498.606,99.432a4.139,4.139,0,0,1-5.684-1.385,4.137,4.137,0,0,1,1.384-5.684,4.137,4.137,0,0,1,5.684,1.383A4.139,4.139,0,0,1-498.606,99.432Z" transform="translate(504.893 -91.76)" fill="#fff" opacity="0.3"/>
            <path id="Path_34514" data-name="Path 34514" d="M-498.606,99.432a4.139,4.139,0,0,1-5.684-1.385,4.137,4.137,0,0,1,1.384-5.684,4.137,4.137,0,0,1,5.684,1.383A4.139,4.139,0,0,1-498.606,99.432Z" transform="translate(504.893 -40.733)" fill="#fff" opacity="0.3"/>
            <path id="Path_34516" data-name="Path 34516" d="M-498.606,99.432a4.139,4.139,0,0,1-5.684-1.385,4.137,4.137,0,0,1,1.384-5.684,4.137,4.137,0,0,1,5.684,1.383A4.139,4.139,0,0,1-498.606,99.432Z" transform="translate(504.893 10.293)" fill="#fff" opacity="0.3"/>
            <path id="Path_34518" data-name="Path 34518" d="M-498.606,99.432a4.139,4.139,0,0,1-5.684-1.385,4.137,4.137,0,0,1,1.384-5.684,4.137,4.137,0,0,1,5.684,1.383A4.139,4.139,0,0,1-498.606,99.432Z" transform="translate(504.893 62.914)" fill="#fff" opacity="0.3"/>
            <path id="Path_34513" data-name="Path 34513" d="M-498.606,99.432a4.139,4.139,0,0,1-5.684-1.385,4.137,4.137,0,0,1,1.384-5.684,4.137,4.137,0,0,1,5.684,1.383A4.139,4.139,0,0,1-498.606,99.432Z" transform="translate(504.893 -64.652)" fill="#fff"/>
            <path id="Path_34515" data-name="Path 34515" d="M-498.606,99.432a4.139,4.139,0,0,1-5.684-1.385,4.137,4.137,0,0,1,1.384-5.684,4.137,4.137,0,0,1,5.684,1.383A4.139,4.139,0,0,1-498.606,99.432Z" transform="translate(504.893 -13.626)" fill="#fff" opacity="0.3"/>
            <path id="Path_34517" data-name="Path 34517" d="M-498.606,99.432a4.139,4.139,0,0,1-5.684-1.385,4.137,4.137,0,0,1,1.384-5.684,4.137,4.137,0,0,1,5.684,1.383A4.139,4.139,0,0,1-498.606,99.432Z" transform="translate(504.893 37.401)" fill="#fff"/>
            <path id="Path_34519" data-name="Path 34519" d="M-498.606,99.432a4.139,4.139,0,0,1-5.684-1.385,4.137,4.137,0,0,1,1.384-5.684,4.137,4.137,0,0,1,5.684,1.383A4.139,4.139,0,0,1-498.606,99.432Z" transform="translate(504.893 90.022)" fill="#fff" opacity="0.3"/>
          </g>
          <g id="Group_3536" data-name="Group 3536" transform="translate(78.134 113.215)">
            <path id="Path_34520" data-name="Path 34520" d="M-498.606,99.432a4.139,4.139,0,0,1-5.684-1.385,4.137,4.137,0,0,1,1.384-5.684,4.137,4.137,0,0,1,5.684,1.383A4.139,4.139,0,0,1-498.606,99.432Z" transform="translate(504.893 -91.76)" fill="#fff"/>
            <path id="Path_34522" data-name="Path 34522" d="M-498.606,99.432a4.139,4.139,0,0,1-5.684-1.385,4.137,4.137,0,0,1,1.384-5.684,4.137,4.137,0,0,1,5.684,1.383A4.139,4.139,0,0,1-498.606,99.432Z" transform="translate(504.893 -40.733)" fill="#fff"/>
            <path id="Path_34524" data-name="Path 34524" d="M-498.606,99.432a4.139,4.139,0,0,1-5.684-1.385,4.137,4.137,0,0,1,1.384-5.684,4.137,4.137,0,0,1,5.684,1.383A4.139,4.139,0,0,1-498.606,99.432Z" transform="translate(504.893 10.293)" fill="#fff"/>
            <path id="Path_34526" data-name="Path 34526" d="M-498.606,99.432a4.139,4.139,0,0,1-5.684-1.385,4.137,4.137,0,0,1,1.384-5.684,4.137,4.137,0,0,1,5.684,1.383A4.139,4.139,0,0,1-498.606,99.432Z" transform="translate(504.893 62.914)" fill="#fff" opacity="0.3"/>
            <path id="Path_34521" data-name="Path 34521" d="M-498.606,99.432a4.139,4.139,0,0,1-5.684-1.385,4.137,4.137,0,0,1,1.384-5.684,4.137,4.137,0,0,1,5.684,1.383A4.139,4.139,0,0,1-498.606,99.432Z" transform="translate(504.893 -64.652)" fill="#fff" opacity="0.3"/>
            <path id="Path_34523" data-name="Path 34523" d="M-498.606,99.432a4.139,4.139,0,0,1-5.684-1.385,4.137,4.137,0,0,1,1.384-5.684,4.137,4.137,0,0,1,5.684,1.383A4.139,4.139,0,0,1-498.606,99.432Z" transform="translate(504.893 -13.626)" fill="#fff" opacity="0.3"/>
            <path id="Path_34525" data-name="Path 34525" d="M-498.606,99.432a4.139,4.139,0,0,1-5.684-1.385,4.137,4.137,0,0,1,1.384-5.684,4.137,4.137,0,0,1,5.684,1.383A4.139,4.139,0,0,1-498.606,99.432Z" transform="translate(504.893 37.401)" fill="#fff"/>
            <path id="Path_34527" data-name="Path 34527" d="M-498.606,99.432a4.139,4.139,0,0,1-5.684-1.385,4.137,4.137,0,0,1,1.384-5.684,4.137,4.137,0,0,1,5.684,1.383A4.139,4.139,0,0,1-498.606,99.432Z" transform="translate(504.893 90.022)" fill="#fff" opacity="0.3"/>
            <path id="Path_34603" data-name="Path 34603" d="M-498.606,99.432a4.139,4.139,0,0,1-5.684-1.385,4.137,4.137,0,0,1,1.384-5.684,4.137,4.137,0,0,1,5.684,1.383A4.139,4.139,0,0,1-498.606,99.432Z" transform="translate(504.893 117.13)" fill="#fff" opacity="0.3"/>
            <path id="Path_34604" data-name="Path 34604" d="M-498.606,99.432a4.139,4.139,0,0,1-5.684-1.385,4.137,4.137,0,0,1,1.384-5.684,4.137,4.137,0,0,1,5.684,1.383A4.139,4.139,0,0,1-498.606,99.432Z" transform="translate(504.893 142.643)" fill="#fff" opacity="0.3"/>
            <path id="Path_34605" data-name="Path 34605" d="M-498.606,99.432a4.139,4.139,0,0,1-5.684-1.385,4.137,4.137,0,0,1,1.384-5.684,4.137,4.137,0,0,1,5.684,1.383A4.139,4.139,0,0,1-498.606,99.432Z" transform="translate(504.893 169.751)" fill="#fff" opacity="0.3"/>
          </g>
          <g id="Group_3537" data-name="Group 3537" transform="translate(105.242 89.296)">
            <path id="Path_34528" data-name="Path 34528" d="M-498.606,99.432a4.139,4.139,0,0,1-5.684-1.385,4.137,4.137,0,0,1,1.384-5.684,4.137,4.137,0,0,1,5.684,1.383A4.139,4.139,0,0,1-498.606,99.432Z" transform="translate(504.893 -67.841)" fill="#fff" opacity="0.3"/>
            <path id="Path_34618" data-name="Path 34618" d="M-498.606,99.432a4.139,4.139,0,0,1-5.684-1.385,4.137,4.137,0,0,1,1.384-5.684,4.137,4.137,0,0,1,5.684,1.383A4.139,4.139,0,0,1-498.606,99.432Z" transform="translate(504.893 -91.76)" fill="#fff" opacity="0.3"/>
            <path id="Path_34530" data-name="Path 34530" d="M-498.606,99.432a4.139,4.139,0,0,1-5.684-1.385,4.137,4.137,0,0,1,1.384-5.684,4.137,4.137,0,0,1,5.684,1.383A4.139,4.139,0,0,1-498.606,99.432Z" transform="translate(504.893 -16.815)" fill="#fff" opacity="0.3"/>
            <path id="Path_34532" data-name="Path 34532" d="M-498.606,99.432a4.139,4.139,0,0,1-5.684-1.385,4.137,4.137,0,0,1,1.384-5.684,4.137,4.137,0,0,1,5.684,1.383A4.139,4.139,0,0,1-498.606,99.432Z" transform="translate(504.893 34.212)" fill="#fff" opacity="0.3"/>
            <path id="Path_34534" data-name="Path 34534" d="M-498.606,99.432a4.139,4.139,0,0,1-5.684-1.385,4.137,4.137,0,0,1,1.384-5.684,4.137,4.137,0,0,1,5.684,1.383A4.139,4.139,0,0,1-498.606,99.432Z" transform="translate(504.893 86.833)" fill="#fff"/>
            <path id="Path_34529" data-name="Path 34529" d="M-498.606,99.432a4.139,4.139,0,0,1-5.684-1.385,4.137,4.137,0,0,1,1.384-5.684,4.137,4.137,0,0,1,5.684,1.383A4.139,4.139,0,0,1-498.606,99.432Z" transform="translate(504.893 -40.733)" fill="#fff" opacity="0.3"/>
            <path id="Path_34531" data-name="Path 34531" d="M-498.606,99.432a4.139,4.139,0,0,1-5.684-1.385,4.137,4.137,0,0,1,1.384-5.684,4.137,4.137,0,0,1,5.684,1.383A4.139,4.139,0,0,1-498.606,99.432Z" transform="translate(504.893 10.293)" fill="#fff"/>
            <path id="Path_34533" data-name="Path 34533" d="M-498.606,99.432a4.139,4.139,0,0,1-5.684-1.385,4.137,4.137,0,0,1,1.384-5.684,4.137,4.137,0,0,1,5.684,1.383A4.139,4.139,0,0,1-498.606,99.432Z" transform="translate(504.893 61.32)" fill="#fff" opacity="0.3"/>
            <path id="Path_34535" data-name="Path 34535" d="M-498.606,99.432a4.139,4.139,0,0,1-5.684-1.385,4.137,4.137,0,0,1,1.384-5.684,4.137,4.137,0,0,1,5.684,1.383A4.139,4.139,0,0,1-498.606,99.432Z" transform="translate(504.893 113.941)" fill="#fff" opacity="0.3"/>
          </g>
          <g id="Group_3538" data-name="Group 3538" transform="translate(130.755 57.405)">
            <path id="Path_34536" data-name="Path 34536" d="M-498.606,99.432a4.139,4.139,0,0,1-5.684-1.385,4.137,4.137,0,0,1,1.384-5.684,4.137,4.137,0,0,1,5.684,1.383A4.139,4.139,0,0,1-498.606,99.432Z" transform="translate(504.893 -35.95)" fill="#fff"/>
            <path id="Path_34592" data-name="Path 34592" d="M-498.606,99.432a4.139,4.139,0,0,1-5.684-1.385,4.137,4.137,0,0,1,1.384-5.684,4.137,4.137,0,0,1,5.684,1.383A4.139,4.139,0,0,1-498.606,99.432Z" transform="translate(504.893 -59.868)" fill="#fff"/>
            <path id="Path_34593" data-name="Path 34593" d="M-498.606,99.432a4.139,4.139,0,0,1-5.684-1.385,4.137,4.137,0,0,1,1.384-5.684,4.137,4.137,0,0,1,5.684,1.383A4.139,4.139,0,0,1-498.606,99.432Z" transform="translate(504.893 -91.76)" fill="#fff" opacity="0.3"/>
            <path id="Path_34538" data-name="Path 34538" d="M-498.606,99.432a4.139,4.139,0,0,1-5.684-1.385,4.137,4.137,0,0,1,1.384-5.684,4.137,4.137,0,0,1,5.684,1.383A4.139,4.139,0,0,1-498.606,99.432Z" transform="translate(504.893 15.077)" fill="#fff" opacity="0.3"/>
            <path id="Path_34540" data-name="Path 34540" d="M-498.606,99.432a4.139,4.139,0,0,1-5.684-1.385,4.137,4.137,0,0,1,1.384-5.684,4.137,4.137,0,0,1,5.684,1.383A4.139,4.139,0,0,1-498.606,99.432Z" transform="translate(504.893 66.103)" fill="#fff"/>
            <path id="Path_34542" data-name="Path 34542" d="M-498.606,99.432a4.139,4.139,0,0,1-5.684-1.385,4.137,4.137,0,0,1,1.384-5.684,4.137,4.137,0,0,1,5.684,1.383A4.139,4.139,0,0,1-498.606,99.432Z" transform="translate(504.893 118.724)" fill="#fff"/>
            <path id="Path_34537" data-name="Path 34537" d="M-498.606,99.432a4.139,4.139,0,0,1-5.684-1.385,4.137,4.137,0,0,1,1.384-5.684,4.137,4.137,0,0,1,5.684,1.383A4.139,4.139,0,0,1-498.606,99.432Z" transform="translate(504.893 -8.842)" fill="#fff"/>
            <path id="Path_34539" data-name="Path 34539" d="M-498.606,99.432a4.139,4.139,0,0,1-5.684-1.385,4.137,4.137,0,0,1,1.384-5.684,4.137,4.137,0,0,1,5.684,1.383A4.139,4.139,0,0,1-498.606,99.432Z" transform="translate(504.893 42.185)" fill="#fff"/>
            <path id="Path_34541" data-name="Path 34541" d="M-498.606,99.432a4.139,4.139,0,0,1-5.684-1.385,4.137,4.137,0,0,1,1.384-5.684,4.137,4.137,0,0,1,5.684,1.383A4.139,4.139,0,0,1-498.606,99.432Z" transform="translate(504.893 93.211)" fill="#fff" opacity="0.3"/>
            <path id="Path_34543" data-name="Path 34543" d="M-498.606,99.432a4.139,4.139,0,0,1-5.684-1.385,4.137,4.137,0,0,1,1.384-5.684,4.137,4.137,0,0,1,5.684,1.383A4.139,4.139,0,0,1-498.606,99.432Z" transform="translate(504.893 145.832)" fill="#fff" opacity="0.3"/>
          </g>
          <g id="Group_3539" data-name="Group 3539" transform="translate(156.268 25.513)">
            <path id="Path_34544" data-name="Path 34544" d="M-498.606,99.432a4.139,4.139,0,0,1-5.684-1.385,4.137,4.137,0,0,1,1.384-5.684,4.137,4.137,0,0,1,5.684,1.383A4.139,4.139,0,0,1-498.606,99.432Z" transform="translate(504.893 -4.058)" fill="#fff"/>
            <path id="Path_34594" data-name="Path 34594" d="M-498.606,99.432a4.139,4.139,0,0,1-5.684-1.385,4.137,4.137,0,0,1,1.384-5.684,4.137,4.137,0,0,1,5.684,1.383A4.139,4.139,0,0,1-498.606,99.432Z" transform="translate(504.893 -27.977)" fill="#fff"/>
            <path id="Path_34595" data-name="Path 34595" d="M-498.606,99.432a4.139,4.139,0,0,1-5.684-1.385,4.137,4.137,0,0,1,1.384-5.684,4.137,4.137,0,0,1,5.684,1.383A4.139,4.139,0,0,1-498.606,99.432Z" transform="translate(504.893 -59.868)" fill="#fff" opacity="0.3"/>
            <path id="Path_34596" data-name="Path 34596" d="M-498.606,99.432a4.139,4.139,0,0,1-5.684-1.385,4.137,4.137,0,0,1,1.384-5.684,4.137,4.137,0,0,1,5.684,1.383A4.139,4.139,0,0,1-498.606,99.432Z" transform="translate(504.893 -91.76)" fill="#fff" opacity="0.3"/>
            <path id="Path_34546" data-name="Path 34546" d="M-498.606,99.432a4.139,4.139,0,0,1-5.684-1.385,4.137,4.137,0,0,1,1.384-5.684,4.137,4.137,0,0,1,5.684,1.383A4.139,4.139,0,0,1-498.606,99.432Z" transform="translate(504.893 46.968)" fill="#fff" opacity="0.3"/>
            <path id="Path_34548" data-name="Path 34548" d="M-498.606,99.432a4.139,4.139,0,0,1-5.684-1.385,4.137,4.137,0,0,1,1.384-5.684,4.137,4.137,0,0,1,5.684,1.383A4.139,4.139,0,0,1-498.606,99.432Z" transform="translate(504.893 97.995)" fill="#fff"/>
            <path id="Path_34550" data-name="Path 34550" d="M-498.606,99.432a4.139,4.139,0,0,1-5.684-1.385,4.137,4.137,0,0,1,1.384-5.684,4.137,4.137,0,0,1,5.684,1.383A4.139,4.139,0,0,1-498.606,99.432Z" transform="translate(504.893 150.616)" fill="#fff"/>
            <path id="Path_34545" data-name="Path 34545" d="M-498.606,99.432a4.139,4.139,0,0,1-5.684-1.385,4.137,4.137,0,0,1,1.384-5.684,4.137,4.137,0,0,1,5.684,1.383A4.139,4.139,0,0,1-498.606,99.432Z" transform="translate(504.893 23.05)" fill="#fff"/>
            <path id="Path_34547" data-name="Path 34547" d="M-498.606,99.432a4.139,4.139,0,0,1-5.684-1.385,4.137,4.137,0,0,1,1.384-5.684,4.137,4.137,0,0,1,5.684,1.383A4.139,4.139,0,0,1-498.606,99.432Z" transform="translate(504.893 74.076)" fill="#fff"/>
            <path id="Path_34549" data-name="Path 34549" d="M-498.606,99.432a4.139,4.139,0,0,1-5.684-1.385,4.137,4.137,0,0,1,1.384-5.684,4.137,4.137,0,0,1,5.684,1.383A4.139,4.139,0,0,1-498.606,99.432Z" transform="translate(504.893 125.103)" fill="#fff" opacity="0.3"/>
            <path id="Path_34551" data-name="Path 34551" d="M-498.606,99.432a4.139,4.139,0,0,1-5.684-1.385,4.137,4.137,0,0,1,1.384-5.684,4.137,4.137,0,0,1,5.684,1.383A4.139,4.139,0,0,1-498.606,99.432Z" transform="translate(504.893 177.724)" fill="#fff" opacity="0.3"/>
            <path id="Path_34606" data-name="Path 34606" d="M-498.606,99.432a4.139,4.139,0,0,1-5.684-1.385,4.137,4.137,0,0,1,1.384-5.684,4.137,4.137,0,0,1,5.684,1.383A4.139,4.139,0,0,1-498.606,99.432Z" transform="translate(504.893 204.831)" fill="#fff" opacity="0.3"/>
            <path id="Path_34607" data-name="Path 34607" d="M-498.606,99.432a4.139,4.139,0,0,1-5.684-1.385,4.137,4.137,0,0,1,1.384-5.684,4.137,4.137,0,0,1,5.684,1.383A4.139,4.139,0,0,1-498.606,99.432Z" transform="translate(504.893 227.155)" fill="#fff" opacity="0.3"/>
          </g>
          <g id="Group_3540" data-name="Group 3540" transform="translate(181.782 89.296)">
            <path id="Path_34552" data-name="Path 34552" d="M-498.606,99.432a4.139,4.139,0,0,1-5.684-1.385,4.137,4.137,0,0,1,1.384-5.684,4.137,4.137,0,0,1,5.684,1.383A4.139,4.139,0,0,1-498.606,99.432Z" transform="translate(504.893 -67.841)" fill="#fff"/>
            <path id="Path_34597" data-name="Path 34597" d="M-498.606,99.432a4.139,4.139,0,0,1-5.684-1.385,4.137,4.137,0,0,1,1.384-5.684,4.137,4.137,0,0,1,5.684,1.383A4.139,4.139,0,0,1-498.606,99.432Z" transform="translate(504.893 -91.76)" fill="#fff"/>
            <path id="Path_34554" data-name="Path 34554" d="M-498.606,99.432a4.139,4.139,0,0,1-5.684-1.385,4.137,4.137,0,0,1,1.384-5.684,4.137,4.137,0,0,1,5.684,1.383A4.139,4.139,0,0,1-498.606,99.432Z" transform="translate(504.893 -16.815)" fill="#fff" opacity="0.3"/>
            <path id="Path_34556" data-name="Path 34556" d="M-498.606,99.432a4.139,4.139,0,0,1-5.684-1.385,4.137,4.137,0,0,1,1.384-5.684,4.137,4.137,0,0,1,5.684,1.383A4.139,4.139,0,0,1-498.606,99.432Z" transform="translate(504.893 34.212)" fill="#fff"/>
            <path id="Path_34558" data-name="Path 34558" d="M-498.606,99.432a4.139,4.139,0,0,1-5.684-1.385,4.137,4.137,0,0,1,1.384-5.684,4.137,4.137,0,0,1,5.684,1.383A4.139,4.139,0,0,1-498.606,99.432Z" transform="translate(504.893 86.833)" fill="#fff"/>
            <path id="Path_34553" data-name="Path 34553" d="M-498.606,99.432a4.139,4.139,0,0,1-5.684-1.385,4.137,4.137,0,0,1,1.384-5.684,4.137,4.137,0,0,1,5.684,1.383A4.139,4.139,0,0,1-498.606,99.432Z" transform="translate(504.893 -40.733)" fill="#fff"/>
            <path id="Path_34555" data-name="Path 34555" d="M-498.606,99.432a4.139,4.139,0,0,1-5.684-1.385,4.137,4.137,0,0,1,1.384-5.684,4.137,4.137,0,0,1,5.684,1.383A4.139,4.139,0,0,1-498.606,99.432Z" transform="translate(504.893 10.293)" fill="#fff"/>
            <path id="Path_34557" data-name="Path 34557" d="M-498.606,99.432a4.139,4.139,0,0,1-5.684-1.385,4.137,4.137,0,0,1,1.384-5.684,4.137,4.137,0,0,1,5.684,1.383A4.139,4.139,0,0,1-498.606,99.432Z" transform="translate(504.893 61.32)" fill="#fff" opacity="0.3"/>
            <path id="Path_34559" data-name="Path 34559" d="M-498.606,99.432a4.139,4.139,0,0,1-5.684-1.385,4.137,4.137,0,0,1,1.384-5.684,4.137,4.137,0,0,1,5.684,1.383A4.139,4.139,0,0,1-498.606,99.432Z" transform="translate(504.893 113.941)" fill="#fff"/>
            <path id="Path_34608" data-name="Path 34608" d="M-498.606,99.432a4.139,4.139,0,0,1-5.684-1.385,4.137,4.137,0,0,1,1.384-5.684,4.137,4.137,0,0,1,5.684,1.383A4.139,4.139,0,0,1-498.606,99.432Z" transform="translate(504.893 139.454)" fill="#fff"/>
            <path id="Path_34609" data-name="Path 34609" d="M-498.606,99.432a4.139,4.139,0,0,1-5.684-1.385,4.137,4.137,0,0,1,1.384-5.684,4.137,4.137,0,0,1,5.684,1.383A4.139,4.139,0,0,1-498.606,99.432Z" transform="translate(504.893 161.778)" fill="#fff" opacity="0.3"/>
            <path id="Path_34610" data-name="Path 34610" d="M-498.606,99.432a4.139,4.139,0,0,1-5.684-1.385,4.137,4.137,0,0,1,1.384-5.684,4.137,4.137,0,0,1,5.684,1.383A4.139,4.139,0,0,1-498.606,99.432Z" transform="translate(504.893 184.102)" fill="#fff" opacity="0.3"/>
          </g>
          <g id="Group_3541" data-name="Group 3541" transform="translate(207.295 57.405)">
            <path id="Path_34560" data-name="Path 34560" d="M-498.606,99.432a4.139,4.139,0,0,1-5.684-1.385,4.137,4.137,0,0,1,1.384-5.684,4.137,4.137,0,0,1,5.684,1.383A4.139,4.139,0,0,1-498.606,99.432Z" transform="translate(504.893 -35.95)" fill="#fff" opacity="0.3"/>
            <path id="Path_34598" data-name="Path 34598" d="M-498.606,99.432a4.139,4.139,0,0,1-5.684-1.385,4.137,4.137,0,0,1,1.384-5.684,4.137,4.137,0,0,1,5.684,1.383A4.139,4.139,0,0,1-498.606,99.432Z" transform="translate(504.893 -59.868)" fill="#fff"/>
            <path id="Path_34599" data-name="Path 34599" d="M-498.606,99.432a4.139,4.139,0,0,1-5.684-1.385,4.137,4.137,0,0,1,1.384-5.684,4.137,4.137,0,0,1,5.684,1.383A4.139,4.139,0,0,1-498.606,99.432Z" transform="translate(504.893 -91.76)" fill="#fff" opacity="0.3"/>
            <path id="Path_34562" data-name="Path 34562" d="M-498.606,99.432a4.139,4.139,0,0,1-5.684-1.385,4.137,4.137,0,0,1,1.384-5.684,4.137,4.137,0,0,1,5.684,1.383A4.139,4.139,0,0,1-498.606,99.432Z" transform="translate(504.893 15.077)" fill="#fff"/>
            <path id="Path_34564" data-name="Path 34564" d="M-498.606,99.432a4.139,4.139,0,0,1-5.684-1.385,4.137,4.137,0,0,1,1.384-5.684,4.137,4.137,0,0,1,5.684,1.383A4.139,4.139,0,0,1-498.606,99.432Z" transform="translate(504.893 66.103)" fill="#fff"/>
            <path id="Path_34566" data-name="Path 34566" d="M-498.606,99.432a4.139,4.139,0,0,1-5.684-1.385,4.137,4.137,0,0,1,1.384-5.684,4.137,4.137,0,0,1,5.684,1.383A4.139,4.139,0,0,1-498.606,99.432Z" transform="translate(504.893 118.724)" fill="#fff"/>
            <path id="Path_34561" data-name="Path 34561" d="M-498.606,99.432a4.139,4.139,0,0,1-5.684-1.385,4.137,4.137,0,0,1,1.384-5.684,4.137,4.137,0,0,1,5.684,1.383A4.139,4.139,0,0,1-498.606,99.432Z" transform="translate(504.893 -8.842)" fill="#fff" opacity="0.3"/>
            <path id="Path_34563" data-name="Path 34563" d="M-498.606,99.432a4.139,4.139,0,0,1-5.684-1.385,4.137,4.137,0,0,1,1.384-5.684,4.137,4.137,0,0,1,5.684,1.383A4.139,4.139,0,0,1-498.606,99.432Z" transform="translate(504.893 42.185)" fill="#fff" opacity="0.3"/>
            <path id="Path_34565" data-name="Path 34565" d="M-498.606,99.432a4.139,4.139,0,0,1-5.684-1.385,4.137,4.137,0,0,1,1.384-5.684,4.137,4.137,0,0,1,5.684,1.383A4.139,4.139,0,0,1-498.606,99.432Z" transform="translate(504.893 93.211)" fill="#fff" opacity="0.3"/>
            <path id="Path_34567" data-name="Path 34567" d="M-498.606,99.432a4.139,4.139,0,0,1-5.684-1.385,4.137,4.137,0,0,1,1.384-5.684,4.137,4.137,0,0,1,5.684,1.383A4.139,4.139,0,0,1-498.606,99.432Z" transform="translate(504.893 145.832)" fill="#fff"/>
            <path id="Path_34611" data-name="Path 34611" d="M-498.606,99.432a4.139,4.139,0,0,1-5.684-1.385,4.137,4.137,0,0,1,1.384-5.684,4.137,4.137,0,0,1,5.684,1.383A4.139,4.139,0,0,1-498.606,99.432Z" transform="translate(504.893 171.345)" fill="#fff"/>
          </g>
          <g id="Group_3542" data-name="Group 3542" transform="translate(234.403 87.702)">
            <path id="Path_34568" data-name="Path 34568" d="M-498.606,99.432a4.139,4.139,0,0,1-5.684-1.385,4.137,4.137,0,0,1,1.384-5.684,4.137,4.137,0,0,1,5.684,1.383A4.139,4.139,0,0,1-498.606,99.432Z" transform="translate(504.893 -66.246)" fill="#fff" opacity="0.3"/>
            <path id="Path_34600" data-name="Path 34600" d="M-498.606,99.432a4.139,4.139,0,0,1-5.684-1.385,4.137,4.137,0,0,1,1.384-5.684,4.137,4.137,0,0,1,5.684,1.383A4.139,4.139,0,0,1-498.606,99.432Z" transform="translate(504.893 -91.76)" fill="#fff" opacity="0.3"/>
            <path id="Path_34570" data-name="Path 34570" d="M-498.606,99.432a4.139,4.139,0,0,1-5.684-1.385,4.137,4.137,0,0,1,1.384-5.684,4.137,4.137,0,0,1,5.684,1.383A4.139,4.139,0,0,1-498.606,99.432Z" transform="translate(504.893 -15.22)" fill="#fff" opacity="0.3"/>
            <path id="Path_34572" data-name="Path 34572" d="M-498.606,99.432a4.139,4.139,0,0,1-5.684-1.385,4.137,4.137,0,0,1,1.384-5.684,4.137,4.137,0,0,1,5.684,1.383A4.139,4.139,0,0,1-498.606,99.432Z" transform="translate(504.893 35.806)" fill="#fff"/>
            <path id="Path_34574" data-name="Path 34574" d="M-498.606,99.432a4.139,4.139,0,0,1-5.684-1.385,4.137,4.137,0,0,1,1.384-5.684,4.137,4.137,0,0,1,5.684,1.383A4.139,4.139,0,0,1-498.606,99.432Z" transform="translate(504.893 88.427)" fill="#fff"/>
            <path id="Path_34569" data-name="Path 34569" d="M-498.606,99.432a4.139,4.139,0,0,1-5.684-1.385,4.137,4.137,0,0,1,1.384-5.684,4.137,4.137,0,0,1,5.684,1.383A4.139,4.139,0,0,1-498.606,99.432Z" transform="translate(504.893 -39.139)" fill="#fff" opacity="0.3"/>
            <path id="Path_34571" data-name="Path 34571" d="M-498.606,99.432a4.139,4.139,0,0,1-5.684-1.385,4.137,4.137,0,0,1,1.384-5.684,4.137,4.137,0,0,1,5.684,1.383A4.139,4.139,0,0,1-498.606,99.432Z" transform="translate(504.893 11.888)" fill="#fff" opacity="0.3"/>
            <path id="Path_34573" data-name="Path 34573" d="M-498.606,99.432a4.139,4.139,0,0,1-5.684-1.385,4.137,4.137,0,0,1,1.384-5.684,4.137,4.137,0,0,1,5.684,1.383A4.139,4.139,0,0,1-498.606,99.432Z" transform="translate(504.893 62.914)" fill="#fff" opacity="0.3"/>
            <path id="Path_34575" data-name="Path 34575" d="M-498.606,99.432a4.139,4.139,0,0,1-5.684-1.385,4.137,4.137,0,0,1,1.384-5.684,4.137,4.137,0,0,1,5.684,1.383A4.139,4.139,0,0,1-498.606,99.432Z" transform="translate(504.893 142.643)" fill="#fff"/>
            <path id="Path_34612" data-name="Path 34612" d="M-498.606,99.432a4.139,4.139,0,0,1-5.684-1.385,4.137,4.137,0,0,1,1.384-5.684,4.137,4.137,0,0,1,5.684,1.383A4.139,4.139,0,0,1-498.606,99.432Z" transform="translate(504.893 115.535)" fill="#fff"/>
          </g>
          <g id="Group_3543" data-name="Group 3543" transform="translate(259.916 113.215)">
            <path id="Path_34576" data-name="Path 34576" d="M-498.606,99.432a4.139,4.139,0,0,1-5.684-1.385,4.137,4.137,0,0,1,1.384-5.684,4.137,4.137,0,0,1,5.684,1.383A4.139,4.139,0,0,1-498.606,99.432Z" transform="translate(504.893 -91.76)" fill="#fff" opacity="0.3"/>
            <path id="Path_34578" data-name="Path 34578" d="M-498.606,99.432a4.139,4.139,0,0,1-5.684-1.385,4.137,4.137,0,0,1,1.384-5.684,4.137,4.137,0,0,1,5.684,1.383A4.139,4.139,0,0,1-498.606,99.432Z" transform="translate(504.893 -40.733)" fill="#fff" opacity="0.3"/>
            <path id="Path_34580" data-name="Path 34580" d="M-498.606,99.432a4.139,4.139,0,0,1-5.684-1.385,4.137,4.137,0,0,1,1.384-5.684,4.137,4.137,0,0,1,5.684,1.383A4.139,4.139,0,0,1-498.606,99.432Z" transform="translate(504.893 10.293)" fill="#fff" opacity="0.3"/>
            <path id="Path_34582" data-name="Path 34582" d="M-498.606,99.432a4.139,4.139,0,0,1-5.684-1.385,4.137,4.137,0,0,1,1.384-5.684,4.137,4.137,0,0,1,5.684,1.383A4.139,4.139,0,0,1-498.606,99.432Z" transform="translate(504.893 62.914)" fill="#fff"/>
            <path id="Path_34577" data-name="Path 34577" d="M-498.606,99.432a4.139,4.139,0,0,1-5.684-1.385,4.137,4.137,0,0,1,1.384-5.684,4.137,4.137,0,0,1,5.684,1.383A4.139,4.139,0,0,1-498.606,99.432Z" transform="translate(504.893 -64.652)" fill="#fff" opacity="0.3"/>
            <path id="Path_34579" data-name="Path 34579" d="M-498.606,99.432a4.139,4.139,0,0,1-5.684-1.385,4.137,4.137,0,0,1,1.384-5.684,4.137,4.137,0,0,1,5.684,1.383A4.139,4.139,0,0,1-498.606,99.432Z" transform="translate(504.893 -13.626)" fill="#fff"/>
            <path id="Path_34581" data-name="Path 34581" d="M-498.606,99.432a4.139,4.139,0,0,1-5.684-1.385,4.137,4.137,0,0,1,1.384-5.684,4.137,4.137,0,0,1,5.684,1.383A4.139,4.139,0,0,1-498.606,99.432Z" transform="translate(504.893 37.401)" fill="#fff" opacity="0.3"/>
            <path id="Path_34583" data-name="Path 34583" d="M-498.606,99.432a4.139,4.139,0,0,1-5.684-1.385,4.137,4.137,0,0,1,1.384-5.684,4.137,4.137,0,0,1,5.684,1.383A4.139,4.139,0,0,1-498.606,99.432Z" transform="translate(504.893 90.022)" fill="#fff"/>
          </g>
          <g id="Group_3544" data-name="Group 3544" transform="translate(285.429 113.215)">
            <path id="Path_34584" data-name="Path 34584" d="M-498.606,99.432a4.139,4.139,0,0,1-5.684-1.385,4.137,4.137,0,0,1,1.384-5.684,4.137,4.137,0,0,1,5.684,1.383A4.139,4.139,0,0,1-498.606,99.432Z" transform="translate(504.893 -91.76)" fill="#fff"/>
            <path id="Path_34586" data-name="Path 34586" d="M-498.606,99.432a4.139,4.139,0,0,1-5.684-1.385,4.137,4.137,0,0,1,1.384-5.684,4.137,4.137,0,0,1,5.684,1.383A4.139,4.139,0,0,1-498.606,99.432Z" transform="translate(504.893 -40.733)" fill="#fff"/>
            <path id="Path_34588" data-name="Path 34588" d="M-498.606,99.432a4.139,4.139,0,0,1-5.684-1.385,4.137,4.137,0,0,1,1.384-5.684,4.137,4.137,0,0,1,5.684,1.383A4.139,4.139,0,0,1-498.606,99.432Z" transform="translate(504.893 10.293)" fill="#fff" opacity="0.3"/>
            <path id="Path_34590" data-name="Path 34590" d="M-498.606,99.432a4.139,4.139,0,0,1-5.684-1.385,4.137,4.137,0,0,1,1.384-5.684,4.137,4.137,0,0,1,5.684,1.383A4.139,4.139,0,0,1-498.606,99.432Z" transform="translate(504.893 62.914)" fill="#fff"/>
            <path id="Path_34585" data-name="Path 34585" d="M-498.606,99.432a4.139,4.139,0,0,1-5.684-1.385,4.137,4.137,0,0,1,1.384-5.684,4.137,4.137,0,0,1,5.684,1.383A4.139,4.139,0,0,1-498.606,99.432Z" transform="translate(504.893 -64.652)" fill="#fff" opacity="0.3"/>
            <path id="Path_34587" data-name="Path 34587" d="M-498.606,99.432a4.139,4.139,0,0,1-5.684-1.385,4.137,4.137,0,0,1,1.384-5.684,4.137,4.137,0,0,1,5.684,1.383A4.139,4.139,0,0,1-498.606,99.432Z" transform="translate(504.893 -13.626)" fill="#fff" opacity="0.3"/>
            <path id="Path_34589" data-name="Path 34589" d="M-498.606,99.432a4.139,4.139,0,0,1-5.684-1.385,4.137,4.137,0,0,1,1.384-5.684,4.137,4.137,0,0,1,5.684,1.383A4.139,4.139,0,0,1-498.606,99.432Z" transform="translate(504.893 37.401)" fill="#fff" opacity="0.3"/>
            <path id="Path_34591" data-name="Path 34591" d="M-498.606,99.432a4.139,4.139,0,0,1-5.684-1.385,4.137,4.137,0,0,1,1.384-5.684,4.137,4.137,0,0,1,5.684,1.383A4.139,4.139,0,0,1-498.606,99.432Z" transform="translate(504.893 90.022)" fill="#fff"/>
          </g>
          <g id="Group_3545" data-name="Group 3545" transform="translate(0 57.405)">
            <path id="Path_34510" data-name="Path 34510" d="M-498.606,99.432a4.139,4.139,0,0,1-5.684-1.385,4.137,4.137,0,0,1,1.384-5.684,4.137,4.137,0,0,1,5.684,1.383A4.139,4.139,0,0,1-498.606,99.432Z" transform="translate(504.893 -67.841)" fill="#fff" opacity="0.3"/>
            <path id="Path_34508" data-name="Path 34508" d="M-498.606,99.432a4.139,4.139,0,0,1-5.684-1.385,4.137,4.137,0,0,1,1.384-5.684,4.137,4.137,0,0,1,5.684,1.383A4.139,4.139,0,0,1-498.606,99.432Z" transform="translate(504.893 -13.626)" fill="#fff" opacity="0.3"/>
            <path id="Path_34506" data-name="Path 34506" d="M-498.606,99.432a4.139,4.139,0,0,1-5.684-1.385,4.137,4.137,0,0,1,1.384-5.684,4.137,4.137,0,0,1,5.684,1.383A4.139,4.139,0,0,1-498.606,99.432Z" transform="translate(504.893 35.806)" fill="#fff" opacity="0.3"/>
            <path id="Path_34511" data-name="Path 34511" d="M-498.606,99.432a4.139,4.139,0,0,1-5.684-1.385,4.137,4.137,0,0,1,1.384-5.684,4.137,4.137,0,0,1,5.684,1.383A4.139,4.139,0,0,1-498.606,99.432Z" transform="translate(504.893 -91.76)" fill="#fff" opacity="0.3"/>
            <path id="Path_34509" data-name="Path 34509" d="M-498.606,99.432a4.139,4.139,0,0,1-5.684-1.385,4.137,4.137,0,0,1,1.384-5.684,4.137,4.137,0,0,1,5.684,1.383A4.139,4.139,0,0,1-498.606,99.432Z" transform="translate(504.893 -40.733)" fill="#fff" opacity="0.3"/>
            <path id="Path_34507" data-name="Path 34507" d="M-498.606,99.432a4.139,4.139,0,0,1-5.684-1.385,4.137,4.137,0,0,1,1.384-5.684,4.137,4.137,0,0,1,5.684,1.383A4.139,4.139,0,0,1-498.606,99.432Z" transform="translate(504.893 10.293)" fill="#fff" opacity="0.3"/>
            <path id="Path_34505" data-name="Path 34505" d="M-498.606,99.432a4.139,4.139,0,0,1-5.684-1.385,4.137,4.137,0,0,1,1.384-5.684,4.137,4.137,0,0,1,5.684,1.383A4.139,4.139,0,0,1-498.606,99.432Z" transform="translate(504.893 62.914)" fill="#fff" opacity="0.3"/>
          </g>
        </g>
        <g id="Group_3546" data-name="Group 3546" transform="translate(56.498 293.14)">
          <path id="Path_34619" data-name="Path 34619" d="M4611.718,763.108H4690.4l25.139-26.791" transform="translate(-4535.43 -660.998)" fill="none" stroke="#fff" stroke-width="1"/>
          <path id="Path_34614" data-name="Path 34614" d="M4685.917,689.083l-25,24.807v27.433" transform="translate(-4506.266 -689.083)" fill="none" stroke="#fff" stroke-width="1"/>
          <path id="Path_34615" data-name="Path 34615" d="M4709.261,741.323V713.889l25-24.807h-52.282l-51.408,24.807L4604.079,738.7l-24.47,27.613v50.063L4605.2,843.76h25.369V816.371l26.041-25.593-26.041-26.266" transform="translate(-4579.609 -689.083)" fill="none" stroke="#fff" stroke-width="1"/>
          <path id="Path_34616" data-name="Path 34616" d="M4685.917,689.083l-25,24.807v27.433" transform="translate(-4557.805 -689.083)" fill="none" stroke="#fff" stroke-width="1"/>
          <path id="Path_34620" data-name="Path 34620" d="M4755.235,704.214l25.981,27.317,26.179,52.357v75.88L4781.217,886.7H4675.744v25.8h53.115l24.769-24.369" transform="translate(-4497.449 -680.086)" fill="none" stroke="#fff" stroke-width="1"/>
          <path id="Path_34621" data-name="Path 34621" d="M4724.98,864.042V887.5l-26.821-23.458,2.335-27.031-27.139-27H4621.7l-26.479-24.3" transform="translate(-4545.329 -631.624)" fill="none" stroke="#fff" stroke-width="1"/>
          <path id="Path_34622" data-name="Path 34622" d="M4644.6,840.344h130.224l25.391-25.974V762.421l-27.141-26.85" transform="translate(-4515.97 -661.441)" fill="none" stroke="#fff" stroke-width="1"/>
          <path id="Path_34623" data-name="Path 34623" d="M4758.339,753.562l-27.705,23.844H4627.612" transform="translate(-4526.067 -650.744)" fill="none" stroke="#fff" stroke-width="1"/>
        </g>
      </g>
    </g>
  </g>
</svg>
