<svg xmlns="http://www.w3.org/2000/svg" width="398.965" height="370.579" viewBox="0 0 398.965 370.579">
  <g id="Mental_health-rafiki" data-name="Mental health-rafiki" transform="translate(-40.656 -55.757)">
    <g id="freepik--Shadow--inject-21" transform="translate(40.656 403.043)">
      <ellipse id="freepik--path--inject-21" cx="199.482" cy="11.646" rx="199.482" ry="11.646" fill="#f5f5f5"/>
    </g>
    <g id="freepik--Head--inject-21" transform="translate(143.22 55.757)">
      <path id="Path_35812" data-name="Path 35812" d="M377.588,187.7C405.418,115.263,338.965,48.3,253.314,72.36c-37.985,10.669-52.646,47.327-61.669,87.266-5.412,10.227-16.575,28.571-32.182,40.2a9.074,9.074,0,0,0-.442,14.219c6.8,5.72,15.278,7.912,20.35,8.735-1.389,6.43-2.891,12.593-4.609,18.365-11.142,37.553,20.978,56.874,57.2,60.527a135.807,135.807,0,0,1,2,36.39c-1.245,16.029,13.375,28.715,29.147,25.536l70.99-14.332a24.363,24.363,0,0,0,19.476-25.968,580.848,580.848,0,0,1-.165-92.462C361.63,221.12,369.635,208.373,377.588,187.7Z" transform="translate(-155.799 -67.37)" fill="#00a2f5"/>
      <path id="Path_35813" data-name="Path 35813" d="M377.588,187.7C405.418,115.263,338.965,48.3,253.314,72.36c-37.985,10.669-52.646,47.327-61.669,87.266-5.412,10.227-16.575,28.571-32.182,40.2a9.074,9.074,0,0,0-.442,14.219c6.8,5.72,15.278,7.912,20.35,8.735-1.389,6.43-2.891,12.593-4.609,18.365-11.142,37.553,20.978,56.874,57.2,60.527a135.807,135.807,0,0,1,2,36.39c-1.245,16.029,13.375,28.715,29.147,25.536l70.99-14.332a24.363,24.363,0,0,0,19.476-25.968,580.848,580.848,0,0,1-.165-92.462C361.63,221.12,369.635,208.373,377.588,187.7Z" transform="translate(-155.799 -67.37)" fill="#fff" opacity="0.6"/>
      <path id="Path_35814" data-name="Path 35814" d="M383.282,418.689H207.947a10.227,10.227,0,0,1-9.784-13.21l20.124-65.846a10.289,10.289,0,0,1,6.4-6.667L353.95,287.7a10.216,10.216,0,0,1,13.375,7.325l25.958,111.115a10.227,10.227,0,0,1-10,12.552Z" transform="translate(-154.59 -61.032)" fill="#00a2f5"/>
      <path id="Path_35815" data-name="Path 35815" d="M269.844,92.047A15.433,15.433,0,0,0,244.3,101.09a12.634,12.634,0,0,0-15.968,6.173l13.776,5.854a8.591,8.591,0,1,0,13.828,5.864l15.134,6.43,6.43-15.134A8.581,8.581,0,0,1,269,105.7a8.282,8.282,0,0,1-.432-1.029c-.113-.309-.206-.617-.288-.936a8.526,8.526,0,0,1-.247-1.986v-.072a8.725,8.725,0,0,1,.689-3.344A8.581,8.581,0,0,1,283.383,96.4L287.6,86.47a16.533,16.533,0,0,0-17.747,5.494Z" transform="translate(-153.707 -66.84)" fill="#fff"/>
      <path id="Path_35816" data-name="Path 35816" d="M262.442,156.395a8.568,8.568,0,1,0,3.272-16.461,6.984,6.984,0,0,0-.8,0h0l6.42-15.134-15.134-6.43a8.591,8.591,0,1,1-13.828-5.864l-13.776-5.854a12.624,12.624,0,0,0,2.233,14.4,15.433,15.433,0,0,0-8.92,23.663h0l.226.3a15.566,15.566,0,0,0,5.566,4.733c6.451,3.92,16.739,7.2,28.808,9.856l2.51-5.9a8.488,8.488,0,0,0,3.426,2.685Z" transform="translate(-153.97 -66.237)" opacity="0.1"/>
      <path id="Path_35817" data-name="Path 35817" d="M329.283,115.233a8.591,8.591,0,0,1,5.144,6.626,9.5,9.5,0,0,1,.1,1.214v.082a8.591,8.591,0,0,1-15.35,5.278l-6.42,15.124h0l15.134,6.42a8.591,8.591,0,1,0,13.828,5.875l13.879,5.9a12.675,12.675,0,0,0-7.346-16.081,15.433,15.433,0,0,0-12.7-23.941,16.523,16.523,0,0,0-5.319-13.313,16.7,16.7,0,0,0-1.924-1.5l-3.261,7.685A8.509,8.509,0,0,1,329.283,115.233Z" transform="translate(-151.272 -66.23)" fill="#fff"/>
      <path id="Path_35818" data-name="Path 35818" d="M278.855,93.843A8.591,8.591,0,0,0,267.6,98.391a8.726,8.726,0,0,0-.689,3.344v.072a8.53,8.53,0,0,0,.247,1.986c.082.319.175.628.288.936a8.281,8.281,0,0,0,.432,1.029,8.581,8.581,0,0,0,8.5,4.578h0l-6.43,15.134h0l15.124,6.43a9.185,9.185,0,0,1,0-2.058.175.175,0,0,1,0-.072s0-.093,0-.134a8.56,8.56,0,0,1,9.908-7.078,8.108,8.108,0,0,1,1.914.556h0a8.591,8.591,0,0,1,4.65,11.225,8.489,8.489,0,0,1-1.831,2.706,10,10,0,0,1-.782.7l15.134,6.42,6.42-15.124a8.591,8.591,0,0,0,15.35-5.278v-.082a9.5,9.5,0,0,0-.1-1.214,8.55,8.55,0,0,0-9.373-7.2h0l3.261-7.685a16.461,16.461,0,0,0-8.025-2.8A18.3,18.3,0,0,0,295.2,92.948a16.585,16.585,0,0,0-8.725-6.348l-4.218,9.928A8.581,8.581,0,0,0,278.855,93.843Z" transform="translate(-152.595 -66.815)" opacity="0.1"/>
      <path id="Path_35819" data-name="Path 35819" d="M341.675,159.084a8.591,8.591,0,1,1-13.19-10.124l-15.134-6.42-6.43,15.134c-.165-.216-.36-.412-.545-.617a8.375,8.375,0,0,0-2.86-2,8.591,8.591,0,0,0-7.5,15.433c.247.134.514.268.782.381a8.632,8.632,0,0,0,4.249.638h0l-2.377,5.587a14.013,14.013,0,0,0,10.432-1.77,14.23,14.23,0,0,0,1.842-1.368,18.128,18.128,0,0,0,2.387,6.111,18.447,18.447,0,0,0,34.065-11.317,12.665,12.665,0,0,0,8.8-8.025l-13.879-5.9A8.633,8.633,0,0,1,341.675,159.084Z" transform="translate(-151.883 -65.202)" opacity="0.1"/>
      <g id="Group_4155" data-name="Group 4155" transform="translate(175.645 276.306)" opacity="0.2">
        <path id="Path_35820" data-name="Path 35820" d="M327.26,363.52l.689,26.019h43.129l-.689-26.019Z" transform="translate(-326.499 -335.134)" fill="none"/>
        <path id="Path_35821" data-name="Path 35821" d="M369.649,335.93H326.52l.689,26.02h43.139Z" transform="translate(-326.52 -335.93)" fill="none"/>
      </g>
    </g>
    <g id="freepik--character-1--inject-21" transform="translate(45.934 205.464)">
      <path id="Path_35822" data-name="Path 35822" d="M88.4,308.223l.175-2.552a2.624,2.624,0,0,0-.967-2.325l-3.087-2.294a4.372,4.372,0,0,0-4.506-.288l-1.029.453c-.556,4.27,1.656,8.827,1.656,8.827l.494,1.4a1.893,1.893,0,0,0,2.85,1.029l2.716-1.5A3.519,3.519,0,0,0,88.4,308.223Z" transform="translate(-60.731 -210.359)" fill="#b55b52"/>
      <path id="Path_35823" data-name="Path 35823" d="M83.946,299l1.584,1.286a91.354,91.354,0,0,1-8.035,6.255,18.253,18.253,0,0,0-1.965-1.667Z" transform="translate(-60.828 -210.396)" fill="#263238"/>
      <path id="Path_35824" data-name="Path 35824" d="M90.4,258.687c-.586.751-1.317,1.759-1.955,2.675s-1.317,1.883-1.955,2.829c-1.265,1.914-2.49,3.848-3.611,5.782a64.673,64.673,0,0,0-3,5.813,27.778,27.778,0,0,0-1.852,5.144l.093-1.77a6.091,6.091,0,0,0,.2,1.656,23.4,23.4,0,0,0,.71,2.479,58.182,58.182,0,0,0,2.243,5.556c.864,1.893,1.831,3.8,2.84,5.69s2.058,3.827,3.087,5.545l-12.552,8.282c-1.451-2.058-2.706-4.023-3.982-6.091s-2.48-4.115-3.652-6.3a75.482,75.482,0,0,1-3.3-6.9,34.591,34.591,0,0,1-1.42-3.982,25,25,0,0,1-.977-5.052l-.062-.72.154-1.029a43.438,43.438,0,0,1,2.4-8.982,82.672,82.672,0,0,1,3.375-7.675c1.183-2.418,2.438-4.753,3.745-7.037.648-1.142,1.317-2.284,2.058-3.405s1.348-2.191,2.181-3.447Z" transform="translate(-61.24 -211.874)" fill="#00a2f5"/>
      <path id="Path_35825" data-name="Path 35825" d="M90.4,258.687c-.586.751-1.317,1.759-1.955,2.675s-1.317,1.883-1.955,2.829c-1.265,1.914-2.49,3.848-3.611,5.782a64.673,64.673,0,0,0-3,5.813,27.778,27.778,0,0,0-1.852,5.144l.093-1.77a6.091,6.091,0,0,0,.2,1.656,23.4,23.4,0,0,0,.71,2.479,58.182,58.182,0,0,0,2.243,5.556c.864,1.893,1.831,3.8,2.84,5.69s2.058,3.827,3.087,5.545l-12.552,8.282c-1.451-2.058-2.706-4.023-3.982-6.091s-2.48-4.115-3.652-6.3a75.482,75.482,0,0,1-3.3-6.9,34.591,34.591,0,0,1-1.42-3.982,25,25,0,0,1-.977-5.052l-.062-.72.154-1.029a43.438,43.438,0,0,1,2.4-8.982,82.672,82.672,0,0,1,3.375-7.675c1.183-2.418,2.438-4.753,3.745-7.037.648-1.142,1.317-2.284,2.058-3.405s1.348-2.191,2.181-3.447Z" transform="translate(-61.24 -211.874)" fill="#fff" opacity="0.7"/>
      <path id="Path_35826" data-name="Path 35826" d="M138.7,397.53l-10.937,2.253,5.515,12.377,9.146-1.872Z" transform="translate(-59.321 -207.554)" fill="#b55b52"/>
      <path id="Path_35827" data-name="Path 35827" d="M138.7,397.53l-10.947,2.263,3.1,6.924,9.939-2.037Z" transform="translate(-59.322 -207.554)" opacity="0.2"/>
      <path id="Path_35828" data-name="Path 35828" d="M114.072,361.153c-5.453-16.945-18.519-33.952-17.49-50.681l36.431-.093s2.377,33.746,3.611,49.384c1.286,16.215,5.35,44.652,5.35,44.652l-12.346,3.313S113.125,379.3,114.072,361.153Z" transform="translate(-60.222 -210.068)" fill="#263238"/>
      <path id="Path_35829" data-name="Path 35829" d="M133.735,416.179l2.85-.751.247-1.091,1.636.6a30.71,30.71,0,0,0,14.568-4.928,7.459,7.459,0,0,0-2.274-2.716s-4.239,1.029-7.058.247a1.872,1.872,0,0,0-1.379.093c-1.759.864-6.482,2.994-9.743,2.706a.412.412,0,0,0-.422.566A34.592,34.592,0,0,1,133.735,416.179Z" transform="translate(-59.195 -207.273)" fill="#263238"/>
      <path id="Path_35830" data-name="Path 35830" d="M96.734,399.02l-11.194.113.535,13.2,9.352-.072Z" transform="translate(-60.539 -207.511)" fill="#b55b52"/>
      <path id="Path_35831" data-name="Path 35831" d="M96.734,399.03l-11.194.1.3,7.4L96,406.438Z" transform="translate(-60.539 -207.511)" opacity="0.2"/>
      <path id="Path_35832" data-name="Path 35832" d="M84.788,356.9c-.905-16.955-10.371-34.867-5.813-45.742l34.867-.782s-.329,32.748-3.951,48.356C106.126,375.022,97.278,406.7,97.278,406.7h-12.1S80.24,376.236,84.788,356.9Z" transform="translate(-60.764 -210.068)" fill="#263238"/>
      <path id="Path_35833" data-name="Path 35833" d="M111.02,227.808c1.224,1.183,2.058.473,1.986-1.152a3.22,3.22,0,0,1-.514,5.525c-2.284,1.3-4.856.566-5.751-.833l-.35-4.784C108.129,225.678,109.178,226.049,111.02,227.808Z" transform="translate(-59.938 -212.499)" fill="#e0e0e0"/>
      <path id="Path_35834" data-name="Path 35834" d="M105.93,222.72l1.821,4.681a4.27,4.27,0,0,0,2.685-1.5,10.494,10.494,0,0,0-4.506-3.179Z" transform="translate(-59.951 -212.596)" fill="#a02724"/>
      <path id="Path_35835" data-name="Path 35835" d="M106.243,221.867c.216.556.689.885,1.029.73a.978.978,0,0,0,.257-1.265c-.226-.556-.689-.885-1.029-.741A.966.966,0,0,0,106.243,221.867Z" transform="translate(-59.945 -212.658)" fill="#263238"/>
      <path id="Path_35836" data-name="Path 35836" d="M107.764,226.041a2.839,2.839,0,0,1-1.121-.247,5.7,5.7,0,0,1-2.809-3.189c-1.029-2.479-.432-5.041,1.224-5.72a2.551,2.551,0,0,1,2.047.123,5.7,5.7,0,0,1,2.809,3.189c1.029,2.48.432,5.041-1.224,5.72a2.285,2.285,0,0,1-.926.123Zm-1.831-8.817a1.9,1.9,0,0,0-.679.134c-1.4.576-1.821,2.84-.936,5.052h0a5.144,5.144,0,0,0,2.531,2.912,2.058,2.058,0,0,0,1.595.072c1.4-.576,1.821-2.84.936-5.052a5.144,5.144,0,0,0-2.531-2.912A2.387,2.387,0,0,0,105.933,217.224Z" transform="translate(-60.026 -212.769)" fill="#263238"/>
      <path id="Path_35837" data-name="Path 35837" d="M106.392,219.455a.329.329,0,0,1-.319,0,2.768,2.768,0,0,0-2.49-.442.35.35,0,0,1-.453-.2.36.36,0,0,1,.2-.463,3.477,3.477,0,0,1,3.148.535.34.34,0,0,1,.082.484A.288.288,0,0,1,106.392,219.455Z" transform="translate(-60.032 -212.727)" fill="#263238"/>
      <path id="Path_35838" data-name="Path 35838" d="M87.028,227.407c3.087,6.657,5.4,11.1,10.494,12.408,10.134,2.593,13.375-3,12.346-10.474-1.029-6.718-5.936-16.461-13.673-16.461a10.124,10.124,0,0,0-9.167,14.527Z" transform="translate(-60.525 -212.88)" fill="#b55b52"/>
      <path id="Path_35839" data-name="Path 35839" d="M109.2,243.893a6.564,6.564,0,0,0-3.138-2.973,6.07,6.07,0,0,1-.1-4.115L90.63,232c1.235,5.062,2.2,9.074.319,11.533,3.015,1.831,8.539,5.144,14.558,4.969S110.178,246.013,109.2,243.893Z" transform="translate(-60.392 -212.328)" fill="#b55b52"/>
      <path id="Path_35840" data-name="Path 35840" d="M88.329,242.8c-.916-2.922.473-3.313.473-3.313s9.476-2.274,18.262,0,3.5,5.453,3.5,5.453Z" transform="translate(-60.468 -212.142)" fill="#263238"/>
      <path id="Path_35841" data-name="Path 35841" d="M104,226.385c.967-2.253,1.029-6.79-.864-9.054a1.893,1.893,0,0,1-.741,1.543c-.484-.72-3.488-2.726-7.716-2.634a2.583,2.583,0,0,1,.854,1.029s-6.626-1.1-10.206,1.605c0,0,.761,1.029.206,1.708-1.307.741-1.842,1.656-1.317,4.671s4.115,8.292,7.6,11.585c6.523.37,10.011-2.294,10.011-2.294S105.605,230.6,104,226.385Z" transform="translate(-60.583 -212.783)" fill="#e0e0e0"/>
      <path id="Path_35842" data-name="Path 35842" d="M100.367,225.421h-.062a.247.247,0,0,1-.185-.309c.412-1.605,2.552-3.138,3.94-3.7,2.058-.875,5.278-2.058,5.309-2.058a.257.257,0,0,1,.175.484s-3.2,1.173-5.288,2.058c-1.255.514-3.272,1.934-3.642,3.354A.267.267,0,0,1,100.367,225.421Z" transform="translate(-60.119 -212.694)" fill="#263238"/>
      <path id="Path_35843" data-name="Path 35843" d="M99.508,226.415a6.955,6.955,0,0,0,3.087,3.807c1.831.957,2.85-1.029,2.438-3.251-.37-2.058-1.759-5.021-3.642-5.01S98.747,224.306,99.508,226.415Z" transform="translate(-60.145 -212.618)" fill="#b55b52"/>
      <path id="Path_35844" data-name="Path 35844" d="M114.563,243.128a141.434,141.434,0,0,0-31.112.494,10.494,10.494,0,0,0-8.735,12.5c4.836,24.363,2.449,53.716,2.953,58.531,0,0,30.413,7.49,57.615-.669,3.179-29.836-7.521-54.611-12.408-64.92a10.453,10.453,0,0,0-8.313-5.936Z" transform="translate(-60.858 -212.026)" fill="#263238"/>
      <path id="Path_35845" data-name="Path 35845" d="M84.72,416.1h2.428l.617-1.029,1.317,1.029h15.649a6.729,6.729,0,0,0-.772-3.364s-5.36-.4-7.14-2.582a.566.566,0,0,0-.556-.226c-1.44.309-7.2,1.41-10.453.257a.5.5,0,0,0-.7.484A35.61,35.61,0,0,1,84.72,416.1Z" transform="translate(-60.563 -207.197)" fill="#263238"/>
      <path id="Path_35846" data-name="Path 35846" d="M120.683,244.272c-12.624-6.646-37.5-3.838-43,.175-10.484,7.665-.926,32.511-.844,56.226s-1.121,50.485-1.121,79.951c25.587,19.548,69.735-1.389,69.735-1.389S146.054,257.647,120.683,244.272Z" transform="translate(-60.907 -212.089)" fill="#00a2f5"/>
      <path id="Path_35847" data-name="Path 35847" d="M120.683,244.272c-12.624-6.646-37.5-3.838-43,.175-10.484,7.665-.926,32.511-.844,56.226s-1.121,50.485-1.121,79.951c25.587,19.548,69.735-1.389,69.735-1.389S146.054,257.647,120.683,244.272Z" transform="translate(-60.907 -212.089)" fill="#fff" opacity="0.8"/>
      <path id="Path_35848" data-name="Path 35848" d="M129,256.77l-9.825,1.759a47.6,47.6,0,0,0,12.6,5.988A82,82,0,0,0,129,256.77Z" transform="translate(-59.569 -211.614)" fill="#00a2f5" opacity="0.2"/>
      <path id="Path_35849" data-name="Path 35849" d="M160.68,225.524l-2.48.648a2.6,2.6,0,0,0-1.883,1.656l-1.173,3.7a4.383,4.383,0,0,0,1.173,4.362l.741.782c4.218-.854,7.829-4.414,7.829-4.414l1.173-.905a1.9,1.9,0,0,0,.082-3.087l-2.284-2.058A3.509,3.509,0,0,0,160.68,225.524Z" transform="translate(-58.536 -212.519)" fill="#b55b52"/>
      <path id="Path_35850" data-name="Path 35850" d="M152,232.226l1.852-2a102.738,102.738,0,0,1,9.455,6.667,19.613,19.613,0,0,0-1.255,2.685Z" transform="translate(-58.622 -212.379)" fill="#263238"/>
      <path id="Path_35851" data-name="Path 35851" d="M113.9,242.513c2.058.391,4.311.772,6.471,1.121s4.352.7,6.513,1.029c4.331.638,8.673,1.2,12.8,1.533l-1.78.123c-.329.113,0,.093.556-.185a11.719,11.719,0,0,0,1.883-1.245,37.787,37.787,0,0,0,4.352-4.043c1.461-1.533,2.891-3.21,4.28-4.938.689-.864,1.379-1.749,2.058-2.634s1.348-1.842,1.9-2.624l12.7,8.066c-.751,1.224-1.389,2.222-2.109,3.313s-1.42,2.119-2.161,3.159c-1.471,2.058-3.025,4.115-4.733,6.173a54.538,54.538,0,0,1-5.8,6.039,29.115,29.115,0,0,1-3.91,2.942,18.148,18.148,0,0,1-6.06,2.49l-.628.134h-1.142c-4.866,0-9.486-.288-14.1-.607q-3.457-.247-6.883-.545c-2.3-.206-4.547-.422-6.9-.669Z" transform="translate(-59.799 -212.367)" fill="#00a2f5"/>
      <path id="Path_35852" data-name="Path 35852" d="M113.9,242.513c2.058.391,4.311.772,6.471,1.121s4.352.7,6.513,1.029c4.331.638,8.673,1.2,12.8,1.533l-1.78.123c-.329.113,0,.093.556-.185a11.719,11.719,0,0,0,1.883-1.245,37.787,37.787,0,0,0,4.352-4.043c1.461-1.533,2.891-3.21,4.28-4.938.689-.864,1.379-1.749,2.058-2.634s1.348-1.842,1.9-2.624l12.7,8.066c-.751,1.224-1.389,2.222-2.109,3.313s-1.42,2.119-2.161,3.159c-1.471,2.058-3.025,4.115-4.733,6.173a54.538,54.538,0,0,1-5.8,6.039,29.115,29.115,0,0,1-3.91,2.942,18.148,18.148,0,0,1-6.06,2.49l-.628.134h-1.142c-4.866,0-9.486-.288-14.1-.607q-3.457-.247-6.883-.545c-2.3-.206-4.547-.422-6.9-.669Z" transform="translate(-59.799 -212.367)" fill="#fff" opacity="0.8"/>
    </g>
    <g id="freepik--character-2--inject-21" transform="translate(239.582 116.539)">
      <path id="Path_35853" data-name="Path 35853" d="M369.357,319.83l.432,16.05h-43.17l-.7-26.019h41.071l-.556-2.356H325.858l-.689-26.019h21.853v-2.366h-21.9l-.658-24.548H320.95l4.383,165.057h3.519l-.648-24.579h43.129l.659,24.538h3.539l-2.2-82.75Zm-42.635,18.416h43.129l.689,26.019H327.37Zm1.451,54.405-.689-26.019h43.129l.689,26.019Z" transform="translate(-247.398 -122.752)" opacity="0.2"/>
      <path id="Path_35854" data-name="Path 35854" d="M398.37,427.651h3.519L371.826,254.6h-3.519l4.465,25.721H329.654L325.189,254.6H321.67l30.063,173.051h3.508l-4.465-25.721h43.129Zm-14.805-85.281,4.733,27.285H345.169l-4.733-27.285ZM340,339.881l-4.743-27.254H378.39l4.743,27.285Zm33.211-57.09,4.743,27.3H334.829l-4.743-27.3ZM350.344,399.43l-4.743-27.3H388.73l4.743,27.3Z" transform="translate(-247.377 -122.752)" fill="#263238"/>
      <path id="Path_35855" data-name="Path 35855" d="M376.781,224.5l-.648-2.171a2.634,2.634,0,0,1,.432-2.377l2.428-3.148a4.908,4.908,0,0,1,4.115-1.9h1.029c1.337,3.519.185,8.313.185,8.313l-.175,1.4a2.191,2.191,0,0,1-2.418,1.965l-2.788-.309A2.541,2.541,0,0,1,376.781,224.5Z" transform="translate(-245.81 -123.897)" fill="#7f3e3b"/>
      <path id="Path_35856" data-name="Path 35856" d="M380.152,214.82,379,216.538a91.823,91.823,0,0,0,9.681,3.94,18.386,18.386,0,0,1,1.482-2.2Z" transform="translate(-245.724 -123.899)" fill="#fff"/>
      <path id="Path_35857" data-name="Path 35857" d="M372.769,164.53c1.893,1.646,3.663,3.241,5.453,4.9s3.56,3.313,5.309,5.021a141.99,141.99,0,0,1,10.288,10.926l.545.658.257.5a16.719,16.719,0,0,1,1.708,5.978,29.373,29.373,0,0,1,.082,4.815,56.118,56.118,0,0,1-1.224,8.375c-.566,2.654-1.255,5.216-2.058,7.737s-1.564,4.949-2.531,7.552l-11.317-4.064c.679-2.119,1.358-4.506,1.924-6.77s1.029-4.6,1.451-6.852a43.94,43.94,0,0,0,.658-6.492,15.922,15.922,0,0,0-.165-2.675,2.735,2.735,0,0,0-.36-1.183l.813,1.163a129.619,129.619,0,0,0-9.764-9.26c-1.739-1.512-3.508-2.994-5.3-4.465s-3.622-2.942-5.381-4.311Z" transform="translate(-246.181 -125.349)" fill="#00a2f5"/>
      <path id="Path_35858" data-name="Path 35858" d="M372.769,164.53c1.893,1.646,3.663,3.241,5.453,4.9s3.56,3.313,5.309,5.021a141.99,141.99,0,0,1,10.288,10.926l.545.658.257.5a16.719,16.719,0,0,1,1.708,5.978,29.373,29.373,0,0,1,.082,4.815,56.118,56.118,0,0,1-1.224,8.375c-.566,2.654-1.255,5.216-2.058,7.737s-1.564,4.949-2.531,7.552l-11.317-4.064c.679-2.119,1.358-4.506,1.924-6.77s1.029-4.6,1.451-6.852a43.94,43.94,0,0,0,.658-6.492,15.922,15.922,0,0,0-.165-2.675,2.735,2.735,0,0,0-.36-1.183l.813,1.163a129.619,129.619,0,0,0-9.764-9.26c-1.739-1.512-3.508-2.994-5.3-4.465s-3.622-2.942-5.381-4.311Z" transform="translate(-246.181 -125.349)" fill="#fff" opacity="0.7"/>
      <path id="Path_35859" data-name="Path 35859" d="M361.909,149.87c-.875,4.012-1.821,11.379.926,14.054,0,0-3.838-.576-11.647,4.424-2.521-3.354-.833-4.424-.833-4.424,4.5-1.029,4.455-4.393,3.745-7.511Z" transform="translate(-246.566 -125.772)" fill="#7f3e3b"/>
      <path id="Path_35860" data-name="Path 35860" d="M347.266,143.37c-.1.535-.463.926-.813.875s-.556-.545-.453-1.091.463-.926.813-.864S347.369,142.835,347.266,143.37Z" transform="translate(-246.676 -125.991)" fill="#263238"/>
      <path id="Path_35861" data-name="Path 35861" d="M346.928,139.955a.37.37,0,0,1-.216-.113.319.319,0,0,1,.072-.442,3.313,3.313,0,0,1,2.912-.586.3.3,0,0,1,.2.4.329.329,0,0,1-.412.2,2.665,2.665,0,0,0-2.3.484.288.288,0,0,1-.247.062Z" transform="translate(-246.657 -126.095)" fill="#263238"/>
      <path id="Path_35862" data-name="Path 35862" d="M346.9,144.31a15.1,15.1,0,0,1-2.552,3.087,2.294,2.294,0,0,0,1.842.679Z" transform="translate(-246.723 -125.933)" fill="#630f0f"/>
      <path id="Path_35863" data-name="Path 35863" d="M346.974,142.356l-1.224-.586S346.223,142.891,346.974,142.356Z" transform="translate(-246.683 -126.006)" fill="#263238"/>
      <path id="Path_35864" data-name="Path 35864" d="M365.37,144.6c-1.482,6.348-1.965,9.064-5.792,11.821-5.762,4.115-13.313.967-13.776-5.679-.422-5.988,2.058-15.35,8.848-16.873A8.91,8.91,0,0,1,365.37,144.6Z" transform="translate(-246.683 -126.241)" fill="#7f3e3b"/>
      <path id="Path_35865" data-name="Path 35865" d="M350.456,145.531c-1.728-.412-.71-5.494,0-6.543-3.467-.977-6.122-3.786-2.161-6.482s7.418-3.7,9.208-2.51c1.08-3.087,8.1-1.7,11.533,3.8,3.261,5.2.72,9.352-1.615,9.527,3.7,3.087-1.132,9.023-5.319,10.216-.237,4.115-7.346,4.3-10.566,1.193S350.456,145.531,350.456,145.531Z" transform="translate(-246.666 -126.392)" fill="#263238"/>
      <path id="Path_35866" data-name="Path 35866" d="M353.206,146.186a4.249,4.249,0,0,1-2.346,2.7c-1.43.556-2.356-1.091-2.13-2.86.206-1.595,1.183-3.807,2.706-3.591S353.711,144.591,353.206,146.186Z" transform="translate(-246.598 -125.987)" fill="#7f3e3b"/>
      <path id="Path_35867" data-name="Path 35867" d="M395.873,330.954c4.2-2.654,3.529-3.735,5.834-5.309,1.975-1.348,2.634-1.4,4.239-2.459,1.337-.885.391-2.2-1.029-3.477-.73-.648-1.687-1.389-2.809-2.459l-6.379,4.033c.267,2.263-.288,5.834-2.438,7.655S394.2,332.014,395.873,330.954Z" transform="translate(-245.333 -120.945)" fill="#263238"/>
      <path id="Path_35868" data-name="Path 35868" d="M344.136,337.684c7.14,0,6.677-.216,9.486-.268,2.058,0,1.492.268,5.319.268,1.615,0,1.759-1.821,1.163-3.189a23.828,23.828,0,0,1-1.595-3.724h-6.9c-1.224,2.191-4.609,3.807-8.406,4.115C340.494,335.05,342.13,337.684,344.136,337.684Z" transform="translate(-246.797 -120.555)" fill="#263238"/>
      <path id="Path_35869" data-name="Path 35869" d="M342.114,204.91s-.8,36.009,1.461,58.87c0,21.462,8.035,70.62,8.035,70.62.165,1.1,5.926.659,6.893,0,0,0,4.4-36.009-.576-70.815,11.79-36.318,10.875-58.644,10.875-58.644Z" transform="translate(-246.792 -124.185)" fill="#263238"/>
      <path id="Path_35870" data-name="Path 35870" d="M349.09,204.91s13.828,40.639,19.62,60.6c6.07,20.957,21.04,46.72,28.252,59.014,1.368,0,4.856-2.181,6.379-4.033-7.829-13.9-8.046-33.376-19.97-54.055.113-49.642-7.994-61.525-7.994-61.525Z" transform="translate(-246.586 -124.185)" fill="#263238"/>
      <path id="Path_35871" data-name="Path 35871" d="M393.553,319.218a21.456,21.456,0,0,1,1.4,2.572.617.617,0,0,0,.813.34,27.04,27.04,0,0,0,6.543-4.661.576.576,0,0,0,.113-.669l-1.2-2.51a.617.617,0,0,0-.885-.267l-6.667,4.4A.566.566,0,0,0,393.553,319.218Z" transform="translate(-245.307 -121.04)" fill="#00a2f5"/>
      <path id="Path_35872" data-name="Path 35872" d="M393.553,319.218a21.456,21.456,0,0,1,1.4,2.572.617.617,0,0,0,.813.34,27.04,27.04,0,0,0,6.543-4.661.576.576,0,0,0,.113-.669l-1.2-2.51a.617.617,0,0,0-.885-.267l-6.667,4.4A.566.566,0,0,0,393.553,319.218Z" transform="translate(-245.307 -121.04)" fill="#fff" opacity="0.3"/>
      <path id="Path_35873" data-name="Path 35873" d="M350.24,328.3c0,.751.051,2.058,0,3.086a.617.617,0,0,0,.576.628,41.53,41.53,0,0,0,7.6-.453.566.566,0,0,0,.473-.483l.37-2.7a.628.628,0,0,0-.628-.7l-7.871.072A.576.576,0,0,0,350.24,328.3Z" transform="translate(-246.553 -120.644)" fill="#00a2f5"/>
      <path id="Path_35874" data-name="Path 35874" d="M350.24,328.3c0,.751.051,2.058,0,3.086a.617.617,0,0,0,.576.628,41.53,41.53,0,0,0,7.6-.453.566.566,0,0,0,.473-.483l.37-2.7a.628.628,0,0,0-.628-.7l-7.871.072A.576.576,0,0,0,350.24,328.3Z" transform="translate(-246.553 -120.644)" fill="#fff" opacity="0.3"/>
      <path id="Path_35875" data-name="Path 35875" d="M339,173.752c.062,2.706.134,6.122.844,12.572.494,5.463,1.152,10.834,2.408,19.785h33.468c-.957-7.737-5.309-16.564-1.286-33.952a6.77,6.77,0,0,0-5.916-8.334c-1.091-.1-2.253-.2-3.436-.257a104.451,104.451,0,0,0-13.673,0c-1.358.123-2.747.3-4.115.484A9.692,9.692,0,0,0,339,173.752Z" transform="translate(-246.878 -125.384)" fill="#00a2f5"/>
      <path id="Path_35876" data-name="Path 35876" d="M286.138,196.234a13.8,13.8,0,0,0,3.405,2.819,13.962,13.962,0,0,0,10.885,1.4l-.494-6.05a8.581,8.581,0,0,1-4.054,1.41,8.342,8.342,0,0,1-.875,0,8.581,8.581,0,1,1,2.932-16.7l.761.288-1.358-16.369-16.461,1.307h0a10.129,10.129,0,0,0,.381-.977,8.745,8.745,0,0,0,.35-3.251,8.591,8.591,0,0,0-9.26-7.85,9.261,9.261,0,0,0-1.955.4,8.539,8.539,0,0,0-5.474,10.875.675.675,0,0,0,0,.134.146.146,0,0,0,0,.062,8.355,8.355,0,0,0,.926,1.842l-16.389,1.348,1.348,16.389c.226-.154.463-.278.7-.412a8.581,8.581,0,1,1,.535,15.381l.525,6.379c5.936-1.615,12.192-3.549,18.591-5.71A14.033,14.033,0,0,0,286.138,196.234Z" transform="translate(-249.46 -125.704)" fill="#fff"/>
      <path id="Path_35877" data-name="Path 35877" d="M291.825,173.2l2.233-.4a2.613,2.613,0,0,1,2.3.7l2.85,2.778a4.938,4.938,0,0,1,1.43,4.28l-.154.977c-3.652.916-8.231-.782-8.231-.782l-1.379-.34a2.2,2.2,0,0,1-1.677-2.624l.638-2.726A2.51,2.51,0,0,1,291.825,173.2Z" transform="translate(-248.315 -125.112)" fill="#7f3e3b"/>
      <path id="Path_35878" data-name="Path 35878" d="M300.9,177.649l-1.574-1.389a94.464,94.464,0,0,0-5.031,9.167,19.641,19.641,0,0,1,2.058,1.718Z" transform="translate(-248.167 -125.011)" fill="#fff"/>
      <path id="Path_35879" data-name="Path 35879" d="M348.085,162.206c-7.2,1.029-11.9,5.967-12.583,22.11a339.119,339.119,0,0,0,1.224,36.256c-1.029,29.157-2.737,70.147,2.325,83.82,18.365,6.811,48.222-2.757,62.173-9.8-4.517-10.288-13.817-45.8-18.118-73.737-2.253-14.682-5.031-37.378-5.69-46.751s-5.535-11.256-10.186-12.192S355.811,161.115,348.085,162.206Z" transform="translate(-246.98 -125.443)" fill="#00a2f5"/>
      <path id="Path_35880" data-name="Path 35880" d="M348.085,162.206c-7.2,1.029-11.9,5.967-12.583,22.11a339.119,339.119,0,0,0,1.224,36.256c-1.029,29.157-2.737,70.147,2.325,83.82,18.365,6.811,48.222-2.757,62.173-9.8-4.517-10.288-13.817-45.8-18.118-73.737-2.253-14.682-5.031-37.378-5.69-46.751s-5.535-11.256-10.186-12.192S355.811,161.115,348.085,162.206Z" transform="translate(-246.98 -125.443)" fill="#fff" opacity="0.8"/>
      <path id="Path_35881" data-name="Path 35881" d="M335.5,183.755h0c-.093,2.181-.123,5.3-.082,8.971,5.72-4.733,8.334-12.716,8.334-12.716Z" transform="translate(-246.981 -124.903)" fill="#00a2f5" opacity="0.2"/>
      <path id="Path_35882" data-name="Path 35882" d="M352.37,176.446c-1.79,1.687-3.5,3.231-5.268,4.8s-3.56,3.087-5.381,4.62a126.17,126.17,0,0,1-11.677,8.776l-.73.463-.525.2a16.76,16.76,0,0,1-6.173,1.029,28.3,28.3,0,0,1-4.794-.484,56.107,56.107,0,0,1-8.231-2.171c-2.572-.875-5.031-1.852-7.459-2.9s-4.733-2.119-7.2-3.385l5.34-10.731c2.058.916,4.321,1.872,6.5,2.7s4.445,1.595,6.646,2.233a43.356,43.356,0,0,0,6.369,1.41,15.783,15.783,0,0,0,2.675.144,3.086,3.086,0,0,0,1.224-.216l-1.255.669a112.225,112.225,0,0,0,9.8-8.354c1.615-1.5,3.21-3.087,4.784-4.62s3.159-3.189,4.609-4.733Z" transform="translate(-248.149 -125.31)" fill="#00a2f5"/>
      <path id="Path_35883" data-name="Path 35883" d="M352.37,176.446c-1.79,1.687-3.5,3.231-5.268,4.8s-3.56,3.087-5.381,4.62a126.17,126.17,0,0,1-11.677,8.776l-.73.463-.525.2a16.76,16.76,0,0,1-6.173,1.029,28.3,28.3,0,0,1-4.794-.484,56.107,56.107,0,0,1-8.231-2.171c-2.572-.875-5.031-1.852-7.459-2.9s-4.733-2.119-7.2-3.385l5.34-10.731c2.058.916,4.321,1.872,6.5,2.7s4.445,1.595,6.646,2.233a43.356,43.356,0,0,0,6.369,1.41,15.783,15.783,0,0,0,2.675.144,3.086,3.086,0,0,0,1.224-.216l-1.255.669a112.225,112.225,0,0,0,9.8-8.354c1.615-1.5,3.21-3.087,4.784-4.62s3.159-3.189,4.609-4.733Z" transform="translate(-248.149 -125.31)" fill="#fff" opacity="0.8"/>
      <path id="Path_35884" data-name="Path 35884" d="M364.061,129.933c-2.284-.669-5.237,1.739-4.033,5.329s4.774,5.288,7.583,4.115S369.113,131.394,364.061,129.933Z" transform="translate(-246.279 -126.351)" fill="#00a2f5"/>
      <path id="Path_35885" data-name="Path 35885" d="M362.356,135.329c-1.533-6,6.173-14.548,9.887-3.622C374.527,138.446,363.827,141.049,362.356,135.329Z" transform="translate(-246.21 -126.448)" fill="#263238"/>
    </g>
  </g>
</svg>
