<svg xmlns="http://www.w3.org/2000/svg" width="264.261" height="353.43" viewBox="0 0 264.261 353.43">
  <g id="customized_illustration" transform="translate(-849.54 -1926.003)">
    <g id="Group_4701" data-name="Group 4701" transform="translate(849.54 1926.003)">
      <g id="freepik--Character--inject-2" transform="translate(123.797 75.139)">
        <path id="Path_12057" data-name="Path 12057" d="M327.946,135.953c-3.75-2.346-14.52,0-12.763,11.781s-12.085,8.767-9.062,22.472,27.558,34.067,42.667,20.244,2.376-19.92,2.661-36.325C351.646,144.377,347.228,126.921,327.946,135.953Z" transform="translate(-239.788 -132.77)" fill="#263238"/>
        <path id="Path_12058" data-name="Path 12058" d="M350.555,189.849a.265.265,0,0,1-.186-.079.245.245,0,0,1,0-.353c9.307-9.248,7.157-14.883,4.438-22.011-1.512-3.927-3.21-8.4-3.358-14.206-.147-6.264-2.435-14.815-8.394-18.339-4.222-2.494-9.641-2.062-16.1,1.286a.255.255,0,0,1-.334-.108.245.245,0,0,1,.108-.344c6.627-3.436,12.2-3.858,16.592-1.266,6.126,3.632,8.482,12.37,8.639,18.752.137,5.724,1.826,10.141,3.318,14.039,2.778,7.3,4.987,13.077-4.555,22.58a.265.265,0,0,1-.167.049Z" transform="translate(-240.17 -132.757)" fill="#263238"/>
        <path id="Path_12059" data-name="Path 12059" d="M353.089,189.328s.157.226.265.373l.393.53q.432.55.913,1.09a24.962,24.962,0,0,0,2.1,2.1,34.209,34.209,0,0,0,4.909,3.741,49.09,49.09,0,0,0,5.517,3.034c.982.481,1.964.864,2.945,1.3.187.088,0,0-.128.079s-.236.147-.128.088a4.2,4.2,0,0,0,1.119-1.5,20.008,20.008,0,0,0,1.109-2.68,53.406,53.406,0,0,0,1.6-6.254c.442-2.16.785-4.369,1.09-6.6s.579-4.487.825-6.7h4a91.381,91.381,0,0,1-.108,14.1,47.294,47.294,0,0,1-1.109,7.216,23.294,23.294,0,0,1-1.217,3.77,11.231,11.231,0,0,1-2.808,4.084,6.666,6.666,0,0,1-3.191,1.541,7.01,7.01,0,0,1-3.5-.3c-1.149-.412-2.317-.756-3.456-1.227a48.216,48.216,0,0,1-6.7-3.23,43.013,43.013,0,0,1-6.156-4.438,31.689,31.689,0,0,1-2.749-2.759,18.573,18.573,0,0,1-1.286-1.551l-.609-.864c-.216-.324-.363-.55-.668-1.08Z" transform="translate(-240.525 -133.582)" fill="#ffc3bd"/>
        <path id="Path_12060" data-name="Path 12060" d="M351.608,185.825c9.179,5.891,8.433,9.464,8.433,9.464l-5.773,8.365s-14.726-5.891-15.639-10.515C337.667,188.319,347.15,182.978,351.608,185.825Z" transform="translate(-240.388 -133.711)" fill="#7bb6dd"/>
        <path id="Path_12062" data-name="Path 12062" d="M360.867,194.637h0a.8.8,0,0,1,.2,1.1l-5.891,8.453a.776.776,0,0,1-1.1.2h0a.785.785,0,0,1-.187-1.1l5.89-8.453a.8.8,0,0,1,1.09-.2Z" transform="translate(-240.665 -133.884)" fill="#407bff"/>
        <path id="Path_12063" data-name="Path 12063" d="M376.745,179.735l-4.555-6.087,8.738-2.248s1.777,5.419-1.129,9.4Z" transform="translate(-241.002 -133.462)" fill="#ffc3bd"/>
        <path id="Path_12064" data-name="Path 12064" d="M372.435,166.047l7.275-1.227,1.217,6.46-8.738,2.248Z" transform="translate(-241.002 -133.342)" fill="#ffc3bd"/>
        <path id="Path_12065" data-name="Path 12065" d="M297.04,407.236l8.325.805,5.949-19.576-8.325-.8Z" transform="translate(-239.631 -137.409)" fill="#ffc3bd"/>
        <path id="Path_12066" data-name="Path 12066" d="M243.09,377.858l6.175,5.792L262.6,369l-6.175-5.792Z" transform="translate(-238.646 -136.962)" fill="#ffc3bd"/>
        <path id="Path_12067" data-name="Path 12067" d="M252.04,381.038l-4.644-8.355a.668.668,0,0,0-.835-.314l-7.147,2.719a1.365,1.365,0,0,0-.658,1.963c1.669,2.886,2.621,4.2,4.653,7.854,1.257,2.258,3.7,7.452,5.439,10.573s4.909,1.581,4.477.118c-1.964-6.529-1.61-10.161-1.051-13.038A2.268,2.268,0,0,0,252.04,381.038Z" transform="translate(-238.564 -137.129)" fill="#263238"/>
        <path id="Path_12068" data-name="Path 12068" d="M306.286,405.83h-10.1a.844.844,0,0,0-.8.609l-2.2,7.992a1.266,1.266,0,0,0,1.237,1.6h23.258c3.691,0,4.457-3.731,2.945-4.064-6.872-1.512-10.8-3.6-12.91-5.6a2.022,2.022,0,0,0-1.433-.54Z" transform="translate(-239.56 -137.74)" fill="#263238"/>
        <path id="Path_12069" data-name="Path 12069" d="M311.364,388.475,308.3,398.558H299.72l3.318-10.888Z" transform="translate(-239.679 -137.409)" opacity="0.2"/>
        <path id="Path_12070" data-name="Path 12070" d="M256.542,363.21l6.175,5.8-6.872,7.55-6.175-5.8Z" transform="translate(-238.766 -136.962)" opacity="0.2"/>
        <path id="Path_12071" data-name="Path 12071" d="M350.9,185.61s3.338,2.268-17.819,48.234l-33.311-9.219c4.31-13.411,6.646-21.765,7.854-51.385a101.875,101.875,0,0,1,14.667,2.052,110.254,110.254,0,0,1,15.119,4.192A142.746,142.746,0,0,1,350.9,185.61Z" transform="translate(-239.68 -133.496)" fill="#92c9e8"/>
        <path id="Path_12073" data-name="Path 12073" d="M328.93,158.4c-.393,5.135-1.914,14.314-6.215,16.621,0,0-2.5,8.512,8.355,11.644,9.2,2.641,6.764-7.452,6.764-7.452-5.066-2.8-1.964-7.756-.982-13.313Z" transform="translate(-240.095 -133.225)" fill="#ffc3bd"/>
        <path id="Path_12074" data-name="Path 12074" d="M328.926,158.41c-.314,4.114-1.345,10.868-3.986,14.54,3.063.3,7.854-.628,9.268-2.945a33.147,33.147,0,0,0,1.7-5.017Z" transform="translate(-240.14 -133.225)" opacity="0.2"/>
        <path id="Path_12075" data-name="Path 12075" d="M342.325,150.613c0,8.443.147,12.026-3.848,16.592-6.018,6.872-16.385,5-18.889-3.289-2.248-7.451-1.836-20.008,6.214-23.847a11.516,11.516,0,0,1,16.523,10.544Z" transform="translate(-240.021 -132.87)" fill="#ffc3bd"/>
        <path id="Path_12076" data-name="Path 12076" d="M324.965,145.876c4.742,6.627,20.7,15.836,21.766,6.961s-7.078-17.672-15.148-16.8S320.91,140.241,324.965,145.876Z" transform="translate(-240.106 -132.816)" fill="#263238"/>
        <path id="Path_12077" data-name="Path 12077" d="M346.212,158.783a6.156,6.156,0,0,1-3.544,3.112c-2.052.677-3.181-1.129-2.7-3.122.442-1.8,2.032-4.31,4.143-4.123a2.759,2.759,0,0,1,2.1,4.133Z" transform="translate(-240.412 -133.157)" fill="#ffc3bd"/>
        <path id="Path_12078" data-name="Path 12078" d="M333.056,234.874s11.86,48.037,4.084,84.372c-5.213,24.338-24,73.5-24,73.5l-14.726-.373s14.226-51.591,17.161-71.884c5.036-34.715-6.951-92.373-6.951-92.373Z" transform="translate(-239.656 -134.497)" fill="#133643"/>
        <path id="Path_12079" data-name="Path 12079" d="M320.094,242l-7.344,11.585a356.719,356.719,0,0,1,4.172,41.489C327.28,276.587,322.391,251.818,320.094,242Z" transform="translate(-239.917 -134.751)" opacity="0.2"/>
        <path id="Path_12080" data-name="Path 12080" d="M315.742,396.428l-18.7-.461,1.257-6.656,18.81,1.414Z" transform="translate(-239.631 -137.439)" fill="#263238"/>
        <path id="Path_12081" data-name="Path 12081" d="M324.89,232.864s-6.872,52.524-21.667,82.369c-11.968,24.1-43.9,58.414-43.9,58.414l-8.168-8.414s21.6-37.307,30.434-53.3c21.815-39.27,2.484-74.466,17.269-86.394Z" transform="translate(-238.793 -134.45)" fill="#133643"/>
        <path id="Path_12082" data-name="Path 12082" d="M260.114,377.291,249.58,367.012l3.5-4.752,11.487,11.869Z" transform="translate(-238.765 -136.945)" fill="#263238"/>
        <path id="Path_12083" data-name="Path 12083" d="M299.765,223.437l-2.327,2.572c-.177.2,0,.511.412.618l34.941,9.67c.295.079.589,0,.658-.177l1.129-2.945c.079-.2-.137-.442-.461-.54L300.384,223.3A.638.638,0,0,0,299.765,223.437Z" transform="translate(-239.637 -134.409)" fill="#407bff"/>
        <path id="Path_12084" data-name="Path 12084" d="M299.765,223.437l-2.327,2.572c-.177.2,0,.511.412.618l34.941,9.67c.295.079.589,0,.658-.177l1.129-2.945c.079-.2-.137-.442-.461-.54L300.384,223.3A.638.638,0,0,0,299.765,223.437Z" transform="translate(-239.637 -134.409)" fill="#fff" opacity="0.5"/>
        <path id="Path_12085" data-name="Path 12085" d="M303.338,228.478l-.9-.245c-.177-.049-.285-.187-.245-.295l1.492-3.75c.049-.118.236-.167.412-.118l.9.255a.242.242,0,0,1,.245.295l-1.492,3.75a.353.353,0,0,1-.412.108Z" transform="translate(-239.724 -134.423)" fill="#407bff"/>
        <path id="Path_12086" data-name="Path 12086" d="M330.748,236.068l-.9-.245c-.177-.049-.295-.187-.245-.295l1.492-3.76a.353.353,0,0,1,.412-.108l.9.255c.177.049.285.177.245.285l-1.492,3.721Q331.087,236.141,330.748,236.068Z" transform="translate(-240.224 -134.561)" fill="#407bff"/>
        <path id="Path_12087" data-name="Path 12087" d="M317.048,232.278l-.9-.255a.246.246,0,0,1-.255-.285l1.5-3.76c0-.108.226-.157.4-.108l.9.245a.253.253,0,0,1,.255.295l-1.5,3.76C317.412,232.278,317.225,232.327,317.048,232.278Z" transform="translate(-239.974 -134.492)" fill="#407bff"/>
        <path id="Path_12088" data-name="Path 12088" d="M329.88,153.978c0,.687-.294,1.266-.736,1.286s-.844-.5-.893-1.188.295-1.266.746-1.3S329.84,153.281,329.88,153.978Z" transform="translate(-240.2 -133.123)" fill="#263238"/>
        <path id="Path_12089" data-name="Path 12089" d="M321.97,154.428c0,.687-.294,1.266-.746,1.3s-.835-.511-.884-1.2.295-1.266.746-1.286S321.97,153.751,321.97,154.428Z" transform="translate(-240.056 -133.131)" fill="#263238"/>
        <path id="Path_12090" data-name="Path 12090" d="M321.289,153.253l-1.669-.373S320.533,154.117,321.289,153.253Z" transform="translate(-240.043 -133.125)" fill="#263238"/>
        <path id="Path_12091" data-name="Path 12091" d="M324.13,155.53a18.653,18.653,0,0,1-2.18,4.516,2.945,2.945,0,0,0,2.464.314Z" transform="translate(-240.085 -133.173)" fill="#ed847e"/>
        <path id="Path_12092" data-name="Path 12092" d="M328.324,162.782a6.037,6.037,0,0,1-1.247.187.157.157,0,0,1-.177-.157.167.167,0,0,1,.157-.177,5.518,5.518,0,0,0,4.33-2.4.167.167,0,0,1,.285.167A5.576,5.576,0,0,1,328.324,162.782Z" transform="translate(-240.175 -133.258)" fill="#263238"/>
        <path id="Path_12093" data-name="Path 12093" d="M332.454,148.857a.324.324,0,0,1-.314-.088,3.25,3.25,0,0,0-2.818-.982.354.354,0,0,1-.4-.255.344.344,0,0,1,.255-.4,3.927,3.927,0,0,1,3.436,1.139.353.353,0,0,1,0,.481A.412.412,0,0,1,332.454,148.857Z" transform="translate(-240.212 -133.019)" fill="#263238"/>
        <path id="Path_12094" data-name="Path 12094" d="M318.571,149.86a.313.313,0,0,1-.412-.461,3.927,3.927,0,0,1,3.21-1.669.334.334,0,1,1-.039.668,3.279,3.279,0,0,0-2.631,1.394A.324.324,0,0,1,318.571,149.86Z" transform="translate(-240.015 -133.031)" fill="#263238"/>
        <path id="Path_12095" data-name="Path 12095" d="M307.72,186.048c-.854,1.3-1.63,2.337-2.5,3.436s-1.728,2.13-2.631,3.151a71.9,71.9,0,0,1-5.773,5.832,61.74,61.74,0,0,1-6.421,5.184c-1.109.825-2.3,1.541-3.456,2.287l-1.816,1.041-.9.511c-.334.177-.766.412-1.178.579a10.122,10.122,0,0,1-5.812.766,11.005,11.005,0,0,1-5.046-2.4,17.426,17.426,0,0,1-3.2-3.515,28.36,28.36,0,0,1-2.209-3.75,57.09,57.09,0,0,1-4.771-15.6l3.927-.9c.815,2.337,1.728,4.762,2.759,7.029a47.932,47.932,0,0,0,3.407,6.548,17.014,17.014,0,0,0,4.241,4.909,3.986,3.986,0,0,0,1.964.8,3.329,3.329,0,0,0,1.787-.432,5.226,5.226,0,0,0,.55-.324l.766-.491,1.522-.982c.982-.727,1.964-1.4,2.945-2.179a71.953,71.953,0,0,0,5.557-4.83c1.8-1.7,3.475-3.515,5.1-5.38.815-.933,1.61-1.875,2.376-2.837s1.532-1.964,2.15-2.847Z" transform="translate(-238.991 -133.649)" fill="#ffc3bd"/>
        <path id="Path_12096" data-name="Path 12096" d="M266.633,186.21l.864-9.16-8.237,3.367s.982,4.6,4.123,6.254Z" transform="translate(-238.941 -133.566)" fill="#ffc3bd"/>
        <path id="Path_12097" data-name="Path 12097" d="M264.852,171.984,258.48,170.6l.766,9.7,8.237-3.367Z" transform="translate(-238.927 -133.448)" fill="#ffc3bd"/>
        <path id="Path_12098" data-name="Path 12098" d="M307.508,173.24c-4.29,0-14.618,16.376-14.618,16.376l7.294,7.559s13.745-9.268,14.284-14.726C314.94,177.756,312.967,173.289,307.508,173.24Z" transform="translate(-239.555 -133.496)" fill="#7bb6dd"/>
        <path id="Path_12100" data-name="Path 12100" d="M300.838,197.841h0a.785.785,0,0,1-1.109,0l-7.373-7.226a.785.785,0,0,1,0-1.109h0a.8.8,0,0,1,1.119,0l7.363,7.216A.8.8,0,0,1,300.838,197.841Z" transform="translate(-239.541 -133.789)" fill="#407bff"/>
        <path id="Path_12101" data-name="Path 12101" d="M253.957,385.714a1.208,1.208,0,0,0,.736-.275.628.628,0,0,0,.285-.6c-.088-1.06-2.778-2.5-3.092-2.67a.167.167,0,0,0-.177,0,.157.157,0,0,0-.059.177c.3,1.08.982,2.945,1.964,3.289A.982.982,0,0,0,253.957,385.714Zm-1.964-3.053c.982.53,2.513,1.551,2.562,2.209a.3.3,0,0,1-.157.295.776.776,0,0,1-.756.177C253.113,385.144,252.5,384.153,251.993,382.66Z" transform="translate(-238.802 -137.308)" fill="#407bff"/>
        <path id="Path_12102" data-name="Path 12102" d="M254.319,383.066a1.963,1.963,0,0,0,1.208-.3.658.658,0,0,0,.157-.825.982.982,0,0,0-.628-.6c-1.149-.4-3.289.766-3.377.815a.187.187,0,0,0-.088.147.177.177,0,0,0,.079.147,6.135,6.135,0,0,0,2.651.619Zm.167-1.482a1.375,1.375,0,0,1,.461.079.638.638,0,0,1,.422.4.363.363,0,0,1-.059.442c-.5.422-2.268.187-3.181-.206a6.343,6.343,0,0,1,2.356-.717Z" transform="translate(-238.801 -137.292)" fill="#407bff"/>
        <path id="Path_12103" data-name="Path 12103" d="M311.036,407.451A3.357,3.357,0,0,0,313,406.99a1.227,1.227,0,0,0,.491-.982.53.53,0,0,0-.236-.511c-.913-.628-4.585,1.06-5,1.257a.167.167,0,0,0-.1.177.157.157,0,0,0,.128.137A13.189,13.189,0,0,0,311.036,407.451Zm1.61-1.738a.776.776,0,0,1,.412.088c.049,0,.1.088.088.226a.854.854,0,0,1-.363.687c-.825.628-2.837.363-3.927.167A12.625,12.625,0,0,1,312.647,405.713Z" transform="translate(-239.833 -137.731)" fill="#407bff"/>
        <path id="Path_12104" data-name="Path 12104" d="M308.317,407.07h.059c1.109-.452,3.416-2.307,3.289-3.23,0-.2-.157-.442-.658-.5-1.964-.226-2.818,3.377-2.857,3.534a.177.177,0,0,0,.059.167.207.207,0,0,0,.108.029Zm2.513-3.417h.118c.344,0,.363.167.373.216.079.589-1.571,2.091-2.769,2.719C308.818,405.755,309.564,403.654,310.83,403.654Z" transform="translate(-239.833 -137.694)" fill="#407bff"/>
        <path id="Path_12105" data-name="Path 12105" d="M329.179,152.793l-1.669-.373S328.423,153.657,329.179,152.793Z" transform="translate(-240.187 -133.116)" fill="#263238"/>
      </g>
      <g id="freepik--Smartphone--inject-2" transform="translate(0)">
        <path id="Path_12118" data-name="Path 12118" d="M19.254.054,119.918,0a19.14,19.14,0,0,1,19.1,19.213l-.138,256.657A19.19,19.19,0,0,1,119.759,295.1L19.1,295.157A19.14,19.14,0,0,1,0,275.945L.138,19.288A19.19,19.19,0,0,1,19.254.054Z" transform="translate(164.159 338.074) rotate(175.01)" fill="#407bff"/>
        <path id="Path_12106" data-name="Path 12106" d="M122.164,208.1h0a3.927,3.927,0,0,0,3.544-4.231l-3.053-34.931a3.927,3.927,0,0,0-4.222-3.554h0a3.927,3.927,0,0,0-3.554,4.231l3.063,34.931A3.927,3.927,0,0,0,122.164,208.1Z" transform="translate(-112.509 -59.456)" fill="#407bff"/>
        <rect id="Rectangle_1821" data-name="Rectangle 1821" width="7.157" height="27.214" rx="2.95" transform="translate(149.515 120.537) rotate(175.01)" fill="#263238"/>
        <rect id="Rectangle_1822" data-name="Rectangle 1822" width="7.186" height="27.324" rx="2.962" transform="translate(151.125 156.662) rotate(174.857)" fill="#263238"/>
        <path id="Path_12119" data-name="Path 12119" d="M19.254.054,119.918,0a19.14,19.14,0,0,1,19.1,19.213l-.138,256.657A19.19,19.19,0,0,1,119.759,295.1L19.1,295.157A19.14,19.14,0,0,1,0,275.945L.138,19.288A19.19,19.19,0,0,1,19.254.054Z" transform="translate(166.492 337.864) rotate(175.01)" fill="#263238"/>
        <path id="Path_12107" data-name="Path 12107" d="M143.289,389.692l129.837-11.339a2.582,2.582,0,0,0,2.337-2.788L253.491,123.646a2.582,2.582,0,0,0-2.778-2.337L120.827,132.659a2.562,2.562,0,0,0-2.327,2.778l22.011,251.928a2.553,2.553,0,0,0,2.778,2.327Z" transform="translate(-112.575 -57.409)" fill="#407bff" opacity="0.4"/>
        <path id="Path_12108" data-name="Path 12108" d="M234.882,122.84,218.566,383.26l-27.136,2.376,16.317-260.43Z" transform="translate(-113.906 -57.437)" fill="#407bff" opacity="0.3"/>
        <rect id="Rectangle_1824" data-name="Rectangle 1824" width="30.169" height="3.466" rx="1.19" transform="translate(57.164 57.672) rotate(-4.99)" fill="#fff" opacity="0.2"/>
        <path id="Path_12109" data-name="Path 12109" d="M173.554,217.12h135.1A13.283,13.283,0,0,1,321.9,230.364v66.268a13.293,13.293,0,0,1-13.244,13.254H261.9l-20.8,20.8-20.8-20.8H173.554A13.293,13.293,0,0,1,160.3,296.632V230.364A13.283,13.283,0,0,1,173.554,217.12Z" transform="translate(-113.338 -59.793)" fill="#ff6340"/>
        <path id="Path_12111" data-name="Path 12111" d="M182.62,240.381v46.83a6.872,6.872,0,0,0,6.774,6.931H293.617a6.872,6.872,0,0,0,6.774-6.931v-46.83a7.117,7.117,0,0,0-.491-2.592,6.813,6.813,0,0,0-6.283-4.339H189.394a6.794,6.794,0,0,0-6.273,4.339,6.871,6.871,0,0,0-.5,2.592Z" transform="translate(-113.746 -60.217)" fill="#fff"/>
        <path id="Path_12112" data-name="Path 12112" d="M183.13,237.789l50.384,21.942a20.008,20.008,0,0,0,16.012,0l50.384-21.942a6.813,6.813,0,0,0-6.283-4.339H189.4a6.794,6.794,0,0,0-6.273,4.339Z" transform="translate(-113.755 -60.333)" opacity="0.1"/>
        <circle id="Ellipse_131" data-name="Ellipse 131" cx="20.146" cy="20.146" r="20.146" transform="translate(28.9 162.82) rotate(-45)" fill="#de5753"/>
        <path id="Path_12113" data-name="Path 12113" d="M174.68,235.163h-4.693V217.492a16.188,16.188,0,0,1-6.057,3.554v-4.251a13.684,13.684,0,0,0,3.986-2.287,8.649,8.649,0,0,0,2.945-3.927h3.809Z" transform="translate(-113.405 -60.058)" fill="#fff"/>
        <path id="Path_12114" data-name="Path 12114" d="M285.546,95.231a2.945,2.945,0,0,1-2.886-2.494,33.821,33.821,0,0,0-38.426-28.363,2.945,2.945,0,0,1-.864-5.783,39.663,39.663,0,0,1,45.062,33.281,2.945,2.945,0,0,1-2.454,3.318A2.211,2.211,0,0,1,285.546,95.231Z" transform="translate(-114.815 -58.153)" fill="#3d5b81"/>
        <path id="Path_12115" data-name="Path 12115" d="M271.066,97.683A2.945,2.945,0,0,1,268.18,95.2a19.115,19.115,0,0,0-21.716-16.042,2.945,2.945,0,0,1-.874-5.783,24.966,24.966,0,0,1,28.373,20.951,2.945,2.945,0,0,1-2.454,3.328,3.337,3.337,0,0,1-.442.029Z" transform="translate(-114.855 -58.426)" fill="#3d5b81"/>
        <path id="Path_12116" data-name="Path 12116" d="M256.6,100.145a2.945,2.945,0,0,1-2.886-2.494,4.408,4.408,0,0,0-5.027-3.711,2.945,2.945,0,0,1-.864-5.773,10.249,10.249,0,0,1,11.673,8.669,2.945,2.945,0,0,1-2.454,3.318A2.238,2.238,0,0,1,256.6,100.145Z" transform="translate(-114.897 -58.699)" fill="#3d5b81"/>
      </g>
    </g>
  </g>
</svg>
