<svg xmlns="http://www.w3.org/2000/svg" xmlns:xlink="http://www.w3.org/1999/xlink" width="1752.884" height="640.357" viewBox="0 0 1752.884 640.357">
  <defs>
    <linearGradient id="linear-gradient" x1="0.5" x2="0.5" y2="1.972" gradientUnits="objectBoundingBox">
      <stop offset="0" stop-color="#fff"/>
      <stop offset="1" stop-color="#80d9ff"/>
    </linearGradient>
    <linearGradient id="linear-gradient-2" x1="0.031" y1="0.047" x2="0.889" y2="0.895" gradientUnits="objectBoundingBox">
      <stop offset="0" stop-color="#ff5933"/>
      <stop offset="1" stop-color="#ff6d63"/>
    </linearGradient>
    <filter id="Union_1" x="368.884" y="5.514" width="1384" height="499.385" filterUnits="userSpaceOnUse">
      <feOffset dy="3" input="SourceAlpha"/>
      <feGaussianBlur stdDeviation="3" result="blur"/>
      <feFlood flood-color="#ee6b4d" flood-opacity="0.302"/>
      <feComposite operator="in" in2="blur"/>
      <feComposite in="SourceGraphic"/>
    </filter>
    <clipPath id="clip-path">
      <path id="Path_36114" data-name="Path 36114" d="M0,0H1366V568L125.422,570.735-.358,556.656Z" transform="translate(1565 2734)" fill="#fff" stroke="#707070" stroke-width="1"/>
    </clipPath>
    <filter id="Ellipse_154" x="1521.961" y="-11.396" width="443.846" height="443.846" filterUnits="userSpaceOnUse">
      <feOffset dy="3" input="SourceAlpha"/>
      <feGaussianBlur stdDeviation="3" result="blur-2"/>
      <feFlood flood-color="#ee6b4d" flood-opacity="0.302"/>
      <feComposite operator="in" in2="blur-2"/>
      <feComposite in="SourceGraphic"/>
    </filter>
    <filter id="Ellipse_153" x="235.122" y="66.67" width="296.061" height="296.061" filterUnits="userSpaceOnUse">
      <feOffset dy="3" input="SourceAlpha"/>
      <feGaussianBlur stdDeviation="3" result="blur-3"/>
      <feFlood flood-color="#ee6b4d" flood-opacity="0.302"/>
      <feComposite operator="in" in2="blur-3"/>
      <feComposite in="SourceGraphic"/>
    </filter>
  </defs>
  <g id="Group_5379" data-name="Group 5379" transform="translate(-1187.218 -2689.581)">
    <g id="Group_5372" data-name="Group 5372" transform="translate(1565.102 436.281)">
      <g id="Group_5403" data-name="Group 5403" transform="translate(0 16)">
        <g id="Group_5371" data-name="Group 5371">
          <path id="Path_36099" data-name="Path 36099" d="M1743.884-10.832S1666.3-31.544,1496.6-26.332,1255.153,11.09,1065.1,10.016,832.219-26.332,648.415-26.332,442.2,6.141,280.094,10.016,0-10.832,0-10.832V235.726H1743.884Z" transform="translate(-377.884 2264.473)" fill="url(#linear-gradient)"/>
          <g id="Group_5370" data-name="Group 5370" transform="translate(741.938 -889.636)">
            <g transform="matrix(1, 0, 0, 1, -1119.82, 3126.94)" filter="url(#Union_1)">
              <path id="Union_1-2" data-name="Union 1" d="M201.912,1355.521H-742.4V898.59s165.151-38.8,320.623-18.653c63.265,8.2,105.409,19.017,143.559,28.967,46.775,10.189,127.561,24.576,218.818,26.849,91.257-2.274,172.044-16.66,218.819-26.85,38.15-9.95,80.293-20.768,143.558-28.967C458.452,859.79,623.6,898.59,623.6,898.59v456.931Z" transform="translate(1120.28 -862.62)" fill="url(#linear-gradient-2)"/>
            </g>
          </g>
        </g>
      </g>
      <path id="Path_36113" data-name="Path 36113" d="M0,0H1366V284.393s-347.1,39.264-688.6,39.264S0,284.393,0,284.393Z" transform="translate(0 2570)" fill="url(#linear-gradient-2)"/>
    </g>
    <g id="Mask_Group_2" data-name="Mask Group 2" clip-path="url(#clip-path)">
      <g id="Group_5378" data-name="Group 5378">
        <g transform="matrix(1, 0, 0, 1, 1187.22, 2689.58)" filter="url(#Ellipse_154)">
          <circle id="Ellipse_154-2" data-name="Ellipse 154" cx="167.512" cy="167.512" r="167.512" transform="matrix(0.95, -0.33, 0.33, 0.95, 1530.96, 103.68)" fill="url(#linear-gradient-2)"/>
        </g>
        <g transform="matrix(1, 0, 0, 1, 1187.22, 2689.58)" filter="url(#Ellipse_153)">
          <circle id="Ellipse_153-2" data-name="Ellipse 153" cx="139.03" cy="139.03" r="139.03" transform="translate(244.12 72.67)" fill="url(#linear-gradient-2)"/>
        </g>
      </g>
    </g>
  </g>
</svg>
