<svg xmlns="http://www.w3.org/2000/svg" width="263.401" height="781.322" viewBox="0 0 263.401 781.322">
  <g id="Group_5368" data-name="Group 5368" transform="translate(-105.902 -43.48) rotate(90)" style="isolation: isolate">
    <path id="Path_1" data-name="Path 1" d="M583.4-294.466h-53.06l-.091-.091-.091.091H405.917l-26.2,26.2H298.595l-6.545-6.545a3.9,3.9,0,0,0-.62-4.672,3.914,3.914,0,0,0-5.531,0,3.9,3.9,0,0,0,0,5.517,3.9,3.9,0,0,0,4.678.628l7.152,7.149h79.911l-14.793,14.795a3.886,3.886,0,0,0-4.676.621,3.9,3.9,0,0,0,0,5.52,3.9,3.9,0,0,0,5.515,0,3.889,3.889,0,0,0,.627-4.671l42.46-42.467h68.908l-18.633,18.633H428.361a3.889,3.889,0,0,0-3.746-2.865,3.906,3.906,0,0,0-3.9,3.9,3.908,3.908,0,0,0,3.9,3.907,3.892,3.892,0,0,0,3.746-2.87h29.546l20.72-20.708h49.457l-47.373,47.372H393.236L363.025-214.8H332.614l-27.26-27.262H263.68l.018-.018-14.454-14.452H193.636a3.888,3.888,0,0,0-3.744-2.863,3.9,3.9,0,0,0-3.9,3.9,3.9,3.9,0,0,0,3.9,3.905,3.891,3.891,0,0,0,3.746-2.866h54.74l12.392,12.392H176.5a3.9,3.9,0,0,0-3.751-2.865,3.906,3.906,0,0,0-3.9,3.9,3.907,3.907,0,0,0,3.9,3.905,3.9,3.9,0,0,0,3.753-2.868H304.489L329.673-214.8H119.025a3.889,3.889,0,0,0-3.746-2.87,3.908,3.908,0,0,0-3.9,3.905,3.9,3.9,0,0,0,3.9,3.9,3.888,3.888,0,0,0,3.746-2.863H363.884L394.1-242.942h87.476L508.2-269.567h27.46L546-259.22a3.871,3.871,0,0,0,.627,4.672,3.892,3.892,0,0,0,5.515,0,3.9,3.9,0,0,0,0-5.518,3.89,3.89,0,0,0-4.674-.623l-10.949-10.954H510.274l20.745-20.747h53.25l36.765-36.765H655.6l11.191-11.195h92.184a3.9,3.9,0,0,0,3.751,2.863,3.9,3.9,0,0,0,3.895-3.9,3.9,3.9,0,0,0-3.895-3.9,3.9,3.9,0,0,0-3.753,2.866H665.937l-11.2,11.2H620.168Z" transform="translate(51.278 18.132)" fill="#f0f0f0" style="mix-blend-mode: color-burn;isolation: isolate"/>
    <path id="Path_2" data-name="Path 2" d="M208.739-253.55,191.8-236.609H94.237a3.891,3.891,0,0,0-3.746-2.865,3.9,3.9,0,0,0-3.9,3.9,3.9,3.9,0,0,0,3.9,3.905,3.889,3.889,0,0,0,3.746-2.868h98.424l18.9-18.893-.121-.123h88.135L335.5-289.469h48.165L401.2-271.941a3.893,3.893,0,0,0,.623,4.678,3.9,3.9,0,0,0,5.517,0,3.9,3.9,0,0,0,0-5.522,3.888,3.888,0,0,0-4.671-.625l-18.142-18.135H337.579l29.2-29.195H543.42l46.48-46.487H692.586V-369.3H589.044l-46.489,46.485h-79.5l.037-.037-19.4-19.4H340.563l-64.241,64.236h-22.8l-23.244-23.243H81.1L60.827-321.542a3.888,3.888,0,0,0-.625-4.672,3.906,3.906,0,0,0-5.524,0,3.914,3.914,0,0,0,0,5.52,3.893,3.893,0,0,0,4.676.623l20.884,20.882H229.412l21.171,21.168H187.206a3.889,3.889,0,0,0-3.746-2.868,3.907,3.907,0,0,0-3.9,3.9,3.906,3.906,0,0,0,3.9,3.905,3.889,3.889,0,0,0,3.746-2.863h89.981l64.227-64.239H442.827l17.361,17.364H365.912l-67.193,67.193H51.129a3.887,3.887,0,0,0-3.739-2.865,3.908,3.908,0,0,0-3.911,3.9,3.91,3.91,0,0,0,3.911,3.907,3.888,3.888,0,0,0,3.739-2.87Z" transform="translate(0 0)" fill="#f0f0f0" style="mix-blend-mode: color-burn;isolation: isolate"/>
    <path id="Path_3" data-name="Path 3" d="M819.334-318a3.886,3.886,0,0,0-4.671-.621l-18.658-18.658H755.027L733.892-316.15h-39.3L659.52-281.074H629.146a3.893,3.893,0,0,0-3.753-2.866,3.9,3.9,0,0,0-3.895,3.905,3.9,3.9,0,0,0,3.895,3.9A3.891,3.891,0,0,0,629.146-279h31.232l35.078-35.076h36.359L675.152-257.41H616.833L592.322-232.9H504l-18.379,18.384h-50.5l-6.417,6.41a3.884,3.884,0,0,0-4.672.623,3.9,3.9,0,0,0,0,5.52,3.9,3.9,0,0,0,5.515,0,3.89,3.89,0,0,0,.625-4.674l5.8-5.8h26.862L427.094-176.7H401.63L379.61-198.724H335.951a3.9,3.9,0,0,0-3.753-2.863,3.9,3.9,0,0,0-3.895,3.9,3.9,3.9,0,0,0,3.895,3.9,3.9,3.9,0,0,0,3.753-2.865h42.8L398.7-176.7H330.331l-22.6-22.607H144.392l-12.36-12.357a3.891,3.891,0,0,0-.625-4.671,3.9,3.9,0,0,0-5.517,0,3.9,3.9,0,0,0,0,5.522,3.891,3.891,0,0,0,4.679.618l12.966,12.966H267.871L233.72-163.074H80.732l-25.7,25.7a3.891,3.891,0,0,0-4.678.623,3.887,3.887,0,0,0,0,5.518,3.9,3.9,0,0,0,5.524,0A3.888,3.888,0,0,0,56.5-135.9L81.6-160.994H234.586l36.231-36.231h36.049l22.6,22.607H427.96l37.814-37.825h20.708l18.379-18.381h85.383l-35.538,35.533h-77.7a3.9,3.9,0,0,0-3.746-2.866,3.913,3.913,0,0,0-3.909,3.905,3.912,3.912,0,0,0,3.909,3.9,3.9,3.9,0,0,0,3.746-2.866h78.563L617.7-255.337h58.319l79.866-79.869h39.257l18.054,18.049a3.888,3.888,0,0,0,.623,4.674,3.894,3.894,0,0,0,5.517,0A3.9,3.9,0,0,0,819.334-318Z" transform="translate(4.324 24.182)" fill="#f0f0f0" style="mix-blend-mode: color-burn;isolation: isolate"/>
  </g>
</svg>
