<svg xmlns="http://www.w3.org/2000/svg" width="131.365" height="104" viewBox="0 0 131.365 104">
  <g id="Group_5375" data-name="Group 5375" transform="translate(10.818 -340.915)">
    <path id="Path_36108" data-name="Path 36108" d="M54.048,343.915H-1.394a6.424,6.424,0,0,0-6.424,6.424v55.442A6.424,6.424,0,0,0-1.394,412.2H9v9.58l12.58-9.58H54.048a6.424,6.424,0,0,0,6.424-6.424V350.339A6.424,6.424,0,0,0,54.048,343.915Z" fill="none" stroke="#fff" stroke-linejoin="round" stroke-miterlimit="10" stroke-width="6"/>
    <line id="Line_3" data-name="Line 3" x1="1.605" transform="translate(60.471 364.045)" fill="none" stroke="#fff" stroke-miterlimit="10" stroke-width="6"/>
    <path id="Path_36109" data-name="Path 36109" d="M185.13,419.31h41.486a6.425,6.425,0,0,1,6.424,6.424v55.439a6.425,6.425,0,0,1-6.424,6.424h-10.4v9.583l-12.58-9.583H171.174a6.423,6.423,0,0,1-6.424-6.424v-13.7" transform="translate(-115.493 -55.265)" fill="none" stroke="#fff" stroke-linejoin="round" stroke-miterlimit="10" stroke-width="6"/>
    <g id="Group_5373" data-name="Group 5373" transform="translate(14.397 365.907)">
      <circle id="Ellipse_152" data-name="Ellipse 152" cx="11.93" cy="11.93" r="11.93" transform="translate(0 0)" fill="none" stroke="#fff" stroke-miterlimit="10" stroke-width="6"/>
      <line id="Line_4" data-name="Line 4" x2="6.83" y2="6.83" transform="translate(15.607 17.26)" fill="none" stroke="#fff" stroke-linecap="round" stroke-miterlimit="10" stroke-width="6"/>
    </g>
    <g id="Group_5374" data-name="Group 5374" transform="translate(78.402 385.839)">
      <path id="Path_36110" data-name="Path 36110" d="M285.261,511.031V495.749a3.231,3.231,0,0,1,.813-2.111l6.226-7.232a2.079,2.079,0,0,1,2.586,0l5.754,6.823a3.223,3.223,0,0,1,.789,2.082v15.719" transform="translate(-285.261 -485.956)" fill="none" stroke="#fff" stroke-linecap="round" stroke-miterlimit="10" stroke-width="6"/>
      <line id="Line_5" data-name="Line 5" x2="16.168" transform="translate(0 13.687)" fill="none" stroke="#fff" stroke-linecap="round" stroke-miterlimit="10" stroke-width="6"/>
    </g>
  </g>
</svg>
