<svg xmlns="http://www.w3.org/2000/svg" width="220.312" height="370" viewBox="0 0 220.312 370">
  <g id="welcome_illustration" transform="translate(-89.55 -129.57)">
    <g id="Group_9233" data-name="Group 9233" transform="translate(89.55 129.57)">
      <rect id="Rectangle_1843" data-name="Rectangle 1843" width="93.579" height="27.65" transform="matrix(0.925, -0.38, 0.38, 0.925, 0, 36.623)" opacity="0.5" style="mix-blend-mode: multiply;isolation: isolate"/>
      <rect id="Rectangle_1844" data-name="Rectangle 1844" width="93.579" height="27.65" transform="matrix(0.925, -0.38, 0.38, 0.925, 0, 35.579)" fill="#3d5b81"/>
      <rect id="Rectangle_1845" data-name="Rectangle 1845" width="93.579" height="13.825" transform="matrix(0.925, -0.38, 0.38, 0.925, 5.256, 48.366)" fill="#2c4769"/>
      <rect id="Rectangle_1846" data-name="Rectangle 1846" width="9.853" height="1.467" transform="matrix(0.925, -0.38, 0.38, 0.925, 7.601, 47.402)" fill="#ee6b4d"/>
      <rect id="Rectangle_1847" data-name="Rectangle 1847" width="9.853" height="1.467" transform="matrix(0.925, -0.38, 0.38, 0.925, 7.044, 46.045)" fill="#ee6b4d"/>
      <rect id="Rectangle_1848" data-name="Rectangle 1848" width="9.853" height="1.467" transform="matrix(0.925, -0.38, 0.38, 0.925, 80.37, 17.489)" fill="#ee6b4d"/>
      <rect id="Rectangle_1849" data-name="Rectangle 1849" width="9.853" height="1.467" transform="matrix(0.925, -0.38, 0.38, 0.925, 79.812, 16.132)" fill="#ee6b4d"/>
      <circle id="Ellipse_140" data-name="Ellipse 140" cx="4.031" cy="4.031" r="4.031" transform="translate(5.169 34.695)" fill="#2c4769"/>
      <rect id="Rectangle_1850" data-name="Rectangle 1850" width="15.377" height="8.062" transform="matrix(0.925, -0.38, 0.38, 0.925, 13.053, 32.784)" fill="#2c4769"/>
      <rect id="Rectangle_1851" data-name="Rectangle 1851" width="93.579" height="1.043" transform="matrix(0.925, -0.38, 0.38, 0.925, 0, 35.579)" fill="#fff" style="mix-blend-mode: soft-light;isolation: isolate"/>
    </g>
    <g id="Group_9234" data-name="Group 9234" transform="translate(199.898 136.043)">
      <rect id="Rectangle_1852" data-name="Rectangle 1852" width="94.216" height="60.212" transform="translate(0 36.561) rotate(-22.147)" opacity="0.5" style="mix-blend-mode: multiply;isolation: isolate"/>
      <rect id="Rectangle_1853" data-name="Rectangle 1853" width="94.216" height="60.212" transform="translate(0 35.518) rotate(-22.147)" fill="#ee6b4d"/>
      <path id="Path_12181" data-name="Path 12181" d="M359.375,210.654l-87.265,35.518-22.7-55.769Z" transform="translate(-249.412 -154.885)" fill="#ee6b4d"/>
      <rect id="Rectangle_1854" data-name="Rectangle 1854" width="94.216" height="1.304" transform="translate(0 35.518) rotate(-22.147)" fill="#fff" style="mix-blend-mode: soft-light;isolation: isolate"/>
      <ellipse id="Ellipse_141" data-name="Ellipse 141" cx="12.737" cy="6.392" rx="12.737" ry="6.392" transform="translate(61.888 19.843) rotate(-22.147)" fill="#df3f16"/>
    </g>
    <g id="Group_9238" data-name="Group 9238" transform="translate(143.414 146.48)">
      <path id="Path_12182" data-name="Path 12182" d="M223.6,176.744c.913-10.264-3.681-19.008-11.429-20.774-8.466-1.929-15.776,3.4-19.359,13.756L185.228,168l-17.645,56.7,54.9,12.514.079.018,8.668-58.747Zm-28.423-.3a2.683,2.683,0,0,1-.167.5,2.447,2.447,0,0,1-.124.225c-.041.072-.078.148-.125.216s-.1.132-.158.2-.1.128-.163.186-.12.109-.182.161-.132.108-.2.156-.13.084-.2.123-.158.084-.241.121c-.067.03-.135.059-.2.083a2.612,2.612,0,0,1-.281.079c-.066.016-.132.034-.2.044a2.679,2.679,0,0,1-.333.026c-.057,0-.114.009-.172.008a2.625,2.625,0,0,1-1.015-.231c-.053-.023-.1-.055-.152-.081a2.845,2.845,0,0,1-.289-.167c-.057-.039-.108-.084-.161-.126a2.774,2.774,0,0,1-.219-.193c-.052-.052-.1-.108-.148-.164a2.585,2.585,0,0,1-.165-.213c-.044-.064-.086-.128-.125-.2s-.079-.15-.114-.228-.068-.148-.095-.224-.046-.157-.066-.237-.044-.163-.057-.247-.014-.165-.019-.248-.017-.17-.014-.257h0a2.752,2.752,0,0,1,.064-.52,2.72,2.72,0,0,1,1.94-2.014c-.043.178-.088.353-.13.533-.01.045-.011.089-.017.134h0a1.3,1.3,0,0,0,2.56.446c.039-.174.083-.342.124-.514A2.718,2.718,0,0,1,195.174,176.439Zm16.414-17.926c6.249,1.425,10.048,8.932,9.429,17.643l-25.66-5.848C198.507,161.362,204.5,156.9,211.588,158.513Zm12.061,24.952h0a2.543,2.543,0,0,1-.124.226c-.041.072-.078.147-.125.215s-.1.133-.158.2-.1.127-.163.185-.12.109-.182.161-.132.108-.2.156-.13.084-.2.123-.158.084-.24.121c-.067.03-.135.059-.2.084a2.758,2.758,0,0,1-.28.078c-.066.016-.133.034-.2.044a2.658,2.658,0,0,1-.333.026c-.057,0-.114.009-.172.008a2.619,2.619,0,0,1-1.014-.231c-.053-.023-.1-.055-.153-.081a2.821,2.821,0,0,1-.289-.167c-.057-.039-.108-.084-.162-.126-.076-.061-.15-.124-.219-.193-.052-.052-.1-.108-.148-.164s-.113-.139-.164-.213-.086-.128-.125-.2-.079-.15-.115-.228-.067-.148-.095-.224-.046-.157-.066-.237-.044-.162-.057-.246-.014-.165-.019-.248-.017-.17-.014-.256a2.7,2.7,0,0,1,2.095-2.559c-.04.193-.077.387-.121.581a1.3,1.3,0,1,0,2.543.579c.037-.157.066-.314.1-.471a2.717,2.717,0,0,1,.772,2.563A2.809,2.809,0,0,1,223.649,183.465Z" transform="translate(-167.583 -154.536)" opacity="0.5" style="mix-blend-mode: multiply;isolation: isolate"/>
      <g id="Group_9237" data-name="Group 9237">
        <path id="Path_12183" data-name="Path 12183" d="M231.234,182.545,185.228,172.06l-17.645,56.7,54.984,12.531Zm-39.328.01a2.73,2.73,0,1,1,3.268-2.055A2.731,2.731,0,0,1,191.906,182.556Zm28.642,6.528a2.73,2.73,0,1,1,3.268-2.055A2.73,2.73,0,0,1,220.548,189.084Z" transform="translate(-167.583 -159.641)" fill="#fdd277"/>
        <g id="Group_9235" data-name="Group 9235" transform="translate(0 12.419)" style="mix-blend-mode: soft-light;isolation: isolate">
          <path id="Path_12184" data-name="Path 12184" d="M185,173.077,231,183.563l-8.515,57.712.079.018,8.668-58.747L185.227,172.06l-17.645,56.7.079.018Z" transform="translate(-167.583 -172.06)" fill="#fff"/>
          <path id="Path_12185" data-name="Path 12185" d="M243.025,196.506a2.73,2.73,0,0,0,3.268-2.055,2.828,2.828,0,0,0,.065-.52,2.727,2.727,0,0,1-5.221-1.19,2.72,2.72,0,0,0,1.888,3.765Z" transform="translate(-190.291 -178.465)" fill="#fff"/>
          <path id="Path_12186" data-name="Path 12186" d="M201.531,187.049a2.73,2.73,0,0,0,3.268-2.054,2.765,2.765,0,0,0,.064-.52,2.727,2.727,0,0,1-5.22-1.19,2.77,2.77,0,0,0-.168.5A2.73,2.73,0,0,0,201.531,187.049Z" transform="translate(-177.44 -175.536)" fill="#fff"/>
        </g>
        <g id="Group_9236" data-name="Group 9236" transform="translate(24.045)">
          <path id="Path_12187" data-name="Path 12187" d="M232.173,180.346a1.3,1.3,0,0,1-.982-1.561c2.362-10.365-1.592-20.137-8.814-21.783-8.08-1.842-14.741,4.218-17.383,15.812a1.3,1.3,0,1,1-2.544-.58c2.955-12.964,11-19.941,20.507-17.776,8.771,2,13.505,12.939,10.778,24.906A1.3,1.3,0,0,1,232.173,180.346Z" transform="translate(-202.417 -154.068)" fill="#dbb366"/>
        </g>
        <path id="Path_12188" data-name="Path 12188" d="M222.732,155.475c8.558,1.951,13.27,12.415,10.959,24.039a1.322,1.322,0,0,0,.051-.15c2.727-11.967-2.007-22.907-10.778-24.906-9.5-2.165-17.552,4.812-20.507,17.776-.01.045-.011.09-.017.135C205.556,159.974,213.449,153.36,222.732,155.475Z" transform="translate(-178.379 -154.068)" fill="#fff" style="mix-blend-mode: soft-light;isolation: isolate"/>
        <path id="Path_12189" data-name="Path 12189" d="M207.355,230.365c4.935-.825,14.626-6.484,17.006-11.3,1.69-3.422,3.119-8.2-1.855-11.61-4.234-2.9-10.4,2.063-10.4,2.063s-2.524-7.329-8.478-6.364c-5.3.857-6.743,5.842-6.7,9.659C196.983,218.183,203.374,227.585,207.355,230.365Z" transform="translate(-176.671 -169.243)" fill="#dbb366"/>
      </g>
    </g>
    <g id="Group_9243" data-name="Group 9243" transform="translate(217.476 223.012)">
      <path id="Path_12190" data-name="Path 12190" d="M340.479,290.324l-7.555-2.072c1.359-10.215-2.851-19.15-10.514-21.251-8.374-2.3-15.908,2.714-19.939,12.9l-7.5-2.056-20.1,55.88.078.021h0l54.309,14.891Zm-12.539,4.886c-.041-.066-.081-.133-.117-.2s-.072-.153-.1-.233-.061-.15-.084-.228-.039-.159-.057-.24-.037-.164-.046-.249-.007-.165-.008-.248-.01-.171,0-.257h0a2.758,2.758,0,0,1,.087-.517,2.721,2.721,0,0,1,2.117-1.949c-.048.192-.094.383-.146.575a1.3,1.3,0,1,0,2.515.69c.043-.156.079-.311.119-.467a2.7,2.7,0,0,1,.471,3.084c-.039.077-.088.146-.133.219s-.084.144-.135.211-.11.128-.166.19-.11.123-.171.178-.125.1-.189.153-.137.1-.208.147-.134.078-.2.114-.162.077-.246.11c-.068.027-.137.053-.208.074a2.593,2.593,0,0,1-.284.066c-.067.013-.133.028-.2.035a2.674,2.674,0,0,1-.333.012c-.058,0-.115,0-.173,0a2.611,2.611,0,0,1-1-.275c-.052-.026-.1-.059-.149-.088a2.824,2.824,0,0,1-.281-.18c-.055-.041-.1-.088-.155-.133a2.768,2.768,0,0,1-.211-.2c-.05-.055-.1-.112-.141-.17S327.987,295.287,327.94,295.211ZM301.15,283.868a1.334,1.334,0,0,0-.023.133h0a1.3,1.3,0,0,0,2.538.557c.047-.172.1-.339.146-.508a2.716,2.716,0,0,1,.73,2.662,2.818,2.818,0,0,1-.188.489h0c-.039.078-.089.148-.134.22s-.084.144-.134.209-.11.128-.167.191a2.427,2.427,0,0,1-.17.177c-.06.055-.125.1-.189.154s-.137.1-.208.146-.134.079-.2.114a2.622,2.622,0,0,1-.245.11c-.069.027-.137.053-.208.075a2.839,2.839,0,0,1-.284.066c-.067.012-.133.028-.2.035a2.685,2.685,0,0,1-.334.011c-.057,0-.115,0-.173,0a2.73,2.73,0,0,1-.515-.087,2.777,2.777,0,0,1-.488-.188c-.052-.026-.1-.059-.148-.088a2.758,2.758,0,0,1-.282-.18c-.055-.041-.1-.088-.155-.133a2.651,2.651,0,0,1-.211-.2c-.05-.054-.1-.111-.14-.169s-.108-.145-.155-.221-.081-.132-.116-.2-.072-.154-.1-.233-.061-.15-.084-.228-.039-.159-.056-.24-.037-.164-.047-.249-.006-.166-.008-.249-.009-.171,0-.257h0a2.7,2.7,0,0,1,2.113-2.444C301.252,283.518,301.2,283.69,301.15,283.868Zm20.57-14.351c6.181,1.695,9.649,9.36,8.652,18.036l-25.381-6.959C308.527,271.794,314.71,267.6,321.72,269.517Z" transform="translate(-274.877 -265.408)" opacity="0.5" style="mix-blend-mode: multiply;isolation: isolate"/>
      <g id="Group_9242" data-name="Group 9242">
        <g id="Group_9241" data-name="Group 9241">
          <path id="Path_12191" data-name="Path 12191" d="M340.479,293.926l-45.507-12.477-20.1,55.879,54.387,14.913Zm-39.292-1.7a2.73,2.73,0,1,1,3.355-1.911A2.73,2.73,0,0,1,301.187,292.225Zm28.331,7.768a2.73,2.73,0,1,1,3.354-1.911A2.731,2.731,0,0,1,329.518,299.993Z" transform="translate(-274.877 -270.053)" fill="#3d5b81"/>
          <g id="Group_9239" data-name="Group 9239" transform="translate(0 11.395)" style="mix-blend-mode: soft-light;isolation: isolate">
            <path id="Path_12192" data-name="Path 12192" d="M294.7,282.455,340.2,294.932l-11.018,57.286.078.021,11.216-58.314-45.507-12.478-20.1,55.879.078.021Z" transform="translate(-274.877 -281.449)" fill="#fff"/>
            <path id="Path_12193" data-name="Path 12193" d="M352.735,308.046a2.718,2.718,0,0,0,3.442-2.428,2.727,2.727,0,0,1-5.163-1.416,2.717,2.717,0,0,0,1.722,3.843Z" transform="translate(-298.37 -288.496)" fill="#fff"/>
            <path id="Path_12194" data-name="Path 12194" d="M311.693,296.793a2.718,2.718,0,0,0,3.441-2.428,2.727,2.727,0,0,1-5.163-1.416,2.72,2.72,0,0,0,1.722,3.843Z" transform="translate(-285.658 -285.011)" fill="#fff"/>
          </g>
          <g id="Group_9240" data-name="Group 9240" transform="translate(26.226)">
            <path id="Path_12195" data-name="Path 12195" d="M342.258,291.754a1.3,1.3,0,0,1-.913-1.6c2.811-10.253-.714-20.187-7.858-22.146-7.992-2.191-14.91,3.572-18.055,15.041a1.3,1.3,0,0,1-2.516-.69c3.516-12.823,11.862-19.444,21.26-16.867,8.675,2.379,12.929,13.514,9.684,25.352A1.3,1.3,0,0,1,342.258,291.754Z" transform="translate(-312.87 -264.94)" fill="#490d0a"/>
          </g>
          <path id="Path_12196" data-name="Path 12196" d="M333.912,266.5c8.465,2.321,12.717,12.981,9.9,24.492a1.183,1.183,0,0,0,.057-.147c3.246-11.837-1.009-22.973-9.684-25.352-9.4-2.577-17.744,4.044-21.26,16.867-.012.044-.014.089-.022.133C316.556,270.243,324.73,263.979,333.912,266.5Z" transform="translate(-286.655 -264.94)" fill="#fff" style="mix-blend-mode: soft-light;isolation: isolate"/>
        </g>
        <circle id="Ellipse_142" data-name="Ellipse 142" cx="14.229" cy="14.229" r="14.229" transform="translate(20.912 32.309)" fill="#fb6020"/>
      </g>
    </g>
    <path id="Path_12197" data-name="Path 12197" d="M262.31,272.57l-1.458-6.088c-.249-1.042-1.318-1.842-3.058-2.4a14.871,14.871,0,0,0-1.653-.422c-.6-.122-1.258-.223-1.961-.306s-1.454-.145-2.25-.188-1.636-.068-2.517-.072c-1.763-.01-3.691.058-5.756.2s-4.268.366-6.581.664q-1.734.223-3.549.5-.906.14-1.83.295c-3.694.618-7.591,1.408-11.6,2.368a159.77,159.77,0,0,0-18.191,5.457q-.8.3-1.57.6-1.544.6-2.975,1.2c-1.907.807-3.656,1.619-5.223,2.427-1.018.524-1.95,1.045-2.807,1.561q-.377.227-.733.452a23.817,23.817,0,0,0-2.769,2.011c-.255.22-.5.438-.714.653-1.3,1.289-1.887,2.486-1.637,3.528h0l1.458,6.087c1.14,4.764,19.386,4.477,40.751-.64S263.451,277.333,262.31,272.57Z" transform="translate(-29.076 -41.354)" opacity="0.5" style="mix-blend-mode: multiply;isolation: isolate"/>
    <g id="Group_9244" data-name="Group 9244" transform="translate(152.34 215.459)">
      <ellipse id="Ellipse_143" data-name="Ellipse 143" cx="39.78" cy="8.869" rx="39.78" ry="8.869" transform="translate(0 18.53) rotate(-13.469)" fill="#60a3bd"/>
      <path id="Path_12198" data-name="Path 12198" d="M184.965,291.112c1.14,4.763,19.386,4.476,40.751-.641s37.761-13.126,36.62-17.89l-1.458-6.088c1.141,4.764-15.254,12.773-36.62,17.89s-39.611,5.4-40.752.641Z" transform="translate(-181.441 -257.868)" fill="#487a8e"/>
      <path id="Path_12199" data-name="Path 12199" d="M220.344,266.625c20.6-4.934,38.294-5.375,40.558-1.13a2.075,2.075,0,0,0-.05-.525c-1.141-4.764-19.386-4.477-40.751.64s-37.761,13.127-36.62,17.891a2.078,2.078,0,0,0,.194.49C183.769,279.181,199.743,271.559,220.344,266.625Z" transform="translate(-181.415 -256.345)" fill="#fff" style="mix-blend-mode: soft-light;isolation: isolate"/>
    </g>
    <g id="Group_9245" data-name="Group 9245" transform="translate(241.007 306.89)">
      <rect id="Rectangle_1855" data-name="Rectangle 1855" width="11.539" height="11.539" rx="4.409" transform="matrix(0.952, 0.306, -0.306, 0.952, 3.531, 1.043)" opacity="0.5" style="mix-blend-mode: multiply;isolation: isolate"/>
      <rect id="Rectangle_1856" data-name="Rectangle 1856" width="11.539" height="11.539" rx="4.409" transform="matrix(0.952, 0.306, -0.306, 0.952, 3.531, 0)" fill="#60a3bd"/>
      <path id="Path_12200" data-name="Path 12200" d="M311.083,394.411l-.834,2.6a3.044,3.044,0,0,0,1.966,3.829l5.191,1.668a3.044,3.044,0,0,0,3.829-1.966l.834-2.6Z" transform="translate(-309.318 -388.918)" fill="#487a8e"/>
      <path id="Path_12201" data-name="Path 12201" d="M321.641,389.4l-5.191-1.668a3.044,3.044,0,0,0-3.829,1.967l-.246.765A3.044,3.044,0,0,1,316.2,388.5l5.191,1.668A3.043,3.043,0,0,1,323.361,394l.246-.764A3.044,3.044,0,0,0,321.641,389.4Z" transform="translate(-310.022 -386.805)" fill="#fff" style="mix-blend-mode: soft-light;isolation: isolate"/>
    </g>
    <g id="Group_9246" data-name="Group 9246" transform="translate(267.672 203.379)">
      <rect id="Rectangle_1857" data-name="Rectangle 1857" width="11.539" height="11.539" rx="4.409" transform="matrix(0.952, 0.306, -0.306, 0.952, 3.531, 1.043)" opacity="0.5" style="mix-blend-mode: multiply;isolation: isolate"/>
      <rect id="Rectangle_1858" data-name="Rectangle 1858" width="11.539" height="11.539" rx="4.409" transform="matrix(0.952, 0.306, -0.306, 0.952, 3.531, 0)" fill="#fdd277"/>
      <path id="Path_12202" data-name="Path 12202" d="M349.713,244.454l-.834,2.6a3.044,3.044,0,0,0,1.966,3.829l5.191,1.668a3.043,3.043,0,0,0,3.829-1.966l.834-2.6Z" transform="translate(-347.948 -238.961)" fill="#dbb366"/>
      <path id="Path_12203" data-name="Path 12203" d="M360.271,239.448l-5.191-1.668a3.043,3.043,0,0,0-3.828,1.966l-.246.765a3.043,3.043,0,0,1,3.828-1.967l5.191,1.668a3.043,3.043,0,0,1,1.966,3.829l.246-.765A3.043,3.043,0,0,0,360.271,239.448Z" transform="translate(-348.652 -236.849)" fill="#fff" style="mix-blend-mode: soft-light;isolation: isolate"/>
    </g>
    <g id="Group_9248" data-name="Group 9248" transform="translate(92.799 249.4)">
      <path id="Path_12204" data-name="Path 12204" d="M164.46,328.908a8.832,8.832,0,0,0-.156-.927,9.09,9.09,0,0,0-1.921-3.859q-.282-.333-.6-.639a9.019,9.019,0,0,0-3.854-2.224l-20.118-5.685c4.9,0,11.716-1.376,12.39-3.105a1.126,1.126,0,0,0-.633-1.423,2.659,2.659,0,0,0-.635-.266c-3.284-.928-12.138,2.513-14,3.261-1.666-1.367-10.167-8.238-13.859-9.281a3.441,3.441,0,0,0-.886-.146c-.885-.011-1.071.488-1.111.7-.077.425-.237,1.31,6.064,5.125,1.923,1.164,3.932,2.273,5.713,3.168l-19.128-5.4a9.022,9.022,0,0,0-2.7-.34l-.067,0a9.141,9.141,0,0,0-6.761,3.387q-.275.345-.519.718a9.056,9.056,0,0,0-1.123,2.479l-1.283,4.541a.6.6,0,0,0-.327,1.157l-1.283,4.541a9.05,9.05,0,0,0,6.248,11.17l22.522,6.364h0a.6.6,0,0,0,1.157.326h0l22.522,6.364a9.05,9.05,0,0,0,11.17-6.248l1.283-4.54a.6.6,0,0,0,.326-1.157l1.283-4.541a8.951,8.951,0,0,0,.278-3.521ZM120.689,305.9l.064.018c2.238.632,6.609,3.753,9.813,6.2A60.5,60.5,0,0,1,120.689,305.9Zm16.678,8.5c3.609-1.327,9.128-3.054,11.244-2.457a1.475,1.475,0,0,1,.346.142l.066.043C148.217,313.036,142.013,314.51,137.367,314.393Z" transform="translate(-95.208 -303.615)" opacity="0.5" style="mix-blend-mode: multiply;isolation: isolate"/>
      <g id="Group_9247" data-name="Group 9247" transform="translate(0 0)">
        <rect id="Rectangle_1859" data-name="Rectangle 1859" width="66.111" height="28.74" rx="13.111" transform="matrix(-0.962, -0.272, 0.272, -0.962, 63.62, 46.764)" fill="#fdd277"/>
        <path id="Path_12205" data-name="Path 12205" d="M103.917,343.425l46.2,13.055a9.05,9.05,0,0,0,11.17-6.248l-63.62-17.977A9.05,9.05,0,0,0,103.917,343.425Z" transform="translate(-95.208 -312.177)" fill="#dbb366"/>
        <path id="Path_12206" data-name="Path 12206" d="M113.086,308.217l46.2,13.055a9.05,9.05,0,0,1,6.248,11.17l-.217.771a9.05,9.05,0,0,0-6.248-11.17l-46.2-13.055a9.05,9.05,0,0,0-11.17,6.248l.218-.772A9.05,9.05,0,0,1,113.086,308.217Z" transform="translate(-96.562 -304.625)" fill="#fff" style="mix-blend-mode: soft-light;isolation: isolate"/>
        <path id="Path_12207" data-name="Path 12207" d="M99.07,317.963a.6.6,0,0,0,.415.742l31.232,8.825-3.744,13.25a.6.6,0,0,0,1.157.326l3.744-13.249,31.231,8.825a.6.6,0,0,0,.326-1.157L132.2,326.7l3.6-12.731c4.611.678,14.139-.886,14.942-2.946a1.125,1.125,0,0,0-.633-1.423,2.634,2.634,0,0,0-.635-.267c-3.284-.928-12.138,2.513-14,3.261-1.666-1.367-10.167-8.238-13.859-9.281a3.442,3.442,0,0,0-.886-.146c-.885-.011-1.071.488-1.111.7-.077.425-.237,1.309,6.064,5.125a68.848,68.848,0,0,0,8.958,4.657l-3.595,12.721-31.231-8.825A.6.6,0,0,0,99.07,317.963Zm32.029-7.29a60.5,60.5,0,0,1-9.877-6.221l.064.018C123.524,305.1,127.895,308.224,131.1,310.673Zm6.8,2.274c3.609-1.327,9.128-3.054,11.244-2.457a1.473,1.473,0,0,1,.346.141l.066.043C148.75,311.591,142.547,313.065,137.9,312.948Z" transform="translate(-95.741 -303.168)" fill="#852933"/>
      </g>
    </g>
    <g id="Group_9249" data-name="Group 9249" transform="translate(153.3 247.44)">
      <rect id="Rectangle_1860" data-name="Rectangle 1860" width="72.353" height="59.924" transform="translate(0 24.066) rotate(-18.554)" opacity="0.5" style="mix-blend-mode: multiply;isolation: isolate"/>
      <rect id="Rectangle_1861" data-name="Rectangle 1861" width="72.353" height="59.924" transform="translate(0 23.023) rotate(-18.554)" fill="#ee6b4d"/>
      <rect id="Rectangle_1862" data-name="Rectangle 1862" width="72.353" height="1.043" transform="translate(0 23.023) rotate(-18.554)" fill="#fff" style="mix-blend-mode: soft-light;isolation: isolate"/>
      <rect id="Rectangle_1863" data-name="Rectangle 1863" width="72.353" height="4.333" transform="translate(3.342 32.98) rotate(-18.554)" fill="#852933"/>
      <rect id="Rectangle_1864" data-name="Rectangle 1864" width="72.353" height="4.333" transform="translate(5.168 38.42) rotate(-18.554)" fill="#852933"/>
      <circle id="Ellipse_144" data-name="Ellipse 144" cx="8.196" cy="8.196" r="8.196" transform="translate(20.723 54.785)" fill="#ee6b4d"/>
    </g>
    <g id="Group_9250" data-name="Group 9250" transform="translate(148.932 316.99)">
      <rect id="Rectangle_1865" data-name="Rectangle 1865" width="63.63" height="49.855" transform="matrix(0.992, 0.127, -0.127, 0.992, 6.334, 1.043)" opacity="0.5" style="mix-blend-mode: multiply;isolation: isolate"/>
      <rect id="Rectangle_1866" data-name="Rectangle 1866" width="63.63" height="49.855" transform="matrix(0.992, 0.127, -0.127, 0.992, 6.334, 0)" fill="#3d5b81"/>
      <rect id="Rectangle_1867" data-name="Rectangle 1867" width="12.621" height="10.215" transform="matrix(0.992, 0.127, -0.127, 0.992, 10.826, 5.767)" fill="#fb6020"/>
      <rect id="Rectangle_1868" data-name="Rectangle 1868" width="35.464" height="1.58" transform="matrix(0.992, 0.127, -0.127, 0.992, 5.99, 43.521)" fill="#fb6020"/>
      <rect id="Rectangle_1869" data-name="Rectangle 1869" width="35.464" height="1.58" transform="matrix(0.992, 0.127, -0.127, 0.992, 6.369, 40.563)" fill="#fb6020"/>
      <rect id="Rectangle_1870" data-name="Rectangle 1870" width="35.464" height="1.58" transform="matrix(0.992, 0.127, -0.127, 0.992, 6.748, 37.605)" fill="#fb6020"/>
      <rect id="Rectangle_1871" data-name="Rectangle 1871" width="14.867" height="8.382" transform="matrix(0.992, 0.127, -0.127, 0.992, 52.507, 23.322)" fill="#fdd277"/>
      <rect id="Rectangle_1872" data-name="Rectangle 1872" width="14.867" height="4.191" transform="matrix(0.992, 0.127, -0.127, 0.992, 51.975, 27.479)" fill="#dbb366"/>
      <rect id="Rectangle_1873" data-name="Rectangle 1873" width="63.63" height="1.043" transform="matrix(0.992, 0.127, -0.127, 0.992, 6.334, 0)" fill="#fff" style="mix-blend-mode: soft-light;isolation: isolate"/>
    </g>
    <g id="Group_9251" data-name="Group 9251" transform="translate(200.243 315.959)">
      <rect id="Rectangle_1874" data-name="Rectangle 1874" width="93.579" height="27.65" transform="translate(0 58.275) rotate(-37.704)" opacity="0.5" style="mix-blend-mode: multiply;isolation: isolate"/>
      <rect id="Rectangle_1875" data-name="Rectangle 1875" width="93.579" height="27.65" transform="translate(0 57.232) rotate(-37.704)" fill="#fdd277"/>
      <rect id="Rectangle_1876" data-name="Rectangle 1876" width="93.579" height="13.825" transform="translate(8.455 68.17) rotate(-37.704)" fill="#dbb366"/>
      <rect id="Rectangle_1877" data-name="Rectangle 1877" width="9.853" height="1.467" transform="translate(10.461 66.619) rotate(-37.704)" fill="#490d0a"/>
      <rect id="Rectangle_1878" data-name="Rectangle 1878" width="9.853" height="1.467" transform="translate(9.564 65.459) rotate(-37.704)" fill="#852933"/>
      <rect id="Rectangle_1879" data-name="Rectangle 1879" width="9.853" height="1.467" transform="translate(72.709 18.501) rotate(-37.704)" fill="#490d0a"/>
      <rect id="Rectangle_1880" data-name="Rectangle 1880" width="9.853" height="1.467" transform="translate(71.811 17.341) rotate(-37.704)" fill="#852933"/>
      <circle id="Ellipse_145" data-name="Ellipse 145" cx="4.031" cy="4.031" r="4.031" transform="translate(5.674 53.799)" fill="#dbb366"/>
      <rect id="Rectangle_1881" data-name="Rectangle 1881" width="15.377" height="8.062" transform="translate(11.846 51.079) rotate(-37.704)" fill="#dbb366"/>
      <rect id="Rectangle_1882" data-name="Rectangle 1882" width="93.579" height="1.043" transform="translate(0 57.232) rotate(-37.704)" fill="#fff" style="mix-blend-mode: soft-light;isolation: isolate"/>
    </g>
    <g id="Group_9261" data-name="Group 9261" transform="translate(92.448 357.655)">
      <g id="Group_9252" data-name="Group 9252" transform="translate(0 1.1)" opacity="0.5" style="mix-blend-mode: multiply;isolation: isolate">
        <path id="Path_12208" data-name="Path 12208" d="M262.415,490.317,137.841,478.3a7.555,7.555,0,0,0-2.375.157L121,466.4a4.155,4.155,0,0,0-2.658-.962h-9.76a8,8,0,1,0-.683,9.272,8.033,8.033,0,0,0,.679-.966h6.757a4.152,4.152,0,0,1,2.658.962l11.47,9.553a8.941,8.941,0,0,0-.222,4.048l10.728,61.819a8.159,8.159,0,0,0,7.88,6.965H157.7l-9.718,12.319c-1.995,2.334-1.12,6.919,3.73,6.919h98.075a3.07,3.07,0,1,0,0-6.139H158.733c-1.767,0-2.973-1.159-1.405-3.354l7.072-9.745h81.864a8.071,8.071,0,0,0,7.612-5.849l15.426-49.8C270.911,496.247,267.547,490.811,262.415,490.317ZM142.253,503.743,139.642,488.7l2.611.252ZM154.531,546.9h-4.788l-1.351-7.785v-5.8h6.139Zm0-19.72h-6.139V512.8h6.139Zm0-20.521h-6.139V489.545l6.139.592ZM166.809,546.9H160.67V533.324h6.139Zm0-19.72H160.67V512.8h6.139Zm0-20.521H160.67V490.731l6.139.592ZM179.088,546.9h-6.139V533.324h6.139Zm0-19.72h-6.139V512.8h6.139Zm0-20.521h-6.139V491.915l6.139.593ZM191.367,546.9h-6.14V533.324h6.14Zm0-19.72h-6.14V512.8h6.14Zm0-20.521h-6.14V493.1l6.14.592ZM203.644,546.9h-6.139V533.324h6.139Zm0-19.72h-6.139V512.8h6.139Zm0-20.521h-6.139V494.286l6.139.592ZM215.923,546.9h-6.139V533.324h6.139Zm0-19.72h-6.139V512.8h6.139Zm0-20.521h-6.139V495.47l6.139.592ZM228.2,546.9h-6.139V533.324H228.2Zm0-19.72h-6.139V512.8H228.2Zm0-20.521h-6.139V496.655l6.139.592ZM240.48,546.9h-6.139V533.324h6.139Zm0-19.72h-6.139V512.8h6.139Zm0-20.521h-6.139V497.84l6.139.593Zm6.139,33.577v-6.917h2.143Zm4.044-13.056h-4.044V512.8h8.5Zm6.357-20.521h-10.4v-7.639l12.4,1.2Z" transform="translate(-93.749 -461.59)"/>
        <path id="Path_12209" data-name="Path 12209" d="M190.865,630.512a12.107,12.107,0,1,0,12.107,12.107A12.106,12.106,0,0,0,190.865,630.512Zm0,16.648a4.541,4.541,0,1,1,4.541-4.541A4.541,4.541,0,0,1,190.865,647.16Z" transform="translate(-120.078 -513.91)"/>
        <path id="Path_12210" data-name="Path 12210" d="M288.94,630.512a12.107,12.107,0,1,0,12.107,12.107A12.106,12.106,0,0,0,288.94,630.512Zm0,16.648a4.541,4.541,0,1,1,4.541-4.541A4.541,4.541,0,0,1,288.94,647.16Z" transform="translate(-150.455 -513.91)"/>
      </g>
      <g id="Group_9260" data-name="Group 9260">
        <g id="Group_9253" data-name="Group 9253">
          <path id="Path_12211" data-name="Path 12211" d="M262.415,488.724,137.841,476.7a7.573,7.573,0,0,0-2.375.157L121,464.8a4.156,4.156,0,0,0-2.658-.962h-9.76a8.086,8.086,0,1,0,0,8.307h6.757a4.155,4.155,0,0,1,2.658.962l11.47,9.554a8.94,8.94,0,0,0-.222,4.048l10.728,61.819a8.158,8.158,0,0,0,7.88,6.964H157.7l-9.718,12.319c-1.995,2.334-1.12,6.919,3.73,6.919h98.075a3.07,3.07,0,1,0,0-6.139H158.733c-1.767,0-2.973-1.158-1.405-3.353L164.4,555.5h81.864a8.072,8.072,0,0,0,7.612-5.848l15.426-49.8C270.911,494.654,267.547,489.218,262.415,488.724ZM142.253,502.149l-2.611-15.041,2.611.251Zm12.278,43.162h-4.788l-1.351-7.785v-5.8h6.139Zm0-19.72h-6.139V511.21h6.139Zm0-20.521h-6.139V487.953l6.139.592Zm12.279,40.241H160.67v-13.58h6.139Zm0-19.72H160.67V511.21h6.139Zm0-20.521H160.67V489.137l6.139.593Zm12.279,40.241h-6.139v-13.58h6.139Zm0-19.72h-6.139V511.21h6.139Zm0-20.521h-6.139V490.322l6.139.592Zm12.279,40.241h-6.14v-13.58h6.14Zm0-19.72h-6.14V511.21h6.14Zm0-20.521h-6.14V491.507l6.14.592Zm12.278,40.241h-6.139v-13.58h6.139Zm0-19.72h-6.139V511.21h6.139Zm0-20.521h-6.139V492.692l6.139.593Zm12.279,40.241h-6.139v-13.58h6.139Zm0-19.72h-6.139V511.21h6.139Zm0-20.521h-6.139V493.877l6.139.592ZM228.2,545.311h-6.139v-13.58H228.2Zm0-19.72h-6.139V511.21H228.2Zm0-20.521h-6.139V495.062l6.139.592Zm12.279,40.241h-6.139v-13.58h6.139Zm0-19.72h-6.139V511.21h6.139Zm0-20.521h-6.139v-8.824l6.139.592Zm6.139,33.577v-6.917h2.143Zm4.044-13.056h-4.044V511.21h8.5Zm6.357-20.521h-10.4v-7.639l12.4,1.2Z" transform="translate(-93.749 -459.997)" fill="#70bfe0"/>
          <path id="Path_12212" data-name="Path 12212" d="M190.865,628.919a12.107,12.107,0,1,0,12.107,12.107A12.106,12.106,0,0,0,190.865,628.919Zm0,16.648a4.542,4.542,0,1,1,4.541-4.541A4.541,4.541,0,0,1,190.865,645.567Z" transform="translate(-120.078 -512.317)" fill="#70bfe0"/>
          <path id="Path_12213" data-name="Path 12213" d="M288.94,628.919a12.107,12.107,0,1,0,12.107,12.107A12.106,12.106,0,0,0,288.94,628.919Zm0,16.648a4.542,4.542,0,1,1,4.541-4.541A4.541,4.541,0,0,1,288.94,645.567Z" transform="translate(-150.455 -512.317)" fill="#70bfe0"/>
        </g>
        <g id="Group_9254" data-name="Group 9254" transform="translate(0.006)" style="mix-blend-mode: soft-light;isolation: isolate">
          <rect id="Rectangle_1883" data-name="Rectangle 1883" width="6.139" height="1.1" transform="translate(91.472 65.594)" fill="#fff"/>
          <rect id="Rectangle_1884" data-name="Rectangle 1884" width="6.139" height="1.1" transform="translate(79.194 85.314)" fill="#fff"/>
          <rect id="Rectangle_1885" data-name="Rectangle 1885" width="6.139" height="1.1" transform="translate(91.472 45.073)" fill="#fff"/>
          <rect id="Rectangle_1886" data-name="Rectangle 1886" width="6.139" height="1.1" transform="translate(91.472 85.314)" fill="#fff"/>
          <rect id="Rectangle_1887" data-name="Rectangle 1887" width="6.139" height="1.1" transform="translate(103.751 45.073)" fill="#fff"/>
          <rect id="Rectangle_1888" data-name="Rectangle 1888" width="6.139" height="1.1" transform="translate(103.751 85.314)" fill="#fff"/>
          <rect id="Rectangle_1889" data-name="Rectangle 1889" width="6.139" height="1.1" transform="translate(103.751 65.594)" fill="#fff"/>
          <path id="Path_12214" data-name="Path 12214" d="M145.107,494.17a8.926,8.926,0,0,0-.124,2.121,8.932,8.932,0,0,1,.338-1.942Z" transform="translate(-109.619 -470.582)" fill="#fff"/>
          <rect id="Rectangle_1890" data-name="Rectangle 1890" width="6.139" height="1.1" transform="translate(116.029 45.073)" fill="#fff"/>
          <path id="Path_12215" data-name="Path 12215" d="M181.6,598.347l-9.718,12.319a4.315,4.315,0,0,0-.956,3.326,4.231,4.231,0,0,1,.956-2.227l10.585-13.419Z" transform="translate(-117.647 -502.848)" fill="#fff"/>
          <path id="Path_12216" data-name="Path 12216" d="M95.6,463.977a7.983,7.983,0,0,1,12.975.966h9.76A4.155,4.155,0,0,1,121,465.9l14.472,12.054a7.551,7.551,0,0,1,2.375-.157l124.574,12.021a8.292,8.292,0,0,1,7.267,7.945,8.369,8.369,0,0,0-7.267-9.045L137.844,476.7a7.551,7.551,0,0,0-2.375.157L121,464.8a4.156,4.156,0,0,0-2.658-.962h-9.76a7.99,7.99,0,0,0-14.8,4.716A7.952,7.952,0,0,1,95.6,463.977Z" transform="translate(-93.758 -459.997)" fill="#fff"/>
          <rect id="Rectangle_1891" data-name="Rectangle 1891" width="6.139" height="1.1" transform="translate(54.637 45.073)" fill="#fff"/>
          <rect id="Rectangle_1892" data-name="Rectangle 1892" width="6.139" height="1.1" transform="translate(79.194 65.594)" fill="#fff"/>
          <rect id="Rectangle_1893" data-name="Rectangle 1893" width="6.139" height="1.1" transform="translate(79.194 45.073)" fill="#fff"/>
          <rect id="Rectangle_1894" data-name="Rectangle 1894" width="6.139" height="1.1" transform="translate(54.637 65.594)" fill="#fff"/>
          <path id="Path_12217" data-name="Path 12217" d="M174.261,581.2h4.788v-1.1h-4.788l-1.351-7.785v1.1Z" transform="translate(-118.273 -494.785)" fill="#fff"/>
          <rect id="Rectangle_1895" data-name="Rectangle 1895" width="6.139" height="1.1" transform="translate(116.029 85.314)" fill="#fff"/>
          <path id="Path_12218" data-name="Path 12218" d="M319.257,550.164l4.455-14.382h-.341l-4.115,13.282h-4.044v1.1Z" transform="translate(-162.348 -483.47)" fill="#fff"/>
          <path id="Path_12219" data-name="Path 12219" d="M317.355,565.511h-.341l-1.8,5.817v1.1Z" transform="translate(-162.348 -492.678)" fill="#fff"/>
          <rect id="Rectangle_1896" data-name="Rectangle 1896" width="6.139" height="1.1" transform="translate(66.915 65.594)" fill="#fff"/>
          <rect id="Rectangle_1897" data-name="Rectangle 1897" width="6.139" height="1.1" transform="translate(66.915 45.073)" fill="#fff"/>
          <path id="Path_12220" data-name="Path 12220" d="M278.036,616.86H186.977a2.029,2.029,0,0,1-2.035-1.033c-.057.627.844,2.133,3.451,2.133h89.644a3.068,3.068,0,0,1,3.018,2.519,3.059,3.059,0,0,0-3.018-3.62Z" transform="translate(-121.999 -508.262)" fill="#fff"/>
          <rect id="Rectangle_1898" data-name="Rectangle 1898" width="6.139" height="1.1" transform="translate(66.915 85.314)" fill="#fff"/>
          <rect id="Rectangle_1899" data-name="Rectangle 1899" width="6.139" height="1.1" transform="translate(128.308 85.314)" fill="#fff"/>
          <path id="Path_12221" data-name="Path 12221" d="M325.614,523.983l2-6.442-.331-.032-1.665,5.374h-10.4v1.1Z" transform="translate(-162.348 -477.81)" fill="#fff"/>
          <rect id="Rectangle_1900" data-name="Rectangle 1900" width="6.139" height="1.1" transform="translate(128.308 45.073)" fill="#fff"/>
          <rect id="Rectangle_1901" data-name="Rectangle 1901" width="6.139" height="1.1" transform="translate(116.029 65.594)" fill="#fff"/>
          <rect id="Rectangle_1902" data-name="Rectangle 1902" width="6.139" height="1.1" transform="translate(128.308 65.594)" fill="#fff"/>
          <rect id="Rectangle_1903" data-name="Rectangle 1903" width="6.139" height="1.1" transform="translate(140.586 85.314)" fill="#fff"/>
          <rect id="Rectangle_1904" data-name="Rectangle 1904" width="6.139" height="1.1" transform="translate(140.586 65.594)" fill="#fff"/>
          <rect id="Rectangle_1905" data-name="Rectangle 1905" width="6.139" height="1.1" transform="translate(140.586 45.073)" fill="#fff"/>
        </g>
        <g id="Group_9255" data-name="Group 9255" transform="translate(58.68 116.602)" style="mix-blend-mode: soft-light;isolation: isolate">
          <path id="Path_12222" data-name="Path 12222" d="M190.865,630.019a12.106,12.106,0,0,1,12.093,11.557c.008-.182.014-.365.014-.549a12.107,12.107,0,1,0-24.213,0c0,.184.006.367.014.549A12.106,12.106,0,0,1,190.865,630.019Z" transform="translate(-178.758 -628.919)" fill="#fff"/>
          <path id="Path_12223" data-name="Path 12223" d="M194.259,652.345a4.517,4.517,0,0,0,4.5-5.091,4.538,4.538,0,0,1-9.009,0,4.517,4.517,0,0,0,4.5,5.091Z" transform="translate(-182.153 -634.598)" fill="#fff"/>
        </g>
        <g id="Group_9256" data-name="Group 9256" transform="translate(126.378 116.602)" style="mix-blend-mode: soft-light;isolation: isolate">
          <path id="Path_12224" data-name="Path 12224" d="M288.94,630.019a12.106,12.106,0,0,1,12.093,11.557c.008-.182.014-.365.014-.549a12.107,12.107,0,1,0-24.213,0c0,.184.006.367.014.549A12.106,12.106,0,0,1,288.94,630.019Z" transform="translate(-276.833 -628.919)" fill="#fff"/>
          <path id="Path_12225" data-name="Path 12225" d="M292.334,652.345a4.517,4.517,0,0,0,4.5-5.091,4.538,4.538,0,0,1-9.01,0,4.663,4.663,0,0,0-.036.55A4.541,4.541,0,0,0,292.334,652.345Z" transform="translate(-280.228 -634.598)" fill="#fff"/>
        </g>
        <g id="Group_9257" data-name="Group 9257" transform="translate(0.009 7.461)">
          <rect id="Rectangle_1906" data-name="Rectangle 1906" width="6.139" height="1.1" transform="translate(116.027 42.651)" fill="#487a8e"/>
          <rect id="Rectangle_1907" data-name="Rectangle 1907" width="6.139" height="1.1" transform="translate(116.027 63.172)" fill="#487a8e"/>
          <path id="Path_12226" data-name="Path 12226" d="M261.849,507.486v1.1l6.139.592v-1.1Z" transform="translate(-145.823 -482.167)" fill="#487a8e"/>
          <path id="Path_12227" data-name="Path 12227" d="M244.062,505.769v1.1l6.139.592v-1.1Z" transform="translate(-140.313 -481.636)" fill="#487a8e"/>
          <rect id="Rectangle_1908" data-name="Rectangle 1908" width="6.139" height="1.1" transform="translate(103.748 63.172)" fill="#487a8e"/>
          <path id="Path_12228" data-name="Path 12228" d="M279.637,509.2v1.1l6.139.592v-1.1Z" transform="translate(-151.332 -482.699)" fill="#487a8e"/>
          <rect id="Rectangle_1909" data-name="Rectangle 1909" width="6.139" height="1.1" transform="translate(103.748 42.651)" fill="#487a8e"/>
          <path id="Path_12229" data-name="Path 12229" d="M297.425,510.919v1.1l6.139.592v-1.1Z" transform="translate(-156.841 -483.231)" fill="#487a8e"/>
          <rect id="Rectangle_1910" data-name="Rectangle 1910" width="6.139" height="1.1" transform="translate(140.583 63.172)" fill="#487a8e"/>
          <path id="Path_12230" data-name="Path 12230" d="M315.213,512.635v1.1l12.067,1.165.331-1.068Z" transform="translate(-162.351 -483.762)" fill="#487a8e"/>
          <path id="Path_12231" data-name="Path 12231" d="M315.213,532.6v1.1h8.159l.341-1.1Z" transform="translate(-162.351 -489.945)" fill="#487a8e"/>
          <rect id="Rectangle_1911" data-name="Rectangle 1911" width="6.139" height="1.1" transform="translate(128.305 63.172)" fill="#487a8e"/>
          <rect id="Rectangle_1912" data-name="Rectangle 1912" width="6.139" height="1.1" transform="translate(128.305 42.651)" fill="#487a8e"/>
          <rect id="Rectangle_1913" data-name="Rectangle 1913" width="6.139" height="1.1" transform="translate(91.47 63.172)" fill="#487a8e"/>
          <rect id="Rectangle_1914" data-name="Rectangle 1914" width="6.139" height="1.1" transform="translate(140.583 42.651)" fill="#487a8e"/>
          <path id="Path_12232" data-name="Path 12232" d="M315.213,562.325v1.1h1.8l.341-1.1Z" transform="translate(-162.351 -499.152)" fill="#487a8e"/>
          <path id="Path_12233" data-name="Path 12233" d="M129.462,484.913l-11.47-9.553a4.155,4.155,0,0,0-2.658-.962h-6.757a8.087,8.087,0,0,1-.679.966,7.993,7.993,0,0,1-14.119-4.557,7.975,7.975,0,0,0,14.8,4.691h6.757a4.155,4.155,0,0,1,2.658.961l11.255,9.375A8.876,8.876,0,0,1,129.462,484.913Z" transform="translate(-93.761 -470.807)" fill="#487a8e"/>
          <path id="Path_12234" data-name="Path 12234" d="M160.235,497.679l.194,1.119,2.416.233v-1.1Z" transform="translate(-114.35 -479.13)" fill="#487a8e"/>
          <path id="Path_12235" data-name="Path 12235" d="M172.911,498.9V500l6.139.593v-1.1Z" transform="translate(-118.276 -479.509)" fill="#487a8e"/>
          <rect id="Rectangle_1915" data-name="Rectangle 1915" width="6.139" height="1.1" transform="translate(54.635 63.172)" fill="#487a8e"/>
          <rect id="Rectangle_1916" data-name="Rectangle 1916" width="6.139" height="1.1" transform="translate(54.635 42.651)" fill="#487a8e"/>
          <path id="Path_12236" data-name="Path 12236" d="M297.546,515.206,282.119,565a8.072,8.072,0,0,1-7.612,5.849H192.643l-6.37,8.777a6.377,6.377,0,0,0-1.332,3.289,4.148,4.148,0,0,1,.63-1.221l7.072-9.745h81.864a8.072,8.072,0,0,0,7.612-5.848l15.426-49.8a8.962,8.962,0,0,0,.38-3.182A9.049,9.049,0,0,1,297.546,515.206Z" transform="translate(-122.002 -483.913)" fill="#487a8e"/>
          <path id="Path_12237" data-name="Path 12237" d="M273.7,623.493H175.625c-2.972,0-4.383-.973-4.686-2.493.081,1.145,1.133,3.592,4.686,3.592H273.7a3.059,3.059,0,0,0,3.018-3.619A3.068,3.068,0,0,1,273.7,623.493Z" transform="translate(-117.665 -517.318)" fill="#487a8e"/>
          <path id="Path_12238" data-name="Path 12238" d="M172.7,566.539l.868-1.1h-9.861a8.158,8.158,0,0,1-7.88-6.964L145.1,496.656a9.075,9.075,0,0,1-.117-1.006,9.009,9.009,0,0,0,.117,2.106l10.728,61.819a8.158,8.158,0,0,0,7.88,6.964Z" transform="translate(-109.621 -478.502)" fill="#487a8e"/>
          <path id="Path_12239" data-name="Path 12239" d="M226.274,504.052v1.1l6.139.592v-1.1Z" transform="translate(-134.804 -481.104)" fill="#487a8e"/>
          <rect id="Rectangle_1917" data-name="Rectangle 1917" width="6.139" height="1.1" transform="translate(79.192 42.651)" fill="#487a8e"/>
          <rect id="Rectangle_1918" data-name="Rectangle 1918" width="6.139" height="1.1" transform="translate(79.192 63.172)" fill="#487a8e"/>
          <rect id="Rectangle_1919" data-name="Rectangle 1919" width="6.139" height="1.1" transform="translate(91.47 42.651)" fill="#487a8e"/>
          <path id="Path_12240" data-name="Path 12240" d="M190.7,500.619v1.1l6.139.593v-1.1Z" transform="translate(-123.785 -480.041)" fill="#487a8e"/>
          <rect id="Rectangle_1920" data-name="Rectangle 1920" width="6.139" height="1.1" transform="translate(66.913 42.651)" fill="#487a8e"/>
          <path id="Path_12241" data-name="Path 12241" d="M208.486,502.336v1.1l6.139.593v-1.1Z" transform="translate(-129.295 -480.572)" fill="#487a8e"/>
          <rect id="Rectangle_1921" data-name="Rectangle 1921" width="6.139" height="1.1" transform="translate(66.913 63.172)" fill="#487a8e"/>
        </g>
        <g id="Group_9258" data-name="Group 9258" transform="translate(58.68 123.067)">
          <path id="Path_12242" data-name="Path 12242" d="M194.259,638.285a4.517,4.517,0,0,0-4.5,5.091,4.538,4.538,0,0,1,9.009,0,4.517,4.517,0,0,0-4.5-5.091Z" transform="translate(-182.153 -638.285)" fill="#487a8e"/>
          <path id="Path_12243" data-name="Path 12243" d="M190.865,657.218a12.105,12.105,0,0,1-12.093-11.557c-.008.182-.014.365-.014.55a12.107,12.107,0,0,0,24.213,0c0-.185-.006-.368-.014-.55A12.106,12.106,0,0,1,190.865,657.218Z" transform="translate(-178.758 -640.57)" fill="#487a8e"/>
        </g>
        <g id="Group_9259" data-name="Group 9259" transform="translate(126.378 123.067)">
          <path id="Path_12244" data-name="Path 12244" d="M292.334,638.285a4.541,4.541,0,0,0-4.541,4.541,4.656,4.656,0,0,0,.036.55,4.538,4.538,0,0,1,9.01,0,4.517,4.517,0,0,0-4.5-5.091Z" transform="translate(-280.228 -638.285)" fill="#487a8e"/>
          <path id="Path_12245" data-name="Path 12245" d="M288.94,657.218a12.105,12.105,0,0,1-12.093-11.557c-.008.182-.014.365-.014.55a12.107,12.107,0,0,0,24.213,0c0-.185-.006-.368-.014-.55A12.106,12.106,0,0,1,288.94,657.218Z" transform="translate(-276.833 -640.57)" fill="#487a8e"/>
        </g>
      </g>
    </g>
    <g id="Group_9270" data-name="Group 9270" transform="translate(258.509 368.588)">
      <circle id="Ellipse_150" data-name="Ellipse 150" cx="4.801" cy="4.801" r="4.801" transform="translate(0 1.043)" opacity="0.5" style="mix-blend-mode: multiply;isolation: isolate"/>
      <circle id="Ellipse_151" data-name="Ellipse 151" cx="4.801" cy="4.801" r="4.801" transform="translate(0)" fill="#fb6020"/>
      <path id="Path_12270" data-name="Path 12270" d="M339.123,476.879a4.8,4.8,0,0,1,4.771,4.28,4.8,4.8,0,1,0-9.543,0A4.8,4.8,0,0,1,339.123,476.879Z" transform="translate(-334.321 -475.836)" fill="#fff" style="mix-blend-mode: soft-light;isolation: isolate"/>
    </g>
    <g id="Group_9271" data-name="Group 9271" transform="translate(202.264 135.437)">
      <circle id="Ellipse_152" data-name="Ellipse 152" cx="4.801" cy="4.801" r="4.801" transform="translate(0 1.044)" opacity="0.5" style="mix-blend-mode: multiply;isolation: isolate"/>
      <circle id="Ellipse_153" data-name="Ellipse 153" cx="4.801" cy="4.801" r="4.801" transform="translate(0 0)" fill="#fb6020"/>
      <path id="Path_12271" data-name="Path 12271" d="M257.641,139.114a4.8,4.8,0,0,1,4.771,4.279,4.8,4.8,0,1,0-9.543,0A4.8,4.8,0,0,1,257.641,139.114Z" transform="translate(-252.84 -138.07)" fill="#fff" style="mix-blend-mode: soft-light;isolation: isolate"/>
    </g>
    <g id="Group_9272" data-name="Group 9272" transform="translate(125.225 331.179)">
      <circle id="Ellipse_154" data-name="Ellipse 154" cx="4.801" cy="4.801" r="4.801" transform="translate(0 1.044)" opacity="0.5" style="mix-blend-mode: multiply;isolation: isolate"/>
      <circle id="Ellipse_155" data-name="Ellipse 155" cx="4.801" cy="4.801" r="4.801" transform="translate(0 0)" fill="#852933"/>
      <path id="Path_12272" data-name="Path 12272" d="M146.034,422.685a4.8,4.8,0,0,1,4.772,4.279,5.005,5.005,0,0,0,.029-.521,4.8,4.8,0,1,0-9.573.521A4.8,4.8,0,0,1,146.034,422.685Z" transform="translate(-141.233 -421.641)" fill="#fff" style="mix-blend-mode: soft-light;isolation: isolate"/>
    </g>
    <g id="Group_9273" data-name="Group 9273" transform="translate(125.033 186.444)">
      <circle id="Ellipse_156" data-name="Ellipse 156" cx="4.801" cy="4.801" r="4.801" transform="translate(0 1.043)" opacity="0.5" style="mix-blend-mode: multiply;isolation: isolate"/>
      <circle id="Ellipse_157" data-name="Ellipse 157" cx="4.801" cy="4.801" r="4.801" transform="translate(0)" fill="#852933"/>
      <path id="Path_12273" data-name="Path 12273" d="M145.756,213.007a4.8,4.8,0,0,1,4.772,4.279,4.8,4.8,0,1,0-9.543,0A4.8,4.8,0,0,1,145.756,213.007Z" transform="translate(-140.955 -211.963)" fill="#fff" style="mix-blend-mode: soft-light;isolation: isolate"/>
    </g>
    <g id="Group_9274" data-name="Group 9274" transform="translate(105.779 295.023)">
      <rect id="Rectangle_1922" data-name="Rectangle 1922" width="14.99" height="14.99" rx="5.728" transform="translate(0 5.764) rotate(-18.356)" opacity="0.5" style="mix-blend-mode: multiply;isolation: isolate"/>
      <rect id="Rectangle_1923" data-name="Rectangle 1923" width="14.99" height="14.99" rx="5.728" transform="translate(0 4.721) rotate(-18.356)" fill="#852933"/>
      <path id="Path_12274" data-name="Path 12274" d="M116.481,384.289l1.115,3.362a3.953,3.953,0,0,0,5,2.507l6.723-2.23a3.954,3.954,0,0,0,2.507-5l-1.115-3.362Z" transform="translate(-114.121 -372.454)" fill="#490d0a"/>
      <path id="Path_12275" data-name="Path 12275" d="M124,370.975l-6.723,2.231a3.954,3.954,0,0,0-2.508,5l.329.991a3.953,3.953,0,0,1,2.508-5l6.723-2.231a3.954,3.954,0,0,1,5,2.508l-.329-.991A3.955,3.955,0,0,0,124,370.975Z" transform="translate(-113.529 -369.731)" fill="#fff" style="mix-blend-mode: soft-light;isolation: isolate"/>
    </g>
    <g id="Group_9275" data-name="Group 9275" transform="translate(215.143 151.726)">
      <rect id="Rectangle_1924" data-name="Rectangle 1924" width="14.99" height="14.99" rx="5.728" transform="translate(0 5.764) rotate(-18.356)" opacity="0.5" style="mix-blend-mode: multiply;isolation: isolate"/>
      <rect id="Rectangle_1925" data-name="Rectangle 1925" width="14.99" height="14.99" rx="5.728" transform="translate(0 4.721) rotate(-18.356)" fill="#852933"/>
      <path id="Path_12276" data-name="Path 12276" d="M274.917,176.695l1.115,3.361a3.954,3.954,0,0,0,5,2.508l6.723-2.231a3.954,3.954,0,0,0,2.507-5l-1.115-3.361Z" transform="translate(-272.556 -164.86)" fill="#490d0a"/>
      <path id="Path_12277" data-name="Path 12277" d="M282.441,163.381l-6.723,2.23a3.954,3.954,0,0,0-2.508,5l.329.991a3.953,3.953,0,0,1,2.508-5l6.723-2.231a3.954,3.954,0,0,1,5,2.508l-.329-.991A3.953,3.953,0,0,0,282.441,163.381Z" transform="translate(-271.965 -162.136)" fill="#fff" style="mix-blend-mode: soft-light;isolation: isolate"/>
    </g>
    <g id="Group_9276" data-name="Group 9276" transform="translate(127.474 226.397)">
      <rect id="Rectangle_1926" data-name="Rectangle 1926" width="14.99" height="14.99" rx="5.728" transform="translate(0 5.764) rotate(-18.356)" opacity="0.5" style="mix-blend-mode: multiply;isolation: isolate"/>
      <rect id="Rectangle_1927" data-name="Rectangle 1927" width="14.99" height="14.99" rx="5.728" transform="translate(0 4.721) rotate(-18.356)" fill="#fb6020"/>
      <path id="Path_12278" data-name="Path 12278" d="M147.91,284.871l1.115,3.361a3.954,3.954,0,0,0,5,2.508l6.723-2.231a3.954,3.954,0,0,0,2.507-5l-1.115-3.361Z" transform="translate(-145.55 -273.036)" fill="#df3f16"/>
      <path id="Path_12279" data-name="Path 12279" d="M155.434,271.557l-6.723,2.23a3.954,3.954,0,0,0-2.507,5l.329.991a3.953,3.953,0,0,1,2.507-5l6.723-2.23a3.953,3.953,0,0,1,5,2.507l-.329-.991A3.954,3.954,0,0,0,155.434,271.557Z" transform="translate(-144.959 -270.312)" fill="#fff" style="mix-blend-mode: soft-light;isolation: isolate"/>
    </g>
  </g>
</svg>
